<svg width="1150" height="836" viewBox="0 0 1150 836" fill="none" xmlns="http://www.w3.org/2000/svg">
<rect width="1150" height="836" fill="url(#paint0_linear_2074_64263)"/>
<path d="M389.219 159.572C388.72 155.973 384.675 154.087 381.597 156.017L361.49 168.623C359.481 169.882 356.864 169.56 355.22 167.852L338.763 150.752C336.244 148.134 331.863 148.985 330.507 152.356L321.649 174.373C320.764 176.573 318.458 177.851 316.124 177.435L292.759 173.274C289.182 172.637 286.138 175.9 287.022 179.424L292.798 202.443C293.375 204.743 292.26 207.132 290.127 208.168L268.779 218.535C265.511 220.122 264.966 224.551 267.753 226.882L285.956 242.11C287.774 243.632 288.277 246.22 287.16 248.311L275.982 269.247C274.271 272.452 276.434 276.355 280.059 276.603L303.736 278.224C306.101 278.386 308.029 280.184 308.355 282.533L311.618 306.039C312.117 309.638 316.162 311.525 319.24 309.595L339.347 296.989C341.356 295.73 343.973 296.051 345.617 297.76L362.074 314.859C364.593 317.477 368.974 316.626 370.33 313.256L379.188 291.238C380.073 289.039 382.379 287.761 384.713 288.177L408.078 292.338C411.655 292.975 414.699 289.711 413.815 286.187L408.039 263.169C407.462 260.869 408.577 258.479 410.71 257.444L432.058 247.077C435.326 245.49 435.871 241.06 433.084 238.729L414.881 223.501C413.063 221.98 412.56 219.392 413.677 217.3L424.855 196.365C426.566 193.16 424.403 189.256 420.778 189.008L397.101 187.388C394.736 187.226 392.808 185.428 392.482 183.079L389.219 159.572Z" fill="url(#paint1_linear_2074_64263)"/>
<path d="M389.219 159.572C388.72 155.973 384.675 154.087 381.597 156.017L361.49 168.623C359.481 169.882 356.864 169.56 355.22 167.852L338.763 150.752C336.244 148.134 331.863 148.985 330.507 152.356L321.649 174.373C320.764 176.573 318.458 177.851 316.124 177.435L292.759 173.274C289.182 172.637 286.138 175.9 287.022 179.424L292.798 202.443C293.375 204.743 292.26 207.132 290.127 208.168L268.779 218.535C265.511 220.122 264.966 224.551 267.753 226.882L285.956 242.11C287.774 243.632 288.277 246.22 287.16 248.311L275.982 269.247C274.271 272.452 276.434 276.355 280.059 276.603L303.736 278.224C306.101 278.386 308.029 280.184 308.355 282.533L311.618 306.039C312.117 309.638 316.162 311.525 319.24 309.595L339.347 296.989C341.356 295.73 343.973 296.051 345.617 297.76L362.074 314.859C364.593 317.477 368.974 316.626 370.33 313.256L379.188 291.238C380.073 289.039 382.379 287.761 384.713 288.177L408.078 292.338C411.655 292.975 414.699 289.711 413.815 286.187L408.039 263.169C407.462 260.869 408.577 258.479 410.71 257.444L432.058 247.077C435.326 245.49 435.871 241.06 433.084 238.729L414.881 223.501C413.063 221.98 412.56 219.392 413.677 217.3L424.855 196.365C426.566 193.16 424.403 189.256 420.778 189.008L397.101 187.388C394.736 187.226 392.808 185.428 392.482 183.079L389.219 159.572Z" fill="url(#paint2_linear_2074_64263)"/>
<path d="M338.177 234.033C332.597 234.033 327.938 229.431 327.938 223.736C327.938 218.098 332.597 213.496 338.177 213.496C343.873 213.496 348.417 218.098 348.417 223.736C348.417 229.431 343.873 234.033 338.177 234.033ZM337.027 256.469H330.239L363.547 214.417H370.335L337.027 256.469ZM338.177 228.511C340.881 228.511 343.01 226.382 343.01 223.736C343.01 221.147 340.881 218.961 338.177 218.961C335.531 218.961 333.403 221.147 333.403 223.736C333.403 226.382 335.531 228.511 338.177 228.511ZM362.339 257.39C356.701 257.39 352.099 252.787 352.099 247.15C352.099 241.569 356.701 236.91 362.339 236.91C367.977 236.91 372.579 241.569 372.579 247.15C372.579 252.787 367.977 257.39 362.339 257.39ZM362.339 251.982C364.985 251.982 367.171 249.853 367.171 247.15C367.171 244.503 364.985 242.375 362.339 242.375C359.75 242.375 357.564 244.503 357.564 247.15C357.564 249.853 359.75 251.982 362.339 251.982Z" fill="white" fill-opacity="0.82"/>
<path d="M875.886 471.263C884.064 467.624 893.644 471.303 897.284 479.482L907.437 502.297C898.755 506.163 894.85 516.335 898.714 525.018C902.578 533.701 912.748 537.608 921.432 533.746L931.585 556.56C935.224 564.739 931.545 574.318 923.366 577.958L738.584 660.187C730.405 663.827 720.826 660.147 717.186 651.969L707.033 629.155C707.035 629.154 707.036 629.154 707.037 629.154C715.722 625.289 719.63 615.116 715.765 606.431C711.9 597.746 701.727 593.839 693.042 597.704C693.041 597.704 693.039 597.705 693.038 597.705L682.886 574.89C679.246 566.712 682.926 557.132 691.104 553.493L875.886 471.263Z" fill="url(#paint3_linear_2074_64263)"/>
<path d="M875.886 471.263C884.064 467.624 893.644 471.303 897.284 479.482L907.437 502.297C898.755 506.163 894.85 516.335 898.714 525.018C902.578 533.701 912.748 537.608 921.432 533.746L931.585 556.56C935.224 564.739 931.545 574.318 923.366 577.958L738.584 660.187C730.405 663.827 720.826 660.147 717.186 651.969L707.033 629.155C707.035 629.154 707.036 629.154 707.037 629.154C715.722 625.289 719.63 615.116 715.765 606.431C711.9 597.746 701.727 593.839 693.042 597.704C693.041 597.704 693.039 597.705 693.038 597.705L682.886 574.89C679.246 566.712 682.926 557.132 691.104 553.493L875.886 471.263Z" fill="url(#paint4_linear_2074_64263)"/>
<path d="M776.213 592.7L752.056 603.765L750.719 600.845L761.08 596.099L758.891 591.32C754.125 593.087 749.624 591.651 747.697 587.444C745.757 583.208 747.667 578.835 752.16 576.397C753.107 575.894 754.423 575.291 755.423 574.902C760.204 573.093 764.762 574.503 766.702 578.739C768.629 582.946 766.748 587.305 762.326 589.746L764.515 594.526L774.876 589.781L776.213 592.7ZM760.903 586.866C763.688 585.313 764.361 582.547 763.325 580.286C762.289 578.025 759.756 576.727 756.76 577.822C756.247 577.987 755.675 578.25 755.102 578.512C754.53 578.774 753.957 579.036 753.497 579.316C750.711 580.869 750.039 583.636 751.075 585.897C752.11 588.158 754.644 589.456 757.64 588.361C758.139 588.167 758.725 587.933 759.297 587.671C759.87 587.409 760.429 587.118 760.903 586.866Z" fill="white" fill-opacity="0.82"/>
<path d="M790.905 567.204L772.444 575.659L768.97 568.074L772.233 566.58L774.475 571.474L789.673 564.513L790.905 567.204ZM795.636 570.577L771.479 581.641L770.22 578.894L794.377 567.829L795.636 570.577ZM799.058 584.626L780.454 593.147L777.347 586.364L792.116 579.599L791.434 578.111L776.665 584.875L775.433 582.185L793.465 573.926L796.532 580.624L781.763 587.388L782.471 588.934L797.813 581.907L799.058 584.626Z" fill="white" fill-opacity="0.82"/>
<path d="M816.448 567.589L817.758 570.451C815.319 572.157 811.721 573.978 808.086 575.643L800.759 578.999L799.422 576.08L806.749 572.724C810.213 571.138 814.04 569.212 816.448 567.589ZM824.278 573.421L821.015 574.916L809.282 549.299L812.545 547.804L824.278 573.421ZM810.299 558.702C811.99 562.394 810.578 567.023 806.285 568.989C801.992 570.955 797.565 569.001 795.874 565.309C794.183 561.616 795.594 556.988 799.888 555.021C804.181 553.055 808.608 555.009 810.299 558.702ZM804.948 566.069C807.581 564.863 807.993 562.285 807.036 560.196C806.079 558.107 803.858 556.735 801.225 557.941C798.592 559.147 798.18 561.725 799.137 563.814C800.094 565.904 802.315 567.276 804.948 566.069Z" fill="white" fill-opacity="0.82"/>
<path d="M841.329 549.06L840.75 552.407C837.66 552.541 834.333 551.779 831.952 550.134C831.929 552.881 830.402 556.35 827.951 559.239L824.815 557.836C828.196 554.106 829.483 549.43 827.844 545.853L827.7 545.538L822.233 548.042L820.922 545.179L835.233 538.625L836.544 541.487L831.078 543.991L831.222 544.306C832.756 547.654 837.01 549.307 841.329 549.06ZM849.829 553.027L846.566 554.522L842.082 544.733L837.846 546.673L836.509 543.754L840.745 541.814L838.123 536.089L841.386 534.595L849.829 553.027ZM853.495 559.52L835.606 567.713L831.516 558.783L834.836 557.262L837.615 563.33L852.184 556.658L853.495 559.52Z" fill="white" fill-opacity="0.82"/>
<path d="M865.198 535.738L866.496 538.572C863.927 540.372 860.173 542.23 856.452 543.934L851.357 546.268L845.668 533.846L858.519 527.959L859.83 530.822L850.242 535.213L853.296 541.882L855.128 541.043C858.648 539.431 862.057 537.8 865.198 535.738ZM877.353 548.592L859.464 556.786L855.374 547.856L858.694 546.335L861.473 552.403L876.042 545.73L877.353 548.592ZM873.401 542.231L870.138 543.725L861.695 525.293L864.958 523.798L867.357 529.036L870.734 527.489L872.098 530.466L868.72 532.013L873.401 542.231Z" fill="white" fill-opacity="0.82"/>
<rect width="171.288" height="88.5988" rx="44.2994" transform="matrix(-0.986376 -0.164508 -0.164508 0.986376 790.578 617.302)" fill="url(#paint5_linear_2074_64263)"/>
<rect width="171.288" height="88.5988" rx="44.2994" transform="matrix(-0.986376 -0.164508 -0.164508 0.986376 790.578 617.302)" fill="url(#paint6_linear_2074_64263)"/>
<path d="M668.973 651.765C668.212 656.297 661.964 655.395 658.608 654.831C655.252 654.267 649.052 653.079 649.813 648.547C650.58 643.986 656.804 644.855 660.188 645.423C663.573 645.992 669.739 647.204 668.973 651.765ZM669.271 647.008L666.059 646.468L667.157 639.929L665.121 639.587L664.205 645.036L661.05 644.506L663.613 629.247L666.768 629.777L665.631 636.546L667.668 636.888L668.848 629.861L672.06 630.401L669.271 647.008ZM660.233 640.417C659.819 642.884 657.149 644.205 653.879 643.656C650.609 643.106 648.518 640.986 648.932 638.519C649.346 636.052 652.016 634.731 655.286 635.28C658.556 635.83 660.647 637.95 660.233 640.417ZM665.704 651.216C665.863 650.269 664.721 649.163 661.471 648.499C660.959 648.384 660.328 648.278 659.726 648.177C659.124 648.076 658.521 647.974 657.971 647.912C654.682 647.477 653.242 648.149 653.083 649.096C652.924 650.042 654.075 651.091 657.326 651.755C658.382 651.962 659.759 652.193 660.825 652.343C664.114 652.777 665.545 652.162 665.704 651.216ZM661.545 635.417L649.096 633.327L649.554 630.602L662.002 632.693L661.545 635.417ZM659.881 631.275L652.223 629.988L652.681 627.263L660.339 628.55L659.881 631.275ZM657.078 639.887C657.242 638.912 656.478 638.017 654.872 637.747C653.265 637.477 652.251 638.074 652.087 639.049C651.923 640.024 652.687 640.919 654.293 641.189C655.9 641.459 656.914 640.862 657.078 639.887Z" fill="white" fill-opacity="0.82"/>
<path d="M690.711 659.928L687.441 659.379L691.753 633.708L695.022 634.257L693.418 643.809L697.089 644.425L696.579 647.466L692.907 646.849L690.711 659.928ZM687.498 652.016L685.157 654.188C682.511 652.033 680.42 649.028 679.434 645.943C677.782 648.585 674.604 651 670.958 652.511L669.14 649.817C673.804 648.035 677.873 644.353 678.779 638.961L679.728 633.31L683.112 633.879L682.154 639.587C681.296 644.692 683.968 649.329 687.498 652.016Z" fill="white" fill-opacity="0.82"/>
<path d="M720.751 664.679L703.054 661.706L704.147 655.196L718.001 657.523L718.198 656.347L704.345 654.02L704.798 651.323L721.921 654.2L720.847 660.596L706.993 658.269L706.781 659.531L721.208 661.954L720.751 664.679ZM716.583 648.407C716.212 650.616 713.246 651.592 709.23 650.918C705.215 650.243 702.788 648.361 703.159 646.153C703.53 643.944 706.439 642.958 710.454 643.633C714.47 644.307 716.954 646.199 716.583 648.407ZM722.152 653.177L718.882 652.627L721.228 638.659L724.498 639.208L723.438 645.518L726.823 646.087L726.322 649.07L722.937 648.501L722.152 653.177ZM718.309 644.274L702.649 641.643L703.101 638.947L718.762 641.577L718.309 644.274ZM715.293 640.11L706.975 638.713L707.428 636.017L715.746 637.414L715.293 640.11ZM713.256 647.848C713.39 647.045 712.177 646.37 710.054 646.013C707.932 645.657 706.621 645.908 706.486 646.712C706.352 647.515 707.508 648.181 709.63 648.537C711.753 648.894 713.121 648.652 713.256 647.848Z" fill="white" fill-opacity="0.82"/>
<path d="M746.738 661.936L743.468 661.387L746.571 642.916L749.841 643.465L746.738 661.936ZM746.175 668.802L728.248 665.791L729.751 656.842L733.078 657.401L732.057 663.481L746.656 665.934L746.175 668.802ZM741.7 649.441C741.064 653.227 737.465 655.69 733.335 654.996C729.205 654.302 726.608 650.799 727.244 647.013C727.88 643.227 731.479 640.764 735.609 641.458C739.739 642.152 742.336 645.655 741.7 649.441ZM738.43 648.892C738.796 646.712 737.479 644.721 735.127 644.326C732.775 643.931 730.88 645.382 730.514 647.562C730.147 649.742 731.465 651.733 733.817 652.128C736.169 652.523 738.064 651.072 738.43 648.892Z" fill="white" fill-opacity="0.82"/>
<g opacity="0.54">
<rect width="56.2414" height="29.9442" transform="matrix(0.604277 0.796775 0.960452 -0.278447 776.254 111.506)" fill="white"/>
</g>
<g opacity="0.83">
<rect width="37.3578" height="19.8902" transform="matrix(0.869994 0.493062 0.772194 -0.635387 890.244 246.044)" fill="white"/>
</g>
<g opacity="0.83">
<rect width="35.0975" height="14.2955" transform="matrix(0.869994 0.493062 0.772194 -0.635387 1034.82 400.695)" fill="white"/>
</g>
<g opacity="0.83">
<rect width="35.6092" height="18.9592" transform="matrix(-0.883776 -0.467911 -0.753656 0.657269 931.747 582.596)" fill="white"/>
</g>
<g opacity="0.8">
<rect width="52.8701" height="28.1493" transform="matrix(-0.258819 0.965926 0.808922 0.587917 813.866 309.062)" fill="white"/>
</g>
<g opacity="0.54">
<rect width="48.0181" height="25.566" transform="matrix(-0.604277 0.796775 -0.960452 -0.278447 495.571 125.154)" fill="white"/>
</g>
<g opacity="0.86">
<rect width="42.626" height="22.6951" transform="matrix(-0.959652 0.281189 -0.60655 -0.795045 339.84 371.044)" fill="white"/>
</g>
<g opacity="0.54">
<rect width="42.626" height="22.6951" transform="matrix(-0.785582 0.618758 -0.859271 -0.511521 283.77 496.529)" fill="white"/>
</g>
<g opacity="0.4">
<rect width="42.626" height="22.6951" transform="matrix(-0.343226 0.939253 -0.999867 0.0163313 124.322 540.089)" fill="white"/>
</g>
<g opacity="0.54">
<rect width="28.0368" height="11.7974" transform="matrix(-0.807735 0.589546 -0.839943 -0.542675 119.556 379.699)" fill="white"/>
</g>
<g opacity="0.54">
<rect width="42.626" height="22.6951" transform="matrix(-0.714709 -0.699422 0.396689 -0.917953 194.465 289.787)" fill="white"/>
</g>
<defs>
<linearGradient id="paint0_linear_2074_64263" x1="575" y1="0" x2="575" y2="836" gradientUnits="userSpaceOnUse">
<stop stop-color="#F9FAFB"/>
<stop offset="1" stop-color="#C1F9E3"/>
</linearGradient>
<linearGradient id="paint1_linear_2074_64263" x1="460.14" y1="220.678" x2="284.68" y2="864.903" gradientUnits="userSpaceOnUse">
<stop stop-color="#36D69D"/>
<stop offset="0.485228" stop-color="#B7FFE6"/>
<stop offset="1" stop-color="#36D69D"/>
</linearGradient>
<linearGradient id="paint2_linear_2074_64263" x1="286.948" y1="312.999" x2="581.159" y2="263.207" gradientUnits="userSpaceOnUse">
<stop stop-color="#36D69D"/>
<stop offset="0.553988" stop-color="#B7FFE6"/>
<stop offset="1" stop-color="white"/>
</linearGradient>
<linearGradient id="paint3_linear_2074_64263" x1="678.726" y1="581.837" x2="823.143" y2="999.101" gradientUnits="userSpaceOnUse">
<stop stop-color="#36D69D"/>
<stop offset="0.485228" stop-color="#B7FFE6"/>
<stop offset="1" stop-color="#36D69D"/>
</linearGradient>
<linearGradient id="paint4_linear_2074_64263" x1="868.707" y1="951.357" x2="610.96" y2="605.911" gradientUnits="userSpaceOnUse">
<stop stop-color="white"/>
<stop offset="0.446012" stop-color="#B7FFE6"/>
<stop offset="1" stop-color="#36D69D"/>
</linearGradient>
<linearGradient id="paint5_linear_2074_64263" x1="-4.83527" y1="15.8279" x2="-34.5497" y2="349.398" gradientUnits="userSpaceOnUse">
<stop stop-color="#36D69D"/>
<stop offset="0.485228" stop-color="#B7FFE6"/>
<stop offset="1" stop-color="#36D69D"/>
</linearGradient>
<linearGradient id="paint6_linear_2074_64263" x1="-58.908" y1="408.731" x2="-152.9" y2="64.8149" gradientUnits="userSpaceOnUse">
<stop stop-color="white"/>
<stop offset="0.667154" stop-color="#B7FFE6"/>
<stop offset="1" stop-color="#36D69D"/>
</linearGradient>
</defs>
</svg>
