<svg width="142" height="142" viewBox="0 0 142 142" fill="none" xmlns="http://www.w3.org/2000/svg">
<g filter="url(#filter0_d_4420_53821)">
<mask id="path-1-inside-1_4420_53821" fill="white">
<path d="M71 30C93.6437 30 112 48.3563 112 71C112 93.6437 93.6437 112 71 112C48.3563 112 30 93.6437 30 71C30 48.3563 48.3563 30 71 30Z"/>
</mask>
<path d="M71 30C93.6437 30 112 48.3563 112 71C112 93.6437 93.6437 112 71 112C48.3563 112 30 93.6437 30 71C30 48.3563 48.3563 30 71 30Z" fill="white"/>
<path d="M71 30V31.5C92.8152 31.5 110.5 49.1848 110.5 71H112H113.5C113.5 47.5279 94.4721 28.5 71 28.5V30ZM112 71H110.5C110.5 92.8152 92.8152 110.5 71 110.5V112V113.5C94.4721 113.5 113.5 94.4721 113.5 71H112ZM71 112V110.5C49.1848 110.5 31.5 92.8152 31.5 71H30H28.5C28.5 94.4721 47.5279 113.5 71 113.5V112ZM30 71H31.5C31.5 49.1848 49.1848 31.5 71 31.5V30V28.5C47.5279 28.5 28.5 47.5279 28.5 71H30Z" fill="#E5E8EB" mask="url(#path-1-inside-1_4420_53821)"/>
<circle cx="71" cy="71" r="33" fill="#00C66F"/>
</g>
<path d="M82.6774 51.1709C82.9682 50.8182 83.5263 50.8828 83.729 51.2924L85.1091 54.0827C85.2569 54.3816 85.5939 54.5358 85.9167 54.4523L88.9304 53.6732C89.3729 53.5589 89.7856 53.9389 89.7088 54.3894L89.1859 57.458C89.1298 57.7866 89.3113 58.1096 89.6214 58.2319L92.5173 59.3729C92.9426 59.5404 93.0537 60.0913 92.7267 60.4106L90.4993 62.5852C90.2611 62.818 90.2186 63.186 90.3973 63.467L92.0698 66.0925C92.3154 66.478 92.0815 66.989 91.6292 67.0551L88.5493 67.5051C88.2195 67.5534 87.9691 67.8265 87.9487 68.1592L87.7576 71.2662C87.7295 71.7223 87.241 71.9981 86.8363 71.7859L84.0799 70.3396C83.7847 70.1847 83.4213 70.258 83.2093 70.5152L81.2289 72.9169C80.9381 73.2695 80.3799 73.2051 80.1773 72.7954L78.7982 70.0052C78.6504 69.7064 78.3133 69.5523 77.9906 69.6356L74.9769 70.4147C74.5344 70.5292 74.1208 70.1489 74.1975 69.6984L74.7214 66.6299C74.7775 66.3012 74.5951 65.9781 74.2849 65.8559L71.389 64.715C70.9637 64.5474 70.8526 63.9965 71.1796 63.6772L73.407 61.5026C73.6454 61.2697 73.6879 60.9019 73.509 60.6208L71.8365 57.9953C71.591 57.6098 71.8249 57.0988 72.2772 57.0327L75.357 56.5827C75.6869 56.5345 75.9382 56.2615 75.9586 55.9287L76.1487 52.8216C76.1767 52.3654 76.6662 52.0896 77.0709 52.302L79.8274 53.7483C80.1226 53.903 80.486 53.8299 80.698 53.5727L82.6774 51.1709Z" fill="url(#paint0_linear_4420_53821)"/>
<path d="M82.6774 51.1709C82.9682 50.8182 83.5263 50.8828 83.729 51.2924L85.1091 54.0827C85.2569 54.3816 85.5939 54.5358 85.9167 54.4523L88.9304 53.6732C89.3729 53.5589 89.7856 53.9389 89.7088 54.3894L89.1859 57.458C89.1298 57.7866 89.3113 58.1096 89.6214 58.2319L92.5173 59.3729C92.9426 59.5404 93.0537 60.0913 92.7267 60.4106L90.4993 62.5852C90.2611 62.818 90.2186 63.186 90.3973 63.467L92.0698 66.0925C92.3154 66.478 92.0815 66.989 91.6292 67.0551L88.5493 67.5051C88.2195 67.5534 87.9691 67.8265 87.9487 68.1592L87.7576 71.2662C87.7295 71.7223 87.241 71.9981 86.8363 71.7859L84.0799 70.3396C83.7847 70.1847 83.4213 70.258 83.2093 70.5152L81.2289 72.9169C80.9381 73.2695 80.3799 73.2051 80.1773 72.7954L78.7982 70.0052C78.6504 69.7064 78.3133 69.5523 77.9906 69.6356L74.9769 70.4147C74.5344 70.5292 74.1208 70.1489 74.1975 69.6984L74.7214 66.6299C74.7775 66.3012 74.5951 65.9781 74.2849 65.8559L71.389 64.715C70.9637 64.5474 70.8526 63.9965 71.1796 63.6772L73.407 61.5026C73.6454 61.2697 73.6879 60.9019 73.509 60.6208L71.8365 57.9953C71.591 57.6098 71.8249 57.0988 72.2772 57.0327L75.357 56.5827C75.6869 56.5345 75.9382 56.2615 75.9586 55.9287L76.1487 52.8216C76.1767 52.3654 76.6662 52.0896 77.0709 52.302L79.8274 53.7483C80.1226 53.903 80.486 53.8299 80.698 53.5727L82.6774 51.1709Z" fill="url(#paint1_linear_4420_53821)" fill-opacity="0.2"/>
<path d="M82.6774 51.1709C82.9682 50.8182 83.5263 50.8828 83.729 51.2924L85.1091 54.0827C85.2569 54.3816 85.5939 54.5358 85.9167 54.4523L88.9304 53.6732C89.3729 53.5589 89.7856 53.9389 89.7088 54.3894L89.1859 57.458C89.1298 57.7866 89.3113 58.1096 89.6214 58.2319L92.5173 59.3729C92.9426 59.5404 93.0537 60.0913 92.7267 60.4106L90.4993 62.5852C90.2611 62.818 90.2186 63.186 90.3973 63.467L92.0698 66.0925C92.3154 66.478 92.0815 66.989 91.6292 67.0551L88.5493 67.5051C88.2195 67.5534 87.9691 67.8265 87.9487 68.1592L87.7576 71.2662C87.7295 71.7223 87.241 71.9981 86.8363 71.7859L84.0799 70.3396C83.7847 70.1847 83.4213 70.258 83.2093 70.5152L81.2289 72.9169C80.9381 73.2695 80.3799 73.2051 80.1773 72.7954L78.7982 70.0052C78.6504 69.7064 78.3133 69.5523 77.9906 69.6356L74.9769 70.4147C74.5344 70.5292 74.1208 70.1489 74.1975 69.6984L74.7214 66.6299C74.7775 66.3012 74.5951 65.9781 74.2849 65.8559L71.389 64.715C70.9637 64.5474 70.8526 63.9965 71.1796 63.6772L73.407 61.5026C73.6454 61.2697 73.6879 60.9019 73.509 60.6208L71.8365 57.9953C71.591 57.6098 71.8249 57.0988 72.2772 57.0327L75.357 56.5827C75.6869 56.5345 75.9382 56.2615 75.9586 55.9287L76.1487 52.8216C76.1767 52.3654 76.6662 52.0896 77.0709 52.302L79.8274 53.7483C80.1226 53.903 80.486 53.8299 80.698 53.5727L82.6774 51.1709Z" fill="url(#paint2_linear_4420_53821)"/>
<path d="M82.6774 51.1709C82.9682 50.8182 83.5263 50.8828 83.729 51.2924L85.1091 54.0827C85.2569 54.3816 85.5939 54.5358 85.9167 54.4523L88.9304 53.6732C89.3729 53.5589 89.7856 53.9389 89.7088 54.3894L89.1859 57.458C89.1298 57.7866 89.3113 58.1096 89.6214 58.2319L92.5173 59.3729C92.9426 59.5404 93.0537 60.0913 92.7267 60.4106L90.4993 62.5852C90.2611 62.818 90.2186 63.186 90.3973 63.467L92.0698 66.0925C92.3154 66.478 92.0815 66.989 91.6292 67.0551L88.5493 67.5051C88.2195 67.5534 87.9691 67.8265 87.9487 68.1592L87.7576 71.2662C87.7295 71.7223 87.241 71.9981 86.8363 71.7859L84.0799 70.3396C83.7847 70.1847 83.4213 70.258 83.2093 70.5152L81.2289 72.9169C80.9381 73.2695 80.3799 73.2051 80.1773 72.7954L78.7982 70.0052C78.6504 69.7064 78.3133 69.5523 77.9906 69.6356L74.9769 70.4147C74.5344 70.5292 74.1208 70.1489 74.1975 69.6984L74.7214 66.6299C74.7775 66.3012 74.5951 65.9781 74.2849 65.8559L71.389 64.715C70.9637 64.5474 70.8526 63.9965 71.1796 63.6772L73.407 61.5026C73.6454 61.2697 73.6879 60.9019 73.509 60.6208L71.8365 57.9953C71.591 57.6098 71.8249 57.0988 72.2772 57.0327L75.357 56.5827C75.6869 56.5345 75.9382 56.2615 75.9586 55.9287L76.1487 52.8216C76.1767 52.3654 76.6662 52.0896 77.0709 52.302L79.8274 53.7483C80.1226 53.903 80.486 53.8299 80.698 53.5727L82.6774 51.1709Z" stroke="#E5E8EB" stroke-width="0.0741436"/>
<path d="M56.5618 72.6815C56.7592 72.4914 57.0805 72.5286 57.2293 72.7586L58.9193 75.3763C58.9969 75.4963 59.123 75.5766 59.2646 75.5951L62.3529 75.9994C62.6248 76.035 62.797 76.3096 62.7097 76.5695L61.7166 79.5219C61.671 79.6574 61.687 79.8066 61.7609 79.9291L63.3706 82.5955C63.5124 82.8303 63.4046 83.1365 63.1468 83.2302L60.2191 84.2946C60.0848 84.3435 59.9787 84.4494 59.9291 84.5835L58.8483 87.5041C58.753 87.7613 58.4463 87.8676 58.2123 87.7245L55.5551 86.0999C55.4332 86.0254 55.2844 86.0083 55.1486 86.0529L52.1899 87.0282C51.9294 87.1141 51.656 86.9407 51.622 86.6686L51.2351 83.5783C51.2173 83.4364 51.1383 83.3091 51.0187 83.2308L48.411 81.5265C48.1815 81.3764 48.1464 81.0537 48.338 80.8574L50.5136 78.6287C50.6135 78.5263 50.6631 78.3847 50.6497 78.2423L50.3564 75.1413C50.3308 74.8683 50.5611 74.6402 50.8339 74.6676L53.933 74.9787C54.0753 74.993 54.2171 74.9438 54.3201 74.8445L56.5618 72.6815Z" fill="url(#paint3_linear_4420_53821)"/>
<path d="M56.5618 72.6815C56.7592 72.4914 57.0805 72.5286 57.2293 72.7586L58.9193 75.3763C58.9969 75.4963 59.123 75.5766 59.2646 75.5951L62.3529 75.9994C62.6248 76.035 62.797 76.3096 62.7097 76.5695L61.7166 79.5219C61.671 79.6574 61.687 79.8066 61.7609 79.9291L63.3706 82.5955C63.5124 82.8303 63.4046 83.1365 63.1468 83.2302L60.2191 84.2946C60.0848 84.3435 59.9787 84.4494 59.9291 84.5835L58.8483 87.5041C58.753 87.7613 58.4463 87.8676 58.2123 87.7245L55.5551 86.0999C55.4332 86.0254 55.2844 86.0083 55.1486 86.0529L52.1899 87.0282C51.9294 87.1141 51.656 86.9407 51.622 86.6686L51.2351 83.5783C51.2173 83.4364 51.1383 83.3091 51.0187 83.2308L48.411 81.5265C48.1815 81.3764 48.1464 81.0537 48.338 80.8574L50.5136 78.6287C50.6135 78.5263 50.6631 78.3847 50.6497 78.2423L50.3564 75.1413C50.3308 74.8683 50.5611 74.6402 50.8339 74.6676L53.933 74.9787C54.0753 74.993 54.2171 74.9438 54.3201 74.8445L56.5618 72.6815Z" fill="url(#paint4_linear_4420_53821)" fill-opacity="0.2"/>
<path d="M56.5618 72.6815C56.7592 72.4914 57.0805 72.5286 57.2293 72.7586L58.9193 75.3763C58.9969 75.4963 59.123 75.5766 59.2646 75.5951L62.3529 75.9994C62.6248 76.035 62.797 76.3096 62.7097 76.5695L61.7166 79.5219C61.671 79.6574 61.687 79.8066 61.7609 79.9291L63.3706 82.5955C63.5124 82.8303 63.4046 83.1365 63.1468 83.2302L60.2191 84.2946C60.0848 84.3435 59.9787 84.4494 59.9291 84.5835L58.8483 87.5041C58.753 87.7613 58.4463 87.8676 58.2123 87.7245L55.5551 86.0999C55.4332 86.0254 55.2844 86.0083 55.1486 86.0529L52.1899 87.0282C51.9294 87.1141 51.656 86.9407 51.622 86.6686L51.2351 83.5783C51.2173 83.4364 51.1383 83.3091 51.0187 83.2308L48.411 81.5265C48.1815 81.3764 48.1464 81.0537 48.338 80.8574L50.5136 78.6287C50.6135 78.5263 50.6631 78.3847 50.6497 78.2423L50.3564 75.1413C50.3308 74.8683 50.5611 74.6402 50.8339 74.6676L53.933 74.9787C54.0753 74.993 54.2171 74.9438 54.3201 74.8445L56.5618 72.6815Z" fill="url(#paint5_linear_4420_53821)"/>
<path d="M56.5618 72.6815C56.7592 72.4914 57.0805 72.5286 57.2293 72.7586L58.9193 75.3763C58.9969 75.4963 59.123 75.5766 59.2646 75.5951L62.3529 75.9994C62.6248 76.035 62.797 76.3096 62.7097 76.5695L61.7166 79.5219C61.671 79.6574 61.687 79.8066 61.7609 79.9291L63.3706 82.5955C63.5124 82.8303 63.4046 83.1365 63.1468 83.2302L60.2191 84.2946C60.0848 84.3435 59.9787 84.4494 59.9291 84.5835L58.8483 87.5041C58.753 87.7613 58.4463 87.8676 58.2123 87.7245L55.5551 86.0999C55.4332 86.0254 55.2844 86.0083 55.1486 86.0529L52.1899 87.0282C51.9294 87.1141 51.656 86.9407 51.622 86.6686L51.2351 83.5783C51.2173 83.4364 51.1383 83.3091 51.0187 83.2308L48.411 81.5265C48.1815 81.3764 48.1464 81.0537 48.338 80.8574L50.5136 78.6287C50.6135 78.5263 50.6631 78.3847 50.6497 78.2423L50.3564 75.1413C50.3308 74.8683 50.5611 74.6402 50.8339 74.6676L53.933 74.9787C54.0753 74.993 54.2171 74.9438 54.3201 74.8445L56.5618 72.6815Z" stroke="#E5E8EB" stroke-width="0.051239"/>
<path d="M84.8302 69.2846C85.984 69.7414 86.5491 71.0471 86.0925 72.201L84.8392 75.3673L84.8365 75.3662C83.6238 74.8862 82.252 75.4801 81.7719 76.6927C81.2918 77.9055 81.8853 79.2782 83.098 79.7583L83.1011 79.7584L81.8489 82.922C81.3921 84.0758 80.0864 84.641 78.9326 84.1843L53.1722 73.9875C52.0184 73.5307 51.4533 72.2249 51.9099 71.0711L53.1624 67.9066C54.3748 68.3856 55.7459 67.7929 56.2258 66.5807C56.7057 65.3684 56.1124 63.996 54.9006 63.5154L56.1535 60.3501C56.6103 59.1963 57.916 58.6311 59.0698 59.0878L84.8302 69.2846Z" fill="#D9D9D9"/>
<path d="M84.8302 69.2846C85.984 69.7414 86.5491 71.0471 86.0925 72.201L84.8392 75.3673L84.8365 75.3662C83.6238 74.8862 82.252 75.4801 81.7719 76.6927C81.2918 77.9055 81.8853 79.2782 83.098 79.7583L83.1011 79.7584L81.8489 82.922C81.3921 84.0758 80.0864 84.641 78.9326 84.1843L53.1722 73.9875C52.0184 73.5307 51.4533 72.2249 51.9099 71.0711L53.1624 67.9066C54.3748 68.3856 55.7459 67.7929 56.2258 66.5807C56.7057 65.3684 56.1124 63.996 54.9006 63.5154L56.1535 60.3501C56.6103 59.1963 57.916 58.6311 59.0698 59.0878L84.8302 69.2846Z" fill="url(#paint6_linear_4420_53821)"/>
<path d="M84.8302 69.2846C85.984 69.7414 86.5491 71.0471 86.0925 72.201L84.8392 75.3673L84.8365 75.3662C83.6238 74.8862 82.252 75.4801 81.7719 76.6927C81.2918 77.9055 81.8853 79.2782 83.098 79.7583L83.1011 79.7584L81.8489 82.922C81.3921 84.0758 80.0864 84.641 78.9326 84.1843L53.1722 73.9875C52.0184 73.5307 51.4533 72.2249 51.9099 71.0711L53.1624 67.9066C54.3748 68.3856 55.7459 67.7929 56.2258 66.5807C56.7057 65.3684 56.1124 63.996 54.9006 63.5154L56.1535 60.3501C56.6103 59.1963 57.916 58.6311 59.0698 59.0878L84.8302 69.2846Z" fill="url(#paint7_linear_4420_53821)"/>
<rect x="0.0806458" y="0.0551555" width="21.9035" height="11.2631" rx="5.63153" transform="matrix(0.982835 -0.184485 0.184478 0.982837 67.4443 81.8103)" fill="#D9D9D9"/>
<rect x="0.0806458" y="0.0551555" width="21.9035" height="11.2631" rx="5.63153" transform="matrix(0.982835 -0.184485 0.184478 0.982837 67.4443 81.8103)" fill="url(#paint8_linear_4420_53821)"/>
<rect x="0.0806458" y="0.0551555" width="21.9035" height="11.2631" rx="5.63153" transform="matrix(0.982835 -0.184485 0.184478 0.982837 67.4443 81.8103)" fill="url(#paint9_linear_4420_53821)"/>
<rect x="0.0806458" y="0.0551555" width="21.9035" height="11.2631" rx="5.63153" transform="matrix(0.982835 -0.184485 0.184478 0.982837 67.4443 81.8103)" stroke="#E5E8EB" stroke-width="0.138173"/>
<mask id="path-8-outside-2_4420_53821" maskUnits="userSpaceOnUse" x="61.4325" y="65.5938" width="12.9938" height="12.9939" fill="black">
<rect fill="white" x="61.4325" y="65.5938" width="12.9938" height="12.9939"/>
<path d="M63.0173 74.5067L71.5837 68.8465L72.9465 69.3902L64.3801 75.0505L63.0173 74.5067ZM65.3707 71.1736C65.0444 71.0434 64.7717 70.853 64.5528 70.6025C64.3427 70.3481 64.2114 70.0546 64.1586 69.7221C64.1059 69.3895 64.1523 69.0409 64.2978 68.6762L64.5888 67.9468C64.7318 67.5885 64.9368 67.3069 65.204 67.102C65.4712 66.8971 65.7672 66.7779 66.0921 66.7443C66.426 66.7069 66.756 66.7533 67.0823 66.8835C67.4087 67.0137 67.6768 67.206 67.8868 67.4604C68.1058 67.7109 68.2416 68.0025 68.2944 68.335C68.3471 68.6676 68.302 69.013 68.159 69.3713L67.868 70.1007C67.7225 70.4654 67.5162 70.7502 67.249 70.9551C66.9818 71.1601 66.6813 71.2812 66.3475 71.3186C66.0226 71.3521 65.697 71.3038 65.3707 71.1736ZM65.7727 70.1659C65.9839 70.2501 66.1873 70.2423 66.3829 70.1423C66.5785 70.0424 66.7287 69.8612 66.8333 69.5989L67.0593 69.0326C67.1639 68.7703 67.1797 68.5356 67.1066 68.3284C67.0335 68.1212 66.8914 67.9755 66.6803 67.8913C66.4691 67.807 66.2657 67.8149 66.0701 67.9148C65.8809 68.0173 65.7339 68.1997 65.6293 68.4621L65.4033 69.0283C65.2987 69.2906 65.2797 69.5241 65.3464 69.7287C65.4195 69.9359 65.5616 70.0816 65.7727 70.1659ZM68.843 76.9981C68.5167 76.8679 68.2454 76.6743 68.0289 76.4174C67.8164 76.1694 67.6837 75.8791 67.631 75.5466C67.5783 75.214 67.6246 74.8654 67.7702 74.5007L68.0612 73.7713C68.2041 73.413 68.4092 73.1314 68.6764 72.9265C68.9436 72.7216 69.2396 72.6023 69.5645 72.5688C69.8983 72.5314 70.2284 72.5778 70.5547 72.708C70.881 72.8382 71.1492 73.0305 71.3592 73.2849C71.5782 73.5354 71.714 73.827 71.7667 74.1595C71.8195 74.4921 71.7744 74.8375 71.6314 75.1958L71.3404 75.9252C71.1949 76.2899 70.9885 76.5747 70.7214 76.7796C70.4542 76.9845 70.1549 77.1025 69.8237 77.1335C69.4962 77.1734 69.1693 77.1283 68.843 76.9981ZM69.2451 75.9904C69.4562 76.0746 69.6596 76.0668 69.8553 75.9668C70.0509 75.8669 70.201 75.6857 70.3057 75.4234L70.5316 74.8571C70.6363 74.5948 70.6521 74.3601 70.579 74.1529C70.5059 73.9457 70.3638 73.8 70.1526 73.7158C69.9415 73.6315 69.7381 73.6394 69.5425 73.7393C69.3532 73.8418 69.2063 74.0242 69.1016 74.2866L68.8757 74.8528C68.771 75.1151 68.752 75.3486 68.8187 75.5532C68.8918 75.7604 69.034 75.9061 69.2451 75.9904Z"/>
</mask>
<path d="M63.0173 74.5067L71.5837 68.8465L72.9465 69.3902L64.3801 75.0505L63.0173 74.5067ZM65.3707 71.1736C65.0444 71.0434 64.7717 70.853 64.5528 70.6025C64.3427 70.3481 64.2114 70.0546 64.1586 69.7221C64.1059 69.3895 64.1523 69.0409 64.2978 68.6762L64.5888 67.9468C64.7318 67.5885 64.9368 67.3069 65.204 67.102C65.4712 66.8971 65.7672 66.7779 66.0921 66.7443C66.426 66.7069 66.756 66.7533 67.0823 66.8835C67.4087 67.0137 67.6768 67.206 67.8868 67.4604C68.1058 67.7109 68.2416 68.0025 68.2944 68.335C68.3471 68.6676 68.302 69.013 68.159 69.3713L67.868 70.1007C67.7225 70.4654 67.5162 70.7502 67.249 70.9551C66.9818 71.1601 66.6813 71.2812 66.3475 71.3186C66.0226 71.3521 65.697 71.3038 65.3707 71.1736ZM65.7727 70.1659C65.9839 70.2501 66.1873 70.2423 66.3829 70.1423C66.5785 70.0424 66.7287 69.8612 66.8333 69.5989L67.0593 69.0326C67.1639 68.7703 67.1797 68.5356 67.1066 68.3284C67.0335 68.1212 66.8914 67.9755 66.6803 67.8913C66.4691 67.807 66.2657 67.8149 66.0701 67.9148C65.8809 68.0173 65.7339 68.1997 65.6293 68.4621L65.4033 69.0283C65.2987 69.2906 65.2797 69.5241 65.3464 69.7287C65.4195 69.9359 65.5616 70.0816 65.7727 70.1659ZM68.843 76.9981C68.5167 76.8679 68.2454 76.6743 68.0289 76.4174C67.8164 76.1694 67.6837 75.8791 67.631 75.5466C67.5783 75.214 67.6246 74.8654 67.7702 74.5007L68.0612 73.7713C68.2041 73.413 68.4092 73.1314 68.6764 72.9265C68.9436 72.7216 69.2396 72.6023 69.5645 72.5688C69.8983 72.5314 70.2284 72.5778 70.5547 72.708C70.881 72.8382 71.1492 73.0305 71.3592 73.2849C71.5782 73.5354 71.714 73.827 71.7667 74.1595C71.8195 74.4921 71.7744 74.8375 71.6314 75.1958L71.3404 75.9252C71.1949 76.2899 70.9885 76.5747 70.7214 76.7796C70.4542 76.9845 70.1549 77.1025 69.8237 77.1335C69.4962 77.1734 69.1693 77.1283 68.843 76.9981ZM69.2451 75.9904C69.4562 76.0746 69.6596 76.0668 69.8553 75.9668C70.0509 75.8669 70.201 75.6857 70.3057 75.4234L70.5316 74.8571C70.6363 74.5948 70.6521 74.3601 70.579 74.1529C70.5059 73.9457 70.3638 73.8 70.1526 73.7158C69.9415 73.6315 69.7381 73.6394 69.5425 73.7393C69.3532 73.8418 69.2063 74.0242 69.1016 74.2866L68.8757 74.8528C68.771 75.1151 68.752 75.3486 68.8187 75.5532C68.8918 75.7604 69.034 75.9061 69.2451 75.9904Z" fill="#19D88C"/>
<path d="M63.0173 74.5067L62.8274 74.2193L62.2778 74.5825L62.8896 74.8266L63.0173 74.5067ZM71.5837 68.8465L71.7113 68.5265L71.544 68.4598L71.3938 68.5591L71.5837 68.8465ZM72.9465 69.3902L73.1364 69.6776L73.686 69.3144L73.0741 69.0703L72.9465 69.3902ZM64.3801 75.0505L64.2525 75.3704L64.4197 75.4371L64.57 75.3379L64.3801 75.0505ZM64.5528 70.6025L64.287 70.8219L64.2934 70.8291L64.5528 70.6025ZM64.1586 69.7221L64.4988 69.6681L64.4988 69.6681L64.1586 69.7221ZM65.204 67.102L65.4136 67.3753V67.3753L65.204 67.102ZM66.0921 66.7443L66.1275 67.0869L66.1305 67.0866L66.0921 66.7443ZM67.8868 67.4604L67.6211 67.6798L67.6275 67.6871L67.8868 67.4604ZM68.2944 68.335L68.6346 68.2811V68.2811L68.2944 68.335ZM67.249 70.9551L67.4586 71.2285V71.2285L67.249 70.9551ZM66.3475 71.3186L66.3828 71.6612L66.3858 71.6609L66.3475 71.3186ZM66.3829 70.1423L66.2262 69.8356L66.2262 69.8356L66.3829 70.1423ZM66.0701 67.9148L65.9134 67.608L65.9061 67.612L66.0701 67.9148ZM65.3464 69.7287L65.0188 69.8355L65.0216 69.8433L65.3464 69.7287ZM68.0289 76.4174L68.2924 76.1955L68.2905 76.1932L68.0289 76.4174ZM67.631 75.5466L67.9712 75.4926V75.4926L67.631 75.5466ZM68.6764 72.9265L68.4668 72.6532V72.6532L68.6764 72.9265ZM69.5645 72.5688L69.5999 72.9114L69.6028 72.9111L69.5645 72.5688ZM71.3592 73.2849L71.0935 73.5043L71.0998 73.5116L71.3592 73.2849ZM71.7667 74.1595L72.1069 74.1056L72.1069 74.1056L71.7667 74.1595ZM70.7214 76.7796L70.931 77.053L70.931 77.053L70.7214 76.7796ZM69.8237 77.1335L69.7916 76.7904L69.782 76.7916L69.8237 77.1335ZM69.8553 75.9668L70.012 76.2735L70.012 76.2735L69.8553 75.9668ZM70.579 74.1529L70.9038 74.0383L70.9038 74.0383L70.579 74.1529ZM69.5425 73.7393L69.3857 73.4325L69.3784 73.4364L69.5425 73.7393ZM68.8187 75.5532L68.4912 75.66L68.4939 75.6678L68.8187 75.5532ZM63.0173 74.5067L63.2071 74.7941L71.7736 69.1338L71.5837 68.8465L71.3938 68.5591L62.8274 74.2193L63.0173 74.5067ZM71.5837 68.8465L71.456 69.1664L72.8189 69.7101L72.9465 69.3902L73.0741 69.0703L71.7113 68.5265L71.5837 68.8465ZM72.9465 69.3902L72.7566 69.1029L64.1902 74.7631L64.3801 75.0505L64.57 75.3379L73.1364 69.6776L72.9465 69.3902ZM64.3801 75.0505L64.5077 74.7306L63.1449 74.1868L63.0173 74.5067L62.8896 74.8266L64.2525 75.3704L64.3801 75.0505ZM65.3707 71.1736L65.4983 70.8537C65.2197 70.7425 64.9932 70.583 64.8121 70.3758L64.5528 70.6025L64.2934 70.8291C64.5503 71.1231 64.869 71.3443 65.243 71.4935L65.3707 71.1736ZM64.5528 70.6025L64.8184 70.3832C64.6484 70.1773 64.5421 69.9412 64.4988 69.6681L64.1586 69.7221L63.8184 69.776C63.8806 70.168 64.0371 70.5189 64.2871 70.8218L64.5528 70.6025ZM64.1586 69.7221L64.4988 69.6681C64.4573 69.4064 64.4913 69.1206 64.6177 68.8038L64.2978 68.6762L63.9779 68.5486C63.8133 68.9612 63.7545 69.3727 63.8184 69.776L64.1586 69.7221ZM64.2978 68.6762L64.6177 68.8038L64.9087 68.0744L64.5888 67.9468L64.2689 67.8191L63.9779 68.5486L64.2978 68.6762ZM64.5888 67.9468L64.9087 68.0744C65.0321 67.7652 65.2025 67.5372 65.4136 67.3753L65.204 67.102L64.9944 66.8287C64.6712 67.0765 64.4314 67.4118 64.2689 67.8191L64.5888 67.9468ZM65.204 67.102L65.4136 67.3753C65.6319 67.2079 65.868 67.1137 66.1275 67.0869L66.0921 66.7443L66.0567 66.4017C65.6665 66.442 65.3105 66.5862 64.9944 66.8287L65.204 67.102ZM66.0921 66.7443L66.1305 67.0866C66.4054 67.0558 66.6785 67.0933 66.9547 67.2034L67.0823 66.8835L67.21 66.5636C66.8335 66.4134 66.4466 66.358 66.0538 66.402L66.0921 66.7443ZM67.0823 66.8835L66.9547 67.2034C67.2309 67.3137 67.4504 67.4728 67.6212 67.6797L67.8868 67.4604L68.1524 67.2411C67.9032 66.9392 67.5864 66.7138 67.21 66.5636L67.0823 66.8835ZM67.8868 67.4604L67.6275 67.6871C67.8032 67.8882 67.9115 68.1197 67.9542 68.389L68.2944 68.335L68.6346 68.2811C68.5718 67.8853 68.4083 67.5337 68.1462 67.2337L67.8868 67.4604ZM68.2944 68.335L67.9542 68.389C67.9959 68.6518 67.9625 68.9344 67.8391 69.2437L68.159 69.3713L68.479 69.499C68.6415 69.0916 68.6984 68.6834 68.6346 68.2811L68.2944 68.335ZM68.159 69.3713L67.8391 69.2437L67.5481 69.9731L67.868 70.1007L68.1879 70.2284L68.479 69.499L68.159 69.3713ZM67.868 70.1007L67.5481 69.9731C67.4217 70.2899 67.2497 70.5205 67.0394 70.6818L67.249 70.9551L67.4586 71.2285C67.7827 70.9799 68.0233 70.641 68.1879 70.2284L67.868 70.1007ZM67.249 70.9551L67.0394 70.6818C66.8218 70.8487 66.5805 70.9459 66.3091 70.9763L66.3475 71.3186L66.3858 71.6609C66.7821 71.6165 67.1418 71.4714 67.4586 71.2285L67.249 70.9551ZM66.3475 71.3186L66.3121 70.976C66.0467 71.0034 65.7769 70.9648 65.4983 70.8537L65.3707 71.1736L65.243 71.4935C65.617 71.6427 65.9984 71.7009 66.3828 71.6612L66.3475 71.3186ZM65.7727 70.1659L65.6451 70.4858C65.9448 70.6054 66.2521 70.5959 66.5396 70.449L66.3829 70.1423L66.2262 69.8356C66.1225 69.8886 66.0229 69.8948 65.9004 69.8459L65.7727 70.1659ZM66.3829 70.1423L66.5396 70.449C66.8287 70.3013 67.0267 70.0437 67.1533 69.7265L66.8333 69.5989L66.5134 69.4712C66.4306 69.6788 66.3283 69.7834 66.2262 69.8356L66.3829 70.1423ZM66.8333 69.5989L67.1533 69.7265L67.3792 69.1603L67.0593 69.0326L66.7394 68.905L66.5134 69.4712L66.8333 69.5989ZM67.0593 69.0326L67.3792 69.1603C67.5057 68.8432 67.5395 68.52 67.4314 68.2138L67.1066 68.3284L66.7818 68.443C66.82 68.5511 66.8222 68.6974 66.7394 68.905L67.0593 69.0326ZM67.1066 68.3284L67.4314 68.2138C67.324 67.9093 67.1076 67.6909 66.8079 67.5714L66.6803 67.8913L66.5526 68.2112C66.6752 68.2601 66.7431 68.3331 66.7818 68.443L67.1066 68.3284ZM66.6803 67.8913L66.8079 67.5714C66.5082 67.4518 66.2009 67.4612 65.9134 67.6081L66.0701 67.9148L66.2268 68.2215C66.3305 68.1686 66.4301 68.1623 66.5526 68.2112L66.6803 67.8913ZM66.0701 67.9148L65.9061 67.612C65.6264 67.7634 65.4344 68.0209 65.3093 68.3344L65.6293 68.4621L65.9492 68.5897C66.0334 68.3786 66.1353 68.2712 66.2342 68.2177L66.0701 67.9148ZM65.6293 68.4621L65.3093 68.3344L65.0834 68.9007L65.4033 69.0283L65.7232 69.156L65.9492 68.5897L65.6293 68.4621ZM65.4033 69.0283L65.0834 68.9007C64.9583 69.2142 64.9203 69.5331 65.0189 69.8355L65.3464 69.7287L65.6739 69.622C65.639 69.5151 65.639 69.3671 65.7232 69.156L65.4033 69.0283ZM65.3464 69.7287L65.0216 69.8433C65.129 70.1478 65.3454 70.3662 65.6451 70.4858L65.7727 70.1659L65.9004 69.8459C65.7778 69.797 65.7099 69.724 65.6712 69.6141L65.3464 69.7287ZM68.843 76.9981L68.9707 76.6782C68.6945 76.568 68.4706 76.4071 68.2924 76.1955L68.0289 76.4174L67.7655 76.6393C68.0201 76.9416 68.3389 77.1678 68.7154 77.318L68.843 76.9981ZM68.0289 76.4174L68.2905 76.1932C68.1207 75.9952 68.0143 75.7643 67.9712 75.4926L67.631 75.5466L67.2908 75.6005C67.3532 75.994 67.5121 76.3436 67.7674 76.6415L68.0289 76.4174ZM67.631 75.5466L67.9712 75.4926C67.9297 75.2309 67.9637 74.9451 68.0901 74.6283L67.7702 74.5007L67.4502 74.373C67.2856 74.7857 67.2268 75.1972 67.2908 75.6005L67.631 75.5466ZM67.7702 74.5007L68.0901 74.6283L68.3811 73.8989L68.0612 73.7713L67.7413 73.6436L67.4502 74.373L67.7702 74.5007ZM68.0612 73.7713L68.3811 73.8989C68.5045 73.5897 68.6749 73.3617 68.886 73.1998L68.6764 72.9265L68.4668 72.6532C68.1436 72.901 67.9038 73.2363 67.7413 73.6436L68.0612 73.7713ZM68.6764 72.9265L68.886 73.1998C69.1043 73.0324 69.3404 72.9382 69.5999 72.9114L69.5645 72.5688L69.5291 72.2262C69.1388 72.2665 68.7829 72.4107 68.4668 72.6532L68.6764 72.9265ZM69.5645 72.5688L69.6028 72.9111C69.8777 72.8803 70.1509 72.9178 70.4271 73.0279L70.5547 72.708L70.6824 72.3881C70.3059 72.2379 69.9189 72.1825 69.5261 72.2265L69.5645 72.5688ZM70.5547 72.708L70.4271 73.0279C70.7033 73.1382 70.9228 73.2973 71.0936 73.5042L71.3592 73.2849L71.6248 73.0656C71.3756 72.7637 71.0588 72.5383 70.6824 72.3881L70.5547 72.708ZM71.3592 73.2849L71.0998 73.5116C71.2756 73.7127 71.3838 73.9442 71.4266 74.2135L71.7667 74.1595L72.1069 74.1056C72.0442 73.7098 71.8807 73.3582 71.6185 73.0582L71.3592 73.2849ZM71.7667 74.1595L71.4266 74.2135C71.4682 74.4763 71.4349 74.7589 71.3115 75.0682L71.6314 75.1958L71.9513 75.3235C72.1139 74.9161 72.1707 74.5079 72.1069 74.1056L71.7667 74.1595ZM71.6314 75.1958L71.3115 75.0682L71.0205 75.7976L71.3404 75.9252L71.6603 76.0529L71.9513 75.3235L71.6314 75.1958ZM71.3404 75.9252L71.0205 75.7976C70.8941 76.1144 70.722 76.345 70.5117 76.5063L70.7214 76.7796L70.931 77.053C71.255 76.8044 71.4957 76.4655 71.6603 76.0529L71.3404 75.9252ZM70.7214 76.7796L70.5117 76.5063C70.2954 76.6723 70.0575 76.7657 69.7916 76.7905L69.8237 77.1335L69.8557 77.4764C70.2524 77.4393 70.613 77.2968 70.931 77.053L70.7214 76.7796ZM69.8237 77.1335L69.782 76.7916C69.5156 76.8241 69.2469 76.7884 68.9707 76.6782L68.843 76.9981L68.7154 77.318C69.0918 77.4682 69.4768 77.5228 69.8654 77.4754L69.8237 77.1335ZM69.2451 75.9904L69.1175 76.3103C69.4172 76.4299 69.7244 76.4204 70.012 76.2735L69.8553 75.9668L69.6986 75.6601C69.5948 75.7131 69.4953 75.7193 69.3727 75.6704L69.2451 75.9904ZM69.8553 75.9668L70.012 76.2735C70.3011 76.1258 70.4991 75.8681 70.6256 75.551L70.3057 75.4234L69.9858 75.2957C69.903 75.5033 69.8007 75.6079 69.6986 75.6601L69.8553 75.9668ZM70.3057 75.4234L70.6256 75.551L70.8516 74.9848L70.5316 74.8571L70.2117 74.7295L69.9858 75.2957L70.3057 75.4234ZM70.5316 74.8571L70.8516 74.9848C70.9781 74.6677 71.0118 74.3445 70.9038 74.0383L70.579 74.1529L70.2542 74.2675C70.2923 74.3756 70.2945 74.5219 70.2117 74.7295L70.5316 74.8571ZM70.579 74.1529L70.9038 74.0383C70.7964 73.7338 70.58 73.5154 70.2803 73.3958L70.1526 73.7158L70.025 74.0357C70.1476 74.0846 70.2154 74.1576 70.2542 74.2675L70.579 74.1529ZM70.1526 73.7158L70.2803 73.3958C69.9806 73.2763 69.6733 73.2857 69.3858 73.4326L69.5425 73.7393L69.6992 74.046C69.8029 73.993 69.9024 73.9868 70.025 74.0357L70.1526 73.7158ZM69.5425 73.7393L69.3784 73.4364C69.0988 73.5879 68.9068 73.8454 68.7817 74.1589L69.1016 74.2866L69.4215 74.4142C69.5058 74.2031 69.6077 74.0957 69.7065 74.0422L69.5425 73.7393ZM69.1016 74.2866L68.7817 74.1589L68.5558 74.7252L68.8757 74.8528L69.1956 74.9805L69.4215 74.4142L69.1016 74.2866ZM68.8757 74.8528L68.5558 74.7252C68.4307 75.0387 68.3927 75.3576 68.4913 75.66L68.8187 75.5532L69.1462 75.4465C69.1114 75.3396 69.1114 75.1916 69.1956 74.9805L68.8757 74.8528ZM68.8187 75.5532L68.4939 75.6678C68.6014 75.9723 68.8177 76.1907 69.1175 76.3103L69.2451 75.9904L69.3727 75.6704C69.2502 75.6215 69.1823 75.5485 69.1436 75.4386L68.8187 75.5532Z" fill="#E5E8EB" mask="url(#path-8-outside-2_4420_53821)"/>
<defs>
<filter id="filter0_d_4420_53821" x="0" y="0" width="142" height="142" filterUnits="userSpaceOnUse" color-interpolation-filters="sRGB">
<feFlood flood-opacity="0" result="BackgroundImageFix"/>
<feColorMatrix in="SourceAlpha" type="matrix" values="0 0 0 0 0 0 0 0 0 0 0 0 0 0 0 0 0 0 127 0" result="hardAlpha"/>
<feOffset/>
<feGaussianBlur stdDeviation="15"/>
<feComposite in2="hardAlpha" operator="out"/>
<feColorMatrix type="matrix" values="0 0 0 0 0.0901961 0 0 0 0 0.0901961 0 0 0 0 0.0901961 0 0 0 0.05 0"/>
<feBlend mode="normal" in2="BackgroundImageFix" result="effect1_dropShadow_4420_53821"/>
<feBlend mode="normal" in="SourceGraphic" in2="effect1_dropShadow_4420_53821" result="shape"/>
</filter>
<linearGradient id="paint0_linear_4420_53821" x1="68.0395" y1="57.3481" x2="95.7963" y2="72.7616" gradientUnits="userSpaceOnUse">
<stop stop-color="#36D69D"/>
<stop offset="0.485228" stop-color="#B7FFE6"/>
<stop offset="1" stop-color="#36D69D"/>
</linearGradient>
<linearGradient id="paint1_linear_4420_53821" x1="71.6011" y1="57.3436" x2="87.8965" y2="73.3202" gradientUnits="userSpaceOnUse">
<stop stop-color="#00FFA4"/>
<stop offset="1" stop-color="#54FFC2"/>
</linearGradient>
<linearGradient id="paint2_linear_4420_53821" x1="59.604" y1="86.3766" x2="99.2155" y2="55.9256" gradientUnits="userSpaceOnUse">
<stop stop-color="#36D69D"/>
<stop offset="0.578007" stop-color="#B7FFE6"/>
<stop offset="1" stop-color="white"/>
</linearGradient>
<linearGradient id="paint3_linear_4420_53821" x1="46.3974" y1="77.1088" x2="65.5795" y2="87.7607" gradientUnits="userSpaceOnUse">
<stop stop-color="#36D69D"/>
<stop offset="0.485228" stop-color="#B7FFE6"/>
<stop offset="1" stop-color="#36D69D"/>
</linearGradient>
<linearGradient id="paint4_linear_4420_53821" x1="48.8588" y1="77.1057" x2="60.1201" y2="88.1467" gradientUnits="userSpaceOnUse">
<stop stop-color="#00FFA4"/>
<stop offset="1" stop-color="#54FFC2"/>
</linearGradient>
<linearGradient id="paint5_linear_4420_53821" x1="31.7569" y1="104.888" x2="67.9426" y2="76.1259" gradientUnits="userSpaceOnUse">
<stop stop-color="#36D69D"/>
<stop offset="0.514772" stop-color="#B7FFE6"/>
<stop offset="1" stop-color="white"/>
</linearGradient>
<linearGradient id="paint6_linear_4420_53821" x1="55.0817" y1="60.588" x2="28.0532" y2="114.813" gradientUnits="userSpaceOnUse">
<stop stop-color="#36D69D"/>
<stop offset="0.485228" stop-color="#B7FFE6"/>
<stop offset="1" stop-color="#36D69D"/>
</linearGradient>
<linearGradient id="paint7_linear_4420_53821" x1="54.2563" y1="84.4017" x2="63.3769" y2="58.4035" gradientUnits="userSpaceOnUse">
<stop stop-color="#36D69D"/>
<stop offset="0.553988" stop-color="#B7FFE6"/>
<stop offset="1" stop-color="white"/>
</linearGradient>
<linearGradient id="paint8_linear_4420_53821" x1="-0.62221" y1="2.0368" x2="-4.44605" y2="44.9619" gradientUnits="userSpaceOnUse">
<stop stop-color="#36D69D"/>
<stop offset="0.485228" stop-color="#B7FFE6"/>
<stop offset="1" stop-color="#36D69D"/>
</linearGradient>
<linearGradient id="paint9_linear_4420_53821" x1="-15.8442" y1="19.8853" x2="3.77665" y2="-12.0953" gradientUnits="userSpaceOnUse">
<stop stop-color="#36D69D"/>
<stop offset="0.567321" stop-color="#B7FFE6"/>
<stop offset="1" stop-color="white"/>
</linearGradient>
</defs>
</svg>
