<svg width="262" height="262" viewBox="0 0 262 262" fill="none" xmlns="http://www.w3.org/2000/svg">
<path d="M158.921 17.6882L161.089 18.5261V18.5271L160.981 18.8035L163.148 19.6423L163.255 19.366V19.365L165.422 20.2029V20.2039L165.315 20.4802L167.482 21.3191L167.589 21.0427V21.0417L169.756 21.8806V21.8816L169.649 22.158L170.732 22.5769C171.192 22.7549 171.668 22.8472 172.14 22.8601L172.148 22.5642V22.5632C173.05 22.5877 173.935 22.2998 174.649 21.7498L174.65 21.7507L174.831 21.9861C175.158 21.7343 175.452 21.4311 175.699 21.0818L175.803 20.9285L176.434 19.95L176.185 19.7898L177.446 17.8328L177.695 17.9929L178.958 16.0359L178.709 15.8757L178.708 15.8748L179.971 13.9187L180.22 14.0789L181.482 12.1218L181.233 11.9617L181.232 11.9607L182.495 10.0046L182.744 10.1658L184.006 8.20874L183.757 8.04761L185.019 6.0896L185.02 6.09058L185.269 6.25171L185.899 5.27319C186.069 5.0096 186.265 4.77794 186.479 4.57788L186.275 4.36206C186.769 3.9003 187.357 3.59153 187.979 3.4353L188.051 3.72241C188.638 3.57457 189.258 3.57454 189.846 3.72241L189.917 3.4353C190.538 3.59143 191.126 3.90059 191.619 4.36206L191.418 4.57788C191.632 4.77787 191.827 5.00973 191.997 5.27319L192.628 6.25171L192.877 6.09058V6.0896L194.139 8.04663V8.04761L193.89 8.20874L195.151 10.1658L195.4 10.0046V10.0037L196.662 11.9617H196.663L196.414 12.1218L197.676 14.0789L197.925 13.9187V13.9177L199.187 15.8757L198.938 16.0359L200.2 17.9929L200.448 17.8328L201.71 19.7898H201.711L201.462 19.95L202.093 20.9285C202.36 21.343 202.69 21.6982 203.064 21.9861L203.246 21.7507V21.7498C203.961 22.2998 204.846 22.5877 205.747 22.5632L205.748 22.5642L205.756 22.8601C206.228 22.8472 206.703 22.7549 207.163 22.5769L208.247 22.158L208.14 21.8816L208.139 21.8806L210.306 21.0417L210.307 21.0427L210.414 21.3191L212.58 20.4802L212.474 20.2039L214.64 19.365L214.641 19.366L214.747 19.6423L216.914 18.8035L216.808 18.5271L216.807 18.5261L218.974 17.6873L218.975 17.6882L219.081 17.9646L221.248 17.1257L221.142 16.8494L223.309 16.0105L223.415 16.2869L224.498 15.8679C224.79 15.7548 225.085 15.6823 225.375 15.6462L225.338 15.3533C226.007 15.2701 226.664 15.3655 227.257 15.6033L227.147 15.8777C227.709 16.103 228.21 16.4663 228.599 16.9304L228.825 16.741C229.236 17.2313 229.529 17.8257 229.658 18.488L229.369 18.5447C229.411 18.76 229.434 18.9834 229.436 19.2136L229.431 19.446L229.367 20.6121L229.663 20.6277L229.538 22.9597L229.242 22.9441L229.116 25.2761L229.412 25.2927L229.286 27.6238L228.991 27.6082L228.865 29.9402L229.161 29.9568L229.035 32.2878L228.74 32.2732L228.614 34.6052L228.909 34.6199L228.784 36.9519L228.489 36.9373L228.426 38.1033C228.399 38.5944 228.459 39.0738 228.593 39.5251L228.877 39.4412V39.4402C229.132 40.3027 229.677 41.0537 230.418 41.5632V41.5642L230.25 41.8083C230.638 42.0749 231.076 42.28 231.551 42.407L232.675 42.7078L232.752 42.4216V42.4207L235 43.0212V43.0222L234.924 43.3083L237.172 43.9089L237.248 43.6228V43.6218L239.497 44.2224V44.2234L239.421 44.5095L241.669 45.1101L241.744 44.824L243.993 45.4246L243.917 45.7107L246.166 46.3113L246.241 46.0251L248.489 46.6257L248.414 46.9119L249.538 47.2126C249.84 47.2933 250.12 47.4079 250.375 47.5496L250.518 47.2908C251.107 47.6174 251.581 48.0801 251.92 48.6208L251.67 48.7781C251.991 49.29 252.182 49.8773 252.224 50.4802L252.518 50.4597C252.561 51.0964 252.451 51.7486 252.167 52.3591L251.9 52.2351C251.777 52.5 251.618 52.7567 251.421 52.9998L250.687 53.907L250.916 54.0925L249.447 55.907L249.218 55.7214L247.749 57.5359L247.979 57.7224L246.51 59.5369L246.279 59.3503L244.811 61.1648L245.04 61.3503L243.571 63.1658L243.342 62.9792L241.872 64.7937L242.103 64.9802L240.634 66.7947L240.403 66.6082L239.669 67.5164C239.36 67.8978 239.126 68.3196 238.97 68.7625L239.249 68.8621C238.95 69.7079 238.95 70.6343 239.249 71.4802V71.4812L238.97 71.5798C239.126 72.0228 239.36 72.4453 239.669 72.8269L240.403 73.7341L240.634 73.5476V73.5466L242.103 75.3611V75.3621L241.872 75.5486L243.342 77.363L243.571 77.1765V77.1755L245.04 78.991H245.041L244.811 79.1775L246.279 80.9919L246.509 80.8054L247.978 82.6199H247.979L247.749 82.8064L249.218 84.6208L249.447 84.4353L250.916 86.2498H250.917L250.687 86.4353L251.421 87.3435C251.618 87.5865 251.777 87.8433 251.9 88.1082L252.167 87.9832C252.451 88.5936 252.561 89.2459 252.518 89.8826L252.224 89.863C252.182 90.466 251.991 91.0533 251.67 91.5652L251.92 91.7214C251.581 92.2624 251.107 92.7248 250.518 93.0515L250.375 92.7937C250.183 92.8999 249.979 92.9914 249.761 93.0642L249.538 93.1306L248.414 93.4304L248.489 93.7166L246.241 94.3171L246.166 94.032L243.917 94.6326L243.993 94.9177L241.744 95.5183L241.669 95.2332L239.421 95.8337L239.497 96.1199L237.248 96.7205L237.172 96.4343L234.924 97.0349L235 97.321L232.752 97.9216L232.675 97.6355L231.551 97.9363C231.076 98.0632 230.638 98.2674 230.25 98.5339L230.418 98.7781V98.7791C229.677 99.2885 229.132 100.04 228.877 100.902L228.593 100.818C228.459 101.269 228.399 101.749 228.426 102.24L228.489 103.406L228.784 103.39L228.909 105.722H228.91L228.614 105.738L228.74 108.07L229.035 108.054L229.161 110.385V110.386L228.865 110.402L228.991 112.734L229.286 112.719L229.412 115.05V115.051L229.116 115.067L229.242 117.399L229.538 117.383V117.382L229.663 119.714V119.715L229.367 119.731L229.431 120.897C229.447 121.21 229.425 121.511 229.369 121.799L229.658 121.854C229.53 122.517 229.236 123.111 228.825 123.601L228.599 123.412C228.21 123.876 227.709 124.24 227.147 124.466L227.257 124.739C226.663 124.977 226.007 125.072 225.338 124.989L225.375 124.697C225.085 124.661 224.79 124.588 224.498 124.475L223.415 124.055L223.309 124.332H223.308L221.142 123.493L221.248 123.218L219.081 122.379L218.975 122.654L216.808 121.815L216.914 121.54L214.747 120.701L214.64 120.977L212.473 120.138L212.58 119.862L210.414 119.024L210.307 119.3L208.14 118.461L208.247 118.185L207.163 117.765C206.703 117.587 206.228 117.495 205.756 117.482L205.748 117.779H205.747C204.846 117.755 203.961 118.043 203.246 118.593L203.064 118.357C202.737 118.609 202.444 118.912 202.196 119.261L202.093 119.415L201.462 120.393L201.71 120.552L200.448 122.51L200.2 122.349L198.938 124.306L199.187 124.467L197.925 126.425L197.676 126.263L196.414 128.22L196.662 128.381L195.4 130.339L195.151 130.177L193.89 132.135L194.139 132.296L192.877 134.253L192.628 134.092L191.997 135.07C191.827 135.334 191.632 135.565 191.418 135.765L191.619 135.98C191.126 136.442 190.538 136.751 189.917 136.907L189.846 136.621C189.331 136.75 188.793 136.767 188.272 136.67L188.051 136.621L187.979 136.907C187.357 136.751 186.769 136.442 186.275 135.98L186.479 135.765C186.265 135.565 186.069 135.334 185.899 135.07L185.269 134.092L185.019 134.253L183.757 132.295L184.006 132.135L182.744 130.177L182.495 130.338L181.232 128.382L181.482 128.22L180.22 126.263L179.971 126.424L178.708 124.468L178.958 124.306L177.695 122.349L177.446 122.51L176.185 120.552L176.434 120.393L175.803 119.415L175.699 119.261C175.452 118.912 175.158 118.609 174.831 118.357L174.65 118.593H174.649C173.935 118.043 173.05 117.755 172.148 117.779L172.14 117.482C171.668 117.495 171.192 117.587 170.732 117.765L169.649 118.185L169.755 118.461L167.588 119.3L167.482 119.024L165.315 119.862L165.422 120.138L163.255 120.977L163.148 120.701L160.981 121.54L161.088 121.815L158.921 122.654L158.814 122.379L156.647 123.218L156.754 123.493L154.588 124.332L154.48 124.055L153.397 124.475C153.105 124.588 152.812 124.661 152.521 124.697L152.557 124.989C151.887 125.072 151.231 124.977 150.638 124.739L150.748 124.466C150.186 124.24 149.685 123.876 149.297 123.412L149.069 123.601C148.659 123.111 148.365 122.516 148.236 121.854L148.526 121.799C148.485 121.583 148.462 121.36 148.46 121.13L148.466 120.897L148.528 119.731L148.232 119.715L148.357 117.383L148.653 117.399L148.779 115.067L148.483 115.051L148.608 112.718L148.609 112.719L148.905 112.734L149.03 110.402L148.734 110.386L148.859 108.053L148.86 108.054L149.156 108.07L149.281 105.738L148.985 105.722L149.11 103.389L149.111 103.39L149.407 103.406L149.47 102.24C149.49 101.872 149.461 101.51 149.39 101.162L149.304 100.818L149.02 100.902H149.018C148.763 100.039 148.218 99.2874 147.477 98.7781H147.478L147.646 98.5339C147.258 98.2674 146.82 98.0632 146.345 97.9363L145.221 97.6355L145.145 97.9216H145.144L142.895 97.321H142.896L142.973 97.0349L140.724 96.4343L140.647 96.7205H140.646L138.398 96.1189L138.476 95.8337L136.227 95.2332L136.15 95.5183L133.902 94.9177L133.979 94.6326L131.73 94.032L131.653 94.3171L129.405 93.7166L129.481 93.4304L128.357 93.1306L128.136 93.0642C127.918 92.9914 127.712 92.9 127.521 92.7937L127.377 93.0515C126.788 92.7248 126.315 92.2621 125.976 91.7214L126.227 91.5652C125.905 91.0533 125.713 90.466 125.672 89.863L125.377 89.8826C125.333 89.246 125.445 88.5935 125.729 87.9832L125.996 88.1082C126.088 87.9096 126.201 87.7152 126.334 87.5281L126.475 87.3435L127.209 86.4353L126.979 86.2498L128.447 84.4343L128.448 84.4353L128.678 84.6208L130.147 82.8064L129.917 82.6199L131.386 80.8054L131.616 80.9919L133.085 79.1775L132.855 78.991L134.324 77.1765L134.555 77.363L136.023 75.5486L135.793 75.3621L137.262 73.5466L137.263 73.5476L137.492 73.7341L138.228 72.8269C138.536 72.4454 138.769 72.0227 138.926 71.5798L138.646 71.4812L138.646 71.4802C138.945 70.6341 138.945 69.7082 138.646 68.8621H138.646L138.926 68.7625C138.769 68.3198 138.536 67.8977 138.228 67.5164L137.492 66.6082L137.262 66.7947L135.793 64.9792L136.023 64.7937L134.555 62.9792L134.324 63.1648L132.854 61.3513L133.085 61.1648L131.616 59.3503L131.386 59.5359L129.916 57.7224L130.147 57.5359L128.678 55.7214L128.447 55.908L126.979 54.0925L127.209 53.907L126.475 52.9998L126.334 52.8152C126.201 52.6281 126.088 52.4337 125.996 52.2351L125.729 52.3591C125.445 51.7487 125.333 51.0963 125.377 50.4597L125.672 50.4802C125.713 49.8773 125.905 49.29 126.227 48.7781L125.976 48.6208C126.315 48.0803 126.788 47.6174 127.377 47.2908L127.521 47.5496C127.712 47.4432 127.918 47.3519 128.136 47.2791L128.357 47.2126L129.481 46.9119L129.405 46.6257L131.653 46.0251L131.73 46.3113L133.979 45.7107L133.902 45.4246L136.15 44.824L136.227 45.1101L138.476 44.5095L138.398 44.2234L140.646 43.6218L140.647 43.6228L140.724 43.9089L142.973 43.3083L142.896 43.0222L142.895 43.0212L145.144 42.4207L145.145 42.4216L145.221 42.7078L146.345 42.407C146.82 42.28 147.258 42.075 147.646 41.8083L147.478 41.5642C148.219 41.0547 148.763 40.3028 149.018 39.4402L149.02 39.4412L149.304 39.5251C149.437 39.0738 149.496 38.5943 149.47 38.1033L149.407 36.9373L149.11 36.9529L148.985 34.6199L149.281 34.6052L149.156 32.2732L148.859 32.2888L148.734 29.9558L149.03 29.9402L148.905 27.6082L148.608 27.6248L148.483 25.2917L148.779 25.2761L148.653 22.9441L148.357 22.9587L148.232 20.6267L148.528 20.6121L148.466 19.446L148.46 19.2136C148.462 18.9834 148.485 18.76 148.526 18.5447L148.236 18.488C148.365 17.8259 148.659 17.2312 149.069 16.741L149.297 16.9304C149.685 16.4662 150.186 16.103 150.748 15.8777L150.638 15.6033C151.231 15.3653 151.887 15.2703 152.557 15.3533L152.521 15.6462C152.812 15.6823 153.105 15.7549 153.397 15.8679L154.48 16.2869L154.587 16.0105L156.754 16.8494L156.647 17.1257L158.814 17.9646L158.921 17.6882Z" fill="white" stroke="black" stroke-width="0.592662" stroke-dasharray="2.37 2.37"/>
<path d="M93.9385 205.644C94.1109 206.432 93.9205 207.263 93.4229 207.898L93.1914 207.717C93.0064 207.953 92.7733 208.159 92.4951 208.318L92.373 208.384L91.335 208.904L91.4678 209.169L89.3926 210.211L89.2598 209.946L87.1836 210.988L87.3164 211.253L85.2393 212.295L85.1074 212.03L83.0312 213.072L83.1631 213.337L81.0879 214.379L80.9551 214.114L78.8799 215.156L79.0117 215.421L76.9355 216.463L76.8037 216.199L75.7656 216.72C75.0256 217.091 74.4734 217.75 74.2354 218.538L74.1924 218.697L73.917 219.828L74.2051 219.898L73.6543 222.16L73.3672 222.09L72.8164 224.353L73.1045 224.423L72.5537 226.685L72.2666 226.614L71.7158 228.877L72.0039 228.946L71.4531 231.209L71.166 231.139L70.6152 233.4L70.9033 233.471L70.3525 235.732L70.0654 235.663L69.79 236.794C69.7018 237.157 69.5377 237.476 69.3213 237.743L69.5508 237.929C69.0411 238.558 68.2695 238.929 67.46 238.935L67.459 238.64C67.1152 238.642 66.7633 238.57 66.4248 238.413L65.373 237.925L65.248 238.192L63.1436 237.215H63.1445L63.2695 236.946L61.166 235.969L61.041 236.237H61.04L58.9365 235.26H58.9375L59.0625 234.991L56.958 234.014L56.833 234.282L54.7295 233.304L54.8545 233.036L52.751 232.058L52.626 232.326H52.625L50.5215 231.349H50.5225L50.6475 231.08L49.5957 230.592L49.4434 230.525C48.7272 230.239 47.928 230.239 47.2119 230.525L47.0596 230.592L46.0078 231.08L46.1328 231.349L44.0283 232.326L43.9043 232.058L41.8008 233.036L41.9248 233.304L39.8213 234.281L39.6973 234.014L37.5938 234.991L37.7188 235.26L35.6152 236.237L35.4902 235.969L33.3867 236.946L33.5117 237.215L31.4072 238.192L31.2832 237.925L30.2314 238.413C29.893 238.57 29.541 238.642 29.1973 238.64L29.1943 238.935C28.3852 238.928 27.6139 238.557 27.1045 237.929L27.334 237.743C27.1176 237.476 26.9545 237.157 26.8662 236.794L26.5908 235.663L26.3027 235.731L25.752 233.471L26.041 233.4L25.4902 231.139L25.2021 231.208L24.6514 228.946L24.9395 228.877L24.3896 226.614L24.1016 226.684L23.5508 224.423L23.8389 224.353L23.2891 222.09L23.001 222.159L22.4502 219.898L22.7383 219.828L22.4639 218.697L22.4199 218.538C22.1819 217.75 21.6305 217.091 20.8906 216.72L19.8525 216.199L19.7188 216.463L17.6436 215.421L17.7764 215.156L15.7002 214.114L15.5674 214.379L13.4912 213.337L13.624 213.072L11.5488 212.03L11.415 212.295L9.33887 211.253H9.33984L9.47266 210.988L7.39648 209.946L7.26367 210.211H7.2627L5.18652 209.169H5.1875L5.32031 208.904L4.28223 208.384L4.16016 208.318C3.88226 208.159 3.64973 207.953 3.46484 207.717L3.23145 207.898C2.73425 207.263 2.54453 206.431 2.7168 205.644L3.00586 205.707C3.06995 205.414 3.18984 205.127 3.37109 204.862L3.45312 204.75L4.16309 203.829L3.92871 203.647L3.92773 203.646L5.34863 201.804L5.58398 201.985L7.00391 200.142L6.76953 199.961L6.76855 199.96L8.18848 198.116L8.18945 198.117L8.4248 198.298L9.84473 196.454L9.61035 196.273L9.60938 196.272L11.0303 194.429L11.0312 194.43L11.2656 194.61L12.6865 192.767L12.4512 192.586L12.4502 192.585L13.8711 190.741L13.8721 190.742L14.1064 190.923L14.8174 190.001C15.355 189.303 15.5595 188.404 15.377 187.542L15.1357 186.402L14.8447 186.464L14.3623 184.185L14.6533 184.123L14.1709 181.845L13.8799 181.905L13.3975 179.626H13.3984L13.6875 179.565L13.2051 177.286L12.915 177.347L12.4326 175.067L12.7227 175.007L12.2402 172.728L11.9502 172.788L11.4678 170.509L11.7578 170.448L11.5166 169.309L11.4912 169.172C11.4424 168.855 11.458 168.544 11.5273 168.252L11.2393 168.184C11.4258 167.398 11.9587 166.728 12.6836 166.372L12.8145 166.639C13.084 166.506 13.3838 166.422 13.7041 166.399L13.8428 166.394L15.002 166.376L14.998 166.079L17.3174 166.044L17.3213 166.341L19.6406 166.306L19.6357 166.01L19.6348 166.009L21.9541 165.974L21.9551 165.975L21.96 166.271L24.2783 166.235L24.2744 165.939L24.2734 165.938L26.5928 165.903L26.5938 165.904L26.5977 166.2L28.917 166.166L28.9121 165.869L28.9111 165.868L31.2305 165.833L31.2314 165.834L31.2363 166.131L32.3955 166.113C33.2809 166.1 34.1155 165.697 34.6768 165.012L35.4131 164.113L35.1846 163.926L35.1836 163.925L36.6562 162.128L36.6572 162.129L36.8857 162.316L38.3594 160.52L38.1299 160.331L38.1289 160.33L39.6016 158.533L39.6025 158.534L39.832 158.722L41.3047 156.925L41.0752 156.737L42.5479 154.938L42.5488 154.939L42.7773 155.128L44.25 153.33L44.0215 153.143L44.0205 153.142L45.4932 151.345L45.4941 151.346L45.7236 151.533L46.46 150.635C46.6968 150.346 46.9829 150.128 47.2939 149.981L47.167 149.714C47.899 149.368 48.7562 149.368 49.4883 149.714L49.3623 149.981C49.6733 150.128 49.9595 150.346 50.1963 150.635L50.9326 151.533L51.1611 151.346L52.6338 153.143H52.6348L52.4053 153.33L53.8779 155.128L54.1064 154.939L55.5801 156.736V156.737L55.3516 156.925L56.8242 158.722L57.0527 158.534V158.533L58.5254 160.331L58.2969 160.52L59.7695 162.316L59.999 162.129V162.128L61.4717 163.925V163.926L61.2422 164.113L61.9785 165.012C62.5397 165.697 63.3745 166.1 64.2598 166.113L65.4199 166.131L65.4238 165.834V165.833L67.7432 165.868V165.869L67.7393 166.166L70.0576 166.2L70.0625 165.904V165.903L72.3818 165.938V165.939L72.377 166.235L74.6963 166.271L74.7002 165.975V165.974L77.0195 166.009V166.01L77.0156 166.306L79.334 166.341L79.3379 166.044L81.6572 166.079L81.6533 166.376L82.8135 166.394C83.1859 166.399 83.5329 166.487 83.8408 166.639L83.9707 166.372C84.6962 166.728 85.2293 167.397 85.416 168.184H85.417L85.1289 168.252C85.2082 168.586 85.2168 168.944 85.1396 169.309L84.8984 170.448L85.1875 170.509L84.7051 172.788L84.416 172.728L83.9336 175.007L84.2227 175.068L83.7402 177.348L83.4502 177.286L82.9678 179.565L83.2568 179.625L82.7744 181.904L82.4854 181.845L82.0029 184.123L82.292 184.184L81.8096 186.464L81.5205 186.402L81.2783 187.542C81.0958 188.404 81.3011 189.303 81.8389 190.001L82.5488 190.923L82.7832 190.742L84.2041 192.585V192.586L83.9697 192.767L85.3906 194.61L85.624 194.43L87.0449 196.272V196.273L86.8105 196.454L88.2314 198.298L88.4658 198.117V198.116L89.8857 199.961H89.8867L89.6514 200.142L91.0723 201.985L91.3057 201.804L92.7266 203.647H92.7275L92.4932 203.829L93.2031 204.75C93.4302 205.045 93.5771 205.372 93.6504 205.707L93.9385 205.644Z" fill="white" stroke="black" stroke-width="0.592662" stroke-dasharray="2.37 2.37"/>
<mask id="path-3-inside-1_4155_53444" fill="white">
<path d="M210.976 111.13C218.023 113.025 222.21 120.277 220.328 127.327L215.046 147.106C207.562 145.097 199.871 149.554 197.865 157.064C195.86 164.573 200.3 172.291 207.783 174.306L202.504 194.075C200.621 201.125 193.382 205.305 186.335 203.41L27.0597 160.585C20.0123 158.69 15.8253 151.438 17.7081 144.388L22.9875 124.616C22.9894 124.617 22.991 124.618 22.9929 124.619C30.4784 126.632 38.1725 122.174 40.1784 114.663C42.1842 107.151 37.7422 99.4294 30.2566 97.4168C30.2547 97.4162 30.2529 97.4157 30.251 97.4152L35.5314 77.6403C37.4142 70.5898 44.6537 66.4101 51.7011 68.3048L210.976 111.13Z"/>
</mask>
<path d="M210.976 111.13C218.023 113.025 222.21 120.277 220.328 127.327L215.046 147.106C207.562 145.097 199.871 149.554 197.865 157.064C195.86 164.573 200.3 172.291 207.783 174.306L202.504 194.075C200.621 201.125 193.382 205.305 186.335 203.41L27.0597 160.585C20.0123 158.69 15.8253 151.438 17.7081 144.388L22.9875 124.616C22.9894 124.617 22.991 124.618 22.9929 124.619C30.4784 126.632 38.1725 122.174 40.1784 114.663C42.1842 107.151 37.7422 99.4294 30.2566 97.4168C30.2547 97.4162 30.2529 97.4157 30.251 97.4152L35.5314 77.6403C37.4142 70.5898 44.6537 66.4101 51.7011 68.3048L210.976 111.13Z" fill="#E5E8EB"/>
<path d="M210.976 111.13L210.791 111.821L210.976 111.13ZM220.328 127.327L221.019 127.513L221.019 127.513L220.328 127.327ZM215.046 147.106L214.862 147.798L215.553 147.983L215.737 147.292L215.046 147.106ZM197.865 157.064L197.174 156.878L197.174 156.878L197.865 157.064ZM207.783 174.306L208.474 174.492L208.659 173.801L207.968 173.615L207.783 174.306ZM27.0597 160.585L26.875 161.277L26.875 161.277L27.0597 160.585ZM22.9875 124.616L23.1725 123.925L22.481 123.739L22.2962 124.431L22.9875 124.616ZM22.9929 124.619L22.8082 125.311L22.8082 125.311L22.9929 124.619ZM40.1784 114.663L40.8697 114.848L40.8697 114.848L40.1784 114.663ZM30.2566 97.4168L30.4413 96.7251L30.4413 96.7251L30.2566 97.4168ZM30.251 97.4152L29.5597 97.2294L29.3749 97.9213L30.0666 98.1069L30.251 97.4152ZM35.5314 77.6403L34.8401 77.4544L34.8401 77.4545L35.5314 77.6403ZM51.7011 68.3048L51.8858 67.6132L51.8858 67.6132L51.7011 68.3048ZM210.976 111.13L211.161 110.438L209.429 109.973L209.245 110.664L209.06 111.356L210.791 111.821L210.976 111.13ZM205.782 109.733L205.967 109.042L202.504 108.111L202.32 108.802L202.135 109.494L205.598 110.425L205.782 109.733ZM198.857 107.871L199.042 107.18L195.579 106.249L195.395 106.94L195.21 107.632L198.673 108.563L198.857 107.871ZM191.932 106.009L192.117 105.318L188.654 104.387L188.47 105.078L188.285 105.77L191.748 106.701L191.932 106.009ZM185.007 104.147L185.192 103.456L181.729 102.525L181.545 103.216L181.36 103.908L184.823 104.839L185.007 104.147ZM178.082 102.285L178.267 101.594L174.804 100.663L174.62 101.354L174.435 102.046L177.898 102.977L178.082 102.285ZM171.157 100.423L171.342 99.7319L167.879 98.8009L167.695 99.4925L167.51 100.184L170.973 101.115L171.157 100.423ZM164.232 98.5615L164.417 97.8699L160.954 96.9389L160.77 97.6305L160.585 98.3222L164.048 99.2531L164.232 98.5615ZM157.307 96.6996L157.492 96.008L154.029 95.077L153.845 95.7686L153.66 96.4602L157.123 97.3912L157.307 96.6996ZM150.382 94.8376L150.567 94.146L147.104 93.215L146.92 93.9066L146.735 94.5983L150.198 95.5292L150.382 94.8376ZM143.457 92.9757L143.642 92.284L140.179 91.3531L139.995 92.0447L139.81 92.7363L143.273 93.6673L143.457 92.9757ZM136.532 91.1137L136.717 90.4221L133.254 89.4911L133.07 90.1827L132.885 90.8743L136.348 91.8053L136.532 91.1137ZM129.607 89.2518L129.792 88.5601L126.329 87.6292L126.145 88.3208L125.96 89.0124L129.423 89.9434L129.607 89.2518ZM122.682 87.3898L122.867 86.6982L119.404 85.7672L119.22 86.4588L119.035 87.1504L122.498 88.0814L122.682 87.3898ZM115.757 85.5278L115.942 84.8362L112.479 83.9053L112.295 84.5969L112.11 85.2885L115.573 86.2195L115.757 85.5278ZM108.832 83.6659L109.017 82.9743L105.554 82.0433L105.37 82.7349L105.185 83.4265L108.648 84.3575L108.832 83.6659ZM101.907 81.8039L102.092 81.1123L98.6294 80.1814L98.4448 80.873L98.2601 81.5646L101.723 82.4956L101.907 81.8039ZM94.9823 79.942L95.1669 79.2504L91.7044 78.3194L91.5198 79.011L91.3351 79.7026L94.7976 80.6336L94.9823 79.942ZM88.0573 78.08L88.2419 77.3884L84.7794 76.4574L84.5948 77.1491L84.4101 77.8407L87.8726 78.7716L88.0573 78.08ZM81.1323 76.2181L81.317 75.5265L77.8545 74.5955L77.6698 75.2871L77.4851 75.9787L80.9476 76.9097L81.1323 76.2181ZM74.2073 74.3561L74.392 73.6645L70.9295 72.7335L70.7448 73.4252L70.5601 74.1168L74.0226 75.0477L74.2073 74.3561ZM67.2823 72.4942L67.467 71.8026L64.0045 70.8716L63.8198 71.5632L63.6352 72.2548L67.0976 73.1858L67.2823 72.4942ZM60.3573 70.6322L60.542 69.9406L57.0795 69.0096L56.8949 69.7013L56.7102 70.3929L60.1727 71.3239L60.3573 70.6322ZM53.4324 68.7703L53.617 68.0787L51.8858 67.6132L51.7011 68.3048L51.5164 68.9964L53.2477 69.4619L53.4324 68.7703ZM51.7011 68.3048L51.8858 67.6132C51.2909 67.4532 50.6944 67.3343 50.0993 67.2548L50.0056 67.9646L49.9119 68.6745C50.4458 68.7458 50.9815 68.8526 51.5164 68.9964L51.7011 68.3048ZM46.5578 67.9603L46.4636 67.2502C45.2484 67.41 44.069 67.7295 42.9536 68.1921L43.2284 68.8538L43.5032 69.5154C44.5044 69.1001 45.5626 68.8136 46.652 68.6703L46.5578 67.9603ZM40.2432 70.5772L39.8076 70.0084C38.8492 70.7431 37.9828 71.6048 37.2369 72.5773L37.8047 73.0139L38.3725 73.4505C39.0413 72.5786 39.8185 71.8055 40.6788 71.1461L40.2432 70.5772ZM36.0845 76.0019L35.423 75.7281C35.1943 76.2833 34.999 76.8593 34.8401 77.4544L35.5314 77.6403L36.2227 77.8262C36.3656 77.2911 36.541 76.7738 36.7461 76.2757L36.0845 76.0019ZM35.5314 77.6403L34.8401 77.4545L34.4001 79.1024L35.0914 79.2882L35.7827 79.4741L36.2227 77.8262L35.5314 77.6403ZM34.2113 82.5841L33.52 82.3982L32.6399 85.694L33.3312 85.8799L34.0225 86.0657L34.9026 82.7699L34.2113 82.5841ZM32.4512 89.1757L31.7599 88.9898L30.8798 92.2856L31.5711 92.4715L32.2624 92.6574L33.1425 89.3616L32.4512 89.1757ZM30.691 95.7673L29.9997 95.5815L29.5597 97.2294L30.251 97.4152L30.9423 97.6011L31.3823 95.9532L30.691 95.7673ZM30.251 97.4152L30.0666 98.1069C30.067 98.107 30.0674 98.1071 30.0678 98.1072L30.2524 97.4156L30.437 96.724C30.4365 96.7238 30.4359 96.7237 30.4354 96.7235L30.251 97.4152ZM30.2552 97.4164L30.0704 98.108C30.0709 98.1081 30.0714 98.1082 30.072 98.1084L30.2566 97.4168L30.4413 96.7251C30.4409 96.725 30.4404 96.7249 30.44 96.7248L30.2552 97.4164ZM30.2566 97.4168L30.072 98.1084C30.6427 98.2618 31.1945 98.4502 31.7258 98.6704L31.9987 98.0088L32.2717 97.3472C31.6831 97.1032 31.0723 96.8948 30.4413 96.7251L30.2566 97.4168ZM35.1752 99.8485L34.7389 100.415C35.6683 101.132 36.4923 101.966 37.1952 102.888L37.7638 102.454L38.3324 102.02C37.5544 100.999 36.6417 100.076 35.6116 99.2816L35.1752 99.8485ZM39.5932 105.639L38.9319 105.911C39.3739 106.982 39.679 108.114 39.8317 109.279L40.5412 109.187L41.2506 109.095C41.0815 107.804 40.7436 106.552 40.2544 105.366L39.5932 105.639ZM40.5379 112.858L39.8285 112.763C39.7529 113.333 39.6397 113.905 39.4871 114.477L40.1784 114.663L40.8697 114.848C41.0382 114.217 41.1635 113.585 41.2472 112.953L40.5379 112.858ZM40.1784 114.663L39.4871 114.477C39.3346 115.048 39.1475 115.6 38.9288 116.132L39.5905 116.406L40.2523 116.679C40.4943 116.09 40.7012 115.479 40.8697 114.848L40.1784 114.663ZM37.7642 119.586L37.1957 119.151C36.4829 120.083 35.6548 120.91 34.7384 121.615L35.1752 122.183L35.612 122.751C36.6263 121.97 37.5432 121.055 38.3327 120.022L37.7642 119.586ZM32.0038 124.024L31.7276 123.363C30.6595 123.808 29.5308 124.116 28.3687 124.271L28.464 124.981L28.5594 125.691C29.8475 125.519 31.0978 125.178 32.2801 124.685L32.0038 124.024ZM24.7965 124.98L24.8898 124.27C24.3201 124.195 23.7484 124.081 23.1776 123.927L22.9929 124.619L22.8082 125.311C23.4392 125.48 24.072 125.606 24.7032 125.69L24.7965 124.98ZM22.9929 124.619L23.1776 123.927C23.2341 123.942 23.277 123.962 23.3011 123.973L22.9915 124.618L22.682 125.264C22.707 125.276 22.7508 125.295 22.8082 125.311L22.9929 124.619ZM22.9889 124.617L23.2986 123.972C23.2737 123.96 23.2298 123.94 23.1725 123.925L22.9875 124.616L22.8025 125.308C22.7461 125.293 22.7032 125.274 22.6792 125.262L22.9889 124.617ZM22.9875 124.616L22.2962 124.431L21.8563 126.078L22.5476 126.264L23.2388 126.45L23.6788 124.802L22.9875 124.616ZM21.6676 129.559L20.9764 129.373L20.0964 132.669L20.7877 132.854L21.479 133.04L22.3589 129.745L21.6676 129.559ZM19.9078 136.15L19.2165 135.964L18.3366 139.259L19.0279 139.445L19.7192 139.631L20.5991 136.335L19.9078 136.15ZM18.148 142.74L17.4567 142.554L17.0168 144.202L17.7081 144.388L18.3994 144.573L18.8393 142.926L18.148 142.74ZM17.7081 144.388L17.0168 144.202C16.8579 144.797 16.7399 145.394 16.6613 145.989L17.3707 146.084L18.0801 146.179C18.1506 145.645 18.2565 145.109 18.3994 144.573L17.7081 144.388ZM17.3715 149.535L16.6622 149.628C16.8236 150.844 17.1445 152.025 17.6085 153.143L18.2691 152.868L18.9298 152.594C18.5133 151.592 18.2255 150.532 18.0808 149.442L17.3715 149.535ZM19.9956 155.859L19.4279 156.294C20.1634 157.254 21.0256 158.123 21.9984 158.871L22.4338 158.303L22.8692 157.735C21.9971 157.065 21.2234 156.286 20.5633 155.424L19.9956 155.859ZM25.4219 160.029L25.1493 160.691C25.7043 160.921 26.2802 161.117 26.875 161.277L27.0597 160.585L27.2444 159.894C26.7095 159.75 26.1924 159.573 25.6944 159.367L25.4219 160.029ZM27.0597 160.585L26.875 161.277L28.6063 161.742L28.791 161.051L28.9756 160.359L27.2444 159.894L27.0597 160.585ZM32.2535 161.982L32.0688 162.673L35.5313 163.604L35.716 162.913L35.9006 162.221L32.4381 161.29L32.2535 161.982ZM39.1785 163.844L38.9938 164.535L42.4563 165.466L42.641 164.775L42.8256 164.083L39.3631 163.152L39.1785 163.844ZM46.1034 165.706L45.9188 166.397L49.3813 167.328L49.5659 166.636L49.7506 165.945L46.2881 165.014L46.1034 165.706ZM53.0284 167.567L52.8438 168.259L56.3063 169.19L56.4909 168.498L56.6756 167.807L53.2131 166.876L53.0284 167.567ZM59.9534 169.429L59.7688 170.121L63.2313 171.052L63.4159 170.36L63.6006 169.669L60.1381 168.738L59.9534 169.429ZM66.8784 171.291L66.6938 171.983L70.1562 172.914L70.3409 172.222L70.5256 171.531L67.0631 170.6L66.8784 171.291ZM73.8034 173.153L73.6187 173.845L77.0812 174.776L77.2659 174.084L77.4506 173.393L73.9881 172.462L73.8034 173.153ZM80.7284 175.015L80.5437 175.707L84.0062 176.638L84.1909 175.946L84.3756 175.255L80.9131 174.324L80.7284 175.015ZM87.6534 176.877L87.4687 177.569L90.9312 178.5L91.1159 177.808L91.3006 177.117L87.8381 176.186L87.6534 176.877ZM94.5784 178.739L94.3937 179.431L97.8562 180.362L98.0409 179.67L98.2256 178.979L94.7631 178.048L94.5784 178.739ZM101.503 180.601L101.319 181.293L104.781 182.224L104.966 181.532L105.151 180.841L101.688 179.91L101.503 180.601ZM108.428 182.463L108.244 183.155L111.706 184.086L111.891 183.394L112.076 182.702L108.613 181.771L108.428 182.463ZM115.353 184.325L115.169 185.017L118.631 185.948L118.816 185.256L119.001 184.564L115.538 183.633L115.353 184.325ZM122.278 186.187L122.094 186.879L125.556 187.81L125.741 187.118L125.926 186.426L122.463 185.495L122.278 186.187ZM129.203 188.049L129.019 188.741L132.481 189.672L132.666 188.98L132.851 188.288L129.388 187.357L129.203 188.049ZM136.128 189.911L135.944 190.603L139.406 191.534L139.591 190.842L139.776 190.15L136.313 189.219L136.128 189.911ZM143.053 191.773L142.869 192.464L146.331 193.395L146.516 192.704L146.701 192.012L143.238 191.081L143.053 191.773ZM149.978 193.635L149.794 194.326L153.256 195.257L153.441 194.566L153.626 193.874L150.163 192.943L149.978 193.635ZM156.903 195.497L156.719 196.188L160.181 197.119L160.366 196.428L160.551 195.736L157.088 194.805L156.903 195.497ZM163.828 197.359L163.644 198.05L167.106 198.981L167.291 198.29L167.476 197.598L164.013 196.667L163.828 197.359ZM170.753 199.221L170.569 199.912L174.031 200.843L174.216 200.152L174.4 199.46L170.938 198.529L170.753 199.221ZM177.678 201.083L177.494 201.774L180.956 202.705L181.141 202.014L181.325 201.322L177.863 200.391L177.678 201.083ZM184.603 202.945L184.419 203.636L186.15 204.102L186.335 203.41L186.519 202.718L184.788 202.253L184.603 202.945ZM186.335 203.41L186.15 204.102C186.745 204.262 187.341 204.381 187.936 204.46L188.03 203.75L188.124 203.04C187.59 202.969 187.054 202.862 186.519 202.718L186.335 203.41ZM191.478 203.755L191.572 204.465C192.787 204.305 193.967 203.986 195.082 203.523L194.807 202.861L194.533 202.2C193.531 202.615 192.473 202.901 191.384 203.045L191.478 203.755ZM197.793 201.138L198.228 201.707C199.187 200.972 200.053 200.11 200.799 199.138L200.231 198.701L199.663 198.264C198.994 199.136 198.217 199.909 197.357 200.569L197.793 201.138ZM201.951 195.713L202.613 195.987C202.841 195.432 203.037 194.856 203.196 194.26L202.504 194.075L201.813 193.889C201.67 194.424 201.495 194.941 201.29 195.439L201.951 195.713ZM202.504 194.075L203.196 194.26L203.635 192.613L202.944 192.427L202.253 192.241L201.813 193.889L202.504 194.075ZM203.824 189.132L204.515 189.318L205.395 186.024L204.704 185.838L204.012 185.652L203.133 188.947L203.824 189.132ZM205.583 182.543L206.275 182.729L207.155 179.434L206.463 179.248L205.772 179.062L204.892 182.357L205.583 182.543ZM207.343 175.954L208.034 176.139L208.474 174.492L207.783 174.306L207.092 174.12L206.652 175.768L207.343 175.954ZM207.783 174.306L207.968 173.615C207.397 173.461 206.846 173.273 206.315 173.052L206.041 173.714L205.768 174.375C206.357 174.619 206.967 174.828 207.598 174.998L207.783 174.306ZM202.866 171.874L203.303 171.307C202.374 170.59 201.55 169.757 200.847 168.835L200.279 169.269L199.71 169.703C200.488 170.723 201.4 171.646 202.43 172.441L202.866 171.874ZM198.45 166.085L199.111 165.812C198.67 164.741 198.365 163.61 198.212 162.445L197.503 162.537L196.793 162.63C196.962 163.92 197.3 165.172 197.789 166.357L198.45 166.085ZM197.506 158.868L198.215 158.963C198.291 158.393 198.404 157.821 198.557 157.249L197.865 157.064L197.174 156.878C197.006 157.509 196.88 158.141 196.797 158.772L197.506 158.868ZM197.865 157.064L198.557 157.249C198.709 156.678 198.896 156.126 199.115 155.594L198.453 155.321L197.791 155.048C197.549 155.636 197.342 156.247 197.174 156.878L197.865 157.064ZM200.279 152.141L200.847 152.576C201.56 151.644 202.388 150.818 203.304 150.112L202.867 149.544L202.43 148.976C201.416 149.757 200.499 150.673 199.71 151.705L200.279 152.141ZM206.037 147.704L206.314 148.365C207.381 147.919 208.51 147.611 209.672 147.456L209.576 146.746L209.481 146.036C208.193 146.208 206.943 146.549 205.761 147.043L206.037 147.704ZM213.243 146.745L213.15 147.455C213.719 147.531 214.291 147.644 214.862 147.798L215.046 147.106L215.231 146.414C214.6 146.245 213.967 146.119 213.336 146.035L213.243 146.745ZM215.046 147.106L215.737 147.292L216.178 145.644L215.486 145.458L214.795 145.272L214.355 146.92L215.046 147.106ZM216.366 142.161L217.058 142.347L217.938 139.051L217.247 138.865L216.555 138.679L215.675 141.975L216.366 142.161ZM218.127 135.568L218.818 135.754L219.699 132.458L219.007 132.272L218.316 132.086L217.436 135.383L218.127 135.568ZM219.887 128.975L220.579 129.161L221.019 127.513L220.328 127.327L219.636 127.141L219.196 128.79L219.887 128.975ZM220.328 127.327L221.019 127.513C221.178 126.918 221.296 126.321 221.374 125.726L220.665 125.631L219.956 125.536C219.885 126.07 219.779 126.606 219.636 127.141L220.328 127.327ZM220.664 122.18L221.373 122.087C221.212 120.87 220.891 119.689 220.427 118.572L219.766 118.846L219.106 119.12C219.522 120.123 219.81 121.183 219.955 122.273L220.664 122.18ZM218.04 115.856L218.608 115.421C217.872 114.461 217.01 113.592 216.037 112.844L215.602 113.412L215.166 113.979C216.039 114.65 216.812 115.429 217.472 116.291L218.04 115.856ZM212.614 111.686L212.886 111.024C212.331 110.794 211.755 110.598 211.161 110.438L210.976 111.13L210.791 111.821C211.326 111.965 211.843 112.141 212.341 112.347L212.614 111.686ZM210.976 111.13L210.607 112.513L210.976 111.13ZM220.328 127.327L221.71 127.699L221.71 127.699L220.328 127.327ZM215.046 147.106L214.677 148.489L216.059 148.86L216.429 147.478L215.046 147.106ZM197.865 157.064L196.483 156.692L196.483 156.692L197.865 157.064ZM207.783 174.306L209.166 174.678L209.535 173.295L208.153 172.923L207.783 174.306ZM27.0597 160.585L26.6903 161.968L26.6904 161.968L27.0597 160.585ZM22.9875 124.616L23.3575 123.233L21.9744 122.861L21.6049 124.245L22.9875 124.616ZM22.9929 124.619L22.6235 126.002L22.6236 126.002L22.9929 124.619ZM40.1784 114.663L41.561 115.034L41.561 115.034L40.1784 114.663ZM30.2566 97.4168L30.626 96.0335L30.626 96.0335L30.2566 97.4168ZM30.251 97.4152L28.8684 97.0435L28.4989 98.4273L29.8822 98.7986L30.251 97.4152ZM35.5314 77.6403L34.1488 77.2686L34.1488 77.2686L35.5314 77.6403ZM51.7011 68.3048L52.0704 66.9216L52.0704 66.9216L51.7011 68.3048ZM210.976 111.13L211.345 109.746L209.614 109.281L209.245 110.664L208.875 112.047L210.607 112.513L210.976 111.13ZM205.782 109.733L206.152 108.35L202.689 107.419L202.32 108.802L201.95 110.185L205.413 111.116L205.782 109.733ZM198.857 107.871L199.227 106.488L195.764 105.557L195.395 106.94L195.025 108.324L198.488 109.255L198.857 107.871ZM191.932 106.009L192.302 104.626L188.839 103.695L188.47 105.078L188.1 106.462L191.563 107.393L191.932 106.009ZM185.007 104.147L185.377 102.764L181.914 101.833L181.545 103.216L181.175 104.6L184.638 105.531L185.007 104.147ZM178.082 102.285L178.452 100.902L174.989 99.9712L174.62 101.354L174.25 102.738L177.713 103.669L178.082 102.285ZM171.157 100.423L171.527 99.0402L168.064 98.1093L167.695 99.4925L167.325 100.876L170.788 101.807L171.157 100.423ZM164.232 98.5615L164.602 97.1783L161.139 96.2473L160.77 97.6305L160.4 99.0138L163.863 99.9448L164.232 98.5615ZM157.307 96.6996L157.677 95.3163L154.214 94.3854L153.845 95.7686L153.475 97.1518L156.938 98.0828L157.307 96.6996ZM150.382 94.8376L150.752 93.4544L147.289 92.5234L146.92 93.9066L146.55 95.2899L150.013 96.2208L150.382 94.8376ZM143.457 92.9757L143.827 91.5924L140.364 90.6615L139.995 92.0447L139.625 93.4279L143.088 94.3589L143.457 92.9757ZM136.532 91.1137L136.902 89.7305L133.439 88.7995L133.07 90.1827L132.7 91.566L136.163 92.4969L136.532 91.1137ZM129.607 89.2518L129.977 87.8685L126.514 86.9376L126.145 88.3208L125.775 89.704L129.238 90.635L129.607 89.2518ZM122.682 87.3898L123.052 86.0066L119.589 85.0756L119.22 86.4588L118.85 87.8421L122.313 88.773L122.682 87.3898ZM115.757 85.5278L116.127 84.1446L112.664 83.2136L112.295 84.5969L111.925 85.9801L115.388 86.9111L115.757 85.5278ZM108.832 83.6659L109.202 82.2827L105.739 81.3517L105.37 82.7349L105 84.1181L108.463 85.0491L108.832 83.6659ZM101.907 81.8039L102.277 80.4207L98.8141 79.4897L98.4448 80.873L98.0754 82.2562L101.538 83.1872L101.907 81.8039ZM94.9823 79.942L95.3516 78.5588L91.8891 77.6278L91.5198 79.011L91.1504 80.3942L94.6129 81.3252L94.9823 79.942ZM88.0573 78.08L88.4266 76.6968L84.9641 75.7658L84.5948 77.1491L84.2254 78.5323L87.6879 79.4633L88.0573 78.08ZM81.1323 76.2181L81.5016 74.8349L78.0391 73.9039L77.6698 75.2871L77.3004 76.6703L80.7629 77.6013L81.1323 76.2181ZM74.2073 74.3561L74.5767 72.9729L71.1142 72.0419L70.7448 73.4252L70.3754 74.8084L73.8379 75.7394L74.2073 74.3561ZM67.2823 72.4942L67.6517 71.111L64.1892 70.18L63.8198 71.5632L63.4505 72.9464L66.913 73.8774L67.2823 72.4942ZM60.3573 70.6322L60.7267 69.249L57.2642 68.318L56.8949 69.7013L56.5255 71.0845L59.988 72.0155L60.3573 70.6322ZM53.4324 68.7703L53.8017 67.3871L52.0704 66.9216L51.7011 68.3048L51.3317 69.688L53.063 70.1535L53.4324 68.7703ZM51.7011 68.3048L52.0704 66.9216C51.4456 66.7536 50.8187 66.6286 50.193 66.5449L50.0056 67.9646L49.8182 69.3843C50.3215 69.4516 50.8268 69.5523 51.3318 69.688L51.7011 68.3048ZM46.5578 67.9603L46.3694 66.5402C45.0914 66.7082 43.8513 67.0441 42.6788 67.5305L43.2284 68.8538L43.778 70.1771C44.7222 69.7854 45.7196 69.5154 46.7463 69.3804L46.5578 67.9603ZM40.2432 70.5772L39.372 69.4396C38.3646 70.2119 37.4536 71.1178 36.6691 72.1406L37.8047 73.0139L38.9403 73.8871C39.5705 73.0655 40.3032 72.3367 41.1144 71.7149L40.2432 70.5772ZM36.0845 76.0019L34.7614 75.4544C34.521 76.038 34.3158 76.6434 34.1488 77.2686L35.5314 77.6403L36.914 78.0121C37.0489 77.507 37.2144 77.019 37.4077 76.5495L36.0845 76.0019ZM35.5314 77.6403L34.1488 77.2686L33.7088 78.9165L35.0914 79.2882L36.474 79.66L36.914 78.0121L35.5314 77.6403ZM34.2113 82.5841L32.8287 82.2123L31.9486 85.5081L33.3312 85.8799L34.7138 86.2516L35.5939 82.9558L34.2113 82.5841ZM32.4512 89.1757L31.0686 88.8039L30.1885 92.0998L31.5711 92.4715L32.9537 92.8433L33.8337 89.5474L32.4512 89.1757ZM30.691 95.7673L29.3084 95.3956L28.8684 97.0435L30.251 97.4152L31.6336 97.787L32.0736 96.1391L30.691 95.7673ZM30.251 97.4152L29.8822 98.7986C29.8825 98.7987 29.8828 98.7988 29.8831 98.7989L30.2524 97.4156L30.6216 96.0324C30.6211 96.0322 30.6204 96.032 30.6197 96.0318L30.251 97.4152ZM30.2552 97.4164L29.8857 98.7996C29.8862 98.7997 29.8867 98.7998 29.8873 98.8L30.2566 97.4168L30.626 96.0335C30.6256 96.0334 30.6252 96.0333 30.6248 96.0332L30.2552 97.4164ZM30.2566 97.4168L29.8873 98.8C30.4279 98.9454 30.9503 99.1236 31.4529 99.332L31.9987 98.0088L32.5446 96.6856C31.9274 96.4297 31.2871 96.2113 30.626 96.0335L30.2566 97.4168ZM35.1752 99.8485L34.3026 100.982C35.1815 101.661 35.9612 102.449 36.6265 103.321L37.7638 102.454L38.901 101.586C38.0854 100.516 37.1284 99.5483 36.0479 98.7146L35.1752 99.8485ZM39.5932 105.639L38.2706 106.184C38.6891 107.198 38.9778 108.269 39.1222 109.371L40.5412 109.187L41.9601 109.003C41.7827 107.65 41.4285 106.336 40.9157 105.094L39.5932 105.639ZM40.5379 112.858L39.1192 112.668C39.0476 113.207 38.9404 113.749 38.7958 114.291L40.1784 114.663L41.561 115.034C41.7375 114.373 41.8687 113.71 41.9565 113.049L40.5379 112.858ZM40.1784 114.663L38.7958 114.291C38.6513 114.832 38.474 115.355 38.267 115.859L39.5905 116.406L40.914 116.952C41.1678 116.335 41.3845 115.695 41.561 115.034L40.1784 114.663ZM37.7642 119.586L36.6272 118.715C35.9528 119.597 35.1691 120.379 34.3015 121.048L35.1752 122.183L36.0489 123.319C37.112 122.5 38.0733 121.541 38.9012 120.458L37.7642 119.586ZM32.0038 124.024L31.4514 122.702C30.4404 123.123 29.3724 123.415 28.2733 123.561L28.464 124.981L28.6547 126.401C30.0059 126.221 31.3169 125.863 32.5563 125.346L32.0038 124.024ZM24.7965 124.98L24.9831 123.56C24.4441 123.489 23.9029 123.381 23.3623 123.236L22.9929 124.619L22.6236 126.002C23.2847 126.18 23.9479 126.312 24.6099 126.4L24.7965 124.98ZM22.9929 124.619L23.3623 123.236C23.4757 123.266 23.562 123.305 23.6106 123.328L22.9915 124.618L22.3724 125.909C22.4219 125.933 22.5092 125.971 22.6235 126.002L22.9929 124.619ZM22.9889 124.617L23.6083 123.327C23.5589 123.303 23.4717 123.264 23.3575 123.233L22.9875 124.616L22.6176 126C22.5043 125.969 22.418 125.931 22.3695 125.907L22.9889 124.617ZM22.9875 124.616L21.6049 124.245L21.165 125.892L22.5476 126.264L23.9301 126.636L24.3701 124.988L22.9875 124.616ZM21.6676 129.559L20.2851 129.187L19.4052 132.483L20.7877 132.854L22.1703 133.226L23.0502 129.931L21.6676 129.559ZM19.9078 136.15L18.5252 135.778L17.6453 139.073L19.0279 139.445L20.4105 139.817L21.2904 136.521L19.9078 136.15ZM18.148 142.74L16.7654 142.368L16.3255 144.016L17.7081 144.388L19.0907 144.759L19.5306 143.112L18.148 142.74ZM17.7081 144.388L16.3255 144.016C16.1586 144.641 16.0346 145.268 15.9519 145.894L17.3707 146.084L18.7894 146.274C18.8559 145.77 18.9558 145.264 19.0907 144.759L17.7081 144.388ZM17.3715 149.535L15.9528 149.721C16.1226 151.001 16.4601 152.242 16.9478 153.417L18.2691 152.868L19.5905 152.32C19.1978 151.375 18.9264 150.376 18.7901 149.348L17.3715 149.535ZM19.9956 155.859L18.8603 156.729C19.6334 157.738 20.5399 158.652 21.563 159.438L22.4338 158.303L23.3046 157.168C22.4828 156.536 21.7535 155.801 21.1309 154.988L19.9956 155.859ZM25.4219 160.029L24.8768 161.353C25.4603 161.594 26.0655 161.8 26.6903 161.968L27.0597 160.585L27.4291 159.202C26.9242 159.066 26.4364 158.9 25.967 158.706L25.4219 160.029ZM27.0597 160.585L26.6904 161.968L28.4216 162.434L28.791 161.051L29.1603 159.667L27.4291 159.202L27.0597 160.585ZM32.2535 161.982L31.8841 163.365L35.3466 164.296L35.716 162.913L36.0853 161.529L32.6228 160.598L32.2535 161.982ZM39.1785 163.844L38.8091 165.227L42.2716 166.158L42.641 164.775L43.0103 163.391L39.5478 162.46L39.1785 163.844ZM46.1034 165.706L45.7341 167.089L49.1966 168.02L49.5659 166.636L49.9353 165.253L46.4728 164.322L46.1034 165.706ZM53.0284 167.567L52.6591 168.951L56.1216 169.882L56.4909 168.498L56.8603 167.115L53.3978 166.184L53.0284 167.567ZM59.9534 169.429L59.5841 170.813L63.0466 171.744L63.4159 170.36L63.7853 168.977L60.3228 168.046L59.9534 169.429ZM66.8784 171.291L66.5091 172.675L69.9716 173.606L70.3409 172.222L70.7103 170.839L67.2478 169.908L66.8784 171.291ZM73.8034 173.153L73.4341 174.537L76.8966 175.468L77.2659 174.084L77.6353 172.701L74.1728 171.77L73.8034 173.153ZM80.7284 175.015L80.3591 176.399L83.8216 177.329L84.1909 175.946L84.5603 174.563L81.0978 173.632L80.7284 175.015ZM87.6534 176.877L87.2841 178.26L90.7466 179.191L91.1159 177.808L91.4853 176.425L88.0228 175.494L87.6534 176.877ZM94.5784 178.739L94.2091 180.122L97.6715 181.053L98.0409 179.67L98.4103 178.287L94.9478 177.356L94.5784 178.739ZM101.503 180.601L101.134 181.984L104.597 182.915L104.966 181.532L105.335 180.149L101.873 179.218L101.503 180.601ZM108.428 182.463L108.059 183.846L111.522 184.777L111.891 183.394L112.26 182.011L108.798 181.08L108.428 182.463ZM115.353 184.325L114.984 185.708L118.447 186.639L118.816 185.256L119.185 183.873L115.723 182.942L115.353 184.325ZM122.278 186.187L121.909 187.57L125.372 188.501L125.741 187.118L126.11 185.735L122.648 184.804L122.278 186.187ZM129.203 188.049L128.834 189.432L132.297 190.363L132.666 188.98L133.035 187.597L129.573 186.666L129.203 188.049ZM136.128 189.911L135.759 191.294L139.222 192.225L139.591 190.842L139.96 189.459L136.498 188.528L136.128 189.911ZM143.053 191.773L142.684 193.156L146.147 194.087L146.516 192.704L146.885 191.321L143.423 190.39L143.053 191.773ZM149.978 193.635L149.609 195.018L153.072 195.949L153.441 194.566L153.81 193.183L150.348 192.252L149.978 193.635ZM156.903 195.497L156.534 196.88L159.996 197.811L160.366 196.428L160.735 195.045L157.273 194.114L156.903 195.497ZM163.828 197.359L163.459 198.742L166.921 199.673L167.291 198.29L167.66 196.906L164.198 195.975L163.828 197.359ZM170.753 199.221L170.384 200.604L173.846 201.535L174.216 200.152L174.585 198.768L171.123 197.837L170.753 199.221ZM177.678 201.083L177.309 202.466L180.771 203.397L181.141 202.014L181.51 200.63L178.048 199.699L177.678 201.083ZM184.603 202.945L184.234 204.328L185.965 204.793L186.335 203.41L186.704 202.027L184.973 201.561L184.603 202.945ZM186.335 203.41L185.965 204.793C186.59 204.961 187.217 205.086 187.843 205.17L188.03 203.75L188.217 202.331C187.714 202.263 187.209 202.163 186.704 202.027L186.335 203.41ZM191.478 203.755L191.666 205.175C192.944 205.007 194.184 204.671 195.357 204.185L194.807 202.861L194.258 201.538C193.314 201.93 192.316 202.2 191.289 202.335L191.478 203.755ZM197.793 201.138L198.664 202.275C199.671 201.503 200.582 200.597 201.367 199.574L200.231 198.701L199.095 197.828C198.465 198.649 197.733 199.378 196.921 200L197.793 201.138ZM201.951 195.713L203.274 196.26C203.515 195.677 203.72 195.071 203.887 194.446L202.504 194.075L201.122 193.703C200.987 194.208 200.821 194.696 200.628 195.165L201.951 195.713ZM202.504 194.075L203.887 194.446L204.327 192.799L202.944 192.427L201.562 192.055L201.122 193.703L202.504 194.075ZM203.824 189.132L205.206 189.504L206.086 186.209L204.704 185.838L203.321 185.466L202.441 188.761L203.824 189.132ZM205.583 182.543L206.966 182.915L207.846 179.62L206.463 179.248L205.081 178.877L204.201 182.171L205.583 182.543ZM207.343 175.954L208.726 176.325L209.166 174.678L207.783 174.306L206.4 173.934L205.96 175.582L207.343 175.954ZM207.783 174.306L208.153 172.923C207.612 172.778 207.09 172.599 206.588 172.391L206.041 173.714L205.495 175.037C206.112 175.293 206.752 175.511 207.413 175.689L207.783 174.306ZM202.866 171.874L203.739 170.74C202.861 170.062 202.081 169.274 201.416 168.401L200.279 169.269L199.141 170.137C199.957 171.206 200.913 172.174 201.993 173.008L202.866 171.874ZM198.45 166.085L199.773 165.54C199.354 164.526 199.066 163.455 198.922 162.353L197.503 162.537L196.084 162.722C196.261 164.075 196.615 165.388 197.128 166.63L198.45 166.085ZM197.506 158.868L198.925 159.058C198.996 158.518 199.103 157.977 199.248 157.435L197.865 157.064L196.483 156.692C196.306 157.353 196.175 158.015 196.087 158.677L197.506 158.868ZM197.865 157.064L199.248 157.435C199.392 156.894 199.57 156.371 199.777 155.868L198.453 155.321L197.13 154.774C196.876 155.391 196.659 156.031 196.483 156.692L197.865 157.064ZM200.279 152.141L201.416 153.012C202.09 152.13 202.873 151.348 203.741 150.68L202.867 149.544L201.993 148.409C200.93 149.227 199.969 150.187 199.142 151.269L200.279 152.141ZM206.037 147.704L206.59 149.026C207.601 148.604 208.668 148.312 209.767 148.166L209.576 146.746L209.385 145.326C208.034 145.506 206.724 145.864 205.485 146.382L206.037 147.704ZM213.243 146.745L213.057 148.165C213.596 148.237 214.137 148.344 214.677 148.489L215.046 147.106L215.415 145.723C214.754 145.545 214.091 145.413 213.429 145.325L213.243 146.745ZM215.046 147.106L216.429 147.478L216.869 145.829L215.486 145.458L214.104 145.086L213.664 146.734L215.046 147.106ZM216.366 142.161L217.749 142.533L218.629 139.237L217.247 138.865L215.864 138.493L214.984 141.79L216.366 142.161ZM218.127 135.568L219.51 135.94L220.39 132.644L219.007 132.272L217.625 131.9L216.744 135.197L218.127 135.568ZM219.887 128.975L221.27 129.347L221.71 127.699L220.328 127.327L218.945 126.956L218.505 128.604L219.887 128.975ZM220.328 127.327L221.71 127.699C221.877 127.074 222.001 126.447 222.084 125.821L220.665 125.631L219.246 125.441C219.18 125.945 219.08 126.45 218.945 126.956L220.328 127.327ZM220.664 122.18L222.083 121.994C221.913 120.714 221.575 119.473 221.088 118.298L219.766 118.846L218.445 119.394C218.838 120.34 219.109 121.339 219.246 122.367L220.664 122.18ZM218.04 115.856L219.175 114.986C218.402 113.976 217.496 113.063 216.473 112.276L215.602 113.412L214.731 114.547C215.553 115.179 216.282 115.913 216.905 116.726L218.04 115.856ZM212.614 111.686L213.159 110.362C212.575 110.121 211.97 109.914 211.345 109.746L210.976 111.13L210.607 112.513C211.111 112.649 211.599 112.815 212.069 113.009L212.614 111.686Z" fill="#8B95A1" mask="url(#path-3-inside-1_4155_53444)"/>
<rect x="0.370433" y="0.195092" width="130.41" height="67.3613" rx="33.6806" transform="matrix(0.954855 -0.297072 0.29521 0.955432 116.81 197.192)" fill="white" stroke="black" stroke-width="0.592662" stroke-dasharray="2.37 2.37"/>
<path d="M229.475 116.217L229.643 119.325V119.326L228.928 119.365L229.012 120.92C229.042 121.489 228.927 122.015 228.708 122.473L229.353 122.781C228.781 123.976 227.626 124.814 226.312 124.986L226.221 124.278C225.717 124.344 225.182 124.289 224.65 124.084L223.205 123.525L222.947 124.192H222.946L220.057 123.074L220.316 122.407L217.427 121.289L217.168 121.956L214.279 120.837L214.538 120.171L211.648 119.052L211.39 119.719L208.501 118.6L208.759 117.933L207.314 117.375L207.124 117.305C206.678 117.155 206.221 117.076 205.768 117.063L205.748 117.779H205.747C204.846 117.755 203.961 118.043 203.246 118.593L202.809 118.025C202.449 118.302 202.126 118.635 201.854 119.019L201.74 119.187L200.899 120.492L201.5 120.879L199.817 123.488L199.217 123.101L197.534 125.711L198.135 126.097L196.452 128.708L195.851 128.32L194.168 130.928L194.77 131.317L193.087 133.927L192.485 133.538L191.644 134.843C191.334 135.322 190.933 135.682 190.486 135.925L190.827 136.552C189.662 137.185 188.233 137.185 187.068 136.552L187.41 135.925C186.963 135.682 186.561 135.322 186.252 134.843L185.41 133.538L184.809 133.926L183.126 131.316L183.728 130.928L182.045 128.32L181.443 128.707L179.76 126.098L180.362 125.711L178.68 123.101L178.077 123.489L176.395 120.879L176.996 120.492L176.155 119.187L176.042 119.019C175.77 118.635 175.447 118.302 175.087 118.025L174.65 118.593H174.649C173.935 118.043 173.05 117.755 172.148 117.779L172.129 117.063C171.675 117.076 171.217 117.155 170.771 117.305L170.581 117.375L169.137 117.933L169.394 118.6L166.505 119.719L166.247 119.052L163.358 120.171L163.616 120.838L160.727 121.955L160.469 121.289L157.58 122.407L157.838 123.074L154.949 124.192L154.69 123.525L153.246 124.084C152.714 124.29 152.179 124.344 151.675 124.278L151.582 124.986C150.269 124.814 149.114 123.976 148.543 122.781L149.188 122.473C148.996 122.072 148.884 121.619 148.88 121.131L148.885 120.92L148.968 119.365L148.253 119.326L148.421 116.217L149.136 116.256L149.303 113.146L148.588 113.107L148.755 109.997L148.756 109.998L149.47 110.036L149.638 106.927L148.923 106.888L149.09 103.779L149.805 103.817L149.889 102.262C149.914 101.79 149.867 101.327 149.757 100.886L149.706 100.699L149.02 100.902H149.018C148.763 100.039 148.218 99.2874 147.477 98.7781H147.478L147.883 98.1882C147.456 97.8951 146.975 97.6705 146.453 97.531L144.954 97.1296L144.77 97.821L141.771 97.0203L141.956 96.3289L138.958 95.5281L138.773 96.2195H138.772L135.774 95.4187H135.775L135.961 94.7273L132.963 93.9265L132.778 94.6179H132.777L129.779 93.8171L129.965 93.1257L128.466 92.7253L128.264 92.6648C127.802 92.5098 127.407 92.2637 127.085 91.9578L126.592 92.4763C125.634 91.5659 125.193 90.2107 125.432 88.9109L126.136 89.0398C126.216 88.6031 126.391 88.1722 126.673 87.7751L126.801 87.6072L127.78 86.3972L127.224 85.947L129.182 83.5271L129.183 83.5281L129.738 83.9783L131.697 81.5583L131.142 81.1082L131.141 81.1072L133.1 78.6892L133.656 79.1394L135.615 76.7205L135.059 76.2693L137.017 73.8494L137.018 73.8503L137.574 74.3005L138.553 73.0916C138.892 72.6724 139.149 72.2077 139.321 71.7205L138.646 71.4812L138.646 71.4802C138.945 70.6341 138.945 69.7082 138.646 68.8621H138.646L139.321 68.6228C139.149 68.1355 138.892 67.6709 138.553 67.2517L137.574 66.0427L137.018 66.4919L135.059 64.072L135.615 63.6228L133.656 61.2039L133.1 61.6531L131.142 59.2341L131.697 58.7839L129.738 56.365L129.182 56.8152L127.224 54.3953L127.78 53.946L126.801 52.7361L126.673 52.5681C126.39 52.1709 126.216 51.7394 126.136 51.3025L125.432 51.4314C125.193 50.1316 125.634 48.7762 126.592 47.866L127.085 48.3855C127.407 48.0795 127.802 47.8335 128.264 47.6785L128.466 47.6179L129.965 47.2175L129.78 46.5261L129.779 46.5251L132.777 45.7244L132.778 45.7253L132.963 46.4167L135.961 45.616L135.775 44.9236L138.773 44.1228L138.958 44.8152L141.956 44.0134L141.771 43.322L144.77 42.5212L144.954 43.2126L146.453 42.8123C146.975 42.6728 147.456 42.4473 147.883 42.1541L147.478 41.5642C148.219 41.0547 148.763 40.3028 149.018 39.4402L149.02 39.4412L149.706 39.6443C149.853 39.1478 149.918 38.6203 149.889 38.0808L149.805 36.5261L149.09 36.5632L148.923 33.4539L149.638 33.4158L149.47 30.3064L148.755 30.3455L148.588 27.2351L149.303 27.197L149.136 24.0876L148.42 24.1257L148.253 21.0154L148.968 20.9783L148.885 19.4236L148.88 19.2117C148.884 18.7235 148.996 18.2712 149.188 17.8699L148.543 17.5613C149.114 16.3669 150.269 15.5283 151.582 15.3562L151.675 16.0652C152.179 15.9991 152.714 16.0537 153.246 16.2595L154.69 16.8181L154.949 16.1511V16.1501L157.838 17.2683V17.2693L157.58 17.9363L160.469 19.0544L160.728 18.3875V18.3865L163.616 19.5046V19.5056L163.358 20.1726L166.247 21.2908L166.506 20.6238V20.6228L169.395 21.741V21.7419L169.137 22.4089L170.581 22.9685C171.087 23.1641 171.61 23.2659 172.129 23.28L172.148 22.5642V22.5632C173.05 22.5877 173.935 22.2998 174.649 21.7498L174.65 21.7507L175.087 22.3181C175.447 22.0411 175.77 21.708 176.042 21.324L176.155 21.156L176.996 19.8513L176.395 19.4636L178.077 16.8533L178.078 16.8542L178.68 17.2419L180.362 14.6326L179.761 14.2449L179.76 14.2439L181.443 11.6355L182.045 12.0232L183.728 9.41382L183.126 9.02612L184.809 6.41675L185.41 6.80444L186.252 5.49976C186.561 5.02011 186.963 4.66166 187.41 4.4187L187.068 3.78979C188.233 3.15704 189.663 3.15796 190.827 3.79077L190.486 4.4187C190.933 4.66163 191.334 5.02027 191.644 5.49976L192.485 6.80444L193.087 6.41675V6.41577L194.77 9.02515V9.02612L194.168 9.41382L195.851 12.0232L196.452 11.6355V11.6345L198.135 14.2449L197.534 14.6326L199.217 17.2419L199.817 16.8542L201.5 19.4636L200.899 19.8513L201.74 21.156C202.034 21.6114 202.397 22.0015 202.809 22.3181L203.246 21.7507V21.7498C203.961 22.2998 204.846 22.5877 205.747 22.5632L205.748 22.5642L205.768 23.28C206.221 23.2676 206.678 23.1884 207.124 23.0378L207.314 22.9685L208.759 22.4089L208.501 21.7419L208.5 21.741L211.389 20.6228L211.39 20.6238L211.648 21.2908L214.538 20.1726L214.279 19.5056L214.278 19.5046L217.168 18.3865L217.169 18.3875L217.427 19.0544L220.316 17.9363L220.058 17.2693L220.057 17.2683L222.946 16.1501L222.947 16.1511L223.205 16.8181L224.65 16.2595C225.182 16.0538 225.717 15.9991 226.221 16.0652L226.312 15.3562C227.626 15.528 228.781 16.3666 229.353 17.5613L228.708 17.8699C228.9 18.2712 229.012 18.7235 229.017 19.2117L229.012 19.4236L228.928 20.9783L229.643 21.0164L229.475 24.1248L228.761 24.0876L228.593 27.197L229.308 27.2361L229.14 30.3445L228.426 30.3064L228.258 33.4158L228.973 33.4548L228.805 36.5632L228.091 36.5261L228.007 38.0808C227.978 38.6203 228.044 39.1478 228.19 39.6443L228.877 39.4412V39.4402C229.132 40.3027 229.677 41.0537 230.418 41.5632V41.5642L230.013 42.1541C230.439 42.4472 230.92 42.6728 231.442 42.8123L232.941 43.2126L233.126 42.5212L236.123 43.322H236.124L235.939 44.0134L238.938 44.8152L239.121 44.1228L242.119 44.9236L241.936 45.616L244.934 46.4167L245.118 45.7253V45.7244L248.115 46.5261L247.931 47.2175L249.43 47.6179C249.979 47.7648 250.443 48.0358 250.812 48.3855L251.303 47.8669C252.261 48.7772 252.702 50.1315 252.463 51.4314L251.761 51.3025C251.68 51.7395 251.505 52.1708 251.223 52.5681L251.096 52.7361L250.116 53.946L250.671 54.3953L248.713 56.8142L248.157 56.365L246.198 58.7839L246.754 59.2341L244.795 61.6531L244.239 61.2039L242.281 63.6228L242.837 64.073L240.878 66.4929L240.322 66.0427L239.343 67.2517C239.003 67.671 238.747 68.1355 238.574 68.6228L239.249 68.8621C238.95 69.7079 238.95 70.6343 239.249 71.4802V71.4812L238.574 71.7205C238.747 72.2077 239.003 72.6723 239.343 73.0916L240.322 74.3005L240.878 73.8503V73.8494L242.837 76.2683V76.2693L242.281 76.7205L244.239 79.1394L244.796 78.6892V78.6882L246.754 81.1082H246.755L246.198 81.5583L248.157 83.9783L248.713 83.5281L250.671 85.947H250.672L250.116 86.3972L251.096 87.6072C251.454 88.0493 251.669 88.5407 251.761 89.0398L252.463 88.9109C252.702 90.2109 252.261 91.5649 251.303 92.4753L250.812 91.9578C250.489 92.2638 250.094 92.5098 249.632 92.6648L249.43 92.7253L247.931 93.1257L248.115 93.8171L245.118 94.6179L244.933 93.9265L241.936 94.7273L242.12 95.4187L239.122 96.2195L238.938 95.5281L235.939 96.3289L236.123 97.0203L233.126 97.821L232.941 97.1296L231.442 97.531C230.921 97.6705 230.439 97.8951 230.013 98.1882L230.418 98.7781V98.7791C229.677 99.2885 229.132 100.04 228.877 100.902L228.19 100.699C228.044 101.195 227.978 101.723 228.007 102.262L228.091 103.817L228.805 103.779L228.973 106.887V106.888L228.258 106.927L228.426 110.036L229.14 109.998L229.308 113.106V113.107L228.593 113.146L228.761 116.256L229.475 116.217Z" fill="#E5E8EB" stroke="#8B95A1" stroke-width="1.43169" stroke-dasharray="3.58 3.58"/>
<path d="M93.9385 205.644C94.1109 206.432 93.9205 207.263 93.4229 207.898L92.8613 207.458C92.7309 207.625 92.571 207.773 92.3828 207.896L92.1855 208.009L90.8008 208.703L91.1221 209.343L88.3535 210.731L88.0332 210.093L85.2656 211.482L85.585 212.121L82.8184 213.511L82.4971 212.871L79.7295 214.261L80.0498 214.899L77.2812 216.289L76.9619 215.65L75.5771 216.345C74.7339 216.768 74.1052 217.519 73.834 218.417L73.7852 218.598L73.418 220.106L74.1133 220.275L73.3799 223.291L72.6836 223.122L71.9502 226.139L72.6455 226.308L71.9121 229.323L71.2168 229.154L70.4824 232.171L71.1787 232.34L70.4443 235.355L69.749 235.187L69.3818 236.694C69.3085 236.996 69.1742 237.26 68.9961 237.479L69.5508 237.929C69.0411 238.558 68.2695 238.929 67.46 238.935L67.4561 238.22C67.1733 238.222 66.8827 238.164 66.6016 238.033L65.1992 237.381L64.8975 238.029L62.0928 236.726L62.3945 236.077L59.5898 234.773L59.2871 235.423L56.4824 234.119H56.4834L56.7852 233.47L53.9795 232.166L53.6768 232.815L50.8721 231.512H50.873L51.1748 230.862L49.7725 230.211L49.5996 230.136C48.7836 229.81 47.8727 229.81 47.0566 230.136L46.8828 230.211L45.4805 230.862L45.7822 231.512L42.9775 232.815L42.6758 232.166L39.8711 233.47L40.1729 234.119L37.3672 235.422L37.0664 234.773L34.2617 236.077L34.5625 236.726L31.7578 238.029L31.457 237.381L30.0547 238.033C29.7736 238.164 29.483 238.222 29.2002 238.22L29.1943 238.935C28.3852 238.928 27.6139 238.557 27.1045 237.929L27.6602 237.479C27.4821 237.26 27.3467 236.996 27.2734 236.694L26.9072 235.187L26.2109 235.354L25.4766 232.34L26.1729 232.171L25.4395 229.154L24.7441 229.323H24.7432L24.0098 226.307L24.7051 226.139L23.9717 223.122L23.2754 223.291L22.542 220.274L23.2383 220.106L22.8711 218.598C22.6331 217.62 21.9774 216.796 21.0781 216.345L19.6943 215.65L19.373 216.289L16.6045 214.9H16.6055L16.9268 214.261L14.1582 212.871L13.8359 213.511L11.0693 212.121L11.3906 211.482L8.62305 210.093L8.30078 210.732L5.53223 209.343L5.85449 208.703L4.4707 208.009L4.27344 207.896C4.08518 207.773 3.92541 207.625 3.79492 207.458L3.23145 207.898C2.73425 207.263 2.54453 206.431 2.7168 205.644L3.41504 205.796C3.46025 205.589 3.53987 205.386 3.65625 205.194L3.78516 205.007L4.73242 203.777L4.16504 203.341L4.16406 203.34L6.05859 200.882L6.05957 200.883L6.62598 201.319L8.52051 198.861L7.95312 198.424L7.95215 198.423L9.84668 195.965L9.84766 195.966L10.4141 196.403L12.3086 193.944L11.7412 193.508L11.7402 193.507L13.6348 191.049L13.6357 191.05L14.2021 191.486L15.1494 190.258C15.7623 189.462 15.9951 188.437 15.7871 187.455L15.4658 185.936L14.7646 186.084L14.1211 183.045L14.8223 182.897L14.1787 179.858L13.4775 180.006L12.835 176.967L13.5352 176.819L12.8916 173.78L12.1914 173.928L11.5479 170.889L12.248 170.741L11.9268 169.222L11.8916 168.996C11.8698 168.772 11.8866 168.555 11.9355 168.349L11.2393 168.184C11.4258 167.398 11.9587 166.728 12.6836 166.372L13 167.015C13.2532 166.89 13.5395 166.817 13.8486 166.812L15.3955 166.789L15.3848 166.073L18.4766 166.026L18.4873 166.742L21.5791 166.696L21.5684 165.98L21.5674 165.979L24.6602 165.933L24.6611 165.934L24.6719 166.649L27.7637 166.603L27.7529 165.887L27.752 165.886L30.8438 165.839L30.8447 165.84L30.8555 166.556L32.4023 166.532C33.348 166.518 34.2429 166.114 34.8779 165.421L35.001 165.278L35.9834 164.08L35.4297 163.626L35.4287 163.625L37.3926 161.229L37.3936 161.229L37.9473 161.684L39.9111 159.287L39.3574 158.834L39.3564 158.833L41.3203 156.437L41.3213 156.438L41.875 156.892L43.8389 154.495L43.2852 154.041L43.2842 154.04L45.248 151.645L45.249 151.646L45.8027 152.099L46.7842 150.9C46.9808 150.661 47.2169 150.481 47.4727 150.36L47.167 149.714C47.899 149.368 48.7562 149.368 49.4883 149.714L49.1826 150.36C49.4385 150.481 49.6754 150.66 49.8721 150.9L50.8535 152.099L51.4072 151.646V151.645L53.3701 154.041H53.3711L52.8174 154.495L54.7812 156.892L55.334 156.438L57.2988 158.833V158.834L56.7451 159.287L58.709 161.684L59.2617 161.229L61.2256 163.626L60.6729 164.08L61.6543 165.278C62.2939 166.059 63.2451 166.517 64.2539 166.532L65.7998 166.556L65.8105 165.84V165.839L68.9033 165.886V165.887L68.8916 166.603L71.9844 166.649L71.9951 165.934V165.933L75.0869 165.979V165.98L75.0762 166.696L78.1689 166.742L78.1787 166.026L81.2705 166.073L81.2607 166.789L82.8066 166.812C83.1161 166.817 83.4028 166.89 83.6562 167.015L83.9707 166.372C84.6962 166.728 85.2293 167.397 85.416 168.184H85.417L84.7207 168.349C84.7696 168.555 84.7855 168.772 84.7637 168.996L84.7295 169.222L84.4072 170.741L85.1074 170.89L84.4639 173.928L83.7637 173.78L83.1201 176.819L83.8203 176.967L83.1768 180.005L82.4775 179.858L81.834 182.897L82.5332 183.044L81.8896 186.083L81.1904 185.936L80.8682 187.455C80.6601 188.437 80.8939 189.462 81.5068 190.258L82.4531 191.486L83.0205 191.05V191.049L84.9141 193.508L84.3477 193.944L86.2412 196.403L86.8076 195.966L88.7021 198.424L88.1357 198.861L90.0293 201.319L90.5967 200.883V200.882L92.4902 203.341H92.4912L91.9238 203.777L92.8711 205.007C93.0594 205.251 93.18 205.521 93.2402 205.796L93.9385 205.644Z" fill="#E5E8EB" stroke="#8B95A1" stroke-width="1.43169" stroke-dasharray="3.58 3.58"/>
<rect x="0.894855" y="0.471285" width="129.571" height="66.5222" rx="33.2611" transform="matrix(0.954855 -0.297072 0.29521 0.955432 116.752 197.36)" fill="#E5E8EB" stroke="#8B95A1" stroke-width="1.43169" stroke-dasharray="3.58 3.58"/>
<path d="M94.3379 15.7998C106.508 15.7998 116.373 25.6994 116.373 37.9111C116.373 48.4371 109.043 57.2436 99.2256 59.4746L94.7695 65.2246L90.4736 59.6826C80.1468 57.8494 72.3029 48.7997 72.3027 37.9111C72.3027 25.6995 82.1683 15.7999 94.3379 15.7998Z" fill="#ACADB1"/>
<rect x="92.1787" y="26.2021" width="5.18474" height="15.5542" rx="2.59237" fill="white"/>
<circle cx="94.7711" cy="48.6693" r="2.59237" fill="white"/>
<path d="M71.4409 135.283L72.6097 130.936L94.7263 111.011L101.369 112.797L94.9337 136.729L99.7689 138.029L98.5476 142.571L93.7123 141.271L91.8606 148.158L86.7812 146.792L88.6329 139.906L71.4409 135.283ZM78.3278 132.264L89.8542 135.363L94.5688 117.829L94.1781 117.724L78.4066 131.971L78.3278 132.264ZM111.293 153.907C103.088 151.7 100.074 143.82 103.187 132.245C106.273 120.767 112.956 115.389 121.064 117.569C129.171 119.749 132.256 127.754 129.17 139.231C126.058 150.806 119.449 156.1 111.293 153.907ZM112.541 149.267C117.327 150.554 121.421 146.627 123.797 137.787C126.161 128.995 124.58 123.385 119.842 122.111C115.105 120.837 110.923 124.898 108.559 133.689C106.182 142.529 107.754 147.98 112.541 149.267ZM128.053 150.505L129.222 146.158L151.339 126.233L157.981 128.019L151.546 151.951L156.381 153.251L155.16 157.794L150.325 156.494L148.473 163.38L143.394 162.014L145.245 155.128L128.053 150.505ZM134.94 147.486L146.467 150.586L151.181 133.052L150.79 132.947L135.019 147.193L134.94 147.486Z" fill="#8B95A1"/>
</svg>
