<svg width="92" height="32" viewBox="0 0 92 32" fill="none" xmlns="http://www.w3.org/2000/svg">
<g clip-path="url(#clip0_4305_15147)">
<path d="M25.3125 0H6.6875C2.9941 0 0 2.9941 0 6.6875V25.3125C0 29.0059 2.9941 32 6.6875 32H25.3125C29.0059 32 32 29.0059 32 25.3125V6.6875C32 2.9941 29.0059 0 25.3125 0Z" fill="#19D88C"/>
<path d="M22.4355 2.02096C22.6086 1.75343 23.0001 1.75343 23.1732 2.02096L24.304 3.76844C24.417 3.94303 24.6369 4.01449 24.831 3.93965L26.773 3.19061C27.0703 3.07594 27.387 3.30601 27.3698 3.6242L27.2575 5.70265C27.2463 5.91031 27.3822 6.09739 27.5832 6.15089L29.5946 6.6864C29.9025 6.76838 30.0235 7.14065 29.8226 7.38797L28.5101 9.00348C28.3789 9.16489 28.3789 9.39613 28.5101 9.55754L29.8226 11.173C30.0235 11.4204 29.9025 11.7926 29.5946 11.8746L27.5832 12.4101C27.3822 12.4636 27.2463 12.6507 27.2575 12.8583L27.3698 14.9368C27.387 15.255 27.0703 15.4851 26.773 15.3704L24.831 14.6213C24.6369 14.5465 24.417 14.618 24.304 14.7926L23.1732 16.54C23 16.8076 22.6086 16.8076 22.4355 16.54L21.3046 14.7926C21.1917 14.618 20.9717 14.5465 20.7777 14.6213L18.8357 15.3704C18.5384 15.4851 18.2217 15.255 18.2389 14.9368L18.3511 12.8583C18.3624 12.6507 18.2264 12.4636 18.0255 12.4101L16.0141 11.8746C15.7061 11.7926 15.5852 11.4204 15.7861 11.173L17.0986 9.55754C17.2298 9.39613 17.2298 9.16489 17.0986 9.00348L15.7861 7.38797C15.5852 7.14065 15.7061 6.76838 16.0141 6.6864L18.0255 6.15089C18.2264 6.09739 18.3624 5.91031 18.3511 5.70265L18.2389 3.6242C18.2217 3.30601 18.5384 3.07594 18.8357 3.19061L20.7777 3.93965C20.9717 4.01449 21.1917 3.94303 21.3046 3.76844L22.4355 2.02096Z" fill="url(#paint0_linear_4305_15147)"/>
<path d="M22.4355 2.02096C22.6086 1.75343 23.0001 1.75343 23.1732 2.02096L24.304 3.76844C24.417 3.94303 24.6369 4.01449 24.831 3.93965L26.773 3.19061C27.0703 3.07594 27.387 3.30601 27.3698 3.6242L27.2575 5.70265C27.2463 5.91031 27.3822 6.09739 27.5832 6.15089L29.5946 6.6864C29.9025 6.76838 30.0235 7.14065 29.8226 7.38797L28.5101 9.00348C28.3789 9.16489 28.3789 9.39613 28.5101 9.55754L29.8226 11.173C30.0235 11.4204 29.9025 11.7926 29.5946 11.8746L27.5832 12.4101C27.3822 12.4636 27.2463 12.6507 27.2575 12.8583L27.3698 14.9368C27.387 15.255 27.0703 15.4851 26.773 15.3704L24.831 14.6213C24.6369 14.5465 24.417 14.618 24.304 14.7926L23.1732 16.54C23 16.8076 22.6086 16.8076 22.4355 16.54L21.3046 14.7926C21.1917 14.618 20.9717 14.5465 20.7777 14.6213L18.8357 15.3704C18.5384 15.4851 18.2217 15.255 18.2389 14.9368L18.3511 12.8583C18.3624 12.6507 18.2264 12.4636 18.0255 12.4101L16.0141 11.8746C15.7061 11.7926 15.5852 11.4204 15.7861 11.173L17.0986 9.55754C17.2298 9.39613 17.2298 9.16489 17.0986 9.00348L15.7861 7.38797C15.5852 7.14065 15.7061 6.76838 16.0141 6.6864L18.0255 6.15089C18.2264 6.09739 18.3624 5.91031 18.3511 5.70265L18.2389 3.6242C18.2217 3.30601 18.5384 3.07594 18.8357 3.19061L20.7777 3.93965C20.9717 4.01449 21.1917 3.94303 21.3046 3.76844L22.4355 2.02096Z" fill="url(#paint1_linear_4305_15147)" fill-opacity="0.2"/>
<path d="M22.4355 2.02096C22.6086 1.75343 23.0001 1.75343 23.1732 2.02096L24.304 3.76844C24.417 3.94303 24.6369 4.01449 24.831 3.93965L26.773 3.19061C27.0703 3.07594 27.387 3.30601 27.3698 3.6242L27.2575 5.70265C27.2463 5.91031 27.3822 6.09739 27.5832 6.15089L29.5946 6.6864C29.9025 6.76838 30.0235 7.14065 29.8226 7.38797L28.5101 9.00348C28.3789 9.16489 28.3789 9.39613 28.5101 9.55754L29.8226 11.173C30.0235 11.4204 29.9025 11.7926 29.5946 11.8746L27.5832 12.4101C27.3822 12.4636 27.2463 12.6507 27.2575 12.8583L27.3698 14.9368C27.387 15.255 27.0703 15.4851 26.773 15.3704L24.831 14.6213C24.6369 14.5465 24.417 14.618 24.304 14.7926L23.1732 16.54C23 16.8076 22.6086 16.8076 22.4355 16.54L21.3046 14.7926C21.1917 14.618 20.9717 14.5465 20.7777 14.6213L18.8357 15.3704C18.5384 15.4851 18.2217 15.255 18.2389 14.9368L18.3511 12.8583C18.3624 12.6507 18.2264 12.4636 18.0255 12.4101L16.0141 11.8746C15.7061 11.7926 15.5852 11.4204 15.7861 11.173L17.0986 9.55754C17.2298 9.39613 17.2298 9.16489 17.0986 9.00348L15.7861 7.38797C15.5852 7.14065 15.7061 6.76838 16.0141 6.6864L18.0255 6.15089C18.2264 6.09739 18.3624 5.91031 18.3511 5.70265L18.2389 3.6242C18.2217 3.30601 18.5384 3.07594 18.8357 3.19061L20.7777 3.93965C20.9717 4.01449 21.1917 3.94303 21.3046 3.76844L22.4355 2.02096Z" fill="url(#paint2_linear_4305_15147)"/>
<path d="M6.82361 18.2358C6.94506 18.0881 7.17116 18.0881 7.29261 18.2358L8.61214 19.8403C8.6688 19.9092 8.75289 19.9497 8.84208 19.9511L10.9193 19.9823C11.1105 19.9852 11.2515 20.1619 11.2117 20.349L10.7799 22.3811C10.7614 22.4683 10.7822 22.5593 10.8367 22.6299L12.1074 24.2734C12.2244 24.4246 12.1741 24.6451 12.0031 24.7306L10.1451 25.66C10.0654 25.6999 10.0072 25.7729 9.98599 25.8595L9.49332 27.8777C9.44797 28.0635 9.24427 28.1616 9.07076 28.0812L7.18571 27.2081C7.10477 27.1706 7.01144 27.1706 6.9305 27.2081L5.04546 28.0812C4.87195 28.1616 4.66825 28.0635 4.6229 27.8777L4.13023 25.8595C4.10908 25.7729 4.05089 25.6999 3.97111 25.66L2.11316 24.7306C1.94215 24.6451 1.89184 24.4246 2.0088 24.2734L3.2795 22.6299C3.33406 22.5593 3.35483 22.4683 3.33629 22.3811L2.90451 20.349C2.86477 20.1619 3.00574 19.9852 3.19693 19.9823L5.27414 19.9511C5.36333 19.9497 5.44742 19.9092 5.50407 19.8403L6.82361 18.2358Z" fill="url(#paint3_linear_4305_15147)"/>
<path d="M6.82361 18.2358C6.94506 18.0881 7.17116 18.0881 7.29261 18.2358L8.61214 19.8403C8.6688 19.9092 8.75289 19.9497 8.84208 19.9511L10.9193 19.9823C11.1105 19.9852 11.2515 20.1619 11.2117 20.349L10.7799 22.3811C10.7614 22.4683 10.7822 22.5593 10.8367 22.6299L12.1074 24.2734C12.2244 24.4246 12.1741 24.6451 12.0031 24.7306L10.1451 25.66C10.0654 25.6999 10.0072 25.7729 9.98599 25.8595L9.49332 27.8777C9.44797 28.0635 9.24427 28.1616 9.07076 28.0812L7.18571 27.2081C7.10477 27.1706 7.01144 27.1706 6.9305 27.2081L5.04546 28.0812C4.87195 28.1616 4.66825 28.0635 4.6229 27.8777L4.13023 25.8595C4.10908 25.7729 4.05089 25.6999 3.97111 25.66L2.11316 24.7306C1.94215 24.6451 1.89184 24.4246 2.0088 24.2734L3.2795 22.6299C3.33406 22.5593 3.35483 22.4683 3.33629 22.3811L2.90451 20.349C2.86477 20.1619 3.00574 19.9852 3.19693 19.9823L5.27414 19.9511C5.36333 19.9497 5.44742 19.9092 5.50407 19.8403L6.82361 18.2358Z" fill="url(#paint4_linear_4305_15147)" fill-opacity="0.2"/>
<path d="M6.82361 18.2358C6.94506 18.0881 7.17116 18.0881 7.29261 18.2358L8.61214 19.8403C8.6688 19.9092 8.75289 19.9497 8.84208 19.9511L10.9193 19.9823C11.1105 19.9852 11.2515 20.1619 11.2117 20.349L10.7799 22.3811C10.7614 22.4683 10.7822 22.5593 10.8367 22.6299L12.1074 24.2734C12.2244 24.4246 12.1741 24.6451 12.0031 24.7306L10.1451 25.66C10.0654 25.6999 10.0072 25.7729 9.98599 25.8595L9.49332 27.8777C9.44797 28.0635 9.24427 28.1616 9.07076 28.0812L7.18571 27.2081C7.10477 27.1706 7.01144 27.1706 6.9305 27.2081L5.04546 28.0812C4.87195 28.1616 4.66825 28.0635 4.6229 27.8777L4.13023 25.8595C4.10908 25.7729 4.05089 25.6999 3.97111 25.66L2.11316 24.7306C1.94215 24.6451 1.89184 24.4246 2.0088 24.2734L3.2795 22.6299C3.33406 22.5593 3.35483 22.4683 3.33629 22.3811L2.90451 20.349C2.86477 20.1619 3.00574 19.9852 3.19693 19.9823L5.27414 19.9511C5.36333 19.9497 5.44742 19.9092 5.50407 19.8403L6.82361 18.2358Z" fill="url(#paint5_linear_4305_15147)"/>
<path d="M25.2697 13.8503C26.0588 14.0619 26.5273 14.8731 26.3158 15.6623L25.7259 17.864C24.888 17.6397 24.027 18.1373 23.8024 18.9753C23.592 19.7609 24.0158 20.5668 24.7601 20.8495L24.9126 20.8995L24.3229 23.1001C24.1114 23.8893 23.3001 24.3577 22.5109 24.1463L4.67896 19.3683C3.88977 19.1568 3.42134 18.3455 3.6328 17.5563L4.22273 15.3546C5.06077 15.5792 5.92322 15.0828 6.14785 14.2448C6.3724 13.4067 5.87477 12.545 5.03678 12.3203L5.62576 10.1184C5.83723 9.3292 6.64855 8.8608 7.43776 9.07225L25.2697 13.8503Z" fill="#D9D9D9"/>
<path d="M25.2697 13.8503C26.0588 14.0619 26.5273 14.8731 26.3158 15.6623L25.7259 17.864C24.888 17.6397 24.027 18.1373 23.8024 18.9753C23.592 19.7609 24.0158 20.5668 24.7601 20.8495L24.9126 20.8995L24.3229 23.1001C24.1114 23.8893 23.3001 24.3577 22.5109 24.1463L4.67896 19.3683C3.88977 19.1568 3.42134 18.3455 3.6328 17.5563L4.22273 15.3546C5.06077 15.5792 5.92322 15.0828 6.14785 14.2448C6.3724 13.4067 5.87477 12.545 5.03678 12.3203L5.62576 10.1184C5.83723 9.3292 6.64855 8.8608 7.43776 9.07225L25.2697 13.8503Z" fill="url(#paint6_linear_4305_15147)"/>
<path d="M25.2697 13.8503C26.0588 14.0619 26.5273 14.8731 26.3158 15.6623L25.7259 17.864C24.888 17.6397 24.027 18.1373 23.8024 18.9753C23.592 19.7609 24.0158 20.5668 24.7601 20.8495L24.9126 20.8995L24.3229 23.1001C24.1114 23.8893 23.3001 24.3577 22.5109 24.1463L4.67896 19.3683C3.88977 19.1568 3.42134 18.3455 3.6328 17.5563L4.22273 15.3546C5.06077 15.5792 5.92322 15.0828 6.14785 14.2448C6.3724 13.4067 5.87477 12.545 5.03678 12.3203L5.62576 10.1184C5.83723 9.3292 6.64855 8.8608 7.43776 9.07225L25.2697 13.8503Z" fill="url(#paint7_linear_4305_15147)"/>
<path d="M25.1134 20.2203L18.3525 22.3165C16.3521 22.9367 15.2333 25.0611 15.8535 27.0615C16.4737 29.0618 18.5981 30.1807 20.5985 29.5605L27.3593 27.4643C29.3597 26.8441 30.4786 24.7197 29.8584 22.7193C29.2382 20.7189 27.1137 19.6001 25.1134 20.2203Z" fill="#D9D9D9"/>
<path d="M25.1134 20.2203L18.3525 22.3165C16.3521 22.9367 15.2333 25.0611 15.8535 27.0615C16.4737 29.0618 18.5981 30.1807 20.5985 29.5605L27.3593 27.4643C29.3597 26.8441 30.4786 24.7197 29.8584 22.7193C29.2382 20.7189 27.1137 19.6001 25.1134 20.2203Z" fill="url(#paint8_linear_4305_15147)"/>
<path d="M25.1134 20.2203L18.3525 22.3165C16.3521 22.9367 15.2333 25.0611 15.8535 27.0615C16.4737 29.0618 18.5981 30.1807 20.5985 29.5605L27.3593 27.4643C29.3597 26.8441 30.4786 24.7197 29.8584 22.7193C29.2382 20.7189 27.1137 19.6001 25.1134 20.2203Z" fill="url(#paint9_linear_4305_15147)"/>
<path d="M57.0071 17.3118H39V15.1783H46.8301V13.3007H41.2829V6.85742H54.7242V8.96963H43.7151V11.1672H54.9376V13.3007H49.3903V15.1783H57.0071V17.3118ZM55.1936 22.0696C55.1936 25.5899 50.6278 25.6539 48.0035 25.6539C45.3793 25.6539 40.8135 25.5899 40.8135 22.0696C40.8135 18.5493 45.3793 18.4853 48.0035 18.4853C50.6278 18.4853 55.1936 18.5493 55.1936 22.0696ZM52.804 22.0696C52.804 21.2802 52.0146 20.7255 49.2197 20.6401C48.4303 20.6188 47.5768 20.6188 46.7874 20.6401C43.9925 20.7255 43.2031 21.2802 43.2031 22.0696C43.2031 22.859 43.9925 23.4137 46.7874 23.4991C47.5768 23.5204 48.4303 23.5204 49.2197 23.4991C52.0146 23.4137 52.804 22.859 52.804 22.0696Z" fill="#19D88C"/>
<path d="M69.9476 20.2777L68.5181 22.1339C66.3846 20.9818 64.4644 19.3176 63.4616 17.2908C62.6722 19.3176 60.6667 21.1951 58.2131 22.646L56.5703 20.9178C59.6852 19.211 62.0535 16.5014 62.1388 12.7037H57.9144V10.5274H68.9875V12.7037H64.6564C64.6991 16.3093 67.1313 18.8696 69.9476 20.2777ZM73.4252 25.4409H70.993V6.3457H73.4252V25.4409ZM66.4912 9.26865H60.2613V7.09244H66.4912V9.26865Z" fill="#19D88C"/>
<path d="M83.6365 19.5097V10.1221H79.0494V19.5097H83.6365ZM91.6373 25.4409H89.205V6.3457H91.6373V25.4409ZM86.0687 21.6859H76.6172V7.94586H86.0687V21.6859Z" fill="#19D88C"/>
</g>
<defs>
<linearGradient id="paint0_linear_4305_15147" x1="13.251" y1="7.24056" x2="32.7708" y2="15.3056" gradientUnits="userSpaceOnUse">
<stop stop-color="#36D69D"/>
<stop offset="0.485228" stop-color="#B7FFE6"/>
<stop offset="1" stop-color="#36D69D"/>
</linearGradient>
<linearGradient id="paint1_linear_4305_15147" x1="15.6042" y1="6.96549" x2="27.593" y2="16.2781" gradientUnits="userSpaceOnUse">
<stop stop-color="#00FFA4"/>
<stop offset="1" stop-color="#54FFC2"/>
</linearGradient>
<linearGradient id="paint2_linear_4305_15147" x1="9.89446" y1="27.0673" x2="33.7436" y2="3.9182" gradientUnits="userSpaceOnUse">
<stop stop-color="#36D69D"/>
<stop offset="0.578007" stop-color="#B7FFE6"/>
<stop offset="1" stop-color="white"/>
</linearGradient>
<linearGradient id="paint3_linear_4305_15147" x1="0.456027" y1="21.9517" x2="13.9457" y2="27.5252" gradientUnits="userSpaceOnUse">
<stop stop-color="#36D69D"/>
<stop offset="0.485228" stop-color="#B7FFE6"/>
<stop offset="1" stop-color="#36D69D"/>
</linearGradient>
<linearGradient id="paint4_linear_4305_15147" x1="2.08229" y1="21.7616" x2="10.3674" y2="28.1973" gradientUnits="userSpaceOnUse">
<stop stop-color="#00FFA4"/>
<stop offset="1" stop-color="#54FFC2"/>
</linearGradient>
<linearGradient id="paint5_linear_4305_15147" x1="-7.09644" y1="41.4271" x2="14.618" y2="19.6557" gradientUnits="userSpaceOnUse">
<stop stop-color="#36D69D"/>
<stop offset="0.514772" stop-color="#B7FFE6"/>
<stop offset="1" stop-color="white"/>
</linearGradient>
<linearGradient id="paint6_linear_4305_15147" x1="4.93177" y1="10.3722" x2="-8.78512" y2="48.2681" gradientUnits="userSpaceOnUse">
<stop stop-color="#36D69D"/>
<stop offset="0.485228" stop-color="#B7FFE6"/>
<stop offset="1" stop-color="#36D69D"/>
</linearGradient>
<linearGradient id="paint7_linear_4305_15147" x1="6.20593" y1="26.171" x2="10.2464" y2="8.29502" gradientUnits="userSpaceOnUse">
<stop stop-color="#36D69D"/>
<stop offset="0.553988" stop-color="#B7FFE6"/>
<stop offset="1" stop-color="white"/>
</linearGradient>
<linearGradient id="paint8_linear_4305_15147" x1="14.7364" y1="24.8562" x2="20.7629" y2="52.8828" gradientUnits="userSpaceOnUse">
<stop stop-color="#36D69D"/>
<stop offset="0.485228" stop-color="#B7FFE6"/>
<stop offset="1" stop-color="#36D69D"/>
</linearGradient>
<linearGradient id="paint9_linear_4305_15147" x1="8.58067" y1="39.1953" x2="14.747" y2="15.0103" gradientUnits="userSpaceOnUse">
<stop stop-color="#36D69D"/>
<stop offset="0.567321" stop-color="#B7FFE6"/>
<stop offset="1" stop-color="white"/>
</linearGradient>
<clipPath id="clip0_4305_15147">
<rect width="92" height="32" fill="white"/>
</clipPath>
</defs>
</svg>
