<svg width="157" height="60" viewBox="0 0 157 60" fill="none" xmlns="http://www.w3.org/2000/svg">
<g clip-path="url(#clip0_1335_51039)">
<path d="M49.7705 10.78H23.9053C18.7762 10.78 14.6182 14.938 14.6182 20.0672V45.9324C14.6182 51.0616 18.7762 55.2196 23.9053 55.2196H49.7705C54.8997 55.2196 59.0577 51.0616 59.0577 45.9324V20.0672C59.0577 14.938 54.8997 10.78 49.7705 10.78Z" fill="#19D88C"/>
<path d="M45.7736 13.5863C46.014 13.2147 46.5577 13.2147 46.798 13.5863L48.3684 16.0131C48.5253 16.2555 48.8307 16.3548 49.1003 16.2508L51.7972 15.2106C52.2101 15.0514 52.6499 15.3709 52.626 15.8127L52.4701 18.6992C52.4545 18.9875 52.6432 19.2473 52.9224 19.3216L55.7157 20.0653C56.1433 20.1792 56.3113 20.6962 56.0323 21.0396L54.2096 23.2831C54.0274 23.5073 54.0274 23.8284 54.2096 24.0526L56.0323 26.2961C56.3113 26.6396 56.1433 27.1565 55.7157 27.2704L52.9224 28.0141C52.6432 28.0884 52.4545 28.3482 52.4701 28.6365L52.626 31.523C52.6499 31.9649 52.2101 32.2844 51.7972 32.1251L49.1003 31.0848C48.8307 30.981 48.5253 31.0803 48.3684 31.3227L46.798 33.7494C46.5575 34.121 46.014 34.121 45.7736 33.7494L44.203 31.3227C44.0463 31.0803 43.7407 30.981 43.4713 31.0848L40.7744 32.1251C40.3615 32.2844 39.9217 31.9649 39.9456 31.523L40.1014 28.6365C40.1171 28.3482 39.9282 28.0884 39.6492 28.0141L36.8559 27.2704C36.4282 27.1565 36.2603 26.6396 36.5393 26.2961L38.362 24.0526C38.5442 23.8284 38.5442 23.5073 38.362 23.2831L36.5393 21.0396C36.2603 20.6962 36.4282 20.1792 36.8559 20.0653L39.6492 19.3216C39.9282 19.2473 40.1171 18.9875 40.1014 18.6992L39.9456 15.8127C39.9217 15.3709 40.3615 15.0514 40.7744 15.2106L43.4713 16.2508C43.7407 16.3548 44.0463 16.2555 44.203 16.0131L45.7736 13.5863Z" fill="url(#paint0_linear_1335_51039)"/>
<path d="M45.7736 13.5863C46.014 13.2147 46.5577 13.2147 46.798 13.5863L48.3684 16.0131C48.5253 16.2555 48.8307 16.3548 49.1003 16.2508L51.7972 15.2106C52.2101 15.0514 52.6499 15.3709 52.626 15.8127L52.4701 18.6992C52.4545 18.9875 52.6432 19.2473 52.9224 19.3216L55.7157 20.0653C56.1433 20.1792 56.3113 20.6962 56.0323 21.0396L54.2096 23.2831C54.0274 23.5073 54.0274 23.8284 54.2096 24.0526L56.0323 26.2961C56.3113 26.6396 56.1433 27.1565 55.7157 27.2704L52.9224 28.0141C52.6432 28.0884 52.4545 28.3482 52.4701 28.6365L52.626 31.523C52.6499 31.9649 52.2101 32.2844 51.7972 32.1251L49.1003 31.0848C48.8307 30.981 48.5253 31.0803 48.3684 31.3227L46.798 33.7494C46.5575 34.121 46.014 34.121 45.7736 33.7494L44.203 31.3227C44.0463 31.0803 43.7407 30.981 43.4713 31.0848L40.7744 32.1251C40.3615 32.2844 39.9217 31.9649 39.9456 31.523L40.1014 28.6365C40.1171 28.3482 39.9282 28.0884 39.6492 28.0141L36.8559 27.2704C36.4282 27.1565 36.2603 26.6396 36.5393 26.2961L38.362 24.0526C38.5442 23.8284 38.5442 23.5073 38.362 23.2831L36.5393 21.0396C36.2603 20.6962 36.4282 20.1792 36.8559 20.0653L39.6492 19.3216C39.9282 19.2473 40.1171 18.9875 40.1014 18.6992L39.9456 15.8127C39.9217 15.3709 40.3615 15.0514 40.7744 15.2106L43.4713 16.2508C43.7407 16.3548 44.0463 16.2555 44.203 16.0131L45.7736 13.5863Z" fill="url(#paint1_linear_1335_51039)" fill-opacity="0.2"/>
<path d="M45.7736 13.5863C46.014 13.2147 46.5577 13.2147 46.798 13.5863L48.3684 16.0131C48.5253 16.2555 48.8307 16.3548 49.1003 16.2508L51.7972 15.2106C52.2101 15.0514 52.6499 15.3709 52.626 15.8127L52.4701 18.6992C52.4545 18.9875 52.6432 19.2473 52.9224 19.3216L55.7157 20.0653C56.1433 20.1792 56.3113 20.6962 56.0323 21.0396L54.2096 23.2831C54.0274 23.5073 54.0274 23.8284 54.2096 24.0526L56.0323 26.2961C56.3113 26.6396 56.1433 27.1565 55.7157 27.2704L52.9224 28.0141C52.6432 28.0884 52.4545 28.3482 52.4701 28.6365L52.626 31.523C52.6499 31.9649 52.2101 32.2844 51.7972 32.1251L49.1003 31.0848C48.8307 30.981 48.5253 31.0803 48.3684 31.3227L46.798 33.7494C46.5575 34.121 46.014 34.121 45.7736 33.7494L44.203 31.3227C44.0463 31.0803 43.7407 30.981 43.4713 31.0848L40.7744 32.1251C40.3615 32.2844 39.9217 31.9649 39.9456 31.523L40.1014 28.6365C40.1171 28.3482 39.9282 28.0884 39.6492 28.0141L36.8559 27.2704C36.4282 27.1565 36.2603 26.6396 36.5393 26.2961L38.362 24.0526C38.5442 23.8284 38.5442 23.5073 38.362 23.2831L36.5393 21.0396C36.2603 20.6962 36.4282 20.1792 36.8559 20.0653L39.6492 19.3216C39.9282 19.2473 40.1171 18.9875 40.1014 18.6992L39.9456 15.8127C39.9217 15.3709 40.3615 15.0514 40.7744 15.2106L43.4713 16.2508C43.7407 16.3548 44.0463 16.2555 44.203 16.0131L45.7736 13.5863Z" fill="url(#paint2_linear_1335_51039)"/>
<path d="M24.096 36.1053C24.2646 35.9001 24.5786 35.9001 24.7473 36.1053L26.5798 38.3335C26.6584 38.4292 26.7752 38.4854 26.8991 38.4874L29.7838 38.5307C30.0493 38.5347 30.2451 38.7801 30.1898 39.0399L29.5902 41.862C29.5645 41.9831 29.5934 42.1095 29.669 42.2075L31.4337 44.4899C31.5962 44.6999 31.5263 45.0061 31.2889 45.1248L28.7086 46.4155C28.5979 46.4709 28.5171 46.5723 28.4877 46.6926L27.8035 49.4953C27.7405 49.7533 27.4576 49.8896 27.2167 49.7779L24.5988 48.5654C24.4864 48.5133 24.3568 48.5133 24.2444 48.5654L21.6266 49.7779C21.3856 49.8896 21.1027 49.7533 21.0398 49.4953L20.3556 46.6926C20.3262 46.5723 20.2454 46.4709 20.1346 46.4155L17.5544 45.1248C17.3169 45.0061 17.247 44.6999 17.4095 44.4899L19.1741 42.2075C19.2499 42.1095 19.2787 41.9831 19.253 41.862L18.6534 39.0399C18.5982 38.7801 18.7939 38.5347 19.0595 38.5307L21.9442 38.4874C22.068 38.4854 22.1848 38.4292 22.2635 38.3335L24.096 36.1053Z" fill="url(#paint3_linear_1335_51039)"/>
<path d="M24.096 36.1053C24.2646 35.9001 24.5786 35.9001 24.7473 36.1053L26.5798 38.3335C26.6584 38.4292 26.7752 38.4854 26.8991 38.4874L29.7838 38.5307C30.0493 38.5347 30.2451 38.7801 30.1898 39.0399L29.5902 41.862C29.5645 41.9831 29.5934 42.1095 29.669 42.2075L31.4337 44.4899C31.5962 44.6999 31.5263 45.0061 31.2889 45.1248L28.7086 46.4155C28.5979 46.4709 28.5171 46.5723 28.4877 46.6926L27.8035 49.4953C27.7405 49.7533 27.4576 49.8896 27.2167 49.7779L24.5988 48.5654C24.4864 48.5133 24.3568 48.5133 24.2444 48.5654L21.6266 49.7779C21.3856 49.8896 21.1027 49.7533 21.0398 49.4953L20.3556 46.6926C20.3262 46.5723 20.2454 46.4709 20.1346 46.4155L17.5544 45.1248C17.3169 45.0061 17.247 44.6999 17.4095 44.4899L19.1741 42.2075C19.2499 42.1095 19.2787 41.9831 19.253 41.862L18.6534 39.0399C18.5982 38.7801 18.7939 38.5347 19.0595 38.5307L21.9442 38.4874C22.068 38.4854 22.1848 38.4292 22.2635 38.3335L24.096 36.1053Z" fill="url(#paint4_linear_1335_51039)" fill-opacity="0.2"/>
<path d="M24.096 36.1053C24.2646 35.9001 24.5786 35.9001 24.7473 36.1053L26.5798 38.3335C26.6584 38.4292 26.7752 38.4854 26.8991 38.4874L29.7838 38.5307C30.0493 38.5347 30.2451 38.7801 30.1898 39.0399L29.5902 41.862C29.5645 41.9831 29.5934 42.1095 29.669 42.2075L31.4337 44.4899C31.5962 44.6999 31.5263 45.0061 31.2889 45.1248L28.7086 46.4155C28.5979 46.4709 28.5171 46.5723 28.4877 46.6926L27.8035 49.4953C27.7405 49.7533 27.4576 49.8896 27.2167 49.7779L24.5988 48.5654C24.4864 48.5133 24.3568 48.5133 24.2444 48.5654L21.6266 49.7779C21.3856 49.8896 21.1027 49.7533 21.0398 49.4953L20.3556 46.6926C20.3262 46.5723 20.2454 46.4709 20.1346 46.4155L17.5544 45.1248C17.3169 45.0061 17.247 44.6999 17.4095 44.4899L19.1741 42.2075C19.2499 42.1095 19.2787 41.9831 19.253 41.862L18.6534 39.0399C18.5982 38.7801 18.7939 38.5347 19.0595 38.5307L21.9442 38.4874C22.068 38.4854 22.1848 38.4292 22.2635 38.3335L24.096 36.1053Z" fill="url(#paint5_linear_1335_51039)"/>
<path d="M49.7102 30.014C50.806 30.3079 51.4567 31.4344 51.1629 32.5304L50.3437 35.588C49.1801 35.2765 47.9844 35.9675 47.6725 37.1313C47.3803 38.2223 47.9689 39.3414 49.0025 39.734L49.2143 39.8035L48.3953 42.8595C48.1016 43.9555 46.9749 44.606 45.879 44.3124L21.1151 37.677C20.0192 37.3833 19.3686 36.2566 19.6623 35.1607L20.4816 32.1031C21.6454 32.415 22.8431 31.7256 23.155 30.5619C23.4669 29.398 22.7758 28.2013 21.6121 27.8892L22.43 24.8314C22.7237 23.7354 23.8504 23.085 24.9464 23.3786L49.7102 30.014Z" fill="#D9D9D9"/>
<path d="M49.7102 30.014C50.806 30.3079 51.4567 31.4344 51.1629 32.5304L50.3437 35.588C49.1801 35.2765 47.9844 35.9675 47.6725 37.1313C47.3803 38.2223 47.9689 39.3414 49.0025 39.734L49.2143 39.8035L48.3953 42.8595C48.1016 43.9555 46.9749 44.606 45.879 44.3124L21.1151 37.677C20.0192 37.3833 19.3686 36.2566 19.6623 35.1607L20.4816 32.1031C21.6454 32.415 22.8431 31.7256 23.155 30.5619C23.4669 29.398 22.7758 28.2013 21.6121 27.8892L22.43 24.8314C22.7237 23.7354 23.8504 23.085 24.9464 23.3786L49.7102 30.014Z" fill="url(#paint6_linear_1335_51039)"/>
<path d="M49.7102 30.014C50.806 30.3079 51.4567 31.4344 51.1629 32.5304L50.3437 35.588C49.1801 35.2765 47.9844 35.9675 47.6725 37.1313C47.3803 38.2223 47.9689 39.3414 49.0025 39.734L49.2143 39.8035L48.3953 42.8595C48.1016 43.9555 46.9749 44.606 45.879 44.3124L21.1151 37.677C20.0192 37.3833 19.3686 36.2566 19.6623 35.1607L20.4816 32.1031C21.6454 32.415 22.8431 31.7256 23.155 30.5619C23.4669 29.398 22.7758 28.2013 21.6121 27.8892L22.43 24.8314C22.7237 23.7354 23.8504 23.085 24.9464 23.3786L49.7102 30.014Z" fill="url(#paint7_linear_1335_51039)"/>
<path d="M49.4953 38.8607L40.1062 41.7718C37.3282 42.6331 35.7744 45.5833 36.6357 48.3613C37.497 51.1393 40.4473 52.6931 43.2253 51.8318L52.6143 48.9207C55.3924 48.0594 56.9461 45.1092 56.0848 42.3312C55.2235 39.5532 52.2733 37.9994 49.4953 38.8607Z" fill="#D9D9D9"/>
<path d="M49.4953 38.8607L40.1062 41.7718C37.3282 42.6331 35.7744 45.5833 36.6357 48.3613C37.497 51.1393 40.4473 52.6931 43.2253 51.8318L52.6143 48.9207C55.3924 48.0594 56.9461 45.1092 56.0848 42.3312C55.2235 39.5532 52.2733 37.9994 49.4953 38.8607Z" fill="url(#paint8_linear_1335_51039)"/>
<path d="M49.4953 38.8607L40.1062 41.7718C37.3282 42.6331 35.7744 45.5833 36.6357 48.3613C37.497 51.1393 40.4473 52.6931 43.2253 51.8318L52.6143 48.9207C55.3924 48.0594 56.9461 45.1092 56.0848 42.3312C55.2235 39.5532 52.2733 37.9994 49.4953 38.8607Z" fill="url(#paint9_linear_1335_51039)"/>
<path d="M93.7864 34.822H68.7793V31.8592H79.6532V29.2517H71.9496V20.3037H90.6161V23.237H75.3273V26.2888H90.9124V29.2517H83.2087V31.8592H93.7864V34.822ZM91.2679 41.4294C91.2679 46.3181 84.9272 46.407 81.2828 46.407C77.6385 46.407 71.2978 46.3181 71.2978 41.4294C71.2978 36.5406 77.6385 36.4517 81.2828 36.4517C84.9272 36.4517 91.2679 36.5406 91.2679 41.4294ZM87.9494 41.4294C87.9494 40.3331 86.8531 39.5628 82.9718 39.4442C81.8755 39.4146 80.6902 39.4146 79.5939 39.4442C75.7126 39.5628 74.6163 40.3331 74.6163 41.4294C74.6163 42.5256 75.7126 43.296 79.5939 43.4146C80.6902 43.4441 81.8755 43.4441 82.9718 43.4146C86.8531 43.296 87.9494 42.5256 87.9494 41.4294Z" fill="#19D88C"/>
<path d="M111.758 38.9404L109.773 41.5182C106.81 39.9182 104.143 37.6071 102.751 34.7924C101.655 37.6071 98.8695 40.2144 95.4621 42.2293L93.1807 39.8293C97.5064 37.459 100.795 33.6961 100.914 28.4221H95.0473V25.3998H110.425V28.4221H104.41C104.469 33.4293 107.847 36.9849 111.758 38.9404ZM116.588 46.1107H113.21V19.5925H116.588V46.1107ZM106.958 23.6517H98.3065V20.6296H106.958V23.6517Z" fill="#19D88C"/>
<path d="M130.767 37.8738V24.837H124.396V37.8738H130.767ZM141.878 46.1107H138.5V19.5925H141.878V46.1107ZM134.144 40.896H121.019V21.8147H134.144V40.896Z" fill="#19D88C"/>
</g>
<defs>
<linearGradient id="paint0_linear_1335_51039" x1="33.0187" y1="20.8349" x2="60.1266" y2="32.0351" gradientUnits="userSpaceOnUse">
<stop stop-color="#36D69D"/>
<stop offset="0.485228" stop-color="#B7FFE6"/>
<stop offset="1" stop-color="#36D69D"/>
</linearGradient>
<linearGradient id="paint1_linear_1335_51039" x1="36.2867" y1="20.4529" x2="52.936" y2="33.3857" gradientUnits="userSpaceOnUse">
<stop stop-color="#00FFA4"/>
<stop offset="1" stop-color="#54FFC2"/>
</linearGradient>
<linearGradient id="paint2_linear_1335_51039" x1="28.3573" y1="48.369" x2="61.4775" y2="16.221" gradientUnits="userSpaceOnUse">
<stop stop-color="#36D69D"/>
<stop offset="0.578007" stop-color="#B7FFE6"/>
<stop offset="1" stop-color="white"/>
</linearGradient>
<linearGradient id="paint3_linear_1335_51039" x1="15.2531" y1="41.2657" x2="33.9866" y2="49.0058" gradientUnits="userSpaceOnUse">
<stop stop-color="#36D69D"/>
<stop offset="0.485228" stop-color="#B7FFE6"/>
<stop offset="1" stop-color="#36D69D"/>
</linearGradient>
<linearGradient id="paint4_linear_1335_51039" x1="17.5115" y1="41.0017" x2="29.0173" y2="49.9391" gradientUnits="userSpaceOnUse">
<stop stop-color="#00FFA4"/>
<stop offset="1" stop-color="#54FFC2"/>
</linearGradient>
<linearGradient id="paint5_linear_1335_51039" x1="4.76469" y1="68.3118" x2="34.9203" y2="38.0771" gradientUnits="userSpaceOnUse">
<stop stop-color="#36D69D"/>
<stop offset="0.514772" stop-color="#B7FFE6"/>
<stop offset="1" stop-color="white"/>
</linearGradient>
<linearGradient id="paint6_linear_1335_51039" x1="21.4662" y1="25.1838" x2="2.41709" y2="77.8112" gradientUnits="userSpaceOnUse">
<stop stop-color="#36D69D"/>
<stop offset="0.485228" stop-color="#B7FFE6"/>
<stop offset="1" stop-color="#36D69D"/>
</linearGradient>
<linearGradient id="paint7_linear_1335_51039" x1="23.2357" y1="47.1242" x2="28.8468" y2="22.2992" gradientUnits="userSpaceOnUse">
<stop stop-color="#36D69D"/>
<stop offset="0.553988" stop-color="#B7FFE6"/>
<stop offset="1" stop-color="white"/>
</linearGradient>
<linearGradient id="paint8_linear_1335_51039" x1="35.0844" y1="45.2987" x2="43.4536" y2="84.2203" gradientUnits="userSpaceOnUse">
<stop stop-color="#36D69D"/>
<stop offset="0.485228" stop-color="#B7FFE6"/>
<stop offset="1" stop-color="#36D69D"/>
</linearGradient>
<linearGradient id="paint9_linear_1335_51039" x1="26.5357" y1="65.212" x2="35.0991" y2="31.6254" gradientUnits="userSpaceOnUse">
<stop stop-color="#36D69D"/>
<stop offset="0.567321" stop-color="#B7FFE6"/>
<stop offset="1" stop-color="white"/>
</linearGradient>
<clipPath id="clip0_1335_51039">
<rect width="127.764" height="44.4395" fill="white" transform="translate(14.6182 10.78)"/>
</clipPath>
</defs>
</svg>
