<svg width="183" height="183" viewBox="0 0 183 183" fill="none" xmlns="http://www.w3.org/2000/svg">
<path d="M132.652 2.40039C133.086 2.50942 133.497 2.72535 133.842 3.04785L133.701 3.19824C133.851 3.33793 133.987 3.49957 134.105 3.68359L134.546 4.36719L134.72 4.25488V4.25391L135.602 5.62109V5.62207L135.428 5.73438L136.31 7.10059L136.483 6.98926V6.98828L137.364 8.35449V8.35547L137.19 8.46777L138.072 9.83496L138.246 9.72266V9.72168L139.128 11.0889V11.0898L138.954 11.2021L139.835 12.5684L140.009 12.4561L140.891 13.8223V13.8232L140.717 13.9355L141.157 14.6191C141.344 14.9086 141.575 15.1564 141.836 15.3574L141.963 15.1934V15.1924C142.462 15.5765 143.08 15.7776 143.709 15.7607L143.71 15.7617L143.716 15.9688C143.963 15.962 144.212 15.9236 144.456 15.8525L144.699 15.7705L145.456 15.4775L145.381 15.2842L146.894 14.6982L146.895 14.6992L146.969 14.8916L148.482 14.3057L148.408 14.1133L148.407 14.1123L149.921 13.5264L149.922 13.5273L149.996 13.7197L151.51 13.1348L151.436 12.9414L151.435 12.9404L152.948 12.3555L153.023 12.5488L154.537 11.9629L154.462 11.7695L155.976 11.1836L156.051 11.377L156.808 11.084C157.011 11.0051 157.216 10.9549 157.419 10.9297L157.394 10.7246C157.861 10.6666 158.319 10.7334 158.733 10.8994H158.734L158.657 11.0908C159.05 11.2482 159.4 11.5021 159.671 11.8262L159.829 11.6934C160.116 12.0359 160.321 12.4513 160.411 12.9141L160.209 12.9531C160.238 13.1035 160.255 13.2601 160.256 13.4209L160.252 13.583L160.208 14.3975L160.415 14.4092L160.327 16.0381L160.12 16.0264L160.033 17.6553L160.239 17.667L160.151 19.2959L159.945 19.2842L159.857 20.9131L160.063 20.9238L159.976 22.5527L159.77 22.543L159.682 24.1719L159.888 24.1816L159.8 25.8105L159.595 25.8008L159.551 26.6152C159.532 26.9582 159.574 27.2932 159.667 27.6084L159.865 27.5498V27.5488C160.043 28.1511 160.424 28.6754 160.941 29.0312V29.0322L160.824 29.2031C161.095 29.3893 161.401 29.5324 161.733 29.6211L162.519 29.8311L162.571 29.6309L164.143 30.0498V30.0508L164.089 30.251L165.659 30.6699L165.712 30.4697L167.283 30.8887V30.8896L167.229 31.0898L168.8 31.5088L168.854 31.3096V31.3086L170.424 31.7275V31.7285L170.37 31.9287L171.941 32.3486L171.994 32.1484V32.1475L173.564 32.5664V32.5674L173.512 32.7676L174.297 32.9775C174.508 33.0339 174.703 33.114 174.881 33.2129L174.98 33.0312C175.392 33.2593 175.723 33.5832 175.96 33.9609L175.785 34.0713C176.01 34.4288 176.143 34.8387 176.172 35.2598L176.378 35.2451C176.409 35.6899 176.331 36.1457 176.133 36.5723L175.946 36.4863C175.882 36.6249 175.803 36.7601 175.71 36.8906L175.612 37.0195L175.099 37.6533L175.259 37.7832L174.233 39.0508L174.073 38.9209L173.047 40.1885L173.207 40.3174L172.181 41.585L172.021 41.4561L170.994 42.7227L171.155 42.8535L170.129 44.1211L169.969 43.9902L168.942 45.2578L169.104 45.3877L168.077 46.6553L167.916 46.5254L167.403 47.1592C167.188 47.4257 167.025 47.7209 166.915 48.0303L167.11 48.0986C166.901 48.6896 166.901 49.3367 167.11 49.9277V49.9287L166.915 49.998C167.025 50.3074 167.188 50.6027 167.403 50.8691L167.916 51.502L168.077 51.3721V51.3711L169.104 52.6387V52.6396L168.942 52.7695L169.969 54.0371L170.129 53.9072V53.9062L171.155 55.1729V55.1738L170.994 55.3047L172.021 56.5723L172.181 56.4414L173.207 57.709H173.208L173.047 57.8389L174.073 59.1064L174.233 58.9766V58.9756L175.26 60.2432V60.2441L175.099 60.374L175.612 61.0078C175.75 61.1775 175.86 61.3571 175.946 61.542L176.133 61.4541C176.331 61.8806 176.408 62.3365 176.378 62.7812L176.172 62.7676C176.143 63.1887 176.01 63.5995 175.785 63.957L175.96 64.0654C175.723 64.4434 175.392 64.7669 174.98 64.9951L174.881 64.8154C174.747 64.8895 174.604 64.9531 174.452 65.0039L174.297 65.0498L173.512 65.2598L173.564 65.46L171.994 65.8789L171.941 65.6797L170.37 66.0986L170.424 66.2988L168.853 66.7178L168.8 66.5186L167.229 66.9385L167.283 67.1377L165.712 67.5566L165.659 67.3574L164.089 67.7773L164.142 67.9766L162.571 68.3955L162.519 68.1963L161.733 68.4062C161.401 68.4949 161.095 68.638 160.824 68.8242L160.941 68.9951C160.424 69.351 160.043 69.8761 159.865 70.4785L159.667 70.4199C159.574 70.7351 159.532 71.0701 159.551 71.4131L159.595 72.2275L159.8 72.2158L159.888 73.8447H159.889L159.682 73.8564L159.77 75.4854L159.976 75.4736L160.063 77.1025H160.064L159.857 77.1143L159.945 78.7432L160.151 78.7314V78.7305L160.239 80.3594V80.3604L160.033 80.3721L160.12 82.001L160.327 81.9893V81.9883L160.415 83.6172V83.6182L160.208 83.6299L160.252 84.4443C160.264 84.6628 160.248 84.8737 160.209 85.0742L160.411 85.1123C160.321 85.5752 160.116 85.9904 159.829 86.333L159.671 86.2012C159.4 86.5254 159.05 86.7792 158.657 86.9365L158.733 87.1279C158.319 87.294 157.861 87.3598 157.394 87.3018L157.419 87.0986C157.216 87.0735 157.012 87.0222 156.808 86.9434L156.051 86.6504L155.975 86.8438L154.461 86.2578L154.537 86.0645L153.023 85.4785L152.947 85.6719L151.435 85.0859H151.436L151.51 84.8936L149.996 84.3076L149.922 84.5H149.921L148.408 83.9141L148.482 83.7217L146.969 83.1357L146.895 83.3281L145.381 82.7422L145.456 82.5498L144.699 82.2568L144.456 82.1748C144.212 82.1038 143.963 82.0663 143.716 82.0596L143.71 82.2656C143.081 82.2485 142.462 82.45 141.963 82.834L141.836 82.6699C141.575 82.871 141.344 83.1187 141.157 83.4082L140.717 84.0918L140.891 84.2041L140.009 85.5703L139.835 85.459L138.954 86.8262L139.127 86.9375L138.246 88.3047L138.072 88.1924L137.19 89.5596L137.364 89.6719L136.482 91.0381L136.31 90.9268L135.428 92.2939L135.602 92.4053L134.72 93.7725L134.546 93.6602L134.105 94.3438C133.987 94.5278 133.85 94.6894 133.701 94.8291L133.842 94.9785C133.497 95.3013 133.086 95.5179 132.652 95.627L132.603 95.4268C132.243 95.5171 131.867 95.5287 131.504 95.4609L131.35 95.4268L131.299 95.627C130.865 95.5177 130.454 95.3014 130.109 94.9785L130.251 94.8291C130.102 94.6894 129.965 94.5278 129.847 94.3438L129.406 93.6602L129.231 93.7715L128.35 92.4053L128.524 92.2939L127.643 90.9268L127.469 91.0381L126.587 89.6709L126.762 89.5596L125.88 88.1924L125.705 88.3047L124.824 86.9375L124.998 86.8262L124.116 85.459L123.942 85.5703L123.061 84.2041H123.062L123.235 84.0918L122.794 83.4082C122.607 83.1188 122.376 82.8709 122.115 82.6699L121.988 82.834C121.489 82.4501 120.871 82.2483 120.241 82.2656L120.236 82.0596C119.907 82.0686 119.574 82.1325 119.253 82.2568L118.496 82.5498L118.57 82.7422L117.057 83.3281L116.982 83.1357L115.47 83.7217L115.543 83.9141L114.03 84.5L113.956 84.3076L112.442 84.8936L112.517 85.0859L111.003 85.6719L110.929 85.4785L109.415 86.0645L109.49 86.2578L107.977 86.8438L107.901 86.6504L107.145 86.9434C106.941 87.0223 106.736 87.0735 106.533 87.0986L106.558 87.3018C106.09 87.3597 105.632 87.2941 105.218 87.1279L105.295 86.9365C104.903 86.7792 104.553 86.5253 104.281 86.2012L104.122 86.333C103.835 85.9904 103.63 85.575 103.54 85.1123L103.743 85.0742C103.714 84.9237 103.697 84.7673 103.696 84.6064L103.7 84.4443L103.744 83.6299L103.537 83.6182L103.536 83.6172L103.624 81.9883L103.625 81.9893L103.832 82.001L103.919 80.3721L103.713 80.3604L103.712 80.3594L103.8 78.7305L103.801 78.7314L104.007 78.7432L104.095 77.1143L103.888 77.1025L103.976 75.4736L104.183 75.4854L104.271 73.8564L104.063 73.8447L104.151 72.2158L104.357 72.2275L104.401 71.4131C104.415 71.1557 104.396 70.9025 104.346 70.6592L104.285 70.4199L104.087 70.4785H104.086C103.908 69.8757 103.527 69.3509 103.009 68.9951L103.127 68.8242C102.856 68.6381 102.551 68.4949 102.219 68.4062L101.434 68.1963L101.38 68.3965H101.379L99.8096 67.9766L99.8633 67.7773L98.293 67.3574L98.2383 67.5576L96.668 67.1377H96.6689L96.7227 66.9385L95.1523 66.5186L95.0986 66.7178L93.5273 66.2988H93.5283L93.5811 66.0986L92.0107 65.6797L91.958 65.8789H91.957L90.3867 65.459L90.4404 65.2598L89.6553 65.0498C89.4443 64.9934 89.2487 64.9144 89.0703 64.8154L88.9707 64.9951C88.5591 64.7668 88.2282 64.4434 87.9912 64.0654L88.166 63.957C87.9416 63.5995 87.8083 63.1887 87.7793 62.7676L87.5732 62.7812C87.5428 62.3366 87.62 61.8805 87.8184 61.4541L88.0059 61.542C88.0704 61.4032 88.149 61.2675 88.2422 61.1367L88.3398 61.0078L88.8535 60.374L88.6924 60.2441L88.6914 60.2432L89.7178 58.9756L89.7188 58.9766L89.8789 59.1064L90.9053 57.8389L90.7441 57.709L90.7432 57.708L91.7695 56.4404L91.7705 56.4414L91.9316 56.5723L92.958 55.3047L92.7969 55.1738L92.7959 55.1729L93.8223 53.9062L93.8232 53.9072L93.9834 54.0371L95.0098 52.7695L94.8486 52.6396L94.8477 52.6387L95.874 51.3711L95.875 51.3721L96.0361 51.502L96.5488 50.8691C96.7646 50.6027 96.9276 50.3074 97.0371 49.998L96.8418 49.9287L96.8408 49.9277C97.0499 49.3364 97.0493 48.6898 96.8398 48.0986H96.8418L97.0371 48.0303C96.9276 47.7209 96.7646 47.4257 96.5488 47.1592L96.0361 46.5254L95.874 46.6553L94.8477 45.3877L95.0098 45.2578L93.9834 43.9902L93.8232 44.1211H93.8223L92.7959 42.8535H92.7969L92.958 42.7227L91.9316 41.4561L91.7695 41.5859L90.7432 40.3184L90.9053 40.1885L89.8789 38.9209L89.7188 39.0508H89.7178L88.6914 37.7842H88.6924L88.8535 37.6533L88.3398 37.0195C88.2027 36.85 88.0918 36.671 88.0059 36.4863L87.8184 36.5723C87.6202 36.1458 87.5426 35.6898 87.5732 35.2451L87.7793 35.2598C87.8083 34.8388 87.9418 34.4287 88.166 34.0713L87.9912 33.9609C88.2283 33.5832 88.5592 33.2594 88.9707 33.0312L89.0703 33.2129C89.2487 33.1139 89.4443 33.0339 89.6553 32.9775L90.4404 32.7676L90.3867 32.5674L91.957 32.1475L91.958 32.1484L92.0107 32.3486L93.5811 31.9287L93.5283 31.7285L93.5273 31.7275L95.0977 31.3086L95.0986 31.3096L95.1523 31.5088L96.7227 31.0898L96.6689 30.8896L96.668 30.8887L98.2383 30.4688L98.2393 30.4697L98.293 30.6699L99.8633 30.251L99.8096 30.0508L99.8086 30.0498L101.379 29.6299L101.38 29.6309L101.434 29.8311L102.219 29.6211C102.551 29.5324 102.856 29.3893 103.127 29.2031L103.01 29.0322C103.528 28.6764 103.908 28.1514 104.086 27.5488L104.087 27.5498L104.285 27.6084C104.378 27.2932 104.42 26.9582 104.401 26.6152L104.357 25.8008L104.151 25.8105L104.063 24.1816L104.271 24.1719L104.183 22.543L103.976 22.5527L103.888 20.9238L104.095 20.9131L104.007 19.2842L103.8 19.2959L103.712 17.667L103.919 17.6553L103.832 16.0264L103.624 16.0381L103.536 14.4092L103.744 14.3975L103.7 13.583L103.696 13.4209C103.698 13.2601 103.714 13.1035 103.743 12.9531L103.54 12.9141C103.63 12.4515 103.835 12.0358 104.122 11.6934L104.281 11.8262C104.553 11.5021 104.903 11.2482 105.295 11.0908L105.218 10.8994C105.632 10.7333 106.09 10.6667 106.558 10.7246L106.533 10.9297C106.736 10.9549 106.941 11.0051 107.145 11.084L107.901 11.377L107.976 11.1836L109.489 11.7695L109.415 11.9629L110.929 12.5488L111.002 12.3555L112.517 12.9404V12.9414L112.442 13.1348L113.956 13.7197L114.03 13.5273V13.5264L115.544 14.1123V14.1133L115.47 14.3057L116.982 14.8916L117.057 14.6982L118.57 15.2842H118.571L118.496 15.4775L119.253 15.7705C119.574 15.8949 119.907 15.9598 120.236 15.9688L120.242 15.7617V15.7607C120.872 15.7778 121.489 15.5764 121.988 15.1924L121.989 15.1934L122.115 15.3574C122.311 15.2066 122.491 15.0294 122.646 14.8281L122.794 14.6191L123.235 13.9355L123.062 13.8232L123.061 13.8223L123.942 12.4561L124.116 12.5684L124.998 11.2021L124.824 11.0898L124.823 11.0889L125.705 9.72168L125.706 9.72266L125.88 9.83496L126.762 8.46777L126.587 8.35547L127.468 6.98828L127.469 6.98926L127.643 7.10059L128.524 5.73438L128.351 5.62207L128.35 5.62109L129.231 4.25488L129.406 4.36719L129.847 3.68359C129.965 3.49956 130.102 3.33793 130.251 3.19824L130.109 3.04785C130.417 2.75984 130.778 2.55633 131.16 2.43848L131.299 2.40039L131.35 2.60059C131.76 2.49742 132.192 2.4974 132.603 2.60059L132.652 2.40039Z" fill="white" stroke="black" stroke-width="0.413958" stroke-dasharray="1.66 1.66"/>
<path d="M63.7744 140.954L64.7676 142.241V142.242L64.6035 142.368L65.0996 143.012C65.2582 143.218 65.3609 143.446 65.4121 143.68L65.6133 143.636C65.7337 144.186 65.6004 144.766 65.2529 145.21L65.0918 145.084C64.981 145.225 64.8453 145.351 64.6865 145.454L64.5205 145.55L63.7949 145.913L63.8867 146.098L62.4375 146.825L62.3457 146.642L60.8955 147.369L60.9883 147.554L59.5371 148.281L59.4453 148.097L57.9951 148.825L58.0879 149.01L56.6377 149.737L56.5449 149.553L55.0957 150.28L55.1875 150.465L53.7383 151.193L53.6455 151.009L52.9199 151.372C52.4377 151.614 52.0698 152.031 51.8877 152.533L51.8213 152.754L51.6289 153.543L51.8301 153.593L51.4453 155.171L51.2451 155.123L50.8604 156.703L51.0615 156.752L50.6768 158.332L50.4756 158.283L50.0918 159.863L50.292 159.911L49.9082 161.492L49.707 161.443L49.3232 163.023L49.5234 163.071L49.1387 164.651L48.9385 164.604L48.7461 165.394C48.6844 165.647 48.5701 165.87 48.4189 166.057L48.5791 166.186C48.2231 166.625 47.6846 166.885 47.1191 166.889L47.1182 166.683C46.8781 166.684 46.6319 166.634 46.3955 166.524L45.6611 166.183L45.5742 166.37L44.1035 165.688L44.1924 165.5L42.7227 164.817L42.6348 165.005L41.166 164.321L41.2529 164.135L39.7842 163.451L39.6963 163.639H39.6953L38.2266 162.956H38.2275L38.3145 162.769L36.8457 162.086L36.7578 162.272L35.2891 161.59L35.376 161.402L34.6416 161.062L34.4268 160.976C33.9916 160.829 33.5201 160.829 33.085 160.976L32.8701 161.062L32.1357 161.402L32.2217 161.59L30.7529 162.272L30.666 162.086L29.1973 162.769L29.2842 162.956L27.8145 163.639L27.7275 163.451L26.2578 164.135L26.3447 164.321L24.875 165.004L24.7891 164.817L23.3193 165.5L23.4072 165.688L21.9365 166.37L21.8506 166.183L21.1152 166.524C20.8789 166.634 20.6335 166.684 20.3936 166.683L20.3916 166.889C19.8262 166.884 19.2875 166.625 18.9316 166.186L19.0918 166.057C18.9407 165.87 18.8273 165.647 18.7656 165.394L18.5732 164.604L18.3721 164.651L17.9873 163.071L18.1885 163.023L17.8047 161.443L17.6025 161.492L17.2188 159.911L17.4199 159.863L17.0352 158.283L16.834 158.331L16.4492 156.752L16.6514 156.703L16.2666 155.123L16.0654 155.171L15.6807 153.593L15.8828 153.543L15.6904 152.754L15.624 152.533C15.4419 152.031 15.0732 151.614 14.5908 151.372L13.8662 151.009L13.7734 151.193H13.7725L12.3223 150.466L12.416 150.28L10.9658 149.553L10.873 149.737H10.8721L9.42285 149.01H9.42383L9.5166 148.825L8.06641 148.097L7.97266 148.282L6.52246 147.554H6.52344L6.61621 147.369L5.16602 146.642L5.07324 146.825L3.62305 146.098L3.71582 145.913L2.99121 145.55L2.8252 145.454C2.66639 145.351 2.5307 145.225 2.41992 145.084L2.25781 145.21C1.91062 144.766 1.77713 144.186 1.89746 143.636L2.09961 143.68C2.138 143.504 2.20455 143.332 2.30273 143.17L2.41211 143.012L2.9082 142.368L2.74414 142.242L2.74316 142.241L3.73633 140.954L3.90039 141.08L4.89258 139.793L4.72852 139.666L5.71973 138.378L5.7207 138.379L5.88477 138.505L6.87695 137.218L6.71289 137.091L7.7041 135.803L7.70508 135.804L7.86914 135.93L8.86133 134.642L8.69727 134.516L8.69629 134.515L9.68945 133.228L9.85352 133.354L10.3496 132.71C10.7251 132.222 10.8677 131.594 10.7402 130.992L10.5723 130.196L10.3691 130.238L10.0322 128.646L10.2344 128.604L9.89746 127.013L9.69434 127.056L9.35742 125.464L9.56055 125.421L9.22363 123.829L9.02148 123.872H9.02051L8.68359 122.278L8.88672 122.236L8.5498 120.645L8.3457 120.688L8.00879 119.096L8.21191 119.053L8.04395 118.257L8.01465 118.067C7.99619 117.878 8.01018 117.694 8.05176 117.519L7.85059 117.471C7.98098 116.922 8.35313 116.455 8.85938 116.206L8.95117 116.392C9.11256 116.312 9.28943 116.258 9.47754 116.234L9.66895 116.221L10.4785 116.208L10.4756 116.001L12.0957 115.977L12.0986 116.184L13.7188 116.159L13.7148 115.952L15.335 115.928L15.3379 116.135L16.958 116.11L16.9551 115.903L18.5752 115.879L18.5781 116.086L20.1982 116.062L20.1943 115.854L21.8145 115.83L21.8174 116.037L22.6279 116.025C23.2462 116.016 23.8287 115.734 24.2207 115.256L24.7354 114.628L24.5752 114.497L24.5742 114.496L25.6035 113.242L25.7637 113.373L26.793 112.118L26.6328 111.986L26.6318 111.985L27.6611 110.731L27.8213 110.862L28.8506 109.607L28.6904 109.476L28.6895 109.475L29.7188 108.221L29.8789 108.352L30.9082 107.097L30.748 106.966L30.7471 106.965L31.7764 105.71L31.9365 105.842L32.4512 105.214C32.6165 105.012 32.8161 104.86 33.0332 104.758L32.9453 104.57C33.4563 104.329 34.0544 104.329 34.5654 104.57L34.4785 104.758C34.6956 104.86 34.8952 105.012 35.0605 105.214L35.5752 105.842L35.7344 105.71L36.7637 106.965V106.966L36.6035 107.097L37.6328 108.352L37.792 108.221L38.8213 109.475V109.476L38.6611 109.607L39.6904 110.862L39.8496 110.731L40.8789 111.985V111.986L40.7188 112.118L41.7471 113.373L41.9072 113.242V113.241L42.9365 114.496V114.497L42.7764 114.628L43.291 115.256C43.683 115.734 44.2655 116.016 44.8838 116.025L45.6943 116.037L45.6963 115.83L47.3154 115.854L47.3135 116.062L48.9336 116.086L48.9355 115.879L50.5557 115.903L50.5537 116.11L52.1729 116.135L52.1758 115.928L53.7949 115.952L53.793 116.159L55.4131 116.184L55.415 115.977L57.0352 116.001L57.0332 116.208L57.8428 116.221C58.1029 116.225 58.3454 116.286 58.5605 116.392L58.6514 116.206C59.1579 116.455 59.5297 116.922 59.6602 117.471L59.46 117.519C59.5154 117.752 59.5217 118.002 59.4678 118.257L59.2988 119.053L59.501 119.095L59.1641 120.687L58.9619 120.645L58.625 122.236L58.8271 122.279L58.4893 123.871L58.2881 123.829L57.9512 125.421L58.1523 125.463L57.8154 127.055L57.6143 127.013L57.2764 128.604L57.4785 128.646L57.1416 130.238L56.9395 130.196L56.7715 130.992C56.644 131.594 56.7865 132.222 57.1621 132.71L57.6582 133.354L57.8213 133.228L58.8145 134.515V134.516L58.6504 134.642L59.6426 135.93L59.8066 135.804V135.803L60.7979 137.091H60.7988L60.6348 137.218L61.627 138.505L61.791 138.379V138.378L62.7822 139.666H62.7832L62.6191 139.793L63.6113 141.08L63.7744 140.954Z" fill="white" stroke="black" stroke-width="0.413958" stroke-dasharray="1.66 1.66"/>
<mask id="path-3-inside-1_1434_84967" fill="white">
<path d="M147.361 77.6207C152.284 78.9443 155.208 84.0095 153.893 88.9343L150.205 102.747C144.977 101.343 139.604 104.456 138.203 109.702C136.803 114.947 139.904 120.339 145.132 121.746L141.444 135.556C140.129 140.48 135.072 143.4 130.15 142.076L18.9008 112.164C13.9783 110.841 11.0539 105.775 12.3689 100.851L16.0566 87.0406L16.0592 87.0423C21.2877 88.4481 26.6625 85.3343 28.0634 80.0877C29.4641 74.8413 26.3609 69.4487 21.1325 68.043L21.1297 68.0422L24.8181 54.2293C26.1332 49.3047 31.1897 46.3852 36.1122 47.7087L147.361 77.6207Z"/>
</mask>
<path d="M147.361 77.6207C152.284 78.9443 155.208 84.0095 153.893 88.9343L150.205 102.747C144.977 101.343 139.604 104.456 138.203 109.702C136.803 114.947 139.904 120.339 145.132 121.746L141.444 135.556C140.129 140.48 135.072 143.4 130.15 142.076L18.9008 112.164C13.9783 110.841 11.0539 105.775 12.3689 100.851L16.0566 87.0406L16.0592 87.0423C21.2877 88.4481 26.6625 85.3343 28.0634 80.0877C29.4641 74.8413 26.3609 69.4487 21.1325 68.043L21.1297 68.0422L24.8181 54.2293C26.1332 49.3047 31.1897 46.3852 36.1122 47.7087L147.361 77.6207Z" fill="#E5E8EB"/>
<path d="M153.893 88.9343L154.376 89.0641L154.376 89.0641L153.893 88.9343ZM150.205 102.747L150.076 103.23L150.559 103.36L150.688 102.877L150.205 102.747ZM138.203 109.702L137.721 109.572L137.721 109.572L138.203 109.702ZM145.132 121.746L145.614 121.875L145.743 121.392L145.261 121.263L145.132 121.746ZM141.444 135.556L140.961 135.426L141.444 135.556ZM18.9008 112.164L18.7718 112.647L18.7718 112.647L18.9008 112.164ZM16.0566 87.0406L16.3317 86.6234L15.7527 86.2406L15.5738 86.9108L16.0566 87.0406ZM16.0592 87.0423L15.7841 87.4595L15.8518 87.5043L15.9302 87.5254L16.0592 87.0423ZM28.0634 80.0877L28.5463 80.2176L28.5463 80.2175L28.0634 80.0877ZM21.1325 68.043L21.2615 67.5599L21.1325 68.043ZM21.1297 68.0422L20.6468 67.9124L20.5179 68.3955L21.0007 68.5253L21.1297 68.0422ZM24.8181 54.2293L24.3353 54.0995L24.3353 54.0995L24.8181 54.2293ZM36.1122 47.7087L36.2412 47.2256L36.2412 47.2256L36.1122 47.7087ZM147.361 77.6207L147.49 77.1377L146.281 76.8125L146.152 77.2956L146.023 77.7787L147.232 78.1038L147.361 77.6207ZM143.734 76.6453L143.863 76.1623L141.444 75.512L141.315 75.9951L141.186 76.4782L143.605 77.1284L143.734 76.6453ZM138.897 75.3448L139.026 74.8617L136.607 74.2115L136.478 74.6946L136.349 75.1776L138.768 75.8279L138.897 75.3448ZM134.06 74.0443L134.189 73.5612L131.77 72.911L131.641 73.394L131.512 73.8771L133.931 74.5274L134.06 74.0443ZM129.223 72.7438L129.352 72.2607L126.933 71.6104L126.804 72.0935L126.675 72.5766L129.094 73.2268L129.223 72.7438ZM124.386 71.4433L124.515 70.9602L122.096 70.3099L121.967 70.793L121.838 71.2761L124.257 71.9263L124.386 71.4433ZM119.549 70.1427L119.678 69.6597L117.259 69.0094L117.131 69.4925L117.002 69.9755L119.42 70.6258L119.549 70.1427ZM114.712 68.8422L114.841 68.3591L112.423 67.7089L112.294 68.1919L112.165 68.675L114.583 69.3253L114.712 68.8422ZM109.875 67.5417L110.004 67.0586L107.586 66.4083L107.457 66.8914L107.328 67.3745L109.746 68.0248L109.875 67.5417ZM105.038 66.2412L105.167 65.7581L102.749 65.1078L102.62 65.5909L102.491 66.074L104.909 66.7242L105.038 66.2412ZM100.201 64.9406L100.33 64.4576L97.9118 63.8073L97.7828 64.2904L97.6538 64.7735L100.072 65.4237L100.201 64.9406ZM95.3644 63.6401L95.4934 63.157L93.0749 62.5068L92.9459 62.9899L92.8169 63.4729L95.2354 64.1232L95.3644 63.6401ZM90.5275 62.3396L90.6565 61.8565L88.238 61.2063L88.109 61.6893L87.98 62.1724L90.3985 62.8227L90.5275 62.3396ZM85.6905 61.0391L85.8195 60.556L83.4011 59.9057L83.2721 60.3888L83.1431 60.8719L85.5615 61.5221L85.6905 61.0391ZM80.8536 59.7385L80.9826 59.2555L78.5642 58.6052L78.4352 59.0883L78.3062 59.5714L80.7246 60.2216L80.8536 59.7385ZM76.0167 58.438L76.1457 57.955L73.7273 57.3047L73.5983 57.7878L73.4693 58.2708L75.8877 58.9211L76.0167 58.438ZM71.1798 57.1375L71.3088 56.6544L68.8903 56.0042L68.7613 56.4872L68.6324 56.9703L71.0508 57.6206L71.1798 57.1375ZM66.3429 55.837L66.4719 55.3539L64.0534 54.7037L63.9244 55.1867L63.7954 55.6698L66.2139 56.3201L66.3429 55.837ZM61.506 54.5365L61.635 54.0534L59.2165 53.4031L59.0875 53.8862L58.9585 54.3693L61.377 55.0195L61.506 54.5365ZM56.6691 53.2359L56.7981 52.7529L54.3796 52.1026L54.2506 52.5857L54.1216 53.0688L56.5401 53.719L56.6691 53.2359ZM51.8322 51.9354L51.9612 51.4523L49.5427 50.8021L49.4137 51.2852L49.2847 51.7682L51.7032 52.4185L51.8322 51.9354ZM46.9953 50.6349L47.1243 50.1518L44.7058 49.5016L44.5768 49.9846L44.4478 50.4677L46.8663 51.118L46.9953 50.6349ZM42.1583 49.3344L42.2873 48.8513L39.8689 48.201L39.7399 48.6841L39.6109 49.1672L42.0294 49.8175L42.1583 49.3344ZM37.3214 48.0339L37.4504 47.5508L36.2412 47.2256L36.1122 47.7087L35.9832 48.1918L37.1924 48.5169L37.3214 48.0339ZM36.1122 47.7087L36.2412 47.2256C35.8257 47.1139 35.409 47.0309 34.9934 46.9753L34.9279 47.4711L34.8625 47.9669C35.2354 48.0168 35.6096 48.0913 35.9832 48.1918L36.1122 47.7087ZM32.5197 47.468L32.4539 46.9721C31.6052 47.0837 30.7813 47.3068 30.0023 47.63L30.1942 48.0921L30.3861 48.5543C31.0855 48.2642 31.8246 48.064 32.5855 47.964L32.5197 47.468ZM28.1092 49.2959L27.8049 48.8986C27.1355 49.4118 26.5303 50.0136 26.0093 50.6929L26.4059 50.9979L26.8026 51.3028C27.2697 50.6938 27.8125 50.1538 28.4134 49.6932L28.1092 49.2959ZM25.2045 53.0849L24.7424 52.8937C24.5827 53.2815 24.4463 53.6838 24.3353 54.0995L24.8181 54.2293L25.301 54.3591C25.4008 53.9854 25.5233 53.624 25.6666 53.2762L25.2045 53.0849ZM24.8181 54.2293L24.3353 54.0995L24.0279 55.2506L24.5108 55.3804L24.9936 55.5102L25.301 54.3591L24.8181 54.2293ZM23.896 57.6825L23.4132 57.5527L22.7984 59.8549L23.2813 59.9847L23.7641 60.1145L24.3789 57.8124L23.896 57.6825ZM22.6665 62.2868L22.1837 62.157L21.569 64.4592L22.0518 64.589L22.5347 64.7188L23.1494 62.4167L22.6665 62.2868ZM21.4371 66.8911L20.9542 66.7613L20.6468 67.9124L21.1297 68.0422L21.6126 68.172L21.9199 67.021L21.4371 66.8911ZM21.1297 68.0422L21.0007 68.5253L21.0014 68.5255L21.1304 68.0424L21.2594 67.5593L21.2587 67.5591L21.1297 68.0422ZM21.1318 68.0428L21.0028 68.5259L21.0035 68.526L21.1325 68.043L21.2615 67.5599L21.2608 67.5597L21.1318 68.0428ZM21.1325 68.043L21.0035 68.526C21.4022 68.6332 21.7876 68.7648 22.1587 68.9186L22.3493 68.4564L22.5399 67.9943C22.1288 67.8239 21.7023 67.6784 21.2615 67.5599L21.1325 68.043ZM24.568 69.7413L24.2633 70.1373C24.9124 70.6381 25.488 71.2199 25.979 71.8638L26.3762 71.5607L26.7733 71.2576C26.2298 70.5448 25.5923 69.9003 24.8727 69.3453L24.568 69.7413ZM27.6541 73.7852L27.1923 73.9757C27.5011 74.7237 27.7143 75.514 27.821 76.3277L28.3165 76.2634L28.8121 76.199C28.6939 75.2977 28.4578 74.4226 28.116 73.5948L27.6541 73.7852ZM28.3144 78.8273L27.819 78.7608C27.7662 79.1592 27.6871 79.5589 27.5806 79.9579L28.0634 80.0877L28.5463 80.2175C28.664 79.7768 28.7514 79.3348 28.8099 78.8939L28.3144 78.8273ZM28.0634 80.0877L27.5806 79.9579C27.474 80.357 27.3434 80.7428 27.1906 81.1143L27.6528 81.3053L28.115 81.4962C28.2841 81.085 28.4286 80.6583 28.5463 80.2176L28.0634 80.0877ZM26.3771 83.527L25.98 83.2226C25.4821 83.8738 24.9037 84.4514 24.2635 84.9443L24.5686 85.3409L24.8737 85.7376C25.5822 85.1921 26.2227 84.5526 26.7742 83.8313L26.3771 83.527ZM22.3534 86.6264L22.1605 86.1647C21.4144 86.4761 20.6259 86.6912 19.8142 86.7992L19.8808 87.2951L19.9474 87.7909C20.8472 87.6712 21.7205 87.4328 22.5463 87.0882L22.3534 86.6264ZM17.319 87.2947L17.3842 86.7989C16.9862 86.7459 16.5869 86.6664 16.1882 86.5592L16.0592 87.0423L15.9302 87.5254C16.3709 87.6439 16.8129 87.7319 17.2539 87.7906L17.319 87.2947ZM16.0592 87.0423L16.3343 86.6251L16.3336 86.6247L16.0585 87.0419L15.7835 87.4591L15.7841 87.4595L16.0592 87.0423ZM16.0573 87.041L16.3323 86.6238L16.3317 86.6234L16.0566 87.0406L15.7815 87.4578L15.7822 87.4583L16.0573 87.041ZM16.0566 87.0406L15.5738 86.9108L15.2665 88.0616L15.7493 88.1914L16.2322 88.3213L16.5395 87.1704L16.0566 87.0406ZM15.1347 90.4931L14.6518 90.3633L14.0372 92.665L14.5201 92.7948L15.0029 92.9246L15.6175 90.623L15.1347 90.4931ZM13.9055 95.0965L13.4226 94.9667L12.808 97.2683L13.2909 97.3982L13.7737 97.528L14.3883 95.2263L13.9055 95.0965ZM12.6763 99.6998L12.1934 99.57L11.8861 100.721L12.3689 100.851L12.8518 100.981L13.1591 99.8297L12.6763 99.6998ZM12.3689 100.851L11.8861 100.721C11.7751 101.137 11.6927 101.553 11.6378 101.969L12.1333 102.036L12.6288 102.102C12.678 101.729 12.752 101.354 12.8518 100.981L12.3689 100.851ZM12.1338 104.446L11.6384 104.511C11.7511 105.361 11.9753 106.186 12.2993 106.966L12.7608 106.774L13.2223 106.583C12.9314 105.883 12.7303 105.143 12.6292 104.381L12.1338 104.446ZM13.9667 108.863L13.5702 109.167C14.0839 109.838 14.6861 110.444 15.3656 110.967L15.6697 110.57L15.9738 110.174C15.3646 109.705 14.8243 109.161 14.3632 108.559L13.9667 108.863ZM17.7568 111.776L17.5664 112.238C17.9541 112.398 18.3563 112.536 18.7718 112.647L18.9008 112.164L19.0298 111.681C18.6562 111.581 18.295 111.458 17.9472 111.314L17.7568 111.776ZM18.9008 112.164L18.7718 112.647L19.981 112.972L20.11 112.489L20.239 112.006L19.0298 111.681L18.9008 112.164ZM22.5285 113.14L22.3995 113.623L24.8179 114.273L24.9469 113.79L25.0759 113.307L22.6575 112.657L22.5285 113.14ZM27.3654 114.44L27.2364 114.923L29.6549 115.573L29.7839 115.09L29.9128 114.607L27.4944 113.957L27.3654 114.44ZM32.2023 115.741L32.0733 116.224L34.4918 116.874L34.6208 116.391L34.7498 115.908L32.3313 115.258L32.2023 115.741ZM37.0392 117.041L36.9102 117.524L39.3287 118.174L39.4577 117.691L39.5867 117.208L37.1682 116.558L37.0392 117.041ZM41.8761 118.342L41.7471 118.825L44.1656 119.475L44.2946 118.992L44.4236 118.509L42.0051 117.859L41.8761 118.342ZM46.7131 119.642L46.5841 120.125L49.0025 120.776L49.1315 120.292L49.2605 119.809L46.8421 119.159L46.7131 119.642ZM51.55 120.943L51.421 121.426L53.8394 122.076L53.9684 121.593L54.0974 121.11L51.679 120.46L51.55 120.943ZM56.3869 122.243L56.2579 122.726L58.6764 123.377L58.8054 122.894L58.9343 122.41L56.5159 121.76L56.3869 122.243ZM61.2238 123.544L61.0948 124.027L63.5133 124.677L63.6423 124.194L63.7713 123.711L61.3528 123.061L61.2238 123.544ZM66.0607 124.844L65.9317 125.327L68.3502 125.978L68.4792 125.495L68.6082 125.011L66.1897 124.361L66.0607 124.844ZM70.8976 126.145L70.7687 126.628L73.1871 127.278L73.3161 126.795L73.4451 126.312L71.0266 125.662L70.8976 126.145ZM75.7346 127.445L75.6056 127.928L78.024 128.579L78.153 128.096L78.282 127.613L75.8636 126.962L75.7346 127.445ZM80.5715 128.746L80.4425 129.229L82.8609 129.879L82.9899 129.396L83.1189 128.913L80.7005 128.263L80.5715 128.746ZM85.4084 130.046L85.2794 130.529L87.6979 131.18L87.8268 130.697L87.9558 130.214L85.5374 129.563L85.4084 130.046ZM90.2453 131.347L90.1163 131.83L92.5348 132.48L92.6638 131.997L92.7928 131.514L90.3743 130.864L90.2453 131.347ZM95.0822 132.647L94.9532 133.13L97.3717 133.781L97.5007 133.298L97.6297 132.815L95.2112 132.164L95.0822 132.647ZM99.9191 133.948L99.7901 134.431L102.209 135.081L102.338 134.598L102.467 134.115L100.048 133.465L99.9191 133.948ZM104.756 135.248L104.627 135.732L107.045 136.382L107.174 135.899L107.303 135.416L104.885 134.765L104.756 135.248ZM109.593 136.549L109.464 137.032L111.882 137.682L112.011 137.199L112.14 136.716L109.722 136.066L109.593 136.549ZM114.43 137.85L114.301 138.333L116.719 138.983L116.848 138.5L116.977 138.017L114.559 137.366L114.43 137.85ZM119.267 139.15L119.138 139.633L121.556 140.283L121.685 139.8L121.814 139.317L119.396 138.667L119.267 139.15ZM124.104 140.451L123.975 140.934L126.393 141.584L126.522 141.101L126.651 140.618L124.233 139.967L124.104 140.451ZM128.941 141.751L128.812 142.234L130.021 142.559L130.15 142.076L130.279 141.593L129.07 141.268L128.941 141.751ZM130.15 142.076L130.021 142.559C130.436 142.671 130.853 142.754 131.269 142.81L131.334 142.314L131.4 141.818C131.027 141.768 130.652 141.694 130.279 141.593L130.15 142.076ZM133.742 142.317L133.808 142.813C134.657 142.701 135.481 142.478 136.26 142.155L136.068 141.693L135.876 141.231C135.177 141.521 134.437 141.721 133.677 141.821L133.742 142.317ZM138.153 140.489L138.457 140.886C139.127 140.373 139.732 139.771 140.253 139.092L139.856 138.787L139.46 138.482C138.992 139.091 138.45 139.631 137.849 140.092L138.153 140.489ZM141.058 136.7L141.52 136.891C141.679 136.503 141.816 136.101 141.927 135.685L141.444 135.556L140.961 135.426C140.861 135.8 140.739 136.161 140.595 136.509L141.058 136.7ZM141.444 135.556L141.927 135.685L142.234 134.535L141.751 134.405L141.268 134.275L140.961 135.426L141.444 135.556ZM142.366 132.103L142.849 132.233L143.463 129.931L142.98 129.801L142.498 129.672L141.883 131.973L142.366 132.103ZM143.595 127.5L144.078 127.63L144.692 125.328L144.21 125.198L143.727 125.068L143.112 127.37L143.595 127.5ZM144.824 122.896L145.307 123.026L145.614 121.875L145.132 121.746L144.649 121.616L144.341 122.767L144.824 122.896ZM145.132 121.746L145.261 121.263C144.862 121.155 144.477 121.024 144.106 120.87L143.915 121.332L143.724 121.794C144.135 121.964 144.562 122.11 145.002 122.229L145.132 121.746ZM141.697 120.047L142.002 119.651C141.353 119.15 140.777 118.568 140.287 117.924L139.889 118.227L139.492 118.531C140.035 119.243 140.673 119.888 141.392 120.443L141.697 120.047ZM138.612 116.003L139.074 115.813C138.765 115.065 138.552 114.275 138.446 113.461L137.95 113.525L137.455 113.59C137.573 114.491 137.808 115.366 138.15 116.193L138.612 116.003ZM137.952 110.962L138.448 111.028C138.501 110.63 138.58 110.23 138.686 109.831L138.203 109.702L137.721 109.572C137.603 110.012 137.515 110.454 137.457 110.895L137.952 110.962ZM138.203 109.702L138.686 109.831C138.793 109.432 138.924 109.047 139.076 108.675L138.614 108.484L138.152 108.293C137.983 108.704 137.838 109.131 137.721 109.572L138.203 109.702ZM139.889 106.263L140.286 106.567C140.784 105.916 141.362 105.339 142.002 104.846L141.697 104.449L141.392 104.053C140.684 104.598 140.044 105.237 139.492 105.959L139.889 106.263ZM143.912 103.164L144.105 103.626C144.851 103.314 145.639 103.099 146.45 102.991L146.384 102.495L146.317 101.999C145.418 102.119 144.545 102.357 143.719 102.702L143.912 103.164ZM148.945 102.495L148.88 102.991C149.278 103.044 149.677 103.123 150.076 103.23L150.205 102.747L150.334 102.264C149.893 102.146 149.451 102.058 149.01 101.999L148.945 102.495ZM150.205 102.747L150.688 102.877L150.995 101.726L150.512 101.596L150.029 101.466L149.722 102.617L150.205 102.747ZM151.127 99.2939L151.61 99.4238L152.224 97.1216L151.741 96.9918L151.259 96.862L150.644 99.1641L151.127 99.2939ZM152.356 94.6896L152.839 94.8195L153.454 92.5173L152.971 92.3875L152.488 92.2577L151.873 94.5598L152.356 94.6896ZM153.586 90.0853L154.069 90.2152L154.376 89.0641L153.893 88.9343L153.41 88.8044L153.103 89.9555L153.586 90.0853ZM153.893 88.9343L154.376 89.0641C154.487 88.6484 154.569 88.2315 154.624 87.8156L154.129 87.7493L153.633 87.6831C153.584 88.0563 153.51 88.4306 153.41 88.8044L153.893 88.9343ZM154.128 85.3391L154.624 85.274C154.511 84.4243 154.287 83.5994 153.963 82.8192L153.501 83.0106L153.04 83.202C153.331 83.9024 153.532 84.6424 153.633 85.4042L154.128 85.3391ZM152.295 80.9219L152.692 80.618C152.178 79.9473 151.576 79.3407 150.896 78.8182L150.592 79.2147L150.288 79.6112C150.897 80.0796 151.438 80.6238 151.899 81.2259L152.295 80.9219ZM148.505 78.0091L148.696 77.5469C148.308 77.3865 147.906 77.2494 147.49 77.1377L147.361 77.6207L147.232 78.1038C147.606 78.2043 147.967 78.3274 148.315 78.4713L148.505 78.0091ZM153.893 88.9343L154.859 89.1939L154.859 89.1939L153.893 88.9343ZM150.205 102.747L149.947 103.713L150.912 103.973L151.17 103.007L150.205 102.747ZM138.203 109.702L137.238 109.442L137.238 109.442L138.203 109.702ZM145.132 121.746L146.097 122.005L146.355 121.039L145.39 120.779L145.132 121.746ZM141.444 135.556L140.478 135.296L141.444 135.556ZM18.9008 112.164L18.6428 113.13L18.6428 113.13L18.9008 112.164ZM16.0566 87.0406L16.6067 86.2061L15.4488 85.4405L15.0909 86.781L16.0566 87.0406ZM16.0592 87.0423L15.5091 87.8768L15.6445 87.9663L15.8012 88.0085L16.0592 87.0423ZM28.0634 80.0877L29.0292 80.3474L29.0292 80.3473L28.0634 80.0877ZM21.1325 68.043L21.3905 67.0768L21.1325 68.043ZM21.1297 68.0422L20.164 67.7826L19.906 68.7487L20.8717 69.0084L21.1297 68.0422ZM24.8181 54.2293L23.8524 53.9696L23.8524 53.9697L24.8181 54.2293ZM36.1122 47.7087L36.3701 46.7426L36.3701 46.7426L36.1122 47.7087ZM147.361 77.6207L147.619 76.6546L146.41 76.3295L146.152 77.2956L145.894 78.2618L147.103 78.5869L147.361 77.6207ZM143.734 76.6453L143.992 75.6792L141.573 75.0289L141.315 75.9951L141.057 76.9612L143.476 77.6115L143.734 76.6453ZM138.897 75.3448L139.155 74.3787L136.736 73.7284L136.478 74.6946L136.22 75.6607L138.639 76.311L138.897 75.3448ZM134.06 74.0443L134.318 73.0781L131.899 72.4279L131.641 73.394L131.383 74.3602L133.802 75.0104L134.06 74.0443ZM129.223 72.7438L129.481 71.7776L127.062 71.1274L126.804 72.0935L126.546 73.0597L128.965 73.7099L129.223 72.7438ZM124.386 71.4433L124.644 70.4771L122.225 69.8268L121.967 70.793L121.709 71.7591L124.128 72.4094L124.386 71.4433ZM119.549 70.1427L119.807 69.1766L117.388 68.5263L117.131 69.4925L116.873 70.4586L119.291 71.1089L119.549 70.1427ZM114.712 68.8422L114.97 67.8761L112.552 67.2258L112.294 68.1919L112.036 69.1581L114.454 69.8084L114.712 68.8422ZM109.875 67.5417L110.133 66.5755L107.715 65.9253L107.457 66.8914L107.199 67.8576L109.617 68.5078L109.875 67.5417ZM105.038 66.2412L105.296 65.275L102.878 64.6248L102.62 65.5909L102.362 66.557L104.78 67.2073L105.038 66.2412ZM100.201 64.9406L100.459 63.9745L98.0408 63.3242L97.7828 64.2904L97.5248 65.2565L99.9433 65.9068L100.201 64.9406ZM95.3644 63.6401L95.6224 62.674L93.2039 62.0237L92.9459 62.9899L92.6879 63.956L95.1064 64.6063L95.3644 63.6401ZM90.5275 62.3396L90.7854 61.3734L88.367 60.7232L88.109 61.6893L87.851 62.6555L90.2695 63.3057L90.5275 62.3396ZM85.6905 61.0391L85.9485 60.0729L83.5301 59.4227L83.2721 60.3888L83.0141 61.355L85.4326 62.0052L85.6905 61.0391ZM80.8536 59.7385L81.1116 58.7724L78.6932 58.1221L78.4352 59.0883L78.1772 60.0544L80.5956 60.7047L80.8536 59.7385ZM76.0167 58.438L76.2747 57.4719L73.8563 56.8216L73.5983 57.7878L73.3403 58.7539L75.7587 59.4042L76.0167 58.438ZM71.1798 57.1375L71.4378 56.1714L69.0193 55.5211L68.7613 56.4872L68.5034 57.4534L70.9218 58.1037L71.1798 57.1375ZM66.3429 55.837L66.6009 54.8708L64.1824 54.2206L63.9244 55.1867L63.6665 56.1529L66.0849 56.8031L66.3429 55.837ZM61.506 54.5365L61.764 53.5703L59.3455 52.9201L59.0875 53.8862L58.8295 54.8524L61.248 55.5026L61.506 54.5365ZM56.6691 53.2359L56.9271 52.2698L54.5086 51.6195L54.2506 52.5857L53.9926 53.5518L56.4111 54.2021L56.6691 53.2359ZM51.8322 51.9354L52.0902 50.9693L49.6717 50.319L49.4137 51.2852L49.1557 52.2513L51.5742 52.9016L51.8322 51.9354ZM46.9953 50.6349L47.2532 49.6688L44.8348 49.0185L44.5768 49.9846L44.3188 50.9508L46.7373 51.6011L46.9953 50.6349ZM42.1583 49.3344L42.4163 48.3682L39.9979 47.718L39.7399 48.6841L39.4819 49.6503L41.9004 50.3005L42.1583 49.3344ZM37.3214 48.0339L37.5794 47.0677L36.3701 46.7426L36.1122 47.7087L35.8542 48.6749L37.0635 49L37.3214 48.0339ZM36.1122 47.7087L36.3701 46.7426C35.9337 46.6252 35.4959 46.5379 35.0588 46.4795L34.9279 47.4711L34.797 48.4627C35.1485 48.5097 35.5015 48.58 35.8542 48.6749L36.1122 47.7087ZM32.5197 47.468L32.3881 46.4761C31.4955 46.5935 30.6293 46.8281 29.8103 47.1678L30.1942 48.0921L30.5781 49.0164C31.2376 48.7428 31.9343 48.5542 32.6513 48.46L32.5197 47.468ZM28.1092 49.2959L27.5006 48.5013C26.797 49.0407 26.1607 49.6735 25.6127 50.3879L26.4059 50.9979L27.1992 51.6078C27.6393 51.0339 28.151 50.5249 28.7177 50.0905L28.1092 49.2959ZM25.2045 53.0849L24.2803 52.7025C24.1123 53.1102 23.969 53.533 23.8524 53.9696L24.8181 54.2293L25.7838 54.489C25.878 54.1362 25.9936 53.7953 26.1287 53.4674L25.2045 53.0849ZM24.8181 54.2293L23.8524 53.9697L23.5451 55.1207L24.5108 55.3804L25.4765 55.64L25.7838 54.489L24.8181 54.2293ZM23.896 57.6825L22.9303 57.4229L22.3156 59.725L23.2813 59.9847L24.247 60.2443L24.8617 57.9422L23.896 57.6825ZM22.6665 62.2868L21.7008 62.0272L21.0861 64.3293L22.0518 64.589L23.0175 64.8486L23.6322 62.5465L22.6665 62.2868ZM21.4371 66.8911L20.4714 66.6315L20.164 67.7826L21.1297 68.0422L22.0954 68.3019L22.4028 67.1508L21.4371 66.8911ZM21.1297 68.0422L20.8717 69.0084L20.8724 69.0086L21.1304 68.0424L21.3884 67.0763L21.3877 67.0761L21.1297 68.0422ZM21.1318 68.0428L20.8738 69.0089L20.8745 69.0091L21.1325 68.043L21.3905 67.0768L21.3898 67.0766L21.1318 68.0428ZM21.1325 68.043L20.8745 69.0091C21.2522 69.1107 21.617 69.2352 21.968 69.3807L22.3493 68.4564L22.7306 67.5322C22.2995 67.3535 21.8523 67.201 21.3905 67.0768L21.1325 68.043ZM24.568 69.7413L23.9585 70.5333C24.5725 71.0069 25.1171 71.5574 25.5819 72.1669L26.3762 71.5607L27.1704 70.9545C26.6007 70.2073 25.9322 69.5314 25.1775 68.9492L24.568 69.7413ZM27.6541 73.7852L26.7304 74.1661C27.0228 74.8742 27.2245 75.6222 27.3255 76.3921L28.3165 76.2634L29.3076 76.1346C29.1837 75.1895 28.9361 74.272 28.5779 73.4043L27.6541 73.7852ZM28.3144 78.8273L27.3235 78.6943C27.2736 79.0714 27.1987 79.4499 27.0977 79.8281L28.0634 80.0877L29.0292 80.3473C29.1524 79.8857 29.2441 79.4226 29.3053 78.9604L28.3144 78.8273ZM28.0634 80.0877L27.0977 79.8281C26.9968 80.2063 26.873 80.5717 26.7284 80.9233L27.6528 81.3053L28.5772 81.6872C28.7545 81.2561 28.9059 80.809 29.0292 80.3474L28.0634 80.0877ZM26.3771 83.527L25.5829 82.9183C25.1119 83.5344 24.5644 84.081 23.9584 84.5477L24.5686 85.3409L25.1789 86.1342C25.9215 85.5624 26.593 84.8921 27.1713 84.1356L26.3771 83.527ZM22.3534 86.6264L21.9675 85.703C21.2613 85.9977 20.5153 86.2012 19.7476 86.3034L19.8808 87.2951L20.014 88.2868C20.9578 88.1612 21.8735 87.9112 22.7393 87.5499L22.3534 86.6264ZM17.319 87.2947L17.4494 86.303C17.0728 86.2529 16.6948 86.1777 16.3172 86.0762L16.0592 87.0423L15.8012 88.0085C16.263 88.1326 16.7263 88.2249 17.1887 88.2864L17.319 87.2947ZM16.0592 87.0423L16.6093 86.2079L16.6087 86.2074L16.0585 87.0419L15.5084 87.8763L15.5091 87.8768L16.0592 87.0423ZM16.0573 87.041L16.6074 86.2066L16.6067 86.2061L16.0566 87.0406L15.5065 87.8751L15.5071 87.8755L16.0573 87.041ZM16.0566 87.0406L15.0909 86.781L14.7836 87.9318L15.7493 88.1914L16.715 88.4511L17.0223 87.3003L16.0566 87.0406ZM15.1347 90.4931L14.169 90.2335L13.5544 92.5352L14.5201 92.7948L15.4858 93.0545L16.1004 90.7528L15.1347 90.4931ZM13.9055 95.0965L12.9398 94.8368L12.3252 97.1385L13.2909 97.3982L14.2566 97.6578L14.8712 95.3561L13.9055 95.0965ZM12.6763 99.6998L11.7105 99.4402L11.4032 100.591L12.3689 100.851L13.3346 101.11L13.642 99.9595L12.6763 99.6998ZM12.3689 100.851L11.4032 100.591C11.2867 101.028 11.2001 101.466 11.1423 101.903L12.1333 102.036L13.1242 102.168C13.1707 101.816 13.2404 101.463 13.3346 101.11L12.3689 100.851ZM12.1338 104.446L11.1429 104.576C11.2615 105.47 11.4972 106.337 11.8379 107.157L12.7608 106.774L13.6837 106.392C13.4094 105.731 13.2199 105.033 13.1247 104.316L12.1338 104.446ZM13.9667 108.863L13.1737 109.471C13.7137 110.176 14.3469 110.814 15.0615 111.363L15.6697 110.57L16.2779 109.777C15.7039 109.336 15.1945 108.823 14.7597 108.255L13.9667 108.863ZM17.7568 111.776L17.3761 112.7C17.7837 112.869 18.2064 113.013 18.6428 113.13L18.9008 112.164L19.1588 111.198C18.8061 111.103 18.4654 110.987 18.1375 110.851L17.7568 111.776ZM18.9008 112.164L18.6428 113.13L19.852 113.455L20.11 112.489L20.368 111.523L19.1588 111.198L18.9008 112.164ZM22.5285 113.14L22.2705 114.106L24.6889 114.756L24.9469 113.79L25.2049 112.824L22.7865 112.173L22.5285 113.14ZM27.3654 114.44L27.1074 115.406L29.5259 116.057L29.7839 115.09L30.0418 114.124L27.6234 113.474L27.3654 114.44ZM32.2023 115.741L31.9443 116.707L34.3628 117.357L34.6208 116.391L34.8788 115.425L32.4603 114.774L32.2023 115.741ZM37.0392 117.041L36.7812 118.007L39.1997 118.658L39.4577 117.691L39.7157 116.725L37.2972 116.075L37.0392 117.041ZM41.8761 118.342L41.6182 119.308L44.0366 119.958L44.2946 118.992L44.5526 118.026L42.1341 117.376L41.8761 118.342ZM46.7131 119.642L46.4551 120.608L48.8735 121.259L49.1315 120.292L49.3895 119.326L46.971 118.676L46.7131 119.642ZM51.55 120.943L51.292 121.909L53.7104 122.559L53.9684 121.593L54.2264 120.627L51.808 119.977L51.55 120.943ZM56.3869 122.243L56.1289 123.209L58.5474 123.86L58.8054 122.894L59.0633 121.927L56.6449 121.277L56.3869 122.243ZM61.2238 123.544L60.9658 124.51L63.3843 125.16L63.6423 124.194L63.9003 123.228L61.4818 122.578L61.2238 123.544ZM66.0607 124.844L65.8027 125.81L68.2212 126.461L68.4792 125.495L68.7372 124.528L66.3187 123.878L66.0607 124.844ZM70.8976 126.145L70.6397 127.111L73.0581 127.761L73.3161 126.795L73.5741 125.829L71.1556 125.179L70.8976 126.145ZM75.7346 127.445L75.4766 128.411L77.895 129.062L78.153 128.096L78.411 127.129L75.9925 126.479L75.7346 127.445ZM80.5715 128.746L80.3135 129.712L82.732 130.362L82.9899 129.396L83.2479 128.43L80.8295 127.78L80.5715 128.746ZM85.4084 130.046L85.1504 131.013L87.5689 131.663L87.8268 130.697L88.0848 129.73L85.6664 129.08L85.4084 130.046ZM90.2453 131.347L89.9873 132.313L92.4058 132.963L92.6638 131.997L92.9217 131.031L90.5033 130.381L90.2453 131.347ZM95.0822 132.647L94.8242 133.614L97.2427 134.264L97.5007 133.298L97.7587 132.332L95.3402 131.681L95.0822 132.647ZM99.9191 133.948L99.6611 134.914L102.08 135.564L102.338 134.598L102.596 133.632L100.177 132.982L99.9191 133.948ZM104.756 135.248L104.498 136.215L106.917 136.865L107.174 135.899L107.432 134.933L105.014 134.282L104.756 135.248ZM109.593 136.549L109.335 137.515L111.753 138.165L112.011 137.199L112.269 136.233L109.851 135.583L109.593 136.549ZM114.43 137.85L114.172 138.816L116.59 139.466L116.848 138.5L117.106 137.534L114.688 136.883L114.43 137.85ZM119.267 139.15L119.009 140.116L121.427 140.766L121.685 139.8L121.943 138.834L119.525 138.184L119.267 139.15ZM124.104 140.451L123.846 141.417L126.264 142.067L126.522 141.101L126.78 140.135L124.362 139.484L124.104 140.451ZM128.941 141.751L128.683 142.717L129.892 143.042L130.15 142.076L130.408 141.11L129.199 140.785L128.941 141.751ZM130.15 142.076L129.892 143.042C130.328 143.16 130.766 143.247 131.203 143.305L131.334 142.314L131.465 141.322C131.113 141.275 130.761 141.205 130.408 141.11L130.15 142.076ZM133.742 142.317L133.874 143.309C134.767 143.192 135.633 142.957 136.452 142.617L136.068 141.693L135.684 140.769C135.025 141.042 134.328 141.231 133.611 141.325L133.742 142.317ZM138.153 140.489L138.761 141.284C139.465 140.744 140.101 140.111 140.649 139.397L139.856 138.787L139.063 138.177C138.623 138.751 138.111 139.26 137.544 139.695L138.153 140.489ZM141.058 136.7L141.982 137.082C142.15 136.675 142.293 136.252 142.41 135.815L141.444 135.556L140.478 135.296C140.384 135.649 140.268 135.99 140.133 136.318L141.058 136.7ZM141.444 135.556L142.41 135.815L142.717 134.664L141.751 134.405L140.786 134.145L140.478 135.296L141.444 135.556ZM142.366 132.103L143.332 132.363L143.946 130.061L142.98 129.801L142.015 129.542L141.4 131.843L142.366 132.103ZM143.595 127.5L144.561 127.759L145.175 125.458L144.21 125.198L143.244 124.938L142.629 127.24L143.595 127.5ZM144.824 122.896L145.79 123.156L146.097 122.005L145.132 121.746L144.166 121.486L143.859 122.637L144.824 122.896ZM145.132 121.746L145.39 120.779C145.012 120.678 144.647 120.553 144.297 120.408L143.915 121.332L143.534 122.256C143.965 122.435 144.412 122.587 144.873 122.712L145.132 121.746ZM141.697 120.047L142.307 119.255C141.693 118.781 141.148 118.231 140.684 117.621L139.889 118.227L139.095 118.834C139.665 119.581 140.333 120.257 141.087 120.839L141.697 120.047ZM138.612 116.003L139.536 115.622C139.244 114.914 139.042 114.166 138.941 113.397L137.95 113.525L136.959 113.654C137.083 114.599 137.33 115.516 137.688 116.384L138.612 116.003ZM137.952 110.962L138.943 111.095C138.993 110.718 139.068 110.339 139.169 109.961L138.203 109.702L137.238 109.442C137.115 109.903 137.023 110.366 136.962 110.829L137.952 110.962ZM138.203 109.702L139.169 109.961C139.27 109.583 139.394 109.218 139.538 108.866L138.614 108.484L137.69 108.102C137.512 108.533 137.361 108.98 137.238 109.442L138.203 109.702ZM139.889 106.263L140.684 106.872C141.154 106.256 141.702 105.709 142.308 105.243L141.697 104.449L141.087 103.656C140.345 104.228 139.673 104.898 139.095 105.654L139.889 106.263ZM143.912 103.164L144.298 104.087C145.004 103.793 145.75 103.589 146.517 103.487L146.384 102.495L146.25 101.503C145.307 101.629 144.391 101.879 143.526 102.24L143.912 103.164ZM148.945 102.495L148.815 103.487C149.191 103.537 149.569 103.612 149.947 103.713L150.205 102.747L150.462 101.781C150.001 101.657 149.538 101.565 149.075 101.503L148.945 102.495ZM150.205 102.747L151.17 103.007L151.478 101.856L150.512 101.596L149.546 101.336L149.239 102.487L150.205 102.747ZM151.127 99.2939L152.092 99.5536L152.707 97.2514L151.741 96.9918L150.776 96.7321L150.161 99.0343L151.127 99.2939ZM152.356 94.6896L153.322 94.9493L153.937 92.6471L152.971 92.3875L152.005 92.1278L151.391 94.43L152.356 94.6896ZM153.586 90.0853L154.551 90.345L154.859 89.1939L153.893 88.9343L152.927 88.6746L152.62 89.8257L153.586 90.0853ZM153.893 88.9343L154.859 89.1939C154.975 88.7573 155.062 88.3191 155.12 87.8818L154.129 87.7493L153.138 87.6169C153.091 87.9686 153.022 88.3218 152.927 88.6746L153.893 88.9343ZM154.128 85.3391L155.119 85.2088C155 84.3152 154.765 83.4479 154.424 82.6278L153.501 83.0106L152.578 83.3934C152.853 84.0539 153.042 84.7515 153.137 85.4693L154.128 85.3391ZM152.295 80.9219L153.088 80.3141C152.548 79.609 151.915 78.9712 151.201 78.4217L150.592 79.2147L149.984 80.0077C150.558 80.4491 151.067 80.962 151.502 81.5298L152.295 80.9219ZM148.505 78.0091L148.886 77.0847C148.478 76.916 148.056 76.7719 147.619 76.6546L147.361 77.6207L147.103 78.5869C147.456 78.6817 147.797 78.7979 148.124 78.9336L148.505 78.0091Z" fill="#8B95A1" mask="url(#path-3-inside-1_1434_84967)"/>
<rect x="0.258737" y="0.136267" width="91.0879" height="47.05" rx="23.525" transform="matrix(0.954855 -0.297072 0.29521 0.955432 81.5886 137.734)" fill="white" stroke="black" stroke-width="0.413958" stroke-dasharray="1.66 1.66"/>
<path d="M112.264 12.8438L114.282 13.624V13.625L114.103 14.0908L116.12 14.8721L116.301 14.4062V14.4053L118.318 15.1855V15.1865L118.139 15.6533L119.147 16.0439C119.5 16.1805 119.866 16.2518 120.229 16.2617L120.242 15.7617V15.7607C120.872 15.7778 121.489 15.5764 121.988 15.1924L121.989 15.1934L122.294 15.5898C122.509 15.424 122.707 15.229 122.878 15.0078L123.041 14.7773L123.628 13.8662L123.208 13.5957L123.207 13.5947L124.383 11.7725L124.384 11.7734L124.804 12.0439L125.979 10.2217L125.559 9.9502L126.733 8.12695L126.734 8.12793L127.154 8.39941L128.33 6.57617L127.909 6.30566L129.085 4.48242L129.505 4.75391L130.093 3.84277C130.309 3.50766 130.589 3.25666 130.901 3.08691L130.663 2.64844C131.476 2.2064 132.475 2.20664 133.288 2.64844L133.051 3.08691C133.363 3.25666 133.643 3.5077 133.859 3.84277L134.447 4.75391L134.866 4.48242L136.042 6.30469V6.30566L135.622 6.57617L136.798 8.39941L137.218 8.12793V8.12695L138.393 9.9502H138.394L137.973 10.2217L139.148 12.0439L139.568 11.7734V11.7725L140.744 13.5947V13.5957L140.323 13.8662L140.911 14.7773C141.116 15.0955 141.37 15.3687 141.657 15.5898L141.963 15.1934V15.1924C142.462 15.5765 143.08 15.7776 143.709 15.7607L143.71 15.7617L143.724 16.2617C143.996 16.2543 144.269 16.2119 144.538 16.1338L144.805 16.0439L145.813 15.6533L145.633 15.1865L147.65 14.4053L147.651 14.4062L147.832 14.8721L149.85 14.0908L149.669 13.625L149.668 13.624L151.688 12.8438L151.868 13.3096L153.886 12.5293L153.705 12.0625L155.724 11.2812L155.904 11.748L156.913 11.3574C157.284 11.2138 157.658 11.1756 158.01 11.2217L158.074 10.7266C158.991 10.8465 159.798 11.4324 160.197 12.2666L159.748 12.4824C159.901 12.8028 159.98 13.1698 159.959 13.5674L159.9 14.6533L160.4 14.6807L160.283 16.8525L159.784 16.8252L159.667 18.9971L160.166 19.0244L160.049 21.1953L159.55 21.1689L159.434 23.3408L159.932 23.3672L159.814 25.5391L159.316 25.5127L159.258 26.5986C159.238 26.9756 159.283 27.3446 159.386 27.6914L159.865 27.5498V27.5488C160.043 28.1511 160.424 28.6754 160.941 29.0312V29.0322L160.658 29.4443C160.956 29.6491 161.293 29.8069 161.657 29.9043L162.704 30.1836L162.834 29.7012V29.7002L164.928 30.2598V30.2607L164.799 30.7432L166.893 31.3027L167.021 30.8193L169.115 31.3779V31.3789L168.986 31.8623L171.08 32.4219L171.209 31.9385V31.9375L173.303 32.4971V32.498L173.174 32.9814L174.221 33.2607C174.605 33.3633 174.928 33.5526 175.186 33.7969L175.529 33.4346C176.199 34.0703 176.505 35.016 176.339 35.9238L175.849 35.835C175.793 36.1398 175.671 36.4406 175.474 36.7178L175.384 36.8359L174.7 37.6807L175.088 37.9941L173.721 39.6846L173.332 39.3701L171.964 41.0605L172.352 41.374L170.984 43.0645L170.596 42.75L169.228 44.4395L169.615 44.7539L168.248 46.4443L167.859 46.1299L167.176 46.9746C166.939 47.2673 166.759 47.5914 166.639 47.9316L167.11 48.0986C166.901 48.6896 166.901 49.3367 167.11 49.9277V49.9287L166.639 50.0957C166.759 50.436 166.939 50.7599 167.176 51.0527L167.859 51.8984L168.248 51.583V51.582L169.616 53.2725V53.2734L169.228 53.5879L170.596 55.2773L170.984 54.9629V54.9619L172.353 56.6523V56.6533L171.964 56.9678L173.332 58.6572L173.721 58.3428V58.3418L175.088 60.0322H175.089L174.7 60.3467L175.384 61.1924C175.634 61.5013 175.785 61.8446 175.849 62.1934L176.34 62.1025C176.507 63.0107 176.198 63.9558 175.528 64.5918L175.186 64.2314C174.929 64.4755 174.605 64.6641 174.221 64.7666L173.174 65.0469L173.303 65.5293L171.209 66.0889L171.08 65.6064L168.986 66.165L169.115 66.6484L167.021 67.207L166.893 66.7246L164.799 67.2842L164.927 67.7666L162.833 68.3262L162.704 67.8438L161.657 68.123C161.293 68.2205 160.956 68.3782 160.658 68.583L160.941 68.9951C160.424 69.351 160.043 69.8761 159.865 70.4785L159.386 70.3369C159.283 70.6836 159.238 71.0519 159.258 71.4287L159.316 72.5146L159.814 72.4873L159.932 74.6592H159.933L159.434 74.6865L159.55 76.8584L160.049 76.8311L160.166 79.002V79.0029L159.667 79.0303L159.784 81.2021L160.283 81.1748V81.1738L160.4 83.3457V83.3467L159.9 83.374L159.959 84.46C159.98 84.8576 159.901 85.2246 159.748 85.5449L160.197 85.7598C159.798 86.5945 158.992 87.1798 158.074 87.2998L158.01 86.8057C157.658 86.8518 157.284 86.8136 156.913 86.6699L155.904 86.2793L155.723 86.7461L153.704 85.9648L153.886 85.499L151.868 84.7178L151.688 85.1836H151.687L149.668 84.4023H149.669L149.85 83.9365L147.832 83.1553L147.651 83.6211L145.633 82.8398L145.813 82.374L144.805 81.9844L144.538 81.8936C144.269 81.8154 143.996 81.774 143.724 81.7666L143.71 82.2656C143.081 82.2485 142.462 82.45 141.963 82.834L141.657 82.4385C141.442 82.6042 141.245 82.7986 141.074 83.0195L140.911 83.25L140.323 84.1611L140.744 84.4316L139.568 86.2549L139.148 85.9834L137.973 87.8057L138.393 88.0762L137.218 89.8994L136.798 89.6289L135.622 91.4512L136.042 91.7227L134.866 93.5439L134.447 93.2734L133.859 94.1846C133.643 94.5196 133.363 94.7707 133.051 94.9404L133.288 95.3789C132.475 95.8208 131.476 95.821 130.663 95.3789L130.901 94.9404C130.589 94.7707 130.309 94.5196 130.093 94.1846L129.505 93.2734L129.085 93.5439L127.909 91.7217L128.33 91.4512L127.154 89.6289L126.733 89.8994L125.559 88.0762L125.979 87.8057L124.804 85.9834L124.383 86.2549L123.207 84.4316L123.628 84.1611L123.041 83.25L122.878 83.0195C122.707 82.7984 122.509 82.6043 122.294 82.4385L121.988 82.834C121.489 82.4501 120.871 82.2483 120.241 82.2656L120.229 81.7666C119.957 81.774 119.683 81.8155 119.414 81.8936L119.147 81.9844L118.139 82.374L118.318 82.8408L116.3 83.6211L116.12 83.1553L114.103 83.9365L114.282 84.4023L112.265 85.1836L112.084 84.7178L110.066 85.499L110.247 85.9648L108.229 86.7461L108.048 86.2793L107.039 86.6699C106.668 86.8137 106.294 86.8518 105.941 86.8057L105.877 87.2998C104.96 87.1795 104.153 86.5944 103.754 85.7598L104.204 85.5449C104.07 85.2645 103.992 84.9485 103.989 84.6074L103.993 84.46L104.051 83.374L103.552 83.3467L103.551 83.3457L103.668 81.1738L103.669 81.1748L104.168 81.2021L104.285 79.0303L103.786 79.0029L103.785 79.002L103.902 76.8311L104.402 76.8584L104.519 74.6865L104.02 74.6592L104.137 72.4873L104.636 72.5146L104.694 71.4287C104.71 71.1461 104.688 70.8681 104.633 70.6006L104.566 70.3369L104.087 70.4785H104.086C103.908 69.8757 103.527 69.3509 103.009 68.9951L103.293 68.583C102.995 68.3783 102.659 68.2205 102.295 68.123L101.247 67.8438L101.118 68.3262L99.0244 67.7666L99.1533 67.2842L97.0596 66.7246L96.9297 67.208L94.8359 66.6484H94.8369L94.9658 66.165L92.8721 65.6064L92.7432 66.0889H92.7422L90.6475 65.5293H90.6484L90.7783 65.0469L89.7314 64.7666L89.5898 64.7246C89.2673 64.6164 88.9915 64.445 88.7666 64.2314L88.4219 64.5928C87.7528 63.9569 87.4444 63.0104 87.6113 62.1025L88.1035 62.1934C88.1596 61.8882 88.2814 61.587 88.4785 61.3096L88.5674 61.1924L89.252 60.3467L88.8633 60.0322L88.8623 60.0312L90.2305 58.3418L90.2314 58.3428L90.6201 58.6572L91.9883 56.9678L91.5996 56.6523L91.5986 56.6514L92.9668 54.9619L92.9678 54.9629L93.3564 55.2773L94.7246 53.5879L94.3359 53.2734L94.335 53.2725L95.7031 51.582L95.7041 51.583L96.0928 51.8984L96.7764 51.0527C97.0134 50.7599 97.193 50.436 97.3135 50.0957L96.8418 49.9287L96.8408 49.9277C97.0499 49.3364 97.0493 48.6898 96.8398 48.0986H96.8418L97.3135 47.9316C97.193 47.5914 97.0134 47.2674 96.7764 46.9746L96.0928 46.1299L95.7031 46.4443L94.335 44.7549L94.7246 44.4395L93.3564 42.75L92.9678 43.0645H92.9668L91.5986 41.375L91.9883 41.0605L90.6201 39.3701L90.2314 39.6846H90.2305L88.8623 37.9951H88.8633L89.252 37.6807L88.5674 36.8359L88.4785 36.7178C88.2815 36.4406 88.1596 36.1398 88.1035 35.835L87.6113 35.9238C87.4471 35.0285 87.7443 34.0952 88.3945 33.46L88.4219 33.4346L88.7666 33.7969C88.9916 33.5832 89.2671 33.411 89.5898 33.3027L89.7314 33.2607L90.7783 32.9814L90.6484 32.498L90.6475 32.4971L92.7422 31.9375L92.7432 31.9385L92.8721 32.4219L94.9658 31.8623L94.8369 31.3789L94.8359 31.3779L96.9297 30.8184L96.9307 30.8193L97.0596 31.3027L99.1533 30.7432L99.0244 30.2607L99.0234 30.2598L101.117 29.7002L101.118 29.7012L101.247 30.1836L102.295 29.9043C102.659 29.8069 102.995 29.6491 103.293 29.4443L103.01 29.0322C103.528 28.6764 103.908 28.1514 104.086 27.5488L104.087 27.5498L104.566 27.6914C104.669 27.3446 104.715 26.9756 104.694 26.5986L104.636 25.5127L104.137 25.5391L104.02 23.3672L104.519 23.3408L104.402 21.1689L103.902 21.1953L103.785 19.0244L104.285 18.9971L104.168 16.8252L103.668 16.8525L103.551 14.6807L104.051 14.6533L103.993 13.5674L103.989 13.4199C103.992 13.0789 104.07 12.7628 104.204 12.4824L103.754 12.2666C104.153 11.4324 104.96 10.8468 105.877 10.7266L105.941 11.2217C106.294 11.1755 106.668 11.2137 107.039 11.3574L108.048 11.748L108.228 11.2812L110.246 12.0625L110.066 12.5293L112.084 13.3096L112.264 12.8438Z" fill="#E5E8EB" stroke="#8B95A1" stroke-dasharray="2.5 2.5"/>
<path d="M54.6055 115.965L56.7646 115.997L56.7588 116.497L57.8379 116.514C58.054 116.517 58.2547 116.567 58.4316 116.654L58.6514 116.206C59.1579 116.455 59.5297 116.922 59.6602 117.471L59.1748 117.586C59.209 117.73 59.2204 117.883 59.2051 118.039L59.1816 118.196L58.9561 119.258L59.4443 119.36L58.9951 121.482L58.5068 121.38L58.0576 123.503L58.5459 123.605L58.0967 125.728L57.6084 125.625L57.1582 127.748L57.6475 127.852L57.1973 129.974L56.709 129.87L56.4844 130.932C56.3391 131.618 56.5019 132.333 56.9297 132.889L57.5918 133.748L57.9873 133.442V133.441L59.3096 135.159H59.3105L58.9141 135.465L60.2373 137.182L60.6328 136.876L61.9561 138.593V138.594L61.5605 138.898L62.8838 140.615L63.2793 140.311V140.31L64.6016 142.027H64.6025L64.2061 142.332L64.8682 143.19C64.9998 143.361 65.0839 143.55 65.126 143.742L65.6133 143.636C65.7337 144.186 65.6004 144.766 65.2529 145.21L64.8613 144.903C64.7703 145.02 64.6587 145.124 64.5273 145.209L64.3887 145.288L63.4219 145.773L63.6455 146.219L61.7119 147.189L61.4893 146.743L59.5557 147.714L59.7793 148.16L57.8467 149.131L57.6221 148.685L55.6885 149.654L55.9131 150.102L53.9795 151.072L53.7559 150.625L52.7891 151.11C52.2393 151.386 51.8198 151.862 51.6123 152.434L51.5371 152.685L51.2803 153.737L51.7656 153.854L51.2529 155.961L50.7676 155.844L50.2559 157.951L50.7402 158.068L50.2285 160.176L49.7432 160.058L49.2305 162.164L49.7158 162.282L49.2031 164.388L48.7178 164.271L48.4619 165.324C48.4107 165.535 48.3158 165.719 48.1914 165.872L48.5791 166.186C48.2231 166.625 47.6846 166.885 47.1191 166.889L47.1162 166.39C46.9187 166.391 46.7159 166.35 46.5195 166.259L45.54 165.804L45.3291 166.256L43.3701 165.346L43.5811 164.893L41.6221 163.982L41.4111 164.436H41.4102L39.4512 163.525L39.6621 163.072L37.7031 162.161L37.4932 162.614H37.4922L35.5322 161.704L35.7441 161.251L34.7646 160.796L34.5205 160.698C34.0245 160.531 33.4872 160.531 32.9912 160.698L32.7471 160.796L31.7676 161.251L31.9775 161.704L30.0186 162.614L29.8076 162.161L27.8486 163.072L28.0586 163.524L26.1006 164.436L25.8896 163.982L23.9307 164.893L24.1406 165.346L22.1816 166.256L21.9717 165.804L20.9922 166.259C20.7958 166.35 20.593 166.391 20.3955 166.39L20.3916 166.889C19.8262 166.884 19.2875 166.625 18.9316 166.186L19.3203 165.872C19.1959 165.719 19.101 165.535 19.0498 165.324L18.7939 164.271L18.3076 164.388L17.7949 162.281L18.2812 162.164L17.7686 160.058L17.2822 160.176L16.7705 158.068L17.2559 157.951L16.7432 155.844L16.2578 155.961L15.7451 153.854L16.2314 153.737L15.9746 152.685L15.8994 152.434C15.6919 151.861 15.2724 151.386 14.7227 151.11L13.7559 150.625L13.5312 151.071L11.5977 150.102H11.5986L11.8223 149.654L9.88965 148.685L9.66504 149.131H9.66406L7.73145 148.16L7.95605 147.714L6.02246 146.743L5.79785 147.19L3.86426 146.22L4.08984 145.773L3.12305 145.288L2.98438 145.209C2.85298 145.124 2.74148 145.02 2.65039 144.903L2.25781 145.21C1.91062 144.766 1.77713 144.186 1.89746 143.636L2.38574 143.742C2.42785 143.55 2.51189 143.361 2.64355 143.19L3.30566 142.332L2.90918 142.027L4.23145 140.31L4.23242 140.311L4.62793 140.615L5.95117 138.898L5.55469 138.594L6.87793 136.876L7.27441 137.182L8.59668 135.465L8.20117 135.159L9.52344 133.442L9.91992 133.748L10.5811 132.889C10.9555 132.403 11.1276 131.795 11.0674 131.19L11.0273 130.932L10.8027 129.87L10.3125 129.975L9.86328 127.852L10.3525 127.748L9.90332 125.625L9.41406 125.728L8.96387 123.606L9.4541 123.503L9.00488 121.38L8.51562 121.483H8.51465L8.06543 119.361H8.06641L8.55469 119.258L8.33008 118.196L8.30566 118.039C8.29038 117.883 8.30271 117.73 8.33691 117.586L7.85059 117.471C7.98098 116.922 8.35313 116.455 8.85938 116.206L9.08008 116.654C9.2129 116.589 9.35884 116.544 9.51465 116.524L9.67285 116.514L10.7529 116.497L10.7451 115.997L12.9053 115.965L12.9131 116.465L15.0723 116.432L15.0654 115.932L17.2246 115.899L17.2324 116.399L19.3926 116.367L19.3848 115.867L19.3838 115.866L21.5449 115.834L21.5518 116.334L22.6318 116.318C23.3365 116.308 24.0005 115.986 24.4473 115.441L25.1338 114.604L24.7471 114.288L24.7461 114.287L26.1182 112.614L26.5049 112.931L27.877 111.258L27.4902 110.94L27.4893 110.939L28.8613 109.267L29.248 109.584L30.6201 107.91L30.2334 107.593L31.6045 105.919L31.9912 106.236L32.6777 105.399C32.815 105.232 32.9797 105.107 33.1582 105.022L32.9453 104.57C33.4563 104.329 34.0544 104.329 34.5654 104.57L34.3525 105.022C34.5313 105.107 34.6966 105.232 34.834 105.399L35.5195 106.236L35.9062 105.919V105.918L37.2783 107.593L36.8916 107.91L38.2627 109.584L38.6494 109.267L40.0215 110.939V110.94L39.6348 111.258L41.0068 112.931L41.3936 112.614L42.7646 114.287V114.288L42.3779 114.604L43.0645 115.441C43.5112 115.986 44.1752 116.308 44.8799 116.318L45.96 116.334L45.9658 115.834L48.126 115.867H48.127L48.1191 116.367L50.2793 116.399L50.2852 115.899L52.4453 115.932L52.4385 116.432L54.5986 116.465L54.6055 115.965Z" fill="#E5E8EB" stroke="#8B95A1" stroke-dasharray="2.5 2.5"/>
<rect x="0.625032" y="0.32918" width="90.5018" height="46.464" rx="23.232" transform="matrix(0.954855 -0.297072 0.29521 0.955432 81.5482 137.852)" fill="#E5E8EB" stroke="#8B95A1" stroke-dasharray="2.5 2.5"/>
<path d="M65.8906 11.0381C74.3908 11.0381 81.2822 17.9529 81.2822 26.4824C81.2821 33.8345 76.1618 39.9856 69.3047 41.5439L66.1924 45.5605L63.1924 41.6895C55.979 40.4093 50.5001 34.088 50.5 26.4824C50.5 17.953 57.3906 11.0383 65.8906 11.0381Z" fill="#ACADB1"/>
<rect x="64.3818" y="18.3059" width="3.6214" height="10.8642" rx="1.8107" fill="white"/>
<circle cx="66.1925" cy="33.9987" r="1.8107" fill="white"/>
</svg>
