<svg width="200" height="200" viewBox="0 0 200 200" fill="none" xmlns="http://www.w3.org/2000/svg">
<path d="M175.218 89.6064L175.313 91.3867H175.314L175.089 91.3984L175.137 92.2891C175.15 92.5278 175.132 92.7584 175.09 92.9775L175.311 93.0195C175.212 93.525 174.988 93.9783 174.675 94.3525L174.502 94.209C174.205 94.5633 173.823 94.8407 173.395 95.0127L173.478 95.2217C173.025 95.4032 172.524 95.4766 172.013 95.4131L172.041 95.1895C171.819 95.1619 171.595 95.1068 171.372 95.0205L170.545 94.7002L170.464 94.9111H170.463L168.809 94.2705H168.81L168.891 94.0596L167.236 93.4199L167.154 93.6309L165.5 92.9902H165.501L165.583 92.7793L163.929 92.1396L163.847 92.3496L162.192 91.709L162.274 91.499L160.62 90.8584L160.539 91.0693H160.538L158.885 90.4287L158.966 90.2188L158.139 89.8984C157.788 89.7626 157.424 89.6924 157.064 89.6826L157.059 89.9082C156.37 89.8894 155.694 90.1094 155.148 90.5293L155.011 90.3506C154.797 90.5154 154.601 90.7087 154.431 90.9287L154.269 91.1572L153.787 91.9043L153.977 92.0254L153.014 93.5205L152.823 93.3975L151.86 94.8916L152.05 95.0137L151.087 96.5078L150.896 96.3857L149.934 97.8799L150.123 98.001L149.16 99.4961L148.97 99.373L148.007 100.867L148.196 100.99L147.233 102.483L147.043 102.361L146.562 103.108C146.432 103.309 146.282 103.486 146.119 103.639L146.273 103.803C145.897 104.155 145.448 104.391 144.974 104.51L144.919 104.292C144.527 104.391 144.116 104.403 143.719 104.329L143.549 104.292L143.494 104.51C143.02 104.39 142.571 104.155 142.194 103.803L142.349 103.639C142.186 103.486 142.037 103.309 141.907 103.108L141.426 102.361L141.234 102.483L140.271 100.989L140.462 100.867L139.498 99.373L139.308 99.4961L138.345 98.001L138.535 97.8799L137.571 96.3857L137.381 96.5078L136.418 95.0137L136.608 94.8916L135.645 93.3975L135.454 93.5205L134.491 92.0254L134.682 91.9043L134.199 91.1572L134.038 90.9287C133.868 90.7087 133.672 90.5155 133.458 90.3506L133.32 90.5293H133.319C132.774 90.1096 132.098 89.8895 131.41 89.9082L131.404 89.6826C131.044 89.6924 130.68 89.7625 130.329 89.8984L129.502 90.2188L129.583 90.4287L127.93 91.0693L127.849 90.8584L126.194 91.499L126.275 91.71L124.621 92.3496L124.54 92.1396L122.886 92.7793L122.968 92.9902L121.312 93.6299L121.231 93.4199L119.577 94.0596L119.659 94.2705L118.005 94.9111L117.924 94.7002L117.097 95.0205C116.874 95.1068 116.649 95.1619 116.428 95.1895L116.454 95.4131C115.943 95.4763 115.443 95.4032 114.99 95.2217L115.074 95.0127C114.645 94.8407 114.263 94.5632 113.967 94.209L113.793 94.3525C113.48 93.9783 113.255 93.5249 113.157 93.0195L113.378 92.9775C113.346 92.813 113.328 92.6417 113.327 92.4658L113.332 92.2891L113.38 91.3984L113.153 91.3867L113.249 89.6064L113.476 89.6182L113.571 87.8379L113.346 87.8262L113.345 87.8252L113.44 86.0449L113.441 86.0459L113.667 86.0576L113.763 84.2773L113.537 84.2656L113.536 84.2646L113.632 82.4844L113.633 82.4854L113.858 82.4971L113.954 80.7168L113.729 80.7051L113.728 80.7041L113.823 78.9238L113.824 78.9248L114.051 78.9365L114.099 78.0469C114.114 77.7658 114.092 77.4895 114.037 77.2236L113.972 76.9609L113.753 77.0254C113.558 76.3668 113.142 75.7931 112.576 75.4043H112.577L112.706 75.2178C112.41 75.0143 112.076 74.8577 111.713 74.7607L110.854 74.5322L110.796 74.75H110.795L109.08 74.291L109.139 74.0732L107.422 73.6152L107.363 73.833H107.362L105.647 73.374L105.706 73.1562L103.989 72.6982L103.931 72.916H103.93L102.215 72.457L102.273 72.2393L100.557 71.7803L100.498 71.999H100.497L98.7822 71.54L98.8398 71.3223L97.9824 71.0928L97.8125 71.042C97.6461 70.9864 97.489 70.9171 97.3428 70.8359L97.2334 71.0322C96.784 70.7828 96.4219 70.4303 96.1631 70.0176L96.3555 69.8975C96.1103 69.5067 95.9643 69.0588 95.9326 68.5986L95.7061 68.6143C95.6726 68.1281 95.7578 67.6293 95.9746 67.1631L96.1797 67.2588C96.2502 67.1073 96.3357 66.9592 96.4375 66.8164L96.5449 66.6748L97.1055 65.9824L96.9297 65.8398L98.0508 64.4551L98.2266 64.5977L99.3486 63.2119L99.1729 63.0703L99.1719 63.0693L100.293 61.6836L100.294 61.6846L100.47 61.8271L101.591 60.4424L101.415 60.2998L102.536 58.9141L102.537 58.915L102.713 59.0566L103.834 57.6719L103.658 57.5293L103.657 57.5283L104.778 56.1436L104.779 56.1445L104.955 56.2871L105.516 55.5938C105.751 55.3025 105.93 54.9807 106.05 54.6426L105.836 54.5664L105.835 54.5654C106.063 53.9195 106.064 53.2132 105.835 52.5674L106.05 52.4912C105.93 52.1531 105.751 51.8313 105.516 51.54L104.955 50.8477L104.778 50.9893L103.657 49.6045L103.834 49.4619L102.713 48.0771L102.536 48.2197L101.415 46.833L101.591 46.6924L100.47 45.3066L100.293 45.4492L99.1719 44.0645L99.3486 43.9219L98.2266 42.5371L98.0508 42.6777L96.9297 41.293L97.1055 41.1514L96.5449 40.459L96.4375 40.3184C96.3355 40.1754 96.2502 40.0267 96.1797 39.875L95.9746 39.9697C95.7579 39.5034 95.6724 39.0048 95.7061 38.5186L95.707 38.5195L95.9326 38.5352C95.9643 38.075 96.1103 37.6271 96.3555 37.2363L96.1631 37.1162C96.422 36.7034 96.7839 36.35 97.2334 36.1006L97.3428 36.2979C97.489 36.2167 97.646 36.1474 97.8125 36.0918L97.9824 36.041L98.8398 35.8115L98.7822 35.5928L100.497 35.1338L100.498 35.1348L100.557 35.3535L102.273 34.8945L102.215 34.6758L103.93 34.2168L103.931 34.2178L103.989 34.4365L105.706 33.9775L105.647 33.7588L107.362 33.2998L107.363 33.3008L107.422 33.5195L109.139 33.0605L109.08 32.8418L110.795 32.3828L110.796 32.3838L110.854 32.6025L111.713 32.373C112.076 32.2761 112.41 32.1195 112.706 31.916L112.577 31.7295L112.576 31.7285C113.142 31.3395 113.558 30.7663 113.753 30.1074L113.754 30.1084L113.972 30.1729C114.073 29.8283 114.119 29.4618 114.099 29.0869L114.051 28.1973L113.823 28.209L113.728 26.4287L113.954 26.417L113.858 24.6367L113.632 24.6484L113.536 22.8682L113.763 22.8564L113.667 21.0762L113.441 21.0879H113.44L113.345 19.3076H113.346L113.571 19.2959L113.476 17.5156L113.249 17.5264L113.153 15.7461L113.38 15.7354L113.332 14.8447L113.327 14.668C113.328 14.4922 113.346 14.3216 113.378 14.1572L113.157 14.1133C113.256 13.6081 113.48 13.1544 113.793 12.7803L113.967 12.9248C114.263 12.5706 114.645 12.293 115.074 12.1211L114.99 11.9121C115.443 11.7306 115.943 11.6575 116.454 11.7207L116.428 11.9443C116.649 11.9719 116.874 12.028 117.097 12.1143L117.924 12.4336L118.004 12.2227L119.658 12.8633L119.577 13.0742L121.231 13.7139L121.312 13.5029L122.967 14.1436L122.886 14.3545L124.54 14.9951L124.622 14.7842V14.7832L126.274 15.4238H126.275L126.194 15.6348L127.849 16.2754L127.93 16.0645V16.0635L129.583 16.7041L129.502 16.915L130.329 17.2354C130.68 17.3713 131.044 17.4423 131.404 17.4521L131.41 17.2256V17.2246C132.098 17.2433 132.774 17.0235 133.319 16.6035L133.32 16.6045L133.458 16.7842C133.744 16.5644 133.995 16.293 134.199 15.9766L134.682 15.2305L134.491 15.1074L135.454 13.6123L135.455 13.6133L135.645 13.7363L136.608 12.2422L136.418 12.1201L137.381 10.625L137.382 10.626L137.571 10.748L138.535 9.25488L138.345 9.13184L139.308 7.63672L139.309 7.6377L139.498 7.76074L140.462 6.2666L140.271 6.14453L141.234 4.64941L141.235 4.65039L141.426 4.77246L141.907 4.02637C142.037 3.82519 142.185 3.64781 142.349 3.49512L142.194 3.33008C142.571 2.97783 143.02 2.74226 143.494 2.62305L143.549 2.84277C143.997 2.7299 144.47 2.72993 144.919 2.84277L144.974 2.62305C145.448 2.74217 145.897 2.97786 146.273 3.33008L146.119 3.49512C146.282 3.64783 146.432 3.82515 146.562 4.02637L147.043 4.77246L147.233 4.65039V4.64941L148.196 6.14355V6.14453L148.007 6.2666L148.97 7.76074L149.16 7.6377V7.63672L150.123 9.13184H150.124L149.934 9.25488L150.896 10.748L151.087 10.626V10.625L152.05 12.1201H152.051L151.86 12.2422L152.823 13.7363L153.014 13.6133V13.6123L153.977 15.1074H153.978L153.787 15.2305L154.269 15.9766C154.473 16.293 154.725 16.5644 155.011 16.7842L155.148 16.6045V16.6035C155.694 17.0235 156.369 17.2432 157.058 17.2246L157.059 17.2256L157.064 17.4521C157.424 17.4423 157.788 17.3712 158.139 17.2354L158.966 16.915L158.885 16.7041L160.538 16.0635L160.539 16.0645L160.62 16.2754L162.274 15.6348L162.192 15.4238L163.846 14.7832L163.847 14.7842L163.929 14.9951L165.583 14.3545L165.501 14.1436L167.155 13.5029L167.236 13.7139L168.891 13.0742L168.81 12.8633L170.464 12.2227L170.545 12.4336L171.372 12.1143C171.595 12.0279 171.819 11.9719 172.041 11.9443L172.013 11.7207C172.524 11.6572 173.025 11.7306 173.478 11.9121L173.395 12.1211C173.823 12.2931 174.205 12.5706 174.502 12.9248L174.675 12.7803C174.988 13.1544 175.212 13.608 175.311 14.1133L175.09 14.1572C175.122 14.3216 175.139 14.4922 175.141 14.668L175.137 14.8457L175.089 15.7354L175.313 15.7461L175.218 17.5264L174.993 17.5156L174.897 19.2959L175.122 19.3066L175.026 21.0869L174.802 21.0762L174.706 22.8564L174.931 22.8672L174.835 24.6475L174.609 24.6367L174.514 26.417L174.739 26.4277L174.644 28.208L174.418 28.1973L174.37 29.0869C174.35 29.4619 174.395 29.8283 174.497 30.1729L174.714 30.1084V30.1074C174.908 30.766 175.325 31.3394 175.891 31.7285V31.7295L175.763 31.916C176.059 32.1195 176.393 32.2761 176.756 32.373L177.614 32.6025L177.672 32.3838V32.3828L179.388 32.8418L179.33 33.0605L181.047 33.5195L181.104 33.3008V33.2998L182.82 33.7588L182.763 33.9775L184.479 34.4365L184.537 34.2178V34.2168L186.253 34.6758L186.195 34.8945L187.912 35.3535L187.971 35.1348V35.1338L189.686 35.5928L189.628 35.8115L190.486 36.041C190.717 36.1026 190.93 36.1898 191.125 36.2979L191.234 36.1006C191.684 36.3499 192.045 36.7036 192.304 37.1162H192.305L192.113 37.2363C192.358 37.627 192.504 38.075 192.536 38.5352L192.761 38.5195C192.794 39.0056 192.71 39.5036 192.493 39.9697L192.289 39.875C192.195 40.0772 192.074 40.2735 191.924 40.459L191.363 41.1514L191.538 41.293L190.417 42.6777L190.242 42.5371L189.12 43.9219L189.295 44.0635L188.174 45.4482L187.999 45.3066L186.877 46.6924L187.053 46.834L185.931 48.2188L185.756 48.0771L184.635 49.4619L184.81 49.6035L183.688 50.9893L183.513 50.8477L182.952 51.54C182.717 51.8312 182.539 52.1533 182.419 52.4912L182.632 52.5674H182.633C182.404 53.2131 182.405 53.9197 182.633 54.5654L182.632 54.5664L182.419 54.6426C182.539 54.9805 182.717 55.3026 182.952 55.5938L183.513 56.2871L183.688 56.1445V56.1436L184.81 57.5293L184.635 57.6719L185.756 59.0566L185.932 58.915V58.9141L187.053 60.2988V60.2998L186.877 60.4424L187.999 61.8271L188.174 61.6846L189.296 63.0693V63.0703L189.12 63.2119L190.242 64.5977L190.417 64.4551L191.538 65.8398H191.539L191.363 65.9824L191.924 66.6748C192.074 66.8603 192.195 67.0566 192.289 67.2588L192.493 67.1631C192.71 67.6291 192.794 68.1273 192.761 68.6133L192.536 68.5986C192.504 69.0588 192.358 69.5067 192.113 69.8975L192.304 70.0176C192.045 70.4301 191.684 70.7829 191.234 71.0322L191.125 70.8359C190.93 70.944 190.717 71.0312 190.486 71.0928L189.628 71.3223L189.686 71.54L187.971 71.999L187.912 71.7803L186.195 72.2393L186.253 72.457L184.537 72.916L184.479 72.6982L182.763 73.1562L182.82 73.374L181.104 73.833L181.047 73.6152L179.33 74.0732L179.388 74.291L177.672 74.75L177.614 74.5322L176.756 74.7607C176.393 74.8577 176.059 75.0143 175.763 75.2178L175.891 75.4043C175.325 75.7932 174.908 76.367 174.714 77.0254L174.497 76.9609C174.395 77.3055 174.35 77.6719 174.37 78.0469L174.418 78.9365L174.644 78.9248L174.739 80.7051L174.514 80.7168L174.609 82.4971L174.835 82.4854L174.931 84.2656L174.706 84.2773L174.802 86.0576L175.026 86.0459L175.122 87.8262H175.123L174.897 87.8379L174.993 89.6182L175.218 89.6064Z" fill="white" stroke="black" stroke-width="0.452413" stroke-dasharray="1.81 1.81"/>
<path d="M67.5303 151.233L68.6143 152.641H68.6152L68.4365 152.779L69.5205 154.187L69.6992 154.048L70.7842 155.455V155.456L70.6055 155.594L71.1475 156.297C71.3208 156.522 71.4333 156.772 71.4893 157.027L71.708 156.979C71.8398 157.58 71.6953 158.215 71.3154 158.7L71.1387 158.562C70.9773 158.768 70.7675 158.943 70.5137 159.07L69.7217 159.469L69.8223 159.67L68.2373 160.465L68.1367 160.264L66.5518 161.06L66.6523 161.261L65.0684 162.056L64.9678 161.854L63.3828 162.65L63.4834 162.852L61.8994 163.647L61.7979 163.445L60.2139 164.241L60.3145 164.443L58.7305 165.238L58.6289 165.036L57.8359 165.435C57.309 165.699 56.907 166.155 56.708 166.703L56.6357 166.943L56.4258 167.807L56.6445 167.859L56.2246 169.587L56.0049 169.534L55.585 171.261L55.8047 171.314L55.3848 173.041L55.165 172.987L54.7451 174.714L54.9639 174.767L54.5439 176.493L54.3252 176.44L53.9053 178.168L54.124 178.22L53.7041 179.948L53.4844 179.895L53.2744 180.758C53.207 181.035 53.0822 181.279 52.917 181.482L53.0918 181.624C52.7027 182.104 52.1141 182.387 51.4961 182.392L51.4951 182.167C51.2328 182.169 50.9644 182.114 50.7061 181.994L49.9033 181.621L49.8076 181.825L48.2021 181.079L48.2969 180.875L46.6914 180.128L46.5957 180.333H46.5947L44.9893 179.587H44.9902L45.0859 179.382L43.4795 178.636L43.3838 178.841L41.7773 178.094H41.7783L41.874 177.889L40.2686 177.143L40.1729 177.348H40.1719L38.5664 176.602H38.5674L38.6621 176.396L37.8594 176.023L37.625 175.93C37.1493 175.769 36.6339 175.769 36.1582 175.93L35.9238 176.023L35.1211 176.396L35.2158 176.602L33.6104 177.348L33.5146 177.143L31.9092 177.889L32.0049 178.094L30.3984 178.841L30.3037 178.636L28.6973 179.382L28.793 179.587L27.1875 180.333L27.0918 180.128L25.4863 180.875L25.5801 181.079L23.9746 181.825L23.8799 181.621L23.0771 181.994C22.8189 182.114 22.5504 182.169 22.2881 182.167L22.2861 182.392C21.6683 182.387 21.0793 182.104 20.6904 181.624L20.8662 181.482C20.701 181.279 20.5762 181.035 20.5088 180.758L20.2988 179.895L20.0781 179.947L19.6582 178.22L19.8779 178.168L19.458 176.44L19.2383 176.493L18.8184 174.767L19.0381 174.714L18.6182 172.987L18.3975 173.041L17.9775 171.314L18.1982 171.261L17.7783 169.534L17.5576 169.586L17.1377 167.859L17.3574 167.807L17.1475 166.943C16.988 166.288 16.5487 165.737 15.9463 165.435L15.1543 165.036L15.0527 165.238H15.0518L13.4668 164.443L13.5693 164.241L11.9854 163.445L11.8838 163.647H11.8828L10.2988 162.852L10.4004 162.65L8.81543 161.854L8.71289 162.057L7.12891 161.261L7.23047 161.06L5.64648 160.264L5.54492 160.465L3.95996 159.67L4.06152 159.469L3.26953 159.07L3.08691 158.966C2.91358 158.853 2.76547 158.716 2.64453 158.562L2.4668 158.7C2.08718 158.215 1.9425 157.58 2.07422 156.979L2.29395 157.027C2.33587 156.836 2.41029 156.648 2.51758 156.471L2.63574 156.297L3.17773 155.594L2.99902 155.456L2.99805 155.455L4.08301 154.048L4.2627 154.187L5.34668 152.779L5.16797 152.641L6.25195 151.233L6.43066 151.372L7.51562 149.964L7.33594 149.826L8.41992 148.418L8.4209 148.419L8.59961 148.557L9.68457 147.149L9.50488 147.012L10.5889 145.604L10.7686 145.742L11.3105 145.038C11.6697 144.572 11.8342 143.989 11.7764 143.409L11.7383 143.161L11.5537 142.291L11.333 142.338H11.332L10.9639 140.598L11.1855 140.552L10.8174 138.812L10.5947 138.858L10.2266 137.119L10.4492 137.072L10.0801 135.332L9.85938 135.379H9.8584L9.49023 133.638L9.71191 133.592L9.34375 131.853L9.12109 131.899L8.75293 130.159L8.97559 130.112L8.79102 129.242L8.75879 129.035C8.73866 128.829 8.75438 128.627 8.7998 128.436L8.58008 128.384C8.72251 127.784 9.12907 127.273 9.68262 127.001L9.78223 127.204C9.9586 127.117 10.1518 127.057 10.3574 127.031L10.5674 127.017L11.4521 127.004L11.4482 126.777L13.2178 126.75L13.2188 126.751L13.2227 126.977L14.9932 126.95L14.9893 126.724L16.7598 126.697L16.7627 126.924L18.5332 126.896L18.5303 126.671L18.5293 126.67L20.3008 126.644L20.3037 126.87L22.0742 126.843L22.0703 126.617L23.8398 126.59L23.8408 126.591L23.8447 126.816L24.7295 126.803C25.3209 126.794 25.8826 126.558 26.3008 126.148L26.4707 125.963L27.0332 125.276L26.8584 125.134L26.8574 125.133L27.9814 123.761L27.9824 123.762L28.1572 123.905L29.2812 122.533L29.1064 122.39L30.2305 121.017L30.2314 121.018L30.4062 121.161L31.5303 119.789L31.3555 119.646L32.4785 118.273L32.4795 118.274L32.6543 118.417L33.7793 117.046L33.6035 116.902L34.7275 115.529L34.7285 115.53L34.9033 115.674L35.4658 114.987C35.6464 114.767 35.8645 114.601 36.1016 114.489L36.0049 114.284C36.5634 114.02 37.2177 114.021 37.7764 114.284L37.6807 114.489C37.918 114.601 38.1367 114.767 38.3174 114.987L38.8799 115.674L39.0537 115.53L40.1777 116.902H40.1787L40.0039 117.046L41.1289 118.417L41.3027 118.274L42.4268 119.646L42.2529 119.789L43.377 121.161L43.5508 121.018L44.6758 122.39L44.501 122.533L45.626 123.905L45.8008 123.762V123.761L46.9248 125.133V125.134L46.75 125.276L47.3125 125.963C47.741 126.486 48.378 126.793 49.0537 126.803L49.9385 126.816L49.9424 126.591V126.59L51.7119 126.617L51.709 126.843L53.4795 126.87L53.4814 126.644L55.2529 126.67V126.671L55.25 126.896L57.0195 126.924L57.0225 126.697L58.793 126.724L58.79 126.95L60.5605 126.977L60.5645 126.751V126.75L62.333 126.777L62.3311 127.004L63.2158 127.017C63.5002 127.021 63.7658 127.088 64.001 127.204L64.0996 127.001C64.6534 127.273 65.0596 127.784 65.2021 128.384L64.9834 128.436C65.0288 128.627 65.0445 128.829 65.0244 129.035L64.9922 129.242L64.8076 130.112L65.0293 130.159L64.6611 131.899L64.4395 131.853L64.0713 133.592L64.292 133.639L63.9238 135.379L63.7031 135.332L63.334 137.072L63.5557 137.119L63.1875 138.858L62.9658 138.812L62.5977 140.552L62.8184 140.599L62.4502 142.338L62.2295 142.291L62.0449 143.161C61.9056 143.819 62.0621 144.505 62.4727 145.038L63.0146 145.742L63.1934 145.604V145.604L64.2773 147.012H64.2783L64.0986 147.149L65.1836 148.557L65.3623 148.419V148.418L66.4463 149.826L66.2676 149.964L67.3516 151.372L67.5303 151.233Z" fill="white" stroke="black" stroke-width="0.452413" stroke-dasharray="1.81 1.81"/>
<mask id="path-3-inside-1_4105_54570" fill="white">
<path d="M161.05 84.8334C166.429 86.2799 169.625 91.8158 168.188 97.1979L164.157 112.296C158.444 110.762 152.572 114.164 151.041 119.897C149.51 125.63 152.9 131.522 158.612 133.06L154.583 148.15C153.146 153.532 147.619 156.723 142.24 155.276L20.6554 122.585C15.2757 121.139 12.0795 115.603 13.5167 110.221L17.547 95.1277C17.5486 95.1281 17.5499 95.1295 17.5515 95.1299C23.2657 96.6663 29.1391 93.2634 30.6703 87.5295C32.2012 81.7956 28.8103 75.9017 23.0962 74.3653C23.0946 74.3649 23.0931 74.3644 23.0915 74.364L27.1223 59.2689C28.5596 53.8869 34.0859 50.6962 39.4656 52.1425L161.05 84.8334Z"/>
</mask>
<path d="M161.05 84.8334C166.429 86.2799 169.625 91.8158 168.188 97.1979L164.157 112.296C158.444 110.762 152.572 114.164 151.041 119.897C149.51 125.63 152.9 131.522 158.612 133.06L154.583 148.15C153.146 153.532 147.619 156.723 142.24 155.276L20.6554 122.585C15.2757 121.139 12.0795 115.603 13.5167 110.221L17.547 95.1277C17.5486 95.1281 17.5499 95.1295 17.5515 95.1299C23.2657 96.6663 29.1391 93.2634 30.6703 87.5295C32.2012 81.7956 28.8103 75.9017 23.0962 74.3653C23.0946 74.3649 23.0931 74.3644 23.0915 74.364L27.1223 59.2689C28.5596 53.8869 34.0859 50.6962 39.4656 52.1425L161.05 84.8334Z" fill="#E5E8EB"/>
<path d="M161.05 84.8334L161.191 84.3054L161.191 84.3054L161.05 84.8334ZM168.188 97.1979L168.716 97.3398L168.716 97.3398L168.188 97.1979ZM164.157 112.296L164.016 112.824L164.544 112.966L164.685 112.438L164.157 112.296ZM151.041 119.897L150.513 119.755L150.513 119.755L151.041 119.897ZM158.612 133.06L159.14 133.201L159.281 132.674L158.753 132.532L158.612 133.06ZM142.24 155.276L142.099 155.804L142.099 155.804L142.24 155.276ZM20.6554 122.585L20.5144 123.113L20.5144 123.113L20.6554 122.585ZM13.5167 110.221L12.989 110.079L13.5167 110.221ZM17.547 95.1277L17.6882 94.5998L17.1604 94.4576L17.0193 94.9858L17.547 95.1277ZM17.5515 95.1299L17.4105 95.6579L17.4105 95.6579L17.5515 95.1299ZM30.6703 87.5295L31.198 87.6714L31.198 87.6714L30.6703 87.5295ZM23.0962 74.3653L23.2372 73.8373L23.2372 73.8373L23.0962 74.3653ZM23.0915 74.364L22.5638 74.2221L22.4228 74.7503L22.9508 74.892L23.0915 74.364ZM27.1223 59.2689L26.5946 59.127L26.5946 59.127L27.1223 59.2689ZM39.4656 52.1425L39.6065 51.6146L39.6065 51.6146L39.4656 52.1425ZM161.05 84.8334L161.191 84.3054L159.869 83.9501L159.728 84.4781L159.587 85.006L160.909 85.3613L161.05 84.8334ZM157.085 83.7674L157.226 83.2394L154.583 82.5288L154.442 83.0567L154.301 83.5847L156.944 84.2953L157.085 83.7674ZM151.799 82.346L151.94 81.8181L149.297 81.1074L149.156 81.6354L149.015 82.1633L151.658 82.874L151.799 82.346ZM146.512 80.9247L146.653 80.3967L144.01 79.6861L143.869 80.214L143.728 80.742L146.372 81.4526L146.512 80.9247ZM141.226 79.5034L141.367 78.9754L138.724 78.2647L138.583 78.7927L138.442 79.3206L141.085 80.0313L141.226 79.5034ZM135.94 78.082L136.081 77.5541L133.438 76.8434L133.297 77.3713L133.156 77.8993L135.799 78.61L135.94 78.082ZM130.654 76.6607L130.795 76.1327L128.152 75.4221L128.011 75.95L127.87 76.478L130.513 77.1886L130.654 76.6607ZM125.367 75.2393L125.508 74.7114L122.865 74.0007L122.724 74.5287L122.583 75.0566L125.226 75.7673L125.367 75.2393ZM120.081 73.818L120.222 73.29L117.579 72.5794L117.438 73.1073L117.297 73.6353L119.94 74.3459L120.081 73.818ZM114.795 72.3966L114.936 71.8687L112.293 71.158L112.152 71.686L112.011 72.2139L114.654 72.9246L114.795 72.3966ZM109.509 70.9753L109.65 70.4474L107.006 69.7367L106.865 70.2646L106.725 70.7926L109.368 71.5033L109.509 70.9753ZM104.222 69.554L104.363 69.026L101.72 68.3153L101.579 68.8433L101.438 69.3712L104.081 70.0819L104.222 69.554ZM98.9361 68.1326L99.0771 67.6047L96.4339 66.894L96.2929 67.422L96.152 67.9499L98.7951 68.6606L98.9361 68.1326ZM93.6498 66.7113L93.7908 66.1833L91.1477 65.4727L91.0067 66.0006L90.8657 66.5286L93.5088 67.2392L93.6498 66.7113ZM88.3635 65.2899L88.5045 64.762L85.8614 64.0513L85.7204 64.5793L85.5794 65.1072L88.2226 65.8179L88.3635 65.2899ZM83.0773 63.8686L83.2183 63.3407L80.5751 62.63L80.4341 63.1579L80.2932 63.6859L82.9363 64.3965L83.0773 63.8686ZM77.791 62.4473L77.932 61.9193L75.2889 61.2086L75.1479 61.7366L75.0069 62.2645L77.65 62.9752L77.791 62.4473ZM72.5047 61.0259L72.6457 60.498L70.0026 59.7873L69.8616 60.3152L69.7206 60.8432L72.3638 61.5539L72.5047 61.0259ZM67.2185 59.6046L67.3595 59.0766L64.7163 58.366L64.5753 58.8939L64.4344 59.4219L67.0775 60.1325L67.2185 59.6046ZM61.9322 58.1832L62.0732 57.6553L59.4301 56.9446L59.2891 57.4726L59.1481 58.0005L61.7912 58.7112L61.9322 58.1832ZM56.6459 56.7619L56.7869 56.2339L54.1438 55.5233L54.0028 56.0512L53.8618 56.5792L56.505 57.2898L56.6459 56.7619ZM51.3597 55.3406L51.5007 54.8126L48.8575 54.1019L48.7165 54.6299L48.5756 55.1578L51.2187 55.8685L51.3597 55.3406ZM46.0734 53.9192L46.2144 53.3913L43.5713 52.6806L43.4303 53.2085L43.2893 53.7365L45.9324 54.4472L46.0734 53.9192ZM40.7871 52.4979L40.9281 51.9699L39.6065 51.6146L39.4656 52.1425L39.3246 52.6705L40.6462 53.0258L40.7871 52.4979ZM39.4656 52.1425L39.6065 51.6146C39.1524 51.4925 38.6971 51.4017 38.2428 51.341L38.1713 51.8829L38.0998 52.4247C38.5073 52.4792 38.9163 52.5607 39.3246 52.6705L39.4656 52.1425ZM35.5394 51.8796L35.4675 51.3376C34.5399 51.4595 33.6396 51.7034 32.7881 52.0566L32.9979 52.5616L33.2076 53.0667C33.972 52.7497 34.7797 52.5309 35.6113 52.4216L35.5394 51.8796ZM30.7191 53.8773L30.3866 53.4431C29.655 54.0039 28.9936 54.6616 28.4242 55.404L28.8577 55.7373L29.2911 56.0706C29.8016 55.405 30.3949 54.8149 31.0517 54.3115L30.7191 53.8773ZM27.5446 58.0182L27.0395 57.8092C26.865 58.233 26.7159 58.6727 26.5946 59.127L27.1223 59.2689L27.65 59.4108C27.7591 59.0023 27.893 58.6074 28.0496 58.2272L27.5446 58.0182ZM27.1223 59.2689L26.5946 59.127L26.2587 60.3849L26.7864 60.5268L27.3141 60.6687L27.65 59.4108L27.1223 59.2689ZM26.1146 63.0427L25.5869 62.9008L24.9151 65.4166L25.4428 65.5585L25.9705 65.7004L26.6423 63.1846L26.1146 63.0427ZM24.771 68.0744L24.2433 67.9325L23.5715 70.4483L24.0992 70.5902L24.6269 70.7321L25.2987 68.2163L24.771 68.0744ZM23.4274 73.1061L22.8997 72.9642L22.5638 74.2221L23.0915 74.364L23.6192 74.5059L23.9551 73.248L23.4274 73.1061ZM23.0915 74.364L22.9508 74.892C22.9511 74.8921 22.9514 74.8922 22.9517 74.8923L23.0927 74.3643L23.2336 73.8364C23.2332 73.8362 23.2327 73.8361 23.2322 73.836L23.0915 74.364ZM23.095 74.365L22.954 74.8929C22.9544 74.893 22.9548 74.8931 22.9552 74.8932L23.0962 74.3653L23.2372 73.8373C23.2368 73.8372 23.2365 73.8371 23.2361 73.837L23.095 74.365ZM23.0962 74.3653L22.9552 74.8932C23.3909 75.0104 23.8122 75.1541 24.2177 75.3222L24.426 74.8172L24.6344 74.3121C24.1851 74.1259 23.7189 73.9668 23.2372 73.8373L23.0962 74.3653ZM26.8508 76.2215L26.5177 76.6543C27.2271 77.2016 27.8562 77.8375 28.3927 78.5413L28.8268 78.2101L29.2609 77.8789C28.6669 77.0998 27.9702 76.3954 27.1839 75.7887L26.8508 76.2215ZM30.2233 80.6414L29.7185 80.8495C30.056 81.667 30.2889 82.5308 30.4055 83.4201L30.947 83.3498L31.4886 83.2795C31.3595 82.2944 31.1015 81.338 30.7281 80.4333L30.2233 80.6414ZM30.9446 86.152L30.4031 86.0793C30.3454 86.5147 30.259 86.9515 30.1425 87.3876L30.6703 87.5295L31.198 87.6714C31.3266 87.1897 31.4222 86.7066 31.4861 86.2247L30.9446 86.152ZM30.6703 87.5295L30.1426 87.3876C30.0261 87.8237 29.8833 88.2454 29.7163 88.6514L30.2215 88.8601L30.7267 89.0688C30.9114 88.6194 31.0693 88.1531 31.198 87.6714L30.6703 87.5295ZM28.8274 91.2881L28.3934 90.9555C27.8493 91.6672 27.2172 92.2984 26.5176 92.8371L26.8511 93.2706L27.1845 93.7041C27.9588 93.1079 28.6587 92.4091 29.2614 91.6207L28.8274 91.2881ZM24.4302 94.6755L24.2193 94.1709C23.4039 94.5111 22.5423 94.7463 21.6552 94.8643L21.728 95.4062L21.8008 95.9481C22.7841 95.8173 23.7385 95.5568 24.641 95.1801L24.4302 94.6755ZM18.9283 95.4058L18.9995 94.8639C18.5646 94.806 18.1282 94.7191 17.6925 94.602L17.5515 95.1299L17.4105 95.6579C17.8922 95.7874 18.3752 95.8835 18.8571 95.9477L18.9283 95.4058ZM17.5515 95.1299L17.6925 94.602C17.7446 94.616 17.7835 94.6348 17.8046 94.646L17.5503 95.1294L17.2961 95.6129C17.3179 95.6244 17.3576 95.6436 17.4105 95.6579L17.5515 95.1299ZM17.5482 95.1282L17.8025 94.6448C17.7807 94.6333 17.7411 94.6141 17.6882 94.5998L17.547 95.1277L17.4058 95.6556C17.3538 95.6416 17.3149 95.6227 17.2938 95.6116L17.5482 95.1282ZM17.547 95.1277L17.0193 94.9858L16.6835 96.2436L17.2112 96.3855L17.7389 96.5274L18.0747 95.2696L17.547 95.1277ZM16.5395 98.901L16.0117 98.7591L15.34 101.275L15.8677 101.417L16.3954 101.558L17.0672 99.0429L16.5395 98.901ZM15.196 103.932L14.6683 103.79L13.9966 106.306L14.5243 106.448L15.052 106.59L15.7237 104.074L15.196 103.932ZM13.8526 108.963L13.3249 108.821L12.989 110.079L13.5167 110.221L14.0444 110.363L14.3803 109.105L13.8526 108.963ZM13.5167 110.221L12.989 110.079C12.8677 110.533 12.7777 110.989 12.7177 111.444L13.2592 111.516L13.8007 111.588C13.8545 111.181 13.9353 110.771 14.0444 110.363L13.5167 110.221ZM13.2598 114.15L12.7183 114.221C12.8415 115.15 13.0865 116.051 13.4407 116.904L13.945 116.695L14.4494 116.486C14.1314 115.72 13.9117 114.911 13.8012 114.079L13.2598 114.15ZM15.2629 118.978L14.8296 119.31C15.391 120.043 16.0492 120.706 16.7918 121.277L17.1242 120.843L17.4565 120.41C16.7908 119.898 16.2002 119.303 15.6963 118.645L15.2629 118.978ZM19.4051 122.161L19.1971 122.666C19.6207 122.841 20.0603 122.991 20.5144 123.113L20.6554 122.585L20.7964 122.058C20.388 121.948 19.9933 121.813 19.6132 121.656L19.4051 122.161ZM20.6554 122.585L20.5144 123.113L21.836 123.469L21.9769 122.941L22.1179 122.413L20.7964 122.058L20.6554 122.585ZM24.6201 123.651L24.4791 124.179L27.1222 124.89L27.2632 124.362L27.4042 123.834L24.7611 123.124L24.6201 123.651ZM29.9063 125.073L29.7654 125.601L32.4085 126.311L32.5495 125.784L32.6905 125.256L30.0473 124.545L29.9063 125.073ZM35.1926 126.494L35.0516 127.022L37.6948 127.733L37.8357 127.205L37.9767 126.677L35.3336 125.966L35.1926 126.494ZM40.4789 127.916L40.3379 128.443L42.981 129.154L43.122 128.626L43.263 128.098L40.6199 127.388L40.4789 127.916ZM45.7651 129.337L45.6242 129.865L48.2673 130.575L48.4083 130.048L48.5493 129.52L45.9061 128.809L45.7651 129.337ZM51.0514 130.758L50.9104 131.286L53.5536 131.997L53.6945 131.469L53.8355 130.941L51.1924 130.23L51.0514 130.758ZM56.3377 132.18L56.1967 132.707L58.8398 133.418L58.9808 132.89L59.1218 132.362L56.4787 131.652L56.3377 132.18ZM61.6239 133.601L61.483 134.129L64.1261 134.84L64.2671 134.312L64.4081 133.784L61.7649 133.073L61.6239 133.601ZM66.9102 135.022L66.7692 135.55L69.4124 136.261L69.5533 135.733L69.6943 135.205L67.0512 134.494L66.9102 135.022ZM72.1965 136.444L72.0555 136.972L74.6986 137.682L74.8396 137.154L74.9806 136.626L72.3375 135.916L72.1965 136.444ZM77.4828 137.865L77.3418 138.393L79.9849 139.104L80.1259 138.576L80.2669 138.048L77.6237 137.337L77.4828 137.865ZM82.769 139.286L82.628 139.814L85.2712 140.525L85.4122 139.997L85.5531 139.469L82.91 138.758L82.769 139.286ZM88.0553 140.708L87.9143 141.236L90.5574 141.946L90.6984 141.418L90.8394 140.89L88.1963 140.18L88.0553 140.708ZM93.3416 142.129L93.2006 142.657L95.8437 143.368L95.9847 142.84L96.1257 142.312L93.4825 141.601L93.3416 142.129ZM98.6278 143.55L98.4868 144.078L101.13 144.789L101.271 144.261L101.412 143.733L98.7688 143.022L98.6278 143.55ZM103.914 144.972L103.773 145.5L106.416 146.21L106.557 145.682L106.698 145.154L104.055 144.444L103.914 144.972ZM109.2 146.393L109.059 146.921L111.703 147.632L111.843 147.104L111.984 146.576L109.341 145.865L109.2 146.393ZM114.487 147.814L114.346 148.342L116.989 149.053L117.13 148.525L117.271 147.997L114.628 147.286L114.487 147.814ZM119.773 149.236L119.632 149.764L122.275 150.474L122.416 149.946L122.557 149.418L119.914 148.708L119.773 149.236ZM125.059 150.657L124.918 151.185L127.561 151.896L127.702 151.368L127.843 150.84L125.2 150.129L125.059 150.657ZM130.345 152.078L130.204 152.606L132.848 153.317L132.989 152.789L133.13 152.261L130.486 151.55L130.345 152.078ZM135.632 153.5L135.491 154.028L138.134 154.738L138.275 154.21L138.416 153.682L135.773 152.972L135.632 153.5ZM140.918 154.921L140.777 155.449L142.099 155.804L142.24 155.276L142.381 154.748L141.059 154.393L140.918 154.921ZM142.24 155.276L142.099 155.804C142.553 155.926 143.008 156.017 143.462 156.078L143.534 155.536L143.605 154.994C143.198 154.94 142.789 154.858 142.38 154.748L142.24 155.276ZM146.166 155.539L146.238 156.081C147.165 155.959 148.066 155.716 148.917 155.362L148.707 154.857L148.498 154.352C147.733 154.669 146.925 154.888 146.094 154.997L146.166 155.539ZM150.986 153.542L151.319 153.976C152.05 153.415 152.712 152.757 153.281 152.015L152.847 151.682L152.414 151.348C151.904 152.014 151.31 152.604 150.654 153.107L150.986 153.542ZM154.161 149.401L154.666 149.61C154.84 149.186 154.989 148.746 155.11 148.292L154.583 148.15L154.055 148.008C153.946 148.417 153.812 148.812 153.656 149.192L154.161 149.401ZM154.583 148.15L155.11 148.292L155.446 147.034L154.919 146.892L154.391 146.751L154.055 148.008L154.583 148.15ZM155.59 144.377L156.118 144.519L156.789 142.004L156.262 141.862L155.734 141.72L155.062 144.235L155.59 144.377ZM156.933 139.347L157.461 139.489L158.133 136.974L157.605 136.832L157.077 136.69L156.406 139.205L156.933 139.347ZM158.277 134.317L158.804 134.459L159.14 133.201L158.612 133.06L158.085 132.918L157.749 134.175L158.277 134.317ZM158.612 133.06L158.753 132.532C158.318 132.414 157.897 132.271 157.491 132.102L157.283 132.607L157.074 133.112C157.524 133.299 157.99 133.458 158.471 133.587L158.612 133.06ZM154.859 131.203L155.192 130.77C154.483 130.223 153.854 129.587 153.318 128.883L152.884 129.215L152.449 129.546C153.043 130.325 153.74 131.029 154.526 131.636L154.859 131.203ZM151.487 126.784L151.992 126.576C151.655 125.758 151.422 124.895 151.306 124.006L150.764 124.076L150.222 124.146C150.351 125.131 150.609 126.087 150.983 126.992L151.487 126.784ZM150.767 121.274L151.308 121.347C151.366 120.912 151.452 120.475 151.569 120.039L151.041 119.897L150.513 119.755C150.385 120.237 150.289 120.72 150.225 121.202L150.767 121.274ZM151.041 119.897L151.569 120.039C151.685 119.603 151.828 119.181 151.995 118.775L151.49 118.567L150.984 118.358C150.8 118.807 150.642 119.274 150.513 119.755L151.041 119.897ZM152.883 116.139L153.317 116.472C153.861 115.76 154.493 115.129 155.193 114.59L154.859 114.157L154.526 113.723C153.752 114.32 153.052 115.018 152.449 115.807L152.883 116.139ZM157.279 112.752L157.49 113.256C158.306 112.916 159.167 112.681 160.054 112.563L159.981 112.021L159.908 111.479C158.925 111.61 157.971 111.871 157.069 112.247L157.279 112.752ZM162.78 112.02L162.709 112.562C163.144 112.62 163.58 112.707 164.016 112.824L164.157 112.296L164.298 111.768C163.816 111.639 163.333 111.543 162.851 111.479L162.78 112.02ZM164.157 112.296L164.685 112.438L165.02 111.18L164.493 111.038L163.965 110.896L163.629 112.154L164.157 112.296ZM165.165 108.521L165.692 108.663L166.364 106.147L165.837 106.005L165.309 105.863L164.637 108.38L165.165 108.521ZM166.509 103.489L167.036 103.631L167.708 101.114L167.18 100.972L166.653 100.831L165.981 103.347L166.509 103.489ZM167.852 98.4561L168.38 98.598L168.716 97.3398L168.188 97.1979L167.661 97.056L167.325 98.3142L167.852 98.4561ZM168.188 97.1979L168.716 97.3398C168.837 96.8855 168.927 96.4299 168.987 95.9753L168.446 95.903L167.904 95.8306C167.851 96.2384 167.77 96.6476 167.661 97.0561L168.188 97.1979ZM168.445 93.2688L168.987 93.1976C168.863 92.269 168.618 91.3675 168.264 90.5148L167.76 90.724L167.256 90.9332C167.574 91.6987 167.793 92.5074 167.904 93.34L168.445 93.2688ZM166.442 88.4414L166.875 88.1092C166.314 87.3761 165.656 86.7132 164.913 86.1422L164.581 86.5755L164.249 87.0088C164.914 87.5208 165.505 88.1155 166.009 88.7735L166.442 88.4414ZM162.3 85.2579L162.508 84.7527C162.084 84.5774 161.645 84.4275 161.191 84.3054L161.05 84.8334L160.909 85.3613C161.317 85.4711 161.712 85.6057 162.092 85.763L162.3 85.2579ZM161.05 84.8334L161.332 83.7775L161.332 83.7775L161.05 84.8334ZM168.188 97.1979L169.244 97.4817L169.244 97.4817L168.188 97.1979ZM164.157 112.296L163.875 113.352L164.93 113.635L165.212 112.58L164.157 112.296ZM151.041 119.897L149.985 119.613L149.985 119.613L151.041 119.897ZM158.612 133.06L159.668 133.343L159.95 132.288L158.895 132.004L158.612 133.06ZM142.24 155.276L141.958 156.332L141.958 156.332L142.24 155.276ZM20.6554 122.585L20.3734 123.641L20.3734 123.641L20.6554 122.585ZM13.5167 110.221L12.4613 109.937L13.5167 110.221ZM17.547 95.1277L17.8295 94.0719L16.7737 93.7876L16.4916 94.8439L17.547 95.1277ZM17.5515 95.1299L17.2695 96.1858L17.2695 96.1858L17.5515 95.1299ZM30.6703 87.5295L31.7257 87.8133L31.7257 87.8132L30.6703 87.5295ZM23.0962 74.3653L23.3782 73.3094L23.3782 73.3094L23.0962 74.3653ZM23.0915 74.364L22.0361 74.0802L21.754 75.1366L22.81 75.42L23.0915 74.364ZM27.1223 59.2689L26.0669 58.9851L26.0669 58.9851L27.1223 59.2689ZM39.4656 52.1425L39.7475 51.0866L39.7475 51.0866L39.4656 52.1425ZM161.05 84.8334L161.332 83.7775L160.01 83.4222L159.728 84.4781L159.446 85.534L160.768 85.8893L161.05 84.8334ZM157.085 83.7674L157.367 82.7115L154.724 82.0008L154.442 83.0567L154.16 84.1126L156.803 84.8233L157.085 83.7674ZM151.799 82.346L152.081 81.2901L149.438 80.5795L149.156 81.6354L148.874 82.6913L151.517 83.4019L151.799 82.346ZM146.512 80.9247L146.794 79.8688L144.151 79.1581L143.869 80.214L143.587 81.2699L146.231 81.9806L146.512 80.9247ZM141.226 79.5034L141.508 78.4475L138.865 77.7368L138.583 78.7927L138.301 79.8486L140.944 80.5593L141.226 79.5034ZM135.94 78.082L136.222 77.0261L133.579 76.3154L133.297 77.3713L133.015 78.4272L135.658 79.1379L135.94 78.082ZM130.654 76.6607L130.936 75.6048L128.293 74.8941L128.011 75.95L127.729 77.0059L130.372 77.7166L130.654 76.6607ZM125.367 75.2393L125.649 74.1834L123.006 73.4728L122.724 74.5287L122.442 75.5846L125.085 76.2952L125.367 75.2393ZM120.081 73.818L120.363 72.7621L117.72 72.0514L117.438 73.1073L117.156 74.1632L119.799 74.8739L120.081 73.818ZM114.795 72.3966L115.077 71.3407L112.434 70.6301L112.152 71.686L111.87 72.7419L114.513 73.4525L114.795 72.3966ZM109.509 70.9753L109.791 69.9194L107.147 69.2087L106.865 70.2646L106.584 71.3205L109.227 72.0312L109.509 70.9753ZM104.222 69.554L104.504 68.4981L101.861 67.7874L101.579 68.8433L101.297 69.8992L103.94 70.6099L104.222 69.554ZM98.9361 68.1326L99.218 67.0767L96.5749 66.3661L96.2929 67.422L96.011 68.4779L98.6541 69.1885L98.9361 68.1326ZM93.6498 66.7113L93.9318 65.6554L91.2886 64.9447L91.0067 66.0006L90.7247 67.0565L93.3679 67.7672L93.6498 66.7113ZM88.3635 65.2899L88.6455 64.234L86.0024 63.5234L85.7204 64.5793L85.4385 65.6352L88.0816 66.3458L88.3635 65.2899ZM83.0773 63.8686L83.3592 62.8127L80.7161 62.102L80.4341 63.1579L80.1522 64.2138L82.7953 64.9245L83.0773 63.8686ZM77.791 62.4473L78.073 61.3914L75.4298 60.6807L75.1479 61.7366L74.8659 62.7925L77.5091 63.5032L77.791 62.4473ZM72.5047 61.0259L72.7867 59.97L70.1436 59.2593L69.8616 60.3152L69.5797 61.3711L72.2228 62.0818L72.5047 61.0259ZM67.2185 59.6046L67.5004 58.5487L64.8573 57.838L64.5753 58.8939L64.2934 59.9498L66.9365 60.6605L67.2185 59.6046ZM61.9322 58.1832L62.2142 57.1273L59.571 56.4167L59.2891 57.4726L59.0071 58.5285L61.6503 59.2391L61.9322 58.1832ZM56.6459 56.7619L56.9279 55.706L54.2848 54.9953L54.0028 56.0512L53.7209 57.1071L56.364 57.8178L56.6459 56.7619ZM51.3597 55.3406L51.6416 54.2847L48.9985 53.574L48.7165 54.6299L48.4346 55.6858L51.0777 56.3965L51.3597 55.3406ZM46.0734 53.9192L46.3554 52.8633L43.7122 52.1526L43.4303 53.2085L43.1483 54.2644L45.7915 54.9751L46.0734 53.9192ZM40.7871 52.4979L41.0691 51.442L39.7475 51.0866L39.4656 52.1425L39.1836 53.1984L40.5052 53.5538L40.7871 52.4979ZM39.4656 52.1425L39.7475 51.0866C39.2705 50.9584 38.792 50.863 38.3144 50.7991L38.1713 51.8829L38.0283 52.9666C38.4125 53.018 38.7982 53.0948 39.1836 53.1984L39.4656 52.1425ZM35.5394 51.8796L35.3956 50.7955C34.42 50.9238 33.4733 51.1802 32.5783 51.5515L32.9979 52.5616L33.4174 53.5718C34.1382 53.2728 34.8996 53.0667 35.6833 52.9636L35.5394 51.8796ZM30.7191 53.8773L30.0541 53.0089C29.2851 53.5983 28.5896 54.2899 27.9908 55.0707L28.8577 55.7373L29.7246 56.4039C30.2056 55.7767 30.7649 55.2204 31.3842 54.7457L30.7191 53.8773ZM27.5446 58.0182L26.5345 57.6002C26.351 58.0458 26.1943 58.5079 26.0669 58.9851L27.1223 59.2689L28.1777 59.5527C28.2807 59.1671 28.407 58.7946 28.5546 58.4362L27.5446 58.0182ZM27.1223 59.2689L26.0669 58.9851L25.731 60.243L26.7864 60.5268L27.8418 60.8106L28.1777 59.5527L27.1223 59.2689ZM26.1146 63.0427L25.0592 62.7589L24.3874 65.2748L25.4428 65.5585L26.4982 65.8423L27.17 63.3264L26.1146 63.0427ZM24.771 68.0744L23.7156 67.7906L23.0438 70.3065L24.0992 70.5902L25.1546 70.874L25.8264 68.3582L24.771 68.0744ZM23.4274 73.1061L22.372 72.8223L22.0361 74.0802L23.0915 74.364L24.1469 74.6478L24.4828 73.3899L23.4274 73.1061ZM23.0915 74.364L22.81 75.42C22.8103 75.4201 22.8105 75.4202 22.8108 75.4203L23.0927 74.3643L23.3745 73.3084C23.3741 73.3083 23.3735 73.3081 23.373 73.308L23.0915 74.364ZM23.095 74.365L22.8129 75.4208C22.8133 75.4209 22.8138 75.4211 22.8143 75.4212L23.0962 74.3653L23.3782 73.3094C23.3778 73.3093 23.3775 73.3092 23.3771 73.3091L23.095 74.365ZM23.0962 74.3653L22.8143 75.4212C23.227 75.5321 23.6257 75.6682 24.0093 75.8273L24.426 74.8172L24.8427 73.8071C24.3716 73.6118 23.8828 73.4451 23.3782 73.3094L23.0962 74.3653ZM26.8508 76.2215L26.1847 77.0871C26.8556 77.6047 27.4508 78.2063 27.9587 78.8725L28.8268 78.2101L29.6949 77.5476C29.0723 76.731 28.3417 75.9922 27.5169 75.3559L26.8508 76.2215ZM30.2233 80.6414L29.2137 81.0576C29.5332 81.8315 29.7536 82.649 29.8639 83.4905L30.947 83.3498L32.0302 83.2092C31.8948 82.1762 31.6243 81.1735 31.2329 80.2252L30.2233 80.6414ZM30.9446 86.152L29.8616 86.0066C29.807 86.4187 29.7252 86.8324 29.6148 87.2457L30.6703 87.5295L31.7257 87.8132C31.8604 87.3087 31.9605 86.8026 32.0275 86.2974L30.9446 86.152ZM30.6703 87.5295L29.6148 87.2457C29.5045 87.659 29.3692 88.0584 29.2112 88.4427L30.2215 88.8601L31.2318 89.2775C31.4255 88.8063 31.591 88.3177 31.7257 87.8133L30.6703 87.5295ZM28.8274 91.2881L27.9594 90.6229C27.4447 91.2962 26.8464 91.8937 26.1841 92.4036L26.8511 93.2706L27.518 94.1375C28.3295 93.5127 29.0634 92.78 29.6954 91.9533L28.8274 91.2881ZM24.4302 94.6755L24.0084 93.6662C23.2367 93.9883 22.4214 94.2107 21.5824 94.3224L21.728 95.4062L21.8735 96.4901C22.905 96.3528 23.9057 96.0796 24.8519 95.6847L24.4302 94.6755ZM18.9283 95.4058L19.0708 94.322C18.6593 94.2672 18.2462 94.185 17.8334 94.074L17.5515 95.1299L17.2695 96.1858C17.7742 96.3215 18.2805 96.4223 18.7859 96.4896L18.9283 95.4058ZM17.5515 95.1299L17.8334 94.074C17.938 94.1021 18.0163 94.14 18.0588 94.1625L17.5503 95.1294L17.0418 96.0964C17.0851 96.1192 17.1642 96.1575 17.2695 96.1858L17.5515 95.1299ZM17.5482 95.1282L18.0569 94.1614C18.0137 94.1385 17.9347 94.1003 17.8295 94.0719L17.547 95.1277L17.2646 96.1835C17.1601 96.1553 17.0819 96.1174 17.0395 96.095L17.5482 95.1282ZM17.547 95.1277L16.4916 94.8439L16.1558 96.1017L17.2112 96.3855L18.2666 96.6692L18.6024 95.4115L17.547 95.1277ZM16.5395 98.901L15.484 98.6172L14.8123 101.133L15.8677 101.417L16.9231 101.7L17.5949 99.1848L16.5395 98.901ZM15.196 103.932L14.1406 103.648L13.4689 106.164L14.5243 106.448L15.5797 106.731L16.2514 104.216L15.196 103.932ZM13.8526 108.963L12.7972 108.679L12.4613 109.937L13.5167 110.221L14.5721 110.505L14.908 109.247L13.8526 108.963ZM13.5167 110.221L12.4613 109.937C12.3339 110.414 12.2393 110.893 12.1762 111.371L13.2592 111.516L14.3422 111.661C14.3929 111.276 14.4692 110.89 14.5721 110.505L13.5167 110.221ZM13.2598 114.15L12.1769 114.292C12.3064 115.269 12.5641 116.217 12.9364 117.113L13.945 116.695L14.9537 116.276C14.6539 115.555 14.4468 114.792 14.3427 114.008L13.2598 114.15ZM15.2629 118.978L14.3963 119.642C14.9864 120.412 15.6785 121.109 16.4594 121.71L17.1242 120.843L17.7889 119.977C17.1615 119.494 16.6048 118.934 16.1296 118.313L15.2629 118.978ZM19.4051 122.161L18.989 123.171C19.4345 123.356 19.8964 123.513 20.3734 123.641L20.6554 122.585L20.9374 121.53C20.5519 121.426 20.1796 121.299 19.8212 121.151L19.4051 122.161ZM20.6554 122.585L20.3734 123.641L21.695 123.997L21.9769 122.941L22.2589 121.885L20.9373 121.53L20.6554 122.585ZM24.6201 123.651L24.3381 124.707L26.9813 125.418L27.2632 124.362L27.5452 123.306L24.902 122.596L24.6201 123.651ZM29.9063 125.073L29.6244 126.129L32.2675 126.839L32.5495 125.784L32.8314 124.728L30.1883 124.017L29.9063 125.073ZM35.1926 126.494L34.9107 127.55L37.5538 128.261L37.8357 127.205L38.1177 126.149L35.4746 125.438L35.1926 126.494ZM40.4789 127.916L40.1969 128.971L42.8401 129.682L43.122 128.626L43.404 127.57L40.7608 126.86L40.4789 127.916ZM45.7651 129.337L45.4832 130.393L48.1263 131.103L48.4083 130.048L48.6902 128.992L46.0471 128.281L45.7651 129.337ZM51.0514 130.758L50.7695 131.814L53.4126 132.525L53.6945 131.469L53.9765 130.413L51.3334 129.702L51.0514 130.758ZM56.3377 132.18L56.0557 133.235L58.6989 133.946L58.9808 132.89L59.2628 131.834L56.6196 131.124L56.3377 132.18ZM61.6239 133.601L61.342 134.657L63.9851 135.367L64.2671 134.312L64.549 133.256L61.9059 132.545L61.6239 133.601ZM66.9102 135.022L66.6283 136.078L69.2714 136.789L69.5533 135.733L69.8353 134.677L67.1922 133.966L66.9102 135.022ZM72.1965 136.444L71.9145 137.499L74.5577 138.21L74.8396 137.154L75.1216 136.098L72.4784 135.388L72.1965 136.444ZM77.4828 137.865L77.2008 138.921L79.8439 139.631L80.1259 138.576L80.4078 137.52L77.7647 136.809L77.4828 137.865ZM82.769 139.286L82.4871 140.342L85.1302 141.053L85.4122 139.997L85.6941 138.941L83.051 138.23L82.769 139.286ZM88.0553 140.708L87.7733 141.763L90.4165 142.474L90.6984 141.418L90.9804 140.362L88.3372 139.652L88.0553 140.708ZM93.3416 142.129L93.0596 143.185L95.7027 143.896L95.9847 142.84L96.2666 141.784L93.6235 141.073L93.3416 142.129ZM98.6278 143.55L98.3459 144.606L100.989 145.317L101.271 144.261L101.553 143.205L98.9098 142.494L98.6278 143.55ZM103.914 144.972L103.632 146.028L106.275 146.738L106.557 145.682L106.839 144.626L104.196 143.916L103.914 144.972ZM109.2 146.393L108.918 147.449L111.562 148.16L111.843 147.104L112.125 146.048L109.482 145.337L109.2 146.393ZM114.487 147.814L114.205 148.87L116.848 149.581L117.13 148.525L117.412 147.469L114.769 146.758L114.487 147.814ZM119.773 149.236L119.491 150.292L122.134 151.002L122.416 149.946L122.698 148.89L120.055 148.18L119.773 149.236ZM125.059 150.657L124.777 151.713L127.42 152.424L127.702 151.368L127.984 150.312L125.341 149.601L125.059 150.657ZM130.345 152.078L130.063 153.134L132.707 153.845L132.989 152.789L133.271 151.733L130.627 151.022L130.345 152.078ZM135.632 153.5L135.35 154.556L137.993 155.266L138.275 154.21L138.557 153.154L135.914 152.444L135.632 153.5ZM140.918 154.921L140.636 155.977L141.958 156.332L142.24 155.276L142.521 154.22L141.2 153.865L140.918 154.921ZM142.24 155.276L141.958 156.332C142.435 156.46 142.913 156.556 143.391 156.62L143.534 155.536L143.677 154.452C143.293 154.401 142.907 154.324 142.521 154.22L142.24 155.276ZM146.166 155.539L146.31 156.623C147.285 156.495 148.232 156.239 149.127 155.867L148.707 154.857L148.288 153.847C147.567 154.146 146.806 154.352 146.022 154.455L146.166 155.539ZM150.986 153.542L151.651 154.41C152.42 153.821 153.116 153.129 153.714 152.348L152.847 151.682L151.981 151.015C151.5 151.642 150.94 152.199 150.321 152.673L150.986 153.542ZM154.161 149.401L155.171 149.819C155.354 149.373 155.511 148.911 155.638 148.434L154.583 148.15L153.527 147.866C153.424 148.252 153.298 148.624 153.15 148.983L154.161 149.401ZM154.583 148.15L155.638 148.434L155.974 147.176L154.919 146.892L153.863 146.609L153.527 147.866L154.583 148.15ZM155.59 144.377L156.646 144.661L157.317 142.146L156.262 141.862L155.206 141.579L154.535 144.094L155.59 144.377ZM156.933 139.347L157.989 139.631L158.66 137.116L157.605 136.832L156.55 136.548L155.878 139.063L156.933 139.347ZM158.277 134.317L159.332 134.601L159.668 133.343L158.612 133.06L157.557 132.776L157.221 134.033L158.277 134.317ZM158.612 133.06L158.895 132.004C158.482 131.893 158.083 131.757 157.7 131.597L157.283 132.607L156.866 133.617C157.337 133.813 157.826 133.98 158.33 134.115L158.612 133.06ZM154.859 131.203L155.525 130.337C154.854 129.82 154.259 129.218 153.752 128.552L152.884 129.215L152.015 129.877C152.638 130.694 153.368 131.432 154.193 132.068L154.859 131.203ZM151.487 126.784L152.497 126.368C152.178 125.594 151.957 124.777 151.847 123.935L150.764 124.076L149.681 124.216C149.816 125.249 150.087 126.252 150.478 127.2L151.487 126.784ZM150.767 121.274L151.849 121.42C151.904 121.008 151.986 120.594 152.096 120.181L151.041 119.897L149.985 119.613C149.851 120.118 149.751 120.624 149.684 121.129L150.767 121.274ZM151.041 119.897L152.096 120.181C152.207 119.768 152.342 119.368 152.5 118.984L151.49 118.567L150.479 118.149C150.286 118.62 150.12 119.109 149.985 119.613L151.041 119.897ZM152.883 116.139L153.751 116.804C154.266 116.131 154.864 115.534 155.526 115.024L154.859 114.157L154.192 113.29C153.381 113.915 152.647 114.647 152.015 115.474L152.883 116.139ZM157.279 112.752L157.701 113.761C158.473 113.439 159.288 113.216 160.127 113.105L159.981 112.021L159.835 110.937C158.804 111.074 157.803 111.348 156.858 111.743L157.279 112.752ZM162.78 112.02L162.638 113.104C163.049 113.159 163.462 113.241 163.875 113.352L164.157 112.296L164.438 111.24C163.934 111.104 163.428 111.004 162.922 110.937L162.78 112.02ZM164.157 112.296L165.212 112.58L165.548 111.321L164.493 111.038L163.437 110.754L163.101 112.012L164.157 112.296ZM165.165 108.521L166.22 108.805L166.892 106.289L165.837 106.005L164.781 105.721L164.109 108.238L165.165 108.521ZM166.509 103.489L167.564 103.773L168.236 101.256L167.18 100.972L166.125 100.689L165.453 103.205L166.509 103.489ZM167.852 98.4561L168.908 98.7399L169.244 97.4817L168.188 97.1979L167.133 96.9142L166.797 98.1723L167.852 98.4561ZM168.188 97.1979L169.244 97.4817C169.371 97.0045 169.466 96.5257 169.529 96.0477L168.446 95.903L167.363 95.7582C167.312 96.1426 167.236 96.5286 167.133 96.9142L168.188 97.1979ZM168.445 93.2688L169.528 93.1264C169.399 92.1498 169.141 91.202 168.769 90.3056L167.76 90.724L166.751 91.1424C167.051 91.8642 167.258 92.6266 167.362 93.4112L168.445 93.2688ZM166.442 88.4414L167.309 87.777C166.719 87.0065 166.027 86.3094 165.246 85.7089L164.581 86.5755L163.916 87.4422C164.544 87.9246 165.1 88.4851 165.575 89.1057L166.442 88.4414ZM162.3 85.2579L162.716 84.2475C162.271 84.0632 161.809 83.9057 161.332 83.7775L161.05 84.8334L160.768 85.8893C161.153 85.9929 161.526 86.1199 161.884 86.2682L162.3 85.2579Z" fill="#8B95A1" mask="url(#path-3-inside-1_4105_54570)"/>
<rect x="0.282773" y="0.148925" width="99.5496" height="51.4208" rx="25.7104" transform="matrix(0.954855 -0.297072 0.29521 0.955432 89.168 150.528)" fill="white" stroke="black" stroke-width="0.452413" stroke-dasharray="1.81 1.81"/>
<path d="M175.17 88.7158L175.298 91.0898H175.299L174.753 91.1191L174.817 92.3057C174.841 92.7403 174.753 93.142 174.586 93.4922L175.077 93.7266C174.641 94.6388 173.759 95.278 172.757 95.4092L172.687 94.8691C172.302 94.9196 171.893 94.8788 171.487 94.7217L170.385 94.2949L170.188 94.8037L167.982 93.9502L168.18 93.4414L165.974 92.5879L165.776 93.0967H165.775L163.57 92.2432H163.571L163.769 91.7334L161.562 90.8799L161.364 91.3896L159.159 90.5361L159.357 90.0264L158.255 89.5996L157.963 89.501C157.669 89.4157 157.37 89.3704 157.073 89.3623L157.059 89.9082C156.37 89.8894 155.694 90.1094 155.148 90.5293L154.815 90.0967C154.58 90.278 154.365 90.4907 154.178 90.7324L154 90.9834L153.357 91.9795L153.816 92.2754L152.531 94.2666L152.073 93.9707L150.788 95.9629L151.247 96.2588L149.963 98.251L149.504 97.9551L148.219 99.9463L148.678 100.242L147.394 102.234L146.935 101.938L146.292 102.935C146.056 103.301 145.75 103.574 145.408 103.76L145.668 104.239C144.779 104.722 143.688 104.723 142.799 104.239L143.061 103.76C142.719 103.574 142.412 103.301 142.176 102.935L141.534 101.938L141.074 102.233L139.79 100.242L140.249 99.9463L138.965 97.9551L138.505 98.251L137.221 96.2578L137.681 95.9629L136.396 93.9707L135.937 94.2666L134.651 92.2744L135.111 91.9795L134.469 90.9834L134.291 90.7324C134.104 90.4907 133.889 90.278 133.653 90.0967L133.32 90.5293H133.319C132.774 90.1096 132.098 89.8895 131.41 89.9082L131.396 89.3623C131.099 89.3704 130.799 89.4157 130.506 89.501L130.214 89.5996L129.111 90.0264L129.308 90.5352L127.103 91.3896L126.905 90.8799L124.7 91.7334L124.897 92.2432L122.691 93.0967L122.494 92.5879L120.289 93.4414L120.485 93.9502L118.28 94.8037L118.084 94.2949L116.98 94.7217C116.575 94.8787 116.166 94.9196 115.781 94.8691L115.711 95.4092C114.708 95.2777 113.825 94.6389 113.39 93.7266L113.883 93.4922C113.715 93.142 113.628 92.7403 113.651 92.3057L113.715 91.1191L113.17 91.0898L113.169 91.0889L113.297 88.7148L113.298 88.7158L113.843 88.7451L113.971 86.3721L113.425 86.3428L113.552 83.9678L113.553 83.9688L114.099 83.998L114.227 81.624L113.681 81.5947L113.68 81.5938L113.808 79.2207L113.809 79.2217L114.354 79.251L114.418 78.0635C114.44 77.6517 114.39 77.249 114.278 76.8701L113.753 77.0254C113.558 76.3668 113.142 75.7931 112.576 75.4043H112.577L112.887 74.9541C112.561 74.7303 112.193 74.5586 111.795 74.4521L110.651 74.1465L110.51 74.6729L108.222 74.0625L108.362 73.5352L106.074 72.9229L105.933 73.4512L103.645 72.8389L103.786 72.3115L101.497 71.7002L101.356 72.2285L99.0674 71.6172L99.209 71.0889L98.0645 70.7832C97.6451 70.6711 97.2915 70.4649 97.0107 70.1982L96.6338 70.5928C95.9029 69.8979 95.5667 68.864 95.749 67.8721L96.2861 67.9707C96.3474 67.6372 96.4807 67.3081 96.6963 67.0049L96.7939 66.877L97.541 65.9531L97.1162 65.6094L98.6113 63.7627L99.0361 64.1064L100.531 62.2598L100.107 61.916L100.106 61.915L101.602 60.0684L101.603 60.0693L102.027 60.4131L103.522 58.5664L103.098 58.2217L103.097 58.2207L104.592 56.374L104.593 56.375L105.018 56.7188L105.765 55.7959C106.024 55.4759 106.22 55.121 106.352 54.749L105.836 54.5664L105.835 54.5654C106.063 53.9195 106.064 53.2132 105.835 52.5674L106.352 52.3848C106.22 52.0128 106.024 51.6579 105.765 51.3379L105.018 50.415L104.592 50.7588L103.097 48.9121L103.522 48.5684L102.027 46.7217L101.602 47.0654L100.106 45.2188L100.531 44.874L99.0361 43.0273L98.6113 43.3701L97.1162 41.5234L97.541 41.1807L96.7939 40.2578L96.6963 40.1289C96.4808 39.8257 96.3474 39.4966 96.2861 39.1631L95.749 39.2607C95.5671 38.2689 95.9028 37.2347 96.6338 36.54L97.0107 36.9365C97.2565 36.703 97.5575 36.5148 97.9102 36.3965L98.0645 36.3506L99.209 36.0449L99.0684 35.5166L99.0674 35.5156L101.356 34.9053L101.497 35.4336L103.786 34.8223L103.645 34.2939L105.933 33.6816L105.934 33.6826L106.074 34.2109L108.362 33.5996L108.222 33.0713L110.51 32.46L110.651 32.9883L111.795 32.6826C112.193 32.5762 112.561 32.4035 112.887 32.1797L112.577 31.7295L112.576 31.7285C113.142 31.3395 113.558 30.7663 113.753 30.1074L113.754 30.1084L114.278 30.2637C114.39 29.8847 114.44 29.4821 114.418 29.0703L114.354 27.8828L113.808 27.9121L113.68 25.5391L114.227 25.5098L114.099 23.1357L113.552 23.165L113.425 20.791L113.971 20.7617L113.843 18.3887L113.298 18.418H113.297L113.169 16.0439H113.17L113.715 16.0146L113.651 14.8281L113.647 14.667C113.651 14.2941 113.736 13.9481 113.883 13.6416L113.39 13.4062C113.826 12.4943 114.709 11.855 115.711 11.7236L115.781 12.2646C116.166 12.2142 116.575 12.2551 116.98 12.4121L118.084 12.8389L118.28 12.3301L120.485 13.1836H120.486L120.289 13.6934L122.494 14.5469L122.691 14.0371V14.0361L124.896 14.8906H124.897L124.7 15.4004L126.905 16.2539L127.103 15.7441V15.7432L129.308 16.5977H129.309L129.111 17.1074L130.214 17.5342C130.6 17.6835 130.999 17.7607 131.396 17.7715L131.41 17.2256V17.2246C132.098 17.2433 132.774 17.0235 133.319 16.6035L133.32 16.6045L133.653 17.0381C133.967 16.7964 134.245 16.4981 134.469 16.1504L135.111 15.1543L134.651 14.8584L135.937 12.8662L136.396 13.1631L137.681 11.1709L137.221 10.875L138.505 8.88184L138.506 8.88281L138.965 9.17871L140.249 7.1875L139.79 6.8916L139.789 6.89062L141.074 4.89941L141.534 5.19531L142.176 4.19922C142.412 3.83297 142.719 3.55953 143.061 3.37402L142.799 2.89355C143.688 2.41054 144.779 2.41101 145.668 2.89355L145.408 3.37402C145.749 3.55947 146.056 3.83313 146.292 4.19922L146.935 5.19531L147.394 4.89941V4.89844L148.679 6.89062V6.8916L148.219 7.1875L149.504 9.17871L149.963 8.88281V8.88184L151.247 10.874V10.875L150.788 11.1709L152.073 13.1631L152.531 12.8662L153.816 14.8574V14.8584L153.357 15.1543L154 16.1504C154.224 16.4981 154.501 16.7964 154.815 17.0381L155.148 16.6045V16.6035C155.694 17.0235 156.369 17.2432 157.058 17.2246L157.059 17.2256L157.073 17.7715C157.37 17.7634 157.669 17.7181 157.963 17.6328L158.255 17.5342L159.357 17.1074L159.16 16.5977L161.365 15.7441L161.562 16.2539L163.769 15.4004L163.571 14.8906L163.57 14.8896L165.776 14.0371L165.974 14.5469L168.18 13.6934L167.982 13.1836L167.981 13.1826L170.187 12.3291L170.188 12.3301L170.385 12.8389L171.487 12.4121C171.893 12.255 172.302 12.2142 172.687 12.2646L172.757 11.7236C173.759 11.8547 174.641 12.4945 175.077 13.4062L174.586 13.6426C174.732 13.949 174.817 14.2943 174.82 14.667L174.817 14.8281L174.753 16.0146L175.298 16.043L175.17 18.417L174.625 18.3887L174.498 20.7617L175.042 20.791L174.915 23.1641L174.37 23.1357L174.242 25.5098L174.787 25.5381L174.659 27.9111L174.114 27.8828L174.051 29.0703C174.029 29.4822 174.078 29.8847 174.19 30.2637L174.714 30.1084V30.1074C174.908 30.766 175.325 31.3394 175.891 31.7285V31.7295L175.581 32.1797C175.907 32.4035 176.274 32.5761 176.673 32.6826L177.817 32.9883L177.958 32.46V32.459L180.247 33.0713L180.105 33.5996L182.395 34.2109L182.535 33.6826V33.6816L184.823 34.293V34.2939L184.683 34.8223L186.971 35.4336L187.112 34.9053L189.4 35.5156V35.5166L189.26 36.0449L190.403 36.3506C190.823 36.4627 191.177 36.6696 191.458 36.9365L191.834 36.54C192.566 37.2349 192.901 38.2694 192.719 39.2617L192.183 39.1631C192.121 39.4965 191.988 39.8257 191.772 40.1289L191.675 40.2578L190.928 41.1807L191.352 41.5244L189.856 43.3711L189.432 43.0273L187.937 44.874L188.36 45.2178L186.865 47.0645L186.441 46.7217L184.946 48.5684L185.37 48.9111L183.875 50.7578L183.451 50.415L182.703 51.3379C182.444 51.6579 182.249 52.0128 182.117 52.3848L182.632 52.5674H182.633C182.404 53.2131 182.405 53.9197 182.633 54.5654L182.632 54.5664L182.117 54.749C182.249 55.121 182.444 55.4759 182.703 55.7959L183.451 56.7188L183.875 56.375L185.37 58.2217L184.946 58.5664L186.441 60.4131L186.866 60.0693V60.0684L188.361 61.915V61.916L187.937 62.2598L189.432 64.1064L189.856 63.7627V63.7617L191.352 65.6084V65.6094L190.928 65.9531L191.675 66.877C191.948 67.2145 192.113 67.5896 192.183 67.9707L192.719 67.8721C192.901 68.8642 192.565 69.8978 191.834 70.5928L191.458 70.1982C191.177 70.4651 190.823 70.6711 190.403 70.7832L189.26 71.0889L189.4 71.6172L187.112 72.2285L186.971 71.7002L184.683 72.3115L184.823 72.8398L182.535 73.4512L182.395 72.9229L180.105 73.5352L180.247 74.0625L177.958 74.6738L177.817 74.1465L176.673 74.4521C176.274 74.5586 175.907 74.7303 175.581 74.9541L175.891 75.4043C175.325 75.7932 174.908 76.367 174.714 77.0254L174.19 76.8701C174.078 77.249 174.029 77.6517 174.051 78.0635L174.114 79.251L174.659 79.2217L174.787 81.5947L174.242 81.624L174.37 83.998L174.915 83.9688L175.042 86.3428H175.043L174.498 86.3721L174.625 88.7451L175.17 88.7158Z" fill="#E5E8EB" stroke="#8B95A1" stroke-width="1.0929" stroke-dasharray="2.73 2.73"/>
<path d="M45.2373 123.075L46.7373 124.903V124.904L46.3145 125.251L47.0645 126.166C47.5527 126.762 48.2788 127.111 49.0488 127.123L50.2285 127.142L50.2363 126.595L52.5977 126.63V126.631L52.5898 127.177L54.9502 127.213L54.957 126.666L57.3174 126.701L57.3105 127.248L59.6709 127.283L59.6777 126.737L62.0381 126.772L62.0312 127.319L63.2109 127.337C63.447 127.34 63.666 127.396 63.8594 127.491L64.0996 127.001C64.6534 127.273 65.0596 127.784 65.2021 128.384L64.6719 128.51C64.7216 128.719 64.7276 128.945 64.6787 129.176L64.4336 130.336L64.9678 130.449L64.4766 132.77L63.9424 132.656L63.4512 134.976L63.9854 135.089L63.4941 137.408L62.96 137.296L62.4688 139.615L63.0029 139.729L62.5117 142.048L61.9775 141.936L61.7314 143.095C61.5726 143.845 61.7509 144.627 62.2188 145.234L62.9414 146.172L63.374 145.839V145.838L64.8193 147.715H64.8203L64.3877 148.049L65.833 149.925L66.2656 149.592L67.7109 151.468H67.7119L67.2793 151.802L68.7246 153.678L69.1572 153.345L70.6025 155.221H70.6035L70.1709 155.555L70.8936 156.493C71.0374 156.68 71.1298 156.885 71.1758 157.096L71.708 156.979C71.8398 157.58 71.6953 158.215 71.3154 158.7L70.8867 158.364C70.754 158.534 70.5809 158.678 70.3701 158.784L69.3135 159.314L69.5586 159.803L67.4453 160.862L67.2012 160.375L65.0879 161.436L65.333 161.924L63.2188 162.984L62.9746 162.496L60.8623 163.557L61.1064 164.045L58.9932 165.105L58.749 164.618L57.6924 165.148C57.049 165.472 56.5694 166.044 56.3623 166.729L56.3242 166.868L56.0439 168.02L56.5752 168.148L56.0146 170.45L55.4844 170.321L54.9238 172.624L55.4541 172.752L54.8945 175.056L54.3643 174.926L53.8037 177.229L54.334 177.356L53.7734 179.659L53.2432 179.531L52.9639 180.683C52.9079 180.912 52.8048 181.114 52.6689 181.281L53.0918 181.624C52.7027 182.104 52.1141 182.387 51.4961 182.392L51.4932 181.847C51.2773 181.848 51.0554 181.804 50.8408 181.704L49.7705 181.206L49.54 181.701H49.5391L47.3984 180.706H47.3994L47.6289 180.211L45.4883 179.216L45.2578 179.711H45.2568L43.1162 178.716H43.1172L43.3467 178.221L41.2061 177.226L40.9756 177.721H40.9746L38.834 176.726H38.835L39.0645 176.23L37.9941 175.732C37.3386 175.428 36.5883 175.409 35.9209 175.676L35.7891 175.732L34.7178 176.23L34.9482 176.726L32.8076 177.721L32.5771 177.226L30.4355 178.221L30.666 178.716L28.5254 179.711L28.2949 179.216L26.1543 180.211L26.3838 180.706L24.2432 181.701L24.0127 181.206L22.9424 181.704C22.7278 181.804 22.5059 181.848 22.29 181.847L22.2861 182.392C21.6683 182.387 21.0793 182.104 20.6904 181.624L21.1143 181.281C20.9784 181.114 20.8753 180.912 20.8193 180.683L20.5391 179.531L20.0088 179.659L19.4482 177.356L19.9795 177.229L19.4189 174.926L18.8877 175.056L18.3281 172.752L18.8594 172.624L18.2988 170.321L17.7686 170.45H17.7676L17.207 168.148L17.7393 168.02L17.459 166.868L17.4209 166.729C17.2138 166.044 16.7342 165.472 16.0908 165.148L15.0342 164.618L14.7891 165.106H14.7881L12.6758 164.045L12.9209 163.557L10.8076 162.496L10.5625 162.984L8.44922 161.924H8.4502L8.69531 161.436L6.58203 160.375L6.33594 160.863L4.22363 159.803L4.46973 159.314L3.41309 158.784L3.26172 158.698C3.11807 158.605 2.99605 158.491 2.89648 158.364L2.4668 158.7C2.08718 158.215 1.9425 157.58 2.07422 156.979L2.60742 157.096C2.64195 156.938 2.70205 156.782 2.79102 156.636L2.88965 156.493L3.6123 155.555L3.17969 155.221L4.625 153.345L5.05859 153.678L6.50391 151.802L6.07129 151.468L7.5166 149.592L7.9502 149.925L9.39551 148.049L8.96289 147.715L10.4082 145.839L10.8418 146.172L11.5645 145.234C12.003 144.665 12.1866 143.942 12.0771 143.236L12.0518 143.095L11.8057 141.936L11.2715 142.048H11.2705L10.7793 139.729L11.3145 139.615L10.8232 137.296L10.2891 137.408H10.2881L9.79688 135.089L10.332 134.976L9.84082 132.656L9.30566 132.77L8.81445 130.449L9.34961 130.336L9.10449 129.176L9.07715 129.004C9.06052 128.833 9.07399 128.667 9.11133 128.51L8.58008 128.384C8.72251 127.784 9.12907 127.273 9.68262 127.001L9.92383 127.491C10.0689 127.42 10.2283 127.371 10.3984 127.35L10.5723 127.337L11.752 127.319L11.7441 126.772L14.1045 126.737L14.1123 127.283L16.4727 127.248L16.4648 126.701L18.8252 126.666L18.833 127.213L21.1934 127.177L21.1855 126.631L21.1846 126.63L23.5459 126.595L23.5537 127.142L24.7344 127.123C25.4563 127.112 26.1392 126.804 26.624 126.274L26.7188 126.166L27.4678 125.251L27.0459 124.904L27.0449 124.903L28.5439 123.074L28.5449 123.075L28.9668 123.422L30.4668 121.593L30.0439 121.246L30.043 121.245L31.542 119.416L31.543 119.417L31.9658 119.764L33.4648 117.935L33.042 117.588L33.041 117.587L34.54 115.758L34.541 115.759L34.9639 116.105L35.7129 115.19C35.863 115.007 36.0439 114.871 36.2393 114.778L36.0049 114.284C36.5634 114.02 37.2177 114.021 37.7764 114.284L37.5439 114.778C37.7393 114.871 37.9202 115.007 38.0703 115.19L38.8193 116.105L39.2412 115.759L40.7402 117.588L40.3184 117.935L41.8174 119.764L42.2393 119.417L43.7383 121.246H43.7393L43.3164 121.593L44.8154 123.422L45.2373 123.075Z" fill="#E5E8EB" stroke="#8B95A1" stroke-width="1.0929" stroke-dasharray="2.73 2.73"/>
<rect x="0.683096" y="0.35976" width="98.9091" height="50.7803" rx="25.3902" transform="matrix(0.954855 -0.297072 0.29521 0.955432 89.1239 150.656)" fill="#E5E8EB" stroke="#8B95A1" stroke-width="1.0929" stroke-dasharray="2.73 2.73"/>
<path d="M72.0127 12.0625C81.3023 12.0627 88.8328 19.6198 88.833 28.9414C88.833 36.977 83.237 43.7006 75.7422 45.4033L72.3408 49.792L69.0605 45.5605C61.1784 44.1604 55.1914 37.2527 55.1914 28.9414C55.1916 19.6197 62.723 12.0625 72.0127 12.0625Z" fill="#ACADB1"/>
<rect x="70.3633" y="20.0039" width="3.95782" height="11.8734" rx="1.97891" fill="white"/>
<circle cx="72.3422" cy="37.1547" r="1.97891" fill="white"/>
<path d="M54.27 103.816L55.1622 100.498L72.0451 85.2878L77.1156 86.6512L72.2034 104.92L75.8944 105.912L74.9621 109.38L71.2711 108.387L69.8576 113.644L65.9802 112.602L67.3937 107.345L54.27 103.816ZM59.5272 101.511L68.326 103.877L71.9249 90.4927L71.6266 90.4125L59.5873 101.288L59.5272 101.511ZM84.6915 118.033C78.4279 116.348 76.1275 110.333 78.5034 101.497C80.8592 92.7351 85.961 88.6298 92.15 90.294C98.339 91.9581 100.694 98.0684 98.338 106.83C95.9621 115.666 90.9177 119.707 84.6915 118.033ZM85.6438 114.491C89.2976 115.473 92.4224 112.475 94.2369 105.727C96.0413 99.0162 94.8341 94.7337 91.2176 93.7613C87.6012 92.7889 84.409 95.8884 82.6045 102.599C80.79 109.348 81.9901 113.508 85.6438 114.491ZM97.4856 115.436L98.3778 112.118L115.261 96.9079L120.331 98.2712L115.419 116.54L119.11 117.532L118.178 121L114.487 120.007L113.073 125.264L109.196 124.222L110.609 118.965L97.4856 115.436ZM102.743 113.132L111.542 115.497L115.14 102.113L114.842 102.033L102.803 112.908L102.743 113.132Z" fill="#8B95A1"/>
</svg>
