<svg width="375" height="510" viewBox="0 0 375 510" fill="none" xmlns="http://www.w3.org/2000/svg">
<g clip-path="url(#clip0_3822_116151)">
<g opacity="0.87">
<path d="M121.921 58.4061C124.51 54.4054 130.363 54.4054 132.952 58.4061L149.864 84.5386C151.553 87.1495 154.842 88.218 157.744 87.0989L186.785 75.8975C191.231 74.1826 195.967 77.6232 195.71 82.3816L194.031 113.463C193.863 116.569 195.896 119.366 198.901 120.166L228.981 128.175C233.585 129.401 235.394 134.968 232.389 138.666L212.762 162.825C210.801 165.239 210.801 168.697 212.762 171.111L232.389 195.27C235.394 198.968 233.585 204.535 228.981 205.761L198.901 213.769C195.896 214.569 193.863 217.367 194.031 220.472L195.71 251.554C195.967 256.312 191.231 259.753 186.785 258.038L157.744 246.837C154.842 245.718 151.553 246.786 149.864 249.397L132.952 275.53C130.363 279.53 124.51 279.53 121.921 275.53L105.01 249.397C103.32 246.786 100.031 245.718 97.1297 246.837L68.0879 258.038C63.6418 259.753 58.9063 256.312 59.1633 251.554L60.8421 220.472C61.0098 217.367 58.9772 214.569 55.972 213.769L25.8927 205.761C21.2878 204.535 19.4789 198.968 22.4838 195.27L42.1114 171.111C44.0724 168.697 44.0724 165.239 42.1114 162.825L22.4838 138.666C19.4789 134.968 21.2878 129.401 25.8927 128.175L55.972 120.166C58.9772 119.366 61.0098 116.569 60.8421 113.463L59.1633 82.3816C58.9063 77.6232 63.6418 74.1826 68.0879 75.8975L97.1297 87.0989C100.031 88.218 103.32 87.1495 105.01 84.5385L121.921 58.4061Z" fill="url(#paint0_linear_3822_116151)"/>
<path d="M121.921 58.4061C124.51 54.4054 130.363 54.4054 132.952 58.4061L149.864 84.5386C151.553 87.1495 154.842 88.218 157.744 87.0989L186.785 75.8975C191.231 74.1826 195.967 77.6232 195.71 82.3816L194.031 113.463C193.863 116.569 195.896 119.366 198.901 120.166L228.981 128.175C233.585 129.401 235.394 134.968 232.389 138.666L212.762 162.825C210.801 165.239 210.801 168.697 212.762 171.111L232.389 195.27C235.394 198.968 233.585 204.535 228.981 205.761L198.901 213.769C195.896 214.569 193.863 217.367 194.031 220.472L195.71 251.554C195.967 256.312 191.231 259.753 186.785 258.038L157.744 246.837C154.842 245.718 151.553 246.786 149.864 249.397L132.952 275.53C130.363 279.53 124.51 279.53 121.921 275.53L105.01 249.397C103.32 246.786 100.031 245.718 97.1297 246.837L68.0879 258.038C63.6418 259.753 58.9063 256.312 59.1633 251.554L60.8421 220.472C61.0098 217.367 58.9772 214.569 55.972 213.769L25.8927 205.761C21.2878 204.535 19.4789 198.968 22.4838 195.27L42.1114 171.111C44.0724 168.697 44.0724 165.239 42.1114 162.825L22.4838 138.666C19.4789 134.968 21.2878 129.401 25.8927 128.175L55.972 120.166C58.9772 119.366 61.0098 116.569 60.8421 113.463L59.1633 82.3816C58.9063 77.6232 63.6418 74.1826 68.0879 75.8975L97.1297 87.0989C100.031 88.218 103.32 87.1495 105.01 84.5385L121.921 58.4061Z" fill="url(#paint1_linear_3822_116151)"/>
<path d="M163.945 231.674C175.747 234.836 182.751 246.968 179.589 258.77L170.767 291.694C158.235 288.34 145.356 295.778 141.998 308.309C138.64 320.84 146.076 333.719 158.606 337.08L149.784 370.002C146.622 381.805 134.49 388.809 122.688 385.646L-143.973 314.195C-155.775 311.033 -162.779 298.901 -159.617 287.099L-150.795 254.175C-150.793 254.176 -150.792 254.177 -150.79 254.177C-138.257 257.536 -125.375 250.098 -122.016 237.565C-118.658 225.032 -126.096 212.149 -138.629 208.791C-138.631 208.791 -138.632 208.79 -138.634 208.79L-129.812 175.866C-126.65 164.064 -114.518 157.06 -102.716 160.222L163.945 231.674Z" fill="url(#paint2_linear_3822_116151)"/>
<path d="M163.945 231.674C175.747 234.836 182.751 246.968 179.589 258.77L170.767 291.694C158.235 288.34 145.356 295.778 141.998 308.309C138.64 320.84 146.076 333.719 158.606 337.08L149.784 370.002C146.622 381.805 134.49 388.809 122.688 385.646L-143.973 314.195C-155.775 311.033 -162.779 298.901 -159.617 287.099L-150.795 254.175C-150.793 254.176 -150.792 254.177 -150.79 254.177C-138.257 257.536 -125.375 250.098 -122.016 237.565C-118.658 225.032 -126.096 212.149 -138.629 208.791C-138.631 208.791 -138.632 208.79 -138.634 208.79L-129.812 175.866C-126.65 164.064 -114.518 157.06 -102.716 160.222L163.945 231.674Z" fill="url(#paint3_linear_3822_116151)"/>
<rect x="8.05469" y="380.035" width="219.269" height="113.417" rx="56.7085" transform="rotate(-17.2259 8.05469 380.035)" fill="url(#paint4_linear_3822_116151)"/>
<rect x="8.05469" y="380.035" width="219.269" height="113.417" rx="56.7085" transform="rotate(-17.2259 8.05469 380.035)" fill="url(#paint5_linear_3822_116151)"/>
</g>
<g filter="url(#filter0_f_3822_116151)">
<ellipse cx="127.315" cy="223.568" rx="258.116" ry="253.849" fill="url(#paint6_linear_3822_116151)"/>
</g>
<path d="M147.716 307.63H122.95V304.696H133.719V302.113H126.089V293.251H144.576V296.156H129.435V299.179H144.87V302.113H137.24V304.696H147.716V307.63ZM145.222 314.174C145.222 319.016 138.942 319.104 135.333 319.104C131.724 319.104 125.444 319.016 125.444 314.174C125.444 309.332 131.724 309.244 135.333 309.244C138.942 309.244 145.222 309.332 145.222 314.174ZM141.935 314.174C141.935 313.088 140.85 312.325 137.006 312.208C135.92 312.178 134.746 312.178 133.66 312.208C129.816 312.325 128.73 313.088 128.73 314.174C128.73 315.26 129.816 316.022 133.66 316.14C134.746 316.169 135.92 316.169 137.006 316.14C140.85 316.022 141.935 315.26 141.935 314.174ZM115.421 346.709L113.455 349.262C110.521 347.677 107.88 345.388 106.501 342.601C105.415 345.388 102.656 347.971 99.2819 349.966L97.0223 347.589C101.307 345.242 104.564 341.515 104.681 336.292H98.871V333.299H114.101V336.292H108.144C108.203 341.251 111.548 344.772 115.421 346.709ZM120.204 353.81H116.859V327.547H120.204V353.81ZM110.667 331.567H102.099V328.574H110.667V331.567ZM121.724 380.652V367.741H115.415V380.652H121.724ZM132.728 388.81H129.383V362.547H132.728V388.81ZM125.069 383.646H112.069V364.748H125.069V383.646Z" fill="#00C375"/>
<path d="M165.75 317.724H162.522V304.314H157.299V301.262H162.522V292.84H165.75V317.724ZM160.879 310.124V313.088C158.502 313.499 156.213 313.558 154.071 313.558H149.757V294.425H153.044V310.535H154.071C156.272 310.535 158.619 310.476 160.879 310.124ZM170.973 318.81H167.687V292.547H170.973V318.81ZM188.746 310.652V297.741H182.554V310.652H188.746ZM199.28 318.81H195.935V292.547H199.28V302.319H203.037V305.429H199.28V318.81ZM192.091 313.646H179.209V294.748H192.091V313.646ZM227.673 316.199H202.906V313.205H227.673V316.199ZM224.768 309.684H206.105V294.102H224.474V297.066H209.45V300.294H224.327V303.228H209.45V306.691H224.768V309.684ZM246.469 310.829V313.763C243.74 314.262 239.984 314.409 236.258 314.409H228.745V311.415H236.258C239.808 311.415 243.799 311.269 246.469 310.829ZM250.842 318.81H247.496V292.547H250.842V318.81ZM244.709 300.91C244.709 304.696 241.716 308.07 237.314 308.07C232.912 308.07 229.919 304.696 229.919 300.91C229.919 297.125 232.912 293.75 237.314 293.75C241.716 293.75 244.709 297.125 244.709 300.91ZM237.314 305.077C240.014 305.077 241.363 303.052 241.363 300.91C241.363 298.768 240.014 296.743 237.314 296.743C234.614 296.743 233.264 298.768 233.264 300.91C233.264 303.052 234.614 305.077 237.314 305.077ZM145.545 342.865H142.2V338.991H137.475V340.957H124.593V328.574H137.475V330.335H142.2V327.547H145.545V342.865ZM146.014 348.558C146.014 353.81 140.468 354.104 136.507 354.104C132.545 354.104 126.999 353.81 126.999 348.558C126.999 343.305 132.545 343.011 136.507 343.011C140.468 343.011 146.014 343.305 146.014 348.558ZM142.669 348.558C142.669 347.149 141.495 346.034 138.297 345.917C137.211 345.887 135.802 345.887 134.717 345.917C131.518 346.034 130.344 347.149 130.344 348.558C130.344 349.966 131.518 351.081 134.717 351.199C135.802 351.228 137.211 351.228 138.297 351.199C141.495 351.081 142.669 349.966 142.669 348.558ZM134.13 338.023V331.509H127.938V338.023H134.13ZM142.2 336.057V333.269H137.475V336.057H142.2ZM164.928 339.197L163.138 341.808C160.468 340.723 157.944 338.845 156.565 336.644C155.479 338.903 152.838 341.192 149.64 342.63L147.527 340.224C151.929 338.316 154.716 335.059 154.746 331.509H149.141V328.574H163.813V331.509H158.208C158.208 335 161.114 337.73 164.928 339.197ZM170.533 353.957H167.188V347.002H152.134V344.068H170.533V353.957ZM170.592 342.894H167.247V336.262H162.904V333.269H167.247V327.547H170.592V342.894ZM195.639 346.445H192.294V327.547H195.639V346.445ZM196.226 353.37H177.885V344.215H181.289V350.436H196.226V353.37ZM188.537 334.854C188.537 338.727 185.368 341.779 181.143 341.779C176.917 341.779 173.748 338.727 173.748 334.854C173.748 330.98 176.917 327.929 181.143 327.929C185.368 327.929 188.537 330.98 188.537 334.854ZM185.192 334.854C185.192 332.624 183.549 330.863 181.143 330.863C178.736 330.863 177.093 332.624 177.093 334.854C177.093 337.084 178.736 338.845 181.143 338.845C183.549 338.845 185.192 337.084 185.192 334.854ZM226.851 340.957L224.973 343.598C220.894 342.219 217.226 339.754 215.289 336.614C213.353 339.754 209.685 342.219 205.606 343.598L203.728 340.957C209.098 339.343 213.587 335.47 213.587 331.332V328.691H216.991V331.332C216.991 335.47 221.481 339.343 226.851 340.957ZM227.673 351.492H202.906V348.499H213.529V342.865H217.05V348.499H227.673V351.492ZM250.548 342.777H247.203V327.547H250.548V342.777ZM250.49 353.957H247.144V346.885H232.091V343.951H250.49V353.957ZM244.826 338.903L243.036 341.515C240.307 340.37 237.607 338.375 236.287 336.057C235.26 338.375 232.443 340.781 229.186 342.337L227.073 339.93C231.445 338.023 234.468 334.736 234.468 330.599V327.987H237.93V330.599C237.93 334.384 241.011 337.377 244.826 338.903ZM277.767 340.928H253V338.111H277.767V340.928ZM275.214 353.517H256.14V346.709H271.282V345.33H256.14V342.571H274.627V349.291H259.485V350.729H275.214V353.517ZM274.803 332.007C274.803 336.644 268.817 336.761 265.383 336.761C261.95 336.761 255.964 336.644 255.964 332.007C255.964 327.371 261.95 327.254 265.383 327.254C268.817 327.254 274.803 327.371 274.803 332.007ZM271.34 332.007C271.34 330.922 270.489 330.217 266.997 330.1C265.912 330.071 264.855 330.071 263.769 330.1C260.277 330.217 259.426 330.922 259.426 332.007C259.426 333.093 260.043 333.797 263.769 333.915C264.855 333.944 265.912 333.944 266.997 333.915C270.489 333.797 271.34 333.093 271.34 332.007ZM157.775 388.81H154.43V362.547H157.775V388.81ZM153.197 380.212V383.147C149.911 383.792 146.008 383.939 142.398 383.939H137.116V372.172H146.771V367.418H137.116V364.454H150.116V375.106H140.462V380.946H142.398C145.949 380.946 149.676 380.799 153.197 380.212ZM179.685 375.899H166.685V363.281H170.031V366.773H176.34V363.281H179.685V375.899ZM187.579 388.517H169.473V378.657H186.992V381.562H172.818V385.582H187.579V388.517ZM187.05 377.483H183.705V362.547H187.05V367.917H190.513V370.969H187.05V377.483ZM176.34 372.964V369.648H170.031V372.964H176.34ZM211.804 388.81H208.459V362.547H211.804V372.465H215.56V375.576H211.804V388.81ZM197.953 384.937C193.434 384.937 191.146 381.298 190.94 376.544C190.881 375.224 190.881 373.58 190.94 372.26C191.146 367.506 193.434 363.868 197.953 363.868C202.472 363.868 204.761 367.506 204.967 372.26C205.025 373.58 205.025 375.224 204.967 376.544C204.761 381.298 202.472 384.937 197.953 384.937ZM197.953 381.944C200.037 381.944 201.445 380.183 201.621 376.544C201.68 375.224 201.68 373.58 201.621 372.26C201.445 368.621 200.037 366.861 197.953 366.861C195.87 366.861 194.461 368.621 194.285 372.26C194.227 373.58 194.227 375.224 194.285 376.544C194.461 380.183 195.87 381.944 197.953 381.944ZM240.196 386.492H215.43V383.499H226.052V378.745H218.628V363.985H221.973V368.269H233.652V363.985H236.998V378.745H229.574V383.499H240.196V386.492ZM233.652 375.752V371.204H221.973V375.752H233.652ZM262.778 388.81H259.433V362.547H262.778V388.81ZM242.941 385.318L240.741 382.941C247.284 379.42 251.187 373.669 251.657 367.741H242.355V364.748H255.178C255.237 374.725 249.632 381.474 242.941 385.318Z" fill="black"/>
<g clip-path="url(#clip1_3822_116151)">
<rect x="142.664" y="157.797" width="102.822" height="102.822" rx="19.7076" transform="rotate(6.59502 142.664 157.797)" fill="#19D88C"/>
<path d="M213.525 172.526C214.177 171.736 215.426 171.88 215.88 172.798L218.845 178.793C219.141 179.392 219.817 179.701 220.464 179.534L226.939 177.86C227.93 177.603 228.856 178.455 228.684 179.464L227.558 186.057C227.446 186.716 227.811 187.363 228.432 187.608L234.655 190.059C235.608 190.435 235.856 191.668 235.124 192.383L230.338 197.055C229.86 197.522 229.775 198.26 230.134 198.824L233.727 204.465C234.277 205.328 233.754 206.472 232.74 206.62L226.123 207.587C225.461 207.683 224.958 208.23 224.918 208.897L224.509 215.573C224.446 216.595 223.351 217.213 222.444 216.737L216.522 213.629C215.93 213.319 215.202 213.466 214.776 213.981L210.522 219.142C209.871 219.932 208.621 219.787 208.167 218.87L205.203 212.874C204.906 212.275 204.231 211.966 203.584 212.133L197.109 213.808C196.117 214.064 195.191 213.213 195.364 212.203L196.489 205.611C196.602 204.952 196.237 204.305 195.615 204.06L189.392 201.608C188.44 201.233 188.191 200 188.924 199.285L193.709 194.612C194.187 194.146 194.273 193.407 193.914 192.844L190.32 187.203C189.77 186.339 190.294 185.196 191.307 185.048L197.925 184.081C198.586 183.984 199.089 183.437 199.13 182.77L199.538 176.094C199.601 175.072 200.697 174.455 201.603 174.931L207.526 178.038C208.118 178.349 208.846 178.202 209.271 177.686L213.525 172.526Z" fill="url(#paint7_linear_3822_116151)"/>
<path d="M213.525 172.526C214.177 171.736 215.426 171.88 215.88 172.798L218.845 178.793C219.141 179.392 219.817 179.701 220.464 179.534L226.939 177.86C227.93 177.603 228.856 178.455 228.684 179.464L227.558 186.057C227.446 186.716 227.811 187.363 228.432 187.608L234.655 190.059C235.608 190.435 235.856 191.668 235.124 192.383L230.338 197.055C229.86 197.522 229.775 198.26 230.134 198.824L233.727 204.465C234.277 205.328 233.754 206.472 232.74 206.62L226.123 207.587C225.461 207.683 224.958 208.23 224.918 208.897L224.509 215.573C224.446 216.595 223.351 217.213 222.444 216.737L216.522 213.629C215.93 213.319 215.202 213.466 214.776 213.981L210.522 219.142C209.871 219.932 208.621 219.787 208.167 218.87L205.203 212.874C204.906 212.275 204.231 211.966 203.584 212.133L197.109 213.808C196.117 214.064 195.191 213.213 195.364 212.203L196.489 205.611C196.602 204.952 196.237 204.305 195.615 204.06L189.392 201.608C188.44 201.233 188.191 200 188.924 199.285L193.709 194.612C194.187 194.146 194.273 193.407 193.914 192.844L190.32 187.203C189.77 186.339 190.294 185.196 191.307 185.048L197.925 184.081C198.586 183.984 199.089 183.437 199.13 182.77L199.538 176.094C199.601 175.072 200.697 174.455 201.603 174.931L207.526 178.038C208.118 178.349 208.846 178.202 209.271 177.686L213.525 172.526Z" fill="url(#paint8_linear_3822_116151)" fill-opacity="0.2"/>
<path d="M213.525 172.526C214.177 171.736 215.426 171.88 215.88 172.798L218.845 178.793C219.141 179.392 219.817 179.701 220.464 179.534L226.939 177.86C227.93 177.603 228.856 178.455 228.684 179.464L227.558 186.057C227.446 186.716 227.811 187.363 228.432 187.608L234.655 190.059C235.608 190.435 235.856 191.668 235.124 192.383L230.338 197.055C229.86 197.522 229.775 198.26 230.134 198.824L233.727 204.465C234.277 205.328 233.754 206.472 232.74 206.62L226.123 207.587C225.461 207.683 224.958 208.23 224.918 208.897L224.509 215.573C224.446 216.595 223.351 217.213 222.444 216.737L216.522 213.629C215.93 213.319 215.202 213.466 214.776 213.981L210.522 219.142C209.871 219.932 208.621 219.787 208.167 218.87L205.203 212.874C204.906 212.275 204.231 211.966 203.584 212.133L197.109 213.808C196.117 214.064 195.191 213.213 195.364 212.203L196.489 205.611C196.602 204.952 196.237 204.305 195.615 204.06L189.392 201.608C188.44 201.233 188.191 200 188.924 199.285L193.709 194.612C194.187 194.146 194.273 193.407 193.914 192.844L190.32 187.203C189.77 186.339 190.294 185.196 191.307 185.048L197.925 184.081C198.586 183.984 199.089 183.437 199.13 182.77L199.538 176.094C199.601 175.072 200.697 174.455 201.603 174.931L207.526 178.038C208.118 178.349 208.846 178.202 209.271 177.686L213.525 172.526Z" fill="url(#paint9_linear_3822_116151)"/>
<path d="M157.718 218.524C158.16 218.097 158.882 218.18 159.215 218.697L162.835 224.305C162.99 224.546 163.243 224.706 163.528 224.744L170.146 225.61C170.756 225.689 171.14 226.306 170.945 226.888L168.816 233.215C168.725 233.487 168.758 233.785 168.906 234.03L172.355 239.745C172.673 240.271 172.431 240.956 171.853 241.166L165.58 243.447C165.311 243.545 165.098 243.756 164.999 244.025L162.681 250.285C162.468 250.861 161.781 251.099 161.257 250.779L155.563 247.296C155.318 247.147 155.02 247.112 154.748 247.202L148.409 249.293C147.825 249.486 147.211 249.097 147.135 248.488L146.307 241.864C146.272 241.58 146.113 241.325 145.873 241.168L140.286 237.516C139.771 237.18 139.692 236.458 140.121 236.018L144.784 231.241C144.984 231.036 145.084 230.753 145.057 230.468L144.429 223.822C144.371 223.211 144.886 222.699 145.497 222.76L152.139 223.427C152.424 223.455 152.708 223.357 152.914 223.158L157.718 218.524Z" fill="url(#paint10_linear_3822_116151)"/>
<path d="M157.718 218.524C158.16 218.097 158.882 218.18 159.215 218.697L162.835 224.305C162.99 224.546 163.243 224.706 163.528 224.744L170.146 225.61C170.756 225.689 171.14 226.306 170.945 226.888L168.816 233.215C168.725 233.487 168.758 233.785 168.906 234.03L172.355 239.745C172.673 240.271 172.431 240.956 171.853 241.166L165.58 243.447C165.311 243.545 165.098 243.756 164.999 244.025L162.681 250.285C162.468 250.861 161.781 251.099 161.257 250.779L155.563 247.296C155.318 247.147 155.02 247.112 154.748 247.202L148.409 249.293C147.825 249.486 147.211 249.097 147.135 248.488L146.307 241.864C146.272 241.58 146.113 241.325 145.873 241.168L140.286 237.516C139.771 237.18 139.692 236.458 140.121 236.018L144.784 231.241C144.984 231.036 145.084 230.753 145.057 230.468L144.429 223.822C144.371 223.211 144.886 222.699 145.497 222.76L152.139 223.427C152.424 223.455 152.708 223.357 152.914 223.158L157.718 218.524Z" fill="url(#paint11_linear_3822_116151)" fill-opacity="0.2"/>
<path d="M157.718 218.524C158.16 218.097 158.882 218.18 159.215 218.697L162.835 224.305C162.99 224.546 163.243 224.706 163.528 224.744L170.146 225.61C170.756 225.689 171.14 226.306 170.945 226.888L168.816 233.215C168.725 233.487 168.758 233.785 168.906 234.03L172.355 239.745C172.673 240.271 172.431 240.956 171.853 241.166L165.58 243.447C165.311 243.545 165.098 243.756 164.999 244.025L162.681 250.285C162.468 250.861 161.781 251.099 161.257 250.779L155.563 247.296C155.318 247.147 155.02 247.112 154.748 247.202L148.409 249.293C147.825 249.486 147.211 249.097 147.135 248.488L146.307 241.864C146.272 241.58 146.113 241.325 145.873 241.168L140.286 237.516C139.771 237.18 139.692 236.458 140.121 236.018L144.784 231.241C144.984 231.036 145.084 230.753 145.057 230.468L144.429 223.822C144.371 223.211 144.886 222.699 145.497 222.76L152.139 223.427C152.424 223.455 152.708 223.357 152.914 223.158L157.718 218.524Z" fill="url(#paint12_linear_3822_116151)"/>
<path d="M218.211 211.331C220.652 212.297 221.848 215.06 220.881 217.501L218.186 224.311C215.594 223.286 212.661 224.555 211.635 227.147C210.609 229.739 211.879 232.671 214.47 233.697L211.775 240.507C210.808 242.948 208.046 244.144 205.605 243.178L150.451 221.346C148.01 220.38 146.814 217.618 147.781 215.177L150.476 208.367L150.477 208.368C153.069 209.394 156.002 208.124 157.028 205.532C158.054 202.94 156.784 200.007 154.192 198.981L154.191 198.98L156.887 192.17C157.853 189.729 160.616 188.533 163.057 189.5L218.211 211.331Z" fill="#D9D9D9"/>
<path d="M218.211 211.331C220.652 212.297 221.848 215.06 220.881 217.501L218.186 224.311C215.594 223.286 212.661 224.555 211.635 227.147C210.609 229.739 211.879 232.671 214.47 233.697L211.775 240.507C210.808 242.948 208.046 244.144 205.605 243.178L150.451 221.346C148.01 220.38 146.814 217.618 147.781 215.177L150.476 208.367L150.477 208.368C153.069 209.394 156.002 208.124 157.028 205.532C158.054 202.94 156.784 200.007 154.192 198.981L154.191 198.98L156.887 192.17C157.853 189.729 160.616 188.533 163.057 189.5L218.211 211.331Z" fill="url(#paint13_linear_3822_116151)"/>
<path d="M218.211 211.331C220.652 212.297 221.848 215.06 220.881 217.501L218.186 224.311C215.594 223.286 212.661 224.555 211.635 227.147C210.609 229.739 211.879 232.671 214.47 233.697L211.775 240.507C210.808 242.948 208.046 244.144 205.605 243.178L150.451 221.346C148.01 220.38 146.814 217.618 147.781 215.177L150.476 208.367L150.477 208.368C153.069 209.394 156.002 208.124 157.028 205.532C158.054 202.94 156.784 200.007 154.192 198.981L154.191 198.98L156.887 192.17C157.853 189.729 160.616 188.533 163.057 189.5L218.211 211.331Z" fill="url(#paint14_linear_3822_116151)"/>
<rect x="181.035" y="238.051" width="47.1137" height="24.3695" rx="12.1848" transform="rotate(-10.6309 181.035 238.051)" fill="#D9D9D9"/>
<rect x="181.035" y="238.051" width="47.1137" height="24.3695" rx="12.1848" transform="rotate(-10.6309 181.035 238.051)" fill="url(#paint15_linear_3822_116151)"/>
<rect x="181.035" y="238.051" width="47.1137" height="24.3695" rx="12.1848" transform="rotate(-10.6309 181.035 238.051)" fill="url(#paint16_linear_3822_116151)"/>
<path d="M173.828 221.963L191.95 209.989L194.833 211.14L176.711 223.114L173.828 221.963ZM178.806 214.912C178.116 214.637 177.539 214.234 177.076 213.704C176.632 213.166 176.354 212.545 176.242 211.842C176.131 211.138 176.229 210.401 176.537 209.629L177.152 208.086C177.455 207.328 177.889 206.732 178.454 206.299C179.019 205.865 179.645 205.613 180.333 205.542C181.039 205.463 181.737 205.561 182.427 205.837C183.118 206.112 183.685 206.519 184.129 207.057C184.593 207.587 184.88 208.204 184.991 208.907C185.103 209.611 185.008 210.342 184.705 211.1L184.089 212.643C183.782 213.414 183.345 214.017 182.78 214.45C182.215 214.884 181.579 215.14 180.873 215.219C180.185 215.29 179.497 215.188 178.806 214.912ZM179.657 212.78C180.104 212.959 180.534 212.942 180.948 212.731C181.362 212.519 181.679 212.136 181.901 211.581L182.379 210.383C182.6 209.828 182.633 209.332 182.479 208.893C182.324 208.455 182.024 208.147 181.577 207.969C181.13 207.79 180.7 207.807 180.286 208.018C179.886 208.235 179.575 208.621 179.353 209.176L178.875 210.374C178.654 210.929 178.614 211.423 178.755 211.856C178.91 212.294 179.21 212.602 179.657 212.78ZM186.152 227.234C185.462 226.958 184.888 226.549 184.43 226.005C183.98 225.481 183.7 224.867 183.588 224.163C183.476 223.46 183.575 222.722 183.882 221.951L184.498 220.408C184.801 219.65 185.234 219.054 185.8 218.62C186.365 218.187 186.991 217.935 187.678 217.864C188.385 217.785 189.083 217.883 189.773 218.158C190.463 218.434 191.031 218.841 191.475 219.379C191.938 219.909 192.226 220.525 192.337 221.229C192.449 221.932 192.353 222.663 192.051 223.421L191.435 224.964C191.127 225.736 190.691 226.338 190.126 226.772C189.56 227.205 188.927 227.455 188.227 227.52C187.534 227.605 186.842 227.509 186.152 227.234ZM187.003 225.102C187.449 225.28 187.88 225.264 188.293 225.052C188.707 224.841 189.025 224.458 189.246 223.903L189.724 222.705C189.946 222.15 189.979 221.653 189.825 221.215C189.67 220.777 189.369 220.468 188.923 220.29C188.476 220.112 188.046 220.129 187.632 220.34C187.231 220.557 186.921 220.943 186.699 221.498L186.221 222.696C186 223.251 185.96 223.744 186.101 224.177C186.255 224.616 186.556 224.924 187.003 225.102Z" fill="#19D88C"/>
</g>
</g>
<defs>
<filter id="filter0_f_3822_116151" x="-192.901" y="-92.3812" width="640.43" height="631.899" filterUnits="userSpaceOnUse" color-interpolation-filters="sRGB">
<feFlood flood-opacity="0" result="BackgroundImageFix"/>
<feBlend mode="normal" in="SourceGraphic" in2="BackgroundImageFix" result="shape"/>
<feGaussianBlur stdDeviation="31.05" result="effect1_foregroundBlur_3822_116151"/>
</filter>
<linearGradient id="paint0_linear_3822_116151" x1="3.74121" y1="91.7167" x2="-144.89" y2="954.755" gradientUnits="userSpaceOnUse">
<stop stop-color="#36D69D"/>
<stop offset="0.485228" stop-color="#B7FFE6"/>
<stop offset="1" stop-color="#36D69D"/>
</linearGradient>
<linearGradient id="paint1_linear_3822_116151" x1="107.768" y1="306.817" x2="78.9355" y2="18.0168" gradientUnits="userSpaceOnUse">
<stop stop-color="#36D69D"/>
<stop offset="0.553988" stop-color="#B7FFE6"/>
<stop offset="1" stop-color="white"/>
</linearGradient>
<linearGradient id="paint2_linear_3822_116151" x1="-140.19" y1="179.663" x2="-345.323" y2="746.382" gradientUnits="userSpaceOnUse">
<stop stop-color="#36D69D"/>
<stop offset="0.485228" stop-color="#B7FFE6"/>
<stop offset="1" stop-color="#36D69D"/>
</linearGradient>
<linearGradient id="paint3_linear_3822_116151" x1="-19.2825" y1="380.372" x2="-6.5755" y2="184.667" gradientUnits="userSpaceOnUse">
<stop stop-color="#36D69D"/>
<stop offset="0.553988" stop-color="#B7FFE6"/>
<stop offset="1" stop-color="white"/>
</linearGradient>
<linearGradient id="paint4_linear_3822_116151" x1="1.86497" y1="400.297" x2="-36.1731" y2="827.306" gradientUnits="userSpaceOnUse">
<stop stop-color="#36D69D"/>
<stop offset="0.485228" stop-color="#B7FFE6"/>
<stop offset="1" stop-color="#36D69D"/>
</linearGradient>
<linearGradient id="paint5_linear_3822_116151" x1="87.5137" y1="511.558" x2="81.8428" y2="362.632" gradientUnits="userSpaceOnUse">
<stop stop-color="#36D69D"/>
<stop offset="0.553988" stop-color="#B7FFE6"/>
<stop offset="1" stop-color="white"/>
</linearGradient>
<linearGradient id="paint6_linear_3822_116151" x1="127.315" y1="477.418" x2="127.315" y2="-30.2812" gradientUnits="userSpaceOnUse">
<stop stop-color="#C5F9E4"/>
<stop offset="1" stop-color="#FEFFFE" stop-opacity="0"/>
</linearGradient>
<linearGradient id="paint7_linear_3822_116151" x1="182.283" y1="185.797" x2="241.612" y2="218.743" gradientUnits="userSpaceOnUse">
<stop stop-color="#36D69D"/>
<stop offset="0.485228" stop-color="#B7FFE6"/>
<stop offset="1" stop-color="#36D69D"/>
</linearGradient>
<linearGradient id="paint8_linear_3822_116151" x1="189.896" y1="185.787" x2="224.726" y2="219.937" gradientUnits="userSpaceOnUse">
<stop stop-color="#00FFA4"/>
<stop offset="1" stop-color="#54FFC2"/>
</linearGradient>
<linearGradient id="paint9_linear_3822_116151" x1="164.252" y1="247.844" x2="248.92" y2="182.755" gradientUnits="userSpaceOnUse">
<stop stop-color="#36D69D"/>
<stop offset="0.578007" stop-color="#B7FFE6"/>
<stop offset="1" stop-color="white"/>
</linearGradient>
<linearGradient id="paint10_linear_3822_116151" x1="136.022" y1="228.034" x2="177.023" y2="250.803" gradientUnits="userSpaceOnUse">
<stop stop-color="#36D69D"/>
<stop offset="0.485228" stop-color="#B7FFE6"/>
<stop offset="1" stop-color="#36D69D"/>
</linearGradient>
<linearGradient id="paint11_linear_3822_116151" x1="141.283" y1="228.028" x2="165.353" y2="251.628" gradientUnits="userSpaceOnUse">
<stop stop-color="#00FFA4"/>
<stop offset="1" stop-color="#54FFC2"/>
</linearGradient>
<linearGradient id="paint12_linear_3822_116151" x1="104.728" y1="287.411" x2="182.073" y2="225.932" gradientUnits="userSpaceOnUse">
<stop stop-color="#36D69D"/>
<stop offset="0.514772" stop-color="#B7FFE6"/>
<stop offset="1" stop-color="white"/>
</linearGradient>
<linearGradient id="paint13_linear_3822_116151" x1="154.578" y1="192.724" x2="96.8082" y2="308.626" gradientUnits="userSpaceOnUse">
<stop stop-color="#36D69D"/>
<stop offset="0.485228" stop-color="#B7FFE6"/>
<stop offset="1" stop-color="#36D69D"/>
</linearGradient>
<linearGradient id="paint14_linear_3822_116151" x1="152.814" y1="243.624" x2="172.308" y2="188.055" gradientUnits="userSpaceOnUse">
<stop stop-color="#36D69D"/>
<stop offset="0.553988" stop-color="#B7FFE6"/>
<stop offset="1" stop-color="white"/>
</linearGradient>
<linearGradient id="paint15_linear_3822_116151" x1="179.705" y1="242.404" x2="171.532" y2="334.154" gradientUnits="userSpaceOnUse">
<stop stop-color="#36D69D"/>
<stop offset="0.485228" stop-color="#B7FFE6"/>
<stop offset="1" stop-color="#36D69D"/>
</linearGradient>
<linearGradient id="paint16_linear_3822_116151" x1="147.168" y1="280.555" x2="189.107" y2="212.197" gradientUnits="userSpaceOnUse">
<stop stop-color="#36D69D"/>
<stop offset="0.567321" stop-color="#B7FFE6"/>
<stop offset="1" stop-color="white"/>
</linearGradient>
<clipPath id="clip0_3822_116151">
<rect width="376" height="510" fill="white" transform="translate(-0.171875)"/>
</clipPath>
<clipPath id="clip1_3822_116151">
<rect x="142.664" y="157.797" width="102.822" height="102.822" rx="19.7076" transform="rotate(6.59502 142.664 157.797)" fill="white"/>
</clipPath>
</defs>
</svg>
