<svg width="80" height="80" viewBox="0 0 80 80" fill="none" xmlns="http://www.w3.org/2000/svg">
<g clip-path="url(#clip0_excel_upload)">
<path d="M66.6667 0H13.3333C5.96954 0 0 5.96954 0 13.3333V66.6667C0 74.0305 5.96954 80 13.3333 80H66.6667C74.0305 80 80 74.0305 80 66.6667V13.3333C80 5.96954 74.0305 0 66.6667 0Z" fill="#19D88C"/>
<mask id="mask0_excel_upload" style="mask-type:luminance" maskUnits="userSpaceOnUse" x="0" y="0" width="80" height="80">
<path d="M66.6667 0H13.3333C5.96954 0 0 5.96954 0 13.3333V66.6667C0 74.0305 5.96954 80 13.3333 80H66.6667C74.0305 80 80 74.0305 80 66.6667V13.3333C80 5.96954 74.0305 0 66.6667 0Z" fill="white"/>
</mask>
<g mask="url(#mask0_excel_upload)">
<path d="M0.177844 12.9353L58.1873 9.89512L76.7473 26.9527L79.5514 80.4568C79.6893 83.0881 78.4691 84.4714 75.8909 84.6065L4.13107 88.3673C1.55287 88.5024 0.194819 87.2543 0.0569156 84.6229L-1.29555 17.366C-1.43345 14.7347 -2.40035 13.0704 0.177844 12.9353Z" fill="#EFFFF1"/>
<path d="M58.1875 9.89502L58.8856 23.2157C59.0357 26.0804 60.5431 27.4376 63.4078 27.2875L76.7285 26.5894L58.1875 9.89502Z" fill="#D1D6DB"/>
<path d="M16.5619 17.2694L5.81942 17.8324C4.27686 17.9132 3.0919 19.2292 3.17274 20.7718L3.73573 31.5143C3.81658 33.0569 5.1326 34.2418 6.67516 34.161L17.4177 33.598C18.9602 33.5171 20.1452 32.2011 20.0643 30.6586L19.5013 19.9161C19.4205 18.3735 18.1045 17.1886 16.5619 17.2694Z" fill="#29D48E"/>
<path d="M7.77441 22.2542L15.4734 29.3911M15.0793 21.8713L8.16851 29.7739" stroke="#EFFFF1" stroke-width="2.36659" stroke-linecap="round"/>
<path d="M70.0673 35.1246L4.53809 38.5588L6.67745 79.3803L72.2067 75.9461L70.0673 35.1246Z" fill="#EFFFF1"/>
<path d="M70.0673 35.1246L4.53809 38.5588L4.88714 45.2192L70.4163 41.7849L70.0673 35.1246Z" fill="#DDFAE0"/>
<path d="M12.7024 38.131L4.53809 38.5588L6.98619 85.2714L15.1505 84.8435L12.7024 38.131Z" fill="#DDFAE0"/>
<path d="M32.6021 43.7666L13.0508 44.7913L13.625 55.7486L33.1764 54.724L32.6021 43.7666Z" fill="#EFFFF1"/>
<path d="M51.4674 53.6712L34.6798 54.6462C33.8492 54.6898 33.2112 55.3984 33.2547 56.229L33.6713 64.1784C33.7148 65.009 34.4235 65.6471 35.2541 65.6036L51.153 64.7703C51.9836 64.7268 52.6216 64.0182 52.5781 63.1876L52.4356 54.6396C52.3921 53.809 52.298 53.6277 51.4674 53.6712Z" fill="#80E3B7"/>
<path d="M4.54004 38.5586L70.0692 35.1244M4.88909 45.2189L70.4183 41.7847M5.46334 56.1763L70.9925 52.742M6.03759 67.1336L71.5668 63.6994M6.61184 78.091L72.141 74.6567" stroke="#80E3B7" stroke-width="0.860579"/>
<path d="M12.7012 38.1313L15.4838 88.0403M32.2525 37.1067L35.1703 90.9448M51.1593 36.1158L54.8561 105.575" stroke="#80E3B7" stroke-width="0.860579"/>
</g>
</g>
<defs>
<clipPath id="clip0_excel_upload">
<rect width="80" height="80" rx="12.2" fill="white"/>
</clipPath>
</defs>
</svg>
