<svg width="80" height="80" viewBox="0 0 80 80" fill="none" xmlns="http://www.w3.org/2000/svg">
<g clip-path="url(#clip0_leaflet_upload)">
<rect width="80" height="80" rx="15.3333" fill="#19D88C"/>
<path d="M17.5419 41.3183C18.7346 40.626 19.6777 39.8956 20.3713 39.1272C21.0669 38.351 21.5486 37.4668 21.8164 36.4745L21.9208 36.0878L23.3975 36.4863L23.2931 36.873C22.9768 38.045 22.4015 39.1051 21.5672 40.0535C20.735 40.994 19.6503 41.8454 18.313 42.6077L17.5419 41.3183ZM23.2785 43.8221L20.9547 39.1086L22.2621 38.3173L24.6256 43.1169L23.2785 43.8221ZM19.412 35.9262L19.7789 34.5668L26.0606 36.262L25.6937 37.6215L19.412 35.9262ZM21.998 35.8949L22.6179 33.5978L24.0946 33.9964L23.4747 36.2934L21.998 35.8949ZM24.8119 45.9207L27.766 34.9746L29.2661 35.3794L26.312 46.3255L24.8119 45.9207Z" fill="#19D78B"/>
<path d="M57.7361 68.1346L54.1261 57.387L55.599 56.8923L59.209 67.6399L57.7361 68.1346ZM49.7881 68.9091L46.9975 60.601L52.4978 58.7535L55.2884 67.0616L49.7881 68.9091ZM50.7972 67.0719L53.3633 66.21L51.4771 60.5945L48.9111 61.4564L50.7972 67.0719Z" fill="#19D78B"/>
<rect x="19.1113" y="-41.3342" width="35.8793" height="67.2743" rx="1.55556" fill="#DDFAE0"/>
<path d="M56.8407 30.2496L37.4668 32.8452C37.1358 32.8896 36.8884 33.1797 36.8905 33.5136C37.0363 57.2457 45.953 67.8785 50.6061 70.3651C50.7293 70.431 50.8661 70.4493 51.004 70.427L71.0005 67.2018C71.5474 67.1136 71.7557 66.4312 71.3636 66.0399C59.6153 54.3153 57.3538 38.363 57.6073 30.9506C57.6217 30.5301 57.2577 30.1937 56.8407 30.2496Z" fill="url(#paint0_linear_leaflet_upload)"/>
<path d="M33.8789 53.1709C33.8789 53.7232 33.4312 54.1709 32.8789 54.1709H15.5C14.9477 54.1709 14.5 53.7232 14.5 53.1709V26.5C14.5 26.2239 14.2761 26 14 26C13.7239 26 13.5 26.2239 13.5 26.5V53.1709C13.5 53.7232 13.0523 54.1709 12.5 54.1709H-1C-1.55228 54.1709 -2 53.7232 -2 53.1709V-12.1035C-2 -12.6558 -1.55228 -13.1035 -1 -13.1035H32.8789C33.4312 -13.1035 33.8789 -12.6558 33.8789 -12.1035V53.1709Z" fill="#DDFAE0"/>
</g>
<defs>
<linearGradient id="paint0_linear_leaflet_upload" x1="35.8879" y1="37.3446" x2="7.02741" y2="184.698" gradientUnits="userSpaceOnUse">
<stop stop-color="#EFFFF1"/>
<stop offset="0.485228" stop-color="#00C66F"/>
<stop offset="1" stop-color="#EFFFF1"/>
</linearGradient>
<clipPath id="clip0_leaflet_upload">
<rect width="80" height="80" rx="15.3333" fill="white"/>
</clipPath>
</defs>
</svg>
