<svg width="46" height="46" viewBox="0 0 46 46" fill="none" xmlns="http://www.w3.org/2000/svg">
<g clip-path="url(#clip0_2829_50329)">
<path d="M21.9165 1.6743C22.4251 0.888412 23.5749 0.888412 24.0835 1.6743L27.4055 6.80772C27.7374 7.3206 28.3835 7.53051 28.9534 7.31067L34.6584 5.11028C35.5317 4.77342 36.462 5.44928 36.4115 6.38401L36.0817 12.4897C36.0488 13.0997 36.4481 13.6492 37.0384 13.8064L42.9471 15.3795C43.8517 15.6204 44.207 16.7139 43.6168 17.4405L39.7612 22.1862C39.3759 22.6604 39.3759 23.3396 39.7612 23.8138L43.6168 28.5595C44.207 29.2861 43.8517 30.3796 42.9471 30.6205L37.0384 32.1936C36.4481 32.3508 36.0488 32.9003 36.0817 33.5103L36.4115 39.616C36.462 40.5507 35.5317 41.2266 34.6584 40.8897L28.9534 38.6893C28.3835 38.4695 27.7374 38.6794 27.4055 39.1923L24.0835 44.3257C23.5749 45.1116 22.4251 45.1116 21.9165 44.3257L18.5945 39.1923C18.2626 38.6794 17.6165 38.4695 17.0466 38.6893L11.3416 40.8897C10.4683 41.2266 9.53801 40.5507 9.5885 39.616L9.91828 33.5103C9.95123 32.9003 9.55195 32.3508 8.9616 32.1936L3.05287 30.6205C2.14829 30.3796 1.79297 29.2861 2.38323 28.5595L6.23884 23.8138C6.62406 23.3396 6.62406 22.6604 6.23884 22.1862L2.38323 17.4405C1.79297 16.7139 2.14829 15.6204 3.05287 15.3795L8.96161 13.8064C9.55195 13.6492 9.95123 13.0997 9.91828 12.4897L9.5885 6.38401C9.53801 5.44928 10.4683 4.77342 11.3416 5.11028L17.0466 7.31067C17.6165 7.53051 18.2626 7.3206 18.5945 6.80772L21.9165 1.6743Z" fill="#D3FFEF"/>
<path d="M21.9165 1.6743C22.4251 0.888412 23.5749 0.888412 24.0835 1.6743L27.4055 6.80772C27.7374 7.3206 28.3835 7.53051 28.9534 7.31067L34.6584 5.11028C35.5317 4.77342 36.462 5.44928 36.4115 6.38401L36.0817 12.4897C36.0488 13.0997 36.4481 13.6492 37.0384 13.8064L42.9471 15.3795C43.8517 15.6204 44.207 16.7139 43.6168 17.4405L39.7612 22.1862C39.3759 22.6604 39.3759 23.3396 39.7612 23.8138L43.6168 28.5595C44.207 29.2861 43.8517 30.3796 42.9471 30.6205L37.0384 32.1936C36.4481 32.3508 36.0488 32.9003 36.0817 33.5103L36.4115 39.616C36.462 40.5507 35.5317 41.2266 34.6584 40.8897L28.9534 38.6893C28.3835 38.4695 27.7374 38.6794 27.4055 39.1923L24.0835 44.3257C23.5749 45.1116 22.4251 45.1116 21.9165 44.3257L18.5945 39.1923C18.2626 38.6794 17.6165 38.4695 17.0466 38.6893L11.3416 40.8897C10.4683 41.2266 9.53801 40.5507 9.5885 39.616L9.91828 33.5103C9.95123 32.9003 9.55195 32.3508 8.9616 32.1936L3.05287 30.6205C2.14829 30.3796 1.79297 29.2861 2.38323 28.5595L6.23884 23.8138C6.62406 23.3396 6.62406 22.6604 6.23884 22.1862L2.38323 17.4405C1.79297 16.7139 2.14829 15.6204 3.05287 15.3795L8.96161 13.8064C9.55195 13.6492 9.95123 13.0997 9.91828 12.4897L9.5885 6.38401C9.53801 5.44928 10.4683 4.77342 11.3416 5.11028L17.0466 7.31067C17.6165 7.53051 18.2626 7.3206 18.5945 6.80772L21.9165 1.6743Z" fill="url(#paint0_linear_2829_50329)"/>
<circle cx="36.5" cy="36.5" r="6.5" fill="#00C66F"/>
<path d="M36.4932 31.1797C36.9816 31.1797 37.3779 31.577 37.3779 32.0654V35.6055H40.9336C41.4221 35.6055 41.8184 36.0018 41.8184 36.4902C41.8182 36.9786 41.422 37.375 40.9336 37.375H37.3779V40.9336C37.3774 41.4216 36.9813 41.8174 36.4932 41.8174C36.005 41.8174 35.6089 41.4216 35.6084 40.9336V37.375H32.0654C31.5772 37.3748 31.1818 36.9784 31.1816 36.4902C31.1816 36.0019 31.5772 35.6057 32.0654 35.6055H35.6084V32.0654C35.6084 31.577 36.0047 31.1797 36.4932 31.1797Z" fill="white"/>
<path d="M16.4434 27.4833L26.7531 18.8172L28.6108 19.3204L18.3011 27.9865L16.4434 27.4833ZM19.0078 22.7856C18.563 22.6651 18.1791 22.4581 17.856 22.1646C17.544 21.8648 17.3286 21.5022 17.2098 21.0768C17.091 20.6514 17.0989 20.1902 17.2336 19.693L17.5029 18.6987C17.6353 18.2103 17.86 17.8125 18.1773 17.5052C18.4946 17.198 18.8624 16.998 19.2807 16.9054C19.71 16.8064 20.1471 16.8171 20.592 16.9376C21.0368 17.0581 21.4152 17.2682 21.7271 17.5681C22.0502 17.8616 22.2711 18.221 22.39 18.6464C22.5088 19.0717 22.502 19.5286 22.3697 20.0171L22.1004 21.0114C21.9657 21.5085 21.7397 21.9107 21.4225 22.2179C21.1052 22.5252 20.7319 22.7283 20.3025 22.8273C19.8842 22.92 19.4526 22.9061 19.0078 22.7856ZM19.3799 21.4119C19.6678 21.4899 19.9316 21.449 20.1715 21.2893C20.4113 21.1296 20.5797 20.8709 20.6766 20.5133L20.8856 19.7414C20.9825 19.3838 20.9677 19.0756 20.8413 18.8166C20.7148 18.5577 20.5077 18.3892 20.2198 18.3113C19.932 18.2333 19.6682 18.2742 19.4283 18.4339C19.1972 18.596 19.0332 18.8558 18.9363 19.2134L18.7272 19.9853C18.6304 20.3429 18.6408 20.65 18.7585 20.9065C18.885 21.1655 19.0921 21.3339 19.3799 21.4119ZM24.4099 29.852C23.9651 29.7315 23.5823 29.5201 23.2617 29.2179C22.9473 28.9268 22.7307 28.5686 22.6119 28.1432C22.4931 27.7178 22.501 27.2566 22.6357 26.7594L22.905 25.7651C23.0373 25.2767 23.2621 24.8789 23.5794 24.5716C23.8967 24.2644 24.2645 24.0644 24.6828 23.9718C25.1121 23.8727 25.5492 23.8835 25.994 24.004C26.4389 24.1245 26.8173 24.3346 27.1292 24.6345C27.4523 24.9279 27.6732 25.2874 27.792 25.7127C27.9109 26.1381 27.9041 26.595 27.7718 27.0835L27.5025 28.0777C27.3678 28.5749 27.1418 28.9771 26.8246 29.2843C26.5073 29.5916 26.1351 29.7904 25.7081 29.8806C25.2875 29.982 24.8547 29.9725 24.4099 29.852ZM24.782 28.4783C25.0698 28.5562 25.3337 28.5154 25.5736 28.3557C25.8134 28.196 25.9818 27.9373 26.0786 27.5797L26.2877 26.8078C26.3846 26.4502 26.3698 26.142 26.2433 25.883C26.1169 25.6241 25.9098 25.4556 25.6219 25.3777C25.3341 25.2997 25.0703 25.3406 24.8304 25.5003C24.5993 25.6624 24.4353 25.9222 24.3384 26.2798L24.1293 27.0517C24.0324 27.4093 24.0429 27.7163 24.1606 27.9729C24.2871 28.2319 24.4942 28.4003 24.782 28.4783Z" fill="#19D88C"/>
</g>
<defs>
<linearGradient id="paint0_linear_2829_50329" x1="-35.3571" y1="-15.7377" x2="46.9255" y2="20.9227" gradientUnits="userSpaceOnUse">
<stop stop-color="#36D69D" stop-opacity="0.44"/>
<stop offset="1" stop-color="#D3FFEF"/>
</linearGradient>
<clipPath id="clip0_2829_50329">
<rect width="46" height="46" rx="8" fill="white"/>
</clipPath>
</defs>
</svg>
