<svg width="46" height="46" viewBox="0 0 46 46" fill="none" xmlns="http://www.w3.org/2000/svg">
<g clip-path="url(#clip0_3539_151152)">
<g clip-path="url(#clip1_3539_151152)">
<path d="M40.5123 28.804C41.5387 30.117 41.261 31.9535 39.8913 32.9058L26.6249 42.13C25.2541 43.083 23.3091 42.79 22.2819 41.4761L7.62911 22.7312C7.0277 21.9618 6.66728 21.0494 6.59125 20.1009L5.57855 7.46023C5.49831 6.45869 5.96288 5.49568 6.81037 4.90642L7.54196 4.39775C8.35974 3.82915 9.42785 3.68284 10.3962 4.00724L23.386 8.3594C24.3959 8.69769 25.2789 9.31616 25.9179 10.1337L40.5123 28.804Z" fill="url(#paint0_linear_3539_151152)"/>
<path d="M19.0216 28.5682L20.3612 15.1668L22.0432 14.2312L20.7036 27.6326L19.0216 28.5682ZM17.5812 23.4135C17.1785 23.6375 16.759 23.7571 16.3228 23.7723C15.8901 23.7751 15.4828 23.6656 15.1009 23.4438C14.719 23.2219 14.4029 22.886 14.1525 22.4359L13.6518 21.5356C13.4058 21.0934 13.2893 20.6516 13.3022 20.2101C13.3151 19.7686 13.4391 19.3688 13.6741 19.0106C13.9126 18.6401 14.2333 18.3428 14.636 18.1188C15.0387 17.8948 15.4564 17.7813 15.8891 17.7785C16.3253 17.7633 16.7344 17.8667 17.1163 18.0885C17.4982 18.3103 17.8121 18.6424 18.0581 19.0846L18.5589 19.9848C18.8092 20.4349 18.928 20.8807 18.915 21.3222C18.9021 21.7637 18.7764 22.1697 18.5378 22.5402C18.3028 22.8984 17.9839 23.1895 17.5812 23.4135ZM16.8894 22.1698C17.15 22.0248 17.3105 21.8115 17.3709 21.5297C17.4313 21.2479 17.3714 20.9452 17.1914 20.6214L16.8026 19.9226C16.6225 19.5988 16.3968 19.3883 16.1256 19.291C15.8543 19.1937 15.5884 19.2176 15.3278 19.3625C15.0672 19.5075 14.9067 19.7208 14.8463 20.0026C14.7938 20.28 14.8576 20.5805 15.0377 20.9043L15.4264 21.6032C15.6065 21.9269 15.8283 22.1396 16.0916 22.2413C16.3629 22.3386 16.6288 22.3147 16.8894 22.1698ZM26.3814 24.7069C25.9787 24.9309 25.557 25.0466 25.1164 25.0538C24.6881 25.0646 24.283 24.959 23.9011 24.7372C23.5192 24.5153 23.2031 24.1794 22.9527 23.7292L22.452 22.829C22.206 22.3868 22.0895 21.945 22.1024 21.5035C22.1153 21.062 22.2393 20.6622 22.4743 20.304C22.7128 19.9335 23.0335 19.6362 23.4362 19.4122C23.8389 19.1882 24.2566 19.0747 24.6893 19.0718C25.1255 19.0567 25.5346 19.16 25.9165 19.3819C26.2984 19.6037 26.6123 19.9358 26.8583 20.378L27.3591 21.2782C27.6094 21.7283 27.7282 22.1741 27.7152 22.6156C27.7023 23.0571 27.5744 23.4591 27.3315 23.8217C27.1008 24.1878 26.7841 24.4829 26.3814 24.7069ZM25.6896 23.4632C25.9502 23.3182 26.1107 23.1049 26.1711 22.8231C26.2315 22.5413 26.1717 22.2386 25.9916 21.9148L25.6028 21.2159C25.4227 20.8922 25.197 20.6817 24.9258 20.5844C24.6545 20.4871 24.3886 20.5109 24.128 20.6559C23.8674 20.8009 23.7069 21.0142 23.6465 21.296C23.594 21.5734 23.6578 21.8739 23.8379 22.1977L24.2266 22.8965C24.4067 23.2203 24.6285 23.433 24.8918 23.5347C25.1631 23.632 25.429 23.6081 25.6896 23.4632Z" fill="#19D88C"/>
<path d="M12.2167 11.1559C11.2989 11.7941 10.0059 11.6101 9.32885 10.745C8.65178 9.87985 8.84697 8.66116 9.76483 8.02297C10.6827 7.38478 11.9756 7.56877 12.6527 8.43391C13.3298 9.29905 13.1346 10.5177 12.2167 11.1559Z" fill="white"/>
<circle cx="36.5" cy="36.5" r="6.5" fill="#00C66F"/>
<path d="M36.4932 31.1951C36.9743 31.1951 37.3641 31.585 37.3643 32.0662V35.6199H40.9346C41.4155 35.62 41.8054 36.01 41.8057 36.491C41.8057 36.9721 41.4157 37.3619 40.9346 37.3621H37.3643V40.9343C37.364 41.4154 36.9743 41.8054 36.4932 41.8054C36.0122 41.8053 35.6223 41.4153 35.6221 40.9343V37.3621H32.0664C31.5854 37.3618 31.1953 36.9721 31.1953 36.491C31.1956 36.0101 31.5855 35.6201 32.0664 35.6199H35.6221V32.0662C35.6222 31.5851 36.0121 31.1952 36.4932 31.1951Z" fill="white"/>
</g>
</g>
<defs>
<linearGradient id="paint0_linear_3539_151152" x1="-9.42744" y1="-20.3295" x2="29.8671" y2="39.736" gradientUnits="userSpaceOnUse">
<stop stop-color="#36D69D" stop-opacity="0.44"/>
<stop offset="1" stop-color="#D3FFEF"/>
</linearGradient>
<clipPath id="clip0_3539_151152">
<rect width="46" height="46" rx="8" fill="white"/>
</clipPath>
<clipPath id="clip1_3539_151152">
<rect width="46" height="46" fill="white"/>
</clipPath>
</defs>
</svg>
