<svg width="46" height="46" viewBox="0 0 46 46" fill="none" xmlns="http://www.w3.org/2000/svg">
<g clip-path="url(#clip0_3539_151153)">
<circle cx="36.5" cy="36.5" r="6.5" fill="#00C66F"/>
<path d="M34.7566 41.3316C34.4816 41.0566 34.4816 40.6107 34.7566 40.3358L38.592 36.5003L34.7566 32.6649C34.4816 32.3899 34.4816 31.9441 34.7566 31.6691C35.0316 31.3941 35.4774 31.3941 35.7524 31.6691L40.0857 36.0024C40.3607 36.2774 40.3607 36.7233 40.0857 36.9983L35.7524 41.3316C35.4774 41.6066 35.0316 41.6066 34.7566 41.3316Z" fill="white"/>
<path d="M10.0541 1.98654C10.1635 1.44809 10.7918 1.20153 11.2382 1.52188L14.277 3.70266C14.5684 3.91173 14.9664 3.88789 15.2306 3.64555L17.9875 1.11766C18.3925 0.746332 19.0457 0.916144 19.2185 1.43769L20.3952 4.98819C20.508 5.32856 20.844 5.54321 21.2003 5.50251L24.9165 5.07785C25.4624 5.01547 25.891 5.53679 25.7243 6.06033L24.5893 9.62437C24.4805 9.96604 24.6261 10.3372 24.9383 10.5137L28.1944 12.3544C28.6727 12.6248 28.713 13.2985 28.2704 13.6241L25.2573 15.8403C24.9684 16.0528 24.8681 16.4387 25.0169 16.7649L26.5692 20.168C26.7972 20.6679 26.4338 21.2367 25.8844 21.2399L22.1441 21.2618C21.7855 21.2639 21.4775 21.5171 21.4061 21.8685L20.6616 25.5341C20.5523 26.0725 19.924 26.3191 19.4776 25.9988L16.4388 23.818C16.1474 23.6089 15.7494 23.6327 15.4851 23.8751L12.7283 26.403C12.3233 26.7743 11.6701 26.6045 11.4973 26.0829L10.3206 22.5324C10.2078 22.1921 9.87179 21.9774 9.51553 22.0181L5.79932 22.4428C5.25343 22.5052 4.82479 21.9838 4.99151 21.4603L6.1265 17.8963C6.23531 17.5546 6.08965 17.1834 5.7775 17.007L2.52142 15.1662C2.04311 14.8958 2.00277 14.2221 2.44538 13.8965L5.45849 11.6803C5.74734 11.4678 5.84766 11.0819 5.69886 10.7557L4.14661 7.3526C3.9186 6.8527 4.28195 6.28395 4.83138 6.28073L8.57171 6.25882C8.93028 6.25672 9.23826 6.0035 9.30964 5.6521L10.0541 1.98654Z" fill="url(#paint0_linear_3539_151153)"/>
<path d="M15.256 41.8222C13.7419 42.4726 11.9874 41.7721 11.3368 40.258L6.80917 29.7208C6.15858 28.2066 6.85803 26.4517 8.37207 25.801L26.4739 18.023C27.35 17.6466 28.3152 17.5244 29.2573 17.671L38.8905 19.1704C39.9054 19.3284 40.7707 20.0039 41.1762 20.9476C41.5676 21.8587 41.4839 22.9113 40.9477 23.7455L35.5382 32.1624C34.9914 33.0132 34.2027 33.6811 33.2736 34.0804L15.256 41.8222ZM37.2061 24.3435C38.0126 23.9969 38.3856 23.0618 38.0391 22.2551C37.6925 21.4485 36.7575 21.0755 35.9508 21.4221C35.1441 21.7687 34.7711 22.7037 35.1177 23.5104C35.4644 24.3169 36.3995 24.6901 37.2061 24.3435Z" fill="#D1FFEF"/>
<path d="M15.256 41.8222C13.7419 42.4726 11.9874 41.7721 11.3368 40.258L6.80917 29.7208C6.15858 28.2066 6.85803 26.4517 8.37207 25.801L26.4739 18.023C27.35 17.6466 28.3152 17.5244 29.2573 17.671L38.8905 19.1704C39.9054 19.3284 40.7707 20.0039 41.1762 20.9476C41.5676 21.8587 41.4839 22.9113 40.9477 23.7455L35.5382 32.1624C34.9914 33.0132 34.2027 33.6811 33.2736 34.0804L15.256 41.8222ZM37.2061 24.3435C38.0126 23.9969 38.3856 23.0618 38.0391 22.2551C37.6925 21.4485 36.7575 21.0755 35.9508 21.4221C35.1441 21.7687 34.7711 22.7037 35.1177 23.5104C35.4644 24.3169 36.3995 24.6901 37.2061 24.3435Z" fill="url(#paint1_linear_3539_151153)"/>
<path d="M43 36.5C43 40.0899 40.0899 43 36.5 43C32.9101 43 30 40.0899 30 36.5C30 32.9101 32.9101 30 36.5 30C40.0899 30 43 32.9101 43 36.5Z" fill="#FF6362"/>
<path d="M38.2295 32.7764C38.78 32.2259 39.6726 32.2259 40.2231 32.7764C40.7736 33.3269 40.7736 34.2194 40.2231 34.7699L39.6643 35.3287L37.6707 33.3352L38.2295 32.7764Z" fill="white"/>
<path d="M37.123 33.8834L32.3633 38.6428V40.6363H34.3569L39.1166 35.8769L37.123 33.8834Z" fill="white"/>
</g>
<defs>
<linearGradient id="paint0_linear_3539_151153" x1="11.7701" y1="1.25852" x2="24.5519" y2="39.0227" gradientUnits="userSpaceOnUse">
<stop stop-color="#D3FFEF"/>
<stop offset="1" stop-color="#36D69D"/>
</linearGradient>
<linearGradient id="paint1_linear_3539_151153" x1="51.2242" y1="17.7443" x2="9.03245" y2="34.8896" gradientUnits="userSpaceOnUse">
<stop stop-color="#36D69D" stop-opacity="0.44"/>
<stop offset="1" stop-color="#D3FFEF"/>
</linearGradient>
<clipPath id="clip0_3539_151153">
<rect width="46" height="46" rx="8" fill="white"/>
</clipPath>
</defs>
</svg>
