<svg preserveAspectRatio="none" width="100%" height="100%" overflow="visible" style="display: block;" viewBox="0 0 24 24" fill="none" xmlns="http://www.w3.org/2000/svg">
<g id="Shape">
<g id="Normal">
<path d="M16.6936 9.85448C17.0428 9.49372 17.0334 8.91819 16.6727 8.569C16.3119 8.21982 15.7364 8.2292 15.3872 8.58996L10.664 13.4697L8.61367 11.3457C8.26498 10.9844 7.68946 10.9743 7.32823 11.323C6.96699 11.6717 6.95682 12.2472 7.30552 12.6084L10.009 15.4091C10.1802 15.5865 10.416 15.6867 10.6625 15.6869C10.9089 15.687 11.1449 15.5871 11.3163 15.41L16.6936 9.85448Z" fill="white"/>
<path fill-rule="evenodd" clip-rule="evenodd" d="M12 2C6.47715 2 2 6.47715 2 12C2 17.5228 6.47715 22 12 22C17.5228 22 22 17.5228 22 12C22 6.47715 17.5228 2 12 2ZM3.81818 12C3.81818 7.48131 7.48131 3.81818 12 3.81818C16.5187 3.81818 20.1818 7.48131 20.1818 12C20.1818 16.5187 16.5187 20.1818 12 20.1818C7.48131 20.1818 3.81818 16.5187 3.81818 12Z" fill="white"/>
</g>
</g>
</svg>
