<svg preserveAspectRatio="none" width="100%" height="100%" overflow="visible" style="display: block;" viewBox="0 0 16 16" fill="none" xmlns="http://www.w3.org/2000/svg">
<g id="Shape">
<g id="Normal">
<path fill-rule="evenodd" clip-rule="evenodd" d="M4.16826 1.49998C3.82039 1.49997 3.52413 1.49996 3.28093 1.51983C3.02542 1.54071 2.77686 1.58643 2.53923 1.70751C2.18096 1.89006 1.88968 2.18135 1.70714 2.53963C1.58606 2.77727 1.54034 3.02585 1.51946 3.28137C1.49959 3.52457 1.4996 3.82079 1.49961 4.16866V9.20527C1.4996 9.55315 1.49959 9.84943 1.51946 10.0926C1.54034 10.3482 1.58606 10.5967 1.70714 10.8344C1.88968 11.1926 2.18096 11.4839 2.53923 11.6665C2.77686 11.7876 3.02542 11.8333 3.28093 11.8542C3.52414 11.874 3.82037 11.874 4.16826 11.874H9.2046C9.55249 11.874 9.84871 11.874 10.0919 11.8542C10.3474 11.8333 10.596 11.7876 10.8336 11.6665C11.1919 11.4839 11.4832 11.1926 11.6657 10.8344C11.7868 10.5967 11.8325 10.3482 11.8534 10.0926C11.8733 9.84941 11.8733 9.55318 11.8732 9.20527V4.16873C11.8733 3.82083 11.8733 3.52459 11.8534 3.28137C11.8325 3.02585 11.7868 2.77727 11.6657 2.53963C11.4832 2.18135 11.1919 1.89006 10.8336 1.70751C10.596 1.58643 10.3474 1.54071 10.0919 1.51983C9.84873 1.49996 9.55252 1.49997 9.20465 1.49998H4.16826ZM3.18041 2.71743C3.26676 2.68938 3.39402 2.68209 3.92883 2.68209H9.44393C9.97874 2.68209 10.106 2.68938 10.1924 2.71743C10.4122 2.78888 10.5846 2.96126 10.656 3.18114C10.6841 3.2675 10.6914 3.39477 10.6914 3.9296V9.44491C10.6914 9.97974 10.6841 10.107 10.656 10.1934C10.5846 10.4132 10.4122 10.5856 10.1924 10.6571C10.106 10.6851 9.97873 10.6924 9.44393 10.6924H3.92883C3.39402 10.6924 3.26676 10.6851 3.18041 10.6571C2.96054 10.5856 2.78816 10.4132 2.71672 10.1934C2.68866 10.107 2.68137 9.97974 2.68137 9.44491V3.9296C2.68137 3.39477 2.68866 3.2675 2.71672 3.18114C2.78816 2.96126 2.96054 2.78888 3.18041 2.71743Z" fill="#191F28"/>
<path d="M14.4996 5.96484C14.4996 5.6384 14.235 5.37377 13.9086 5.37377C13.5821 5.37377 13.3175 5.6384 13.3175 5.96484V12.0719C13.3175 12.6067 13.3102 12.734 13.2822 12.8204C13.2107 13.0402 13.0383 13.2126 12.8185 13.2841C12.7321 13.3121 12.6049 13.3194 12.07 13.3194H5.96342C5.63743 13.3194 5.37316 13.5837 5.37316 13.9097C5.37316 14.2357 5.63743 14.5 5.96342 14.5H11.831C12.1788 14.5 12.4751 14.5 12.7183 14.4801C12.9738 14.4592 13.2224 14.4135 13.46 14.2924C13.8183 14.1099 14.1095 13.8186 14.2921 13.4603C14.4132 13.2227 14.4589 12.9741 14.4798 12.7186C14.4996 12.4754 14.4996 12.1792 14.4996 11.8313V5.96484Z" fill="#191F28"/>
</g>
</g>
</svg>
