<svg preserveAspectRatio="none" width="100%" height="100%" overflow="visible" style="display: block;" viewBox="0 0 20 20" fill="none" xmlns="http://www.w3.org/2000/svg">
<g id="Shape">
<g id="Normal">
<path fill-rule="evenodd" clip-rule="evenodd" d="M5.28449 2C4.85635 1.99999 4.49172 1.99998 4.1924 2.02444C3.87793 2.05013 3.572 2.1064 3.27953 2.25543C2.83859 2.48011 2.48009 2.83862 2.25542 3.27958C2.1064 3.57206 2.05013 3.878 2.02444 4.19248C1.99998 4.49181 1.99999 4.85638 2 5.28454V11.4834C1.99999 11.9116 1.99998 12.2763 2.02444 12.5756C2.05013 12.8901 2.1064 13.196 2.25542 13.4885C2.48009 13.9294 2.83859 14.288 3.27953 14.5126C3.572 14.6617 3.87793 14.7179 4.1924 14.7436C4.49173 14.7681 4.85632 14.7681 5.28449 14.7681H11.4831C11.9112 14.7681 12.2758 14.7681 12.5752 14.7436C12.8896 14.7179 13.1956 14.6617 13.488 14.5126C13.929 14.288 14.2875 13.9294 14.5121 13.4885C14.6612 13.196 14.7174 12.8901 14.7431 12.5756C14.7676 12.2762 14.7676 11.9116 14.7675 11.4834V5.28462C14.7676 4.85643 14.7676 4.49183 14.7431 4.19248C14.7174 3.878 14.6612 3.57206 14.5121 3.27958C14.2875 2.83862 13.929 2.48011 13.488 2.25543C13.1956 2.1064 12.8896 2.05013 12.5752 2.02444C12.2758 1.99998 11.9113 1.99999 11.4831 2H5.28449ZM4.06867 3.49841C4.17495 3.46388 4.33159 3.4549 4.98981 3.4549H11.7776C12.4358 3.4549 12.5925 3.46388 12.6988 3.49841C12.9694 3.58634 13.1815 3.79851 13.2695 4.06913C13.304 4.17541 13.313 4.33205 13.313 4.9903V11.7784C13.313 12.4366 13.304 12.5933 13.2695 12.6996C13.1815 12.9702 12.9694 13.1823 12.6988 13.2703C12.5925 13.3048 12.4358 13.3138 11.7776 13.3138H4.98981C4.33159 13.3138 4.17495 13.3048 4.06867 13.2703C3.79807 13.1823 3.5859 12.9702 3.49798 12.6996C3.46345 12.5933 3.45447 12.4366 3.45447 11.7784V4.9903C3.45447 4.33205 3.46345 4.17541 3.49798 4.06913C3.5859 3.79851 3.79807 3.58634 4.06867 3.49841Z" fill="#191F28"/>
<path d="M18 7.49522C18 7.09344 17.6743 6.76774 17.2726 6.76774C16.8708 6.76774 16.5451 7.09344 16.5451 7.49522V15.0116C16.5451 15.6698 16.5361 15.8265 16.5016 15.9328C16.4137 16.2034 16.2015 16.4156 15.9309 16.5035C15.8246 16.538 15.668 16.547 15.0098 16.547H7.49392C7.0927 16.547 6.76745 16.8723 6.76745 17.2735C6.76745 17.6747 7.0927 18 7.49392 18H14.7155C15.1437 18 15.5083 18 15.8076 17.9756C16.1221 17.9499 16.428 17.8936 16.7205 17.7446C17.1614 17.5199 17.5199 17.1614 17.7446 16.7204C17.8936 16.4279 17.9499 16.122 17.9756 15.8075C18 15.5082 18 15.1436 18 14.7154V7.49522Z" fill="#191F28"/>
</g>
</g>
</svg>
