<svg preserveAspectRatio="none" width="100%" height="100%" overflow="visible" style="display: block;" viewBox="0 0 16 16" fill="none" xmlns="http://www.w3.org/2000/svg">
<g id="Shape">
<g id="Normal">
<path d="M7.46766 8.66629C7.41059 8.97946 7.67746 9.24145 7.99579 9.24145C8.31362 9.24145 8.55473 8.97472 8.66089 8.67515C8.80094 8.27999 9.08502 8.04253 9.36786 7.80611C9.76008 7.47827 10.1499 7.15242 10.1499 6.41078C10.1499 5.26309 9.21996 4.58717 8.03598 4.58717C6.95998 4.58717 6.14849 5.15441 5.91131 6.07521C5.83189 6.38356 6.09914 6.64667 6.41755 6.64667C6.73516 6.64667 6.96846 6.37191 7.11572 6.09051C7.27403 5.788 7.57845 5.61539 7.99062 5.61239C8.55766 5.61692 8.95232 5.94354 8.95232 6.45614C8.95232 6.87126 8.69257 7.06887 8.38689 7.30143C8.02912 7.57361 7.60844 7.89366 7.46766 8.66629Z" fill="#333D4B"/>
<path d="M7.2648 10.6659C7.26027 11.0741 7.56874 11.3735 7.99969 11.3735C8.42157 11.3735 8.73004 11.0741 8.73458 10.6659C8.73004 10.2576 8.42157 9.95819 7.99969 9.95819C7.56874 9.95819 7.26027 10.2576 7.2648 10.6659Z" fill="#333D4B"/>
<path fill-rule="evenodd" clip-rule="evenodd" d="M7.99961 1.5001C4.40976 1.5001 1.49961 4.41025 1.49961 8.0001C1.49961 11.5899 4.40976 14.5001 7.99961 14.5001C11.5895 14.5001 14.4996 11.5899 14.4996 8.0001C14.4996 4.41025 11.5895 1.5001 7.99961 1.5001ZM2.68143 8.0001C2.68143 5.06295 5.06246 2.68192 7.99961 2.68192C10.9368 2.68192 13.3178 5.06295 13.3178 8.0001C13.3178 10.9372 10.9368 13.3183 7.99961 13.3183C5.06246 13.3183 2.68143 10.9372 2.68143 8.0001Z" fill="#333D4B"/>
</g>
</g>
</svg>
