<svg preserveAspectRatio="none" width="100%" height="100%" overflow="visible" style="display: block;" viewBox="0 0 24 24" fill="none" xmlns="http://www.w3.org/2000/svg">
<g id="Shape">
<g id="Normal">
<path fill-rule="evenodd" clip-rule="evenodd" d="M6.10562 3C5.57044 2.99999 5.11465 2.99998 4.7405 3.03055C4.34741 3.06266 3.96499 3.133 3.59941 3.31929C3.04823 3.60014 2.60011 4.04827 2.31927 4.59947C2.133 4.96507 2.06266 5.3475 2.03055 5.74061C1.99998 6.11476 1.99999 6.57048 2 7.10567V14.8543C1.99999 15.3895 1.99998 15.8453 2.03055 16.2195C2.06266 16.6126 2.133 16.995 2.31927 17.3606C2.60011 17.9118 3.04823 18.3599 3.59941 18.6408C3.96499 18.8271 4.34741 18.8974 4.7405 18.9295C5.11466 18.9601 5.5704 18.9601 6.10561 18.9601H13.8538C14.389 18.9601 14.8448 18.9601 15.2189 18.9295C15.612 18.8974 15.9944 18.8271 16.36 18.6408C16.9112 18.3599 17.3593 17.9118 17.6402 17.3606C17.8264 16.995 17.8968 16.6126 17.9289 16.2195C17.9595 15.8453 17.9595 15.3895 17.9594 14.8543V7.10578C17.9595 6.57054 17.9595 6.11479 17.9289 5.74061C17.8968 5.3475 17.8264 4.96507 17.6402 4.59947C17.3593 4.04827 16.9112 3.60014 16.36 3.31929C15.9944 3.133 15.612 3.06266 15.2189 3.03055C14.8448 2.99998 14.3891 2.99999 13.8539 3H6.10562ZM4.58584 4.87301C4.71869 4.82985 4.91448 4.81863 5.73726 4.81863H14.222C15.0448 4.81863 15.2406 4.82985 15.3734 4.87301C15.7117 4.98293 15.9769 5.24814 16.0868 5.58641C16.13 5.71927 16.1412 5.91506 16.1412 6.73788V15.223C16.1412 16.0458 16.13 16.2416 16.0868 16.3745C15.9769 16.7127 15.7117 16.9779 15.3734 17.0878C15.2406 17.131 15.0448 17.1422 14.222 17.1422H5.73726C4.91448 17.1422 4.71869 17.131 4.58584 17.0878C4.24758 16.9779 3.98238 16.7127 3.87247 16.3745C3.82931 16.2416 3.81809 16.0458 3.81809 15.223V6.73788C3.81809 5.91506 3.82931 5.71927 3.87247 5.58641C3.98238 5.24814 4.24758 4.98293 4.58584 4.87301Z" fill="#191F28"/>
<path d="M22 9.86902C22 9.3668 21.5929 8.95968 21.0907 8.95968C20.5885 8.95968 20.1814 9.3668 20.1814 9.86902V19.2645C20.1814 20.0873 20.1702 20.2831 20.127 20.416C20.0171 20.7542 19.7519 21.0195 19.4136 21.1294C19.2808 21.1725 19.085 21.1837 18.2622 21.1837H8.86741C8.36588 21.1837 7.95931 21.5903 7.95931 22.0919C7.95931 22.5934 8.36588 23 8.86741 23H17.8944C18.4296 23 18.8854 23 19.2595 22.9695C19.6526 22.9373 20.035 22.867 20.4006 22.6807C20.9518 22.3999 21.3999 21.9517 21.6807 21.4005C21.867 21.0349 21.9373 20.6525 21.9695 20.2594C22 19.8852 22 19.4295 22 18.8943V9.86902Z" fill="#191F28"/>
</g>
</g>
</svg>
