<svg preserveAspectRatio="none" width="100%" height="100%" overflow="visible" style="display: block;" viewBox="0 0 24 24" fill="none" xmlns="http://www.w3.org/2000/svg">
<g id="Shape">
<path id="Normal" fill-rule="evenodd" clip-rule="evenodd" d="M2 12C2 6.47715 6.47715 2 12 2C17.5228 2 22 6.47715 22 12C22 17.5228 17.5228 22 12 22C6.47715 22 2 17.5228 2 12ZM16.6936 9.85438C17.0428 9.49362 17.0335 8.91809 16.6727 8.56891C16.3119 8.21972 15.7364 8.2291 15.3872 8.58986L10.664 13.4696L8.6137 11.3456C8.265 10.9843 7.68949 10.9742 7.32825 11.3229C6.96701 11.6716 6.95685 12.2471 7.30554 12.6083L10.0091 15.4091C10.1802 15.5864 10.416 15.6866 10.6625 15.6868C10.909 15.6869 11.1449 15.587 11.3163 15.4099L16.6936 9.85438Z" fill="var(--fill-0, #15C47E)"/>
<path id="Normal_2" d="M16.6939 9.85458C17.0431 9.49382 17.0337 8.91829 16.6729 8.56911C16.3122 8.21992 15.7367 8.2293 15.3875 8.59006L10.6643 13.4698L8.61395 11.3458C8.26525 10.9845 7.68974 10.9744 7.3285 11.3231C6.96727 11.6718 6.9571 12.2473 7.3058 12.6085L10.0093 15.4093C10.1805 15.5866 10.4163 15.6868 10.6628 15.687C10.9092 15.6871 11.1452 15.5872 11.3166 15.4101L16.6939 9.85458Z" fill="var(--fill-0, white)"/>
</g>
</svg>
