<svg preserveAspectRatio="none" width="100%" height="100%" overflow="visible" style="display: block;" viewBox="0 0 16 16" fill="none" xmlns="http://www.w3.org/2000/svg">
<g id="Shape">
<g id="Normal">
<path d="M8.59061 5.37371C8.59061 5.04736 8.32605 4.7828 7.9997 4.7828C7.67335 4.7828 7.40879 5.04736 7.40879 5.37371V7.40907H5.37343C5.04708 7.40907 4.78252 7.67363 4.78252 7.99998C4.78252 8.32633 5.04708 8.59089 5.37343 8.59089H7.40879V10.6262C7.40879 10.9526 7.67335 11.2172 7.9997 11.2172C8.32605 11.2172 8.59061 10.9526 8.59061 10.6262V8.59089H10.626C10.9523 8.59089 11.2169 8.32633 11.2169 7.99998C11.2169 7.67363 10.9523 7.40907 10.626 7.40907H8.59061V5.37371Z" fill="#191F28"/>
<path fill-rule="evenodd" clip-rule="evenodd" d="M7.99967 1.50004C4.40982 1.50004 1.49967 4.41019 1.49967 8.00004C1.49967 11.5899 4.40982 14.5 7.99967 14.5C11.5895 14.5 14.4997 11.5899 14.4997 8.00004C14.4997 4.41019 11.5895 1.50004 7.99967 1.50004ZM2.68149 8.00004C2.68149 5.06289 5.06252 2.68186 7.99967 2.68186C10.9368 2.68186 13.3179 5.06289 13.3179 8.00004C13.3179 10.9372 10.9368 13.3182 7.99967 13.3182C5.06252 13.3182 2.68149 10.9372 2.68149 8.00004Z" fill="#191F28"/>
</g>
</g>
</svg>
