<svg preserveAspectRatio="none" width="100%" height="100%" overflow="visible" style="display: block;" viewBox="0 0 16 16" fill="none" xmlns="http://www.w3.org/2000/svg">
<g id="Shape">
<path id="Normal" fill-rule="evenodd" clip-rule="evenodd" d="M1.33321 8.00003C1.33321 4.31811 4.31798 1.33333 7.99988 1.33333C11.6818 1.33333 14.6665 4.31811 14.6665 8.00003C14.6665 11.6819 11.6818 14.6667 7.99988 14.6667C4.31798 14.6667 1.33321 11.6819 1.33321 8.00003ZM7.99994 4.70028C8.33466 4.70028 8.606 4.97163 8.606 5.30635V8.33666C8.606 8.67138 8.33466 8.94272 7.99994 8.94272C7.66522 8.94272 7.39388 8.67138 7.39388 8.33666V5.30635C7.39388 4.97163 7.66522 4.70028 7.99994 4.70028ZM8.67326 10.6936C8.67326 11.0655 8.37177 11.367 7.99986 11.367C7.62795 11.367 7.32646 11.0655 7.32646 10.6936C7.32646 10.3217 7.62795 10.0202 7.99986 10.0202C8.37177 10.0202 8.67326 10.3217 8.67326 10.6936Z" fill="var(--fill-0, #FF4242)"/>
</g>
</svg>
