<svg preserveAspectRatio="none" width="100%" height="100%" overflow="visible" style="display: block;" viewBox="0 0 16 16" fill="none" xmlns="http://www.w3.org/2000/svg">
<g id="Shape">
<path id="Union" d="M10.3333 1C10.7015 1 11 1.30526 11 1.68182V2.36364H12.3333C12.8638 2.36364 13.3723 2.57929 13.7474 2.96289C14.1225 3.34649 14.3333 3.8666 14.3333 4.40909V9.18182C14.3333 9.55838 14.0349 9.86364 13.6667 9.86364C13.2985 9.86364 13 9.55838 13 9.18182V7.81818H2.33333V13.9545C2.33333 14.1354 2.40362 14.3087 2.52865 14.4366C2.65367 14.5645 2.82319 14.6364 3 14.6364H8.33333C8.70152 14.6364 9 14.9416 9 15.3182C9 15.6947 8.70152 16 8.33333 16H3C2.46957 16 1.96101 15.7843 1.58594 15.4007C1.21086 15.0171 1 14.497 1 13.9545V4.40909C1 3.8666 1.21086 3.34649 1.58594 2.96289C1.96101 2.57929 2.46957 2.36364 3 2.36364H4.33333V1.68182C4.33333 1.30526 4.63181 1 5 1C5.36819 1 5.66667 1.30526 5.66667 1.68182V2.36364H9.66667V1.68182C9.66667 1.30526 9.96514 1 10.3333 1ZM12.3333 10.5455C12.7015 10.5455 13 10.8507 13 11.2273V12.5909H14.3333C14.7015 12.5909 15 12.8962 15 13.2727C15 13.6493 14.7015 13.9545 14.3333 13.9545H13V15.3182C13 15.6947 12.7015 16 12.3333 16C11.9651 16 11.6667 15.6947 11.6667 15.3182V13.9545H10.3333C9.96514 13.9545 9.66667 13.6493 9.66667 13.2727C9.66667 12.8962 9.96514 12.5909 10.3333 12.5909H11.6667V11.2273C11.6667 10.8507 11.9651 10.5455 12.3333 10.5455ZM3 3.72727C2.82319 3.72727 2.65367 3.79916 2.52865 3.92702C2.40362 4.05489 2.33333 4.22826 2.33333 4.40909V6.45455H13V4.40909C13 4.22826 12.9297 4.05489 12.8047 3.92702C12.6797 3.79916 12.5101 3.72727 12.3333 3.72727H11V4.40909C11 4.78565 10.7015 5.09091 10.3333 5.09091C9.96514 5.09091 9.66667 4.78565 9.66667 4.40909V3.72727H5.66667V4.40909C5.66667 4.78565 5.36819 5.09091 5 5.09091C4.63181 5.09091 4.33333 4.78565 4.33333 4.40909V3.72727H3Z" fill="var(--fill-0, #1A1E27)"/>
</g>
</svg>
