<svg preserveAspectRatio="none" width="100%" height="100%" overflow="visible" style="display: block;" viewBox="0 0 24 24" fill="none" xmlns="http://www.w3.org/2000/svg">
<g id="Shape">
<path id="Normal" fill-rule="evenodd" clip-rule="evenodd" d="M9.44241 1.88671C9.44241 1.39699 9.04607 1 8.55716 1C8.06825 1 7.67192 1.39699 7.67192 1.88671V2.97025H6.99797C6.4768 2.97023 6.03299 2.97022 5.66864 3.00004C5.28586 3.03137 4.91347 3.09997 4.55747 3.28166C4.02075 3.55559 3.58438 3.99268 3.3109 4.53029C3.12951 4.88688 3.06102 5.25988 3.02974 5.6433C2.99998 6.00824 2.99999 6.45273 3 6.97474V16.9954C2.99999 17.5174 2.99998 17.962 3.02974 18.327C3.06102 18.7104 3.12951 19.0834 3.3109 19.44C3.58438 19.9776 4.02075 20.4147 4.55747 20.6886C4.91347 20.8703 5.28586 20.9389 5.66864 20.9702C6.03298 21 6.47673 21 6.99787 21H17.002C17.5232 21 17.967 21 18.3314 20.9702C18.7141 20.9389 19.0865 20.8703 19.4425 20.6886C19.9793 20.4147 20.4156 19.9776 20.6891 19.44C20.8705 19.0834 20.939 18.7104 20.9703 18.327C21 17.962 21 17.5175 21 16.9955V6.97482C21 6.45282 21 6.00824 20.9703 5.6433C20.939 5.25988 20.8705 4.88688 20.6891 4.53029C20.4156 3.99268 19.9793 3.55559 19.4425 3.28166C19.0865 3.09997 18.7141 3.03137 18.3314 3.00004C17.967 2.97022 17.5232 2.97023 17.0021 2.97025H16.3277V1.88673C16.3277 1.39702 15.9313 1.00002 15.4424 1.00002C14.9535 1.00002 14.5572 1.39702 14.5572 1.88673V2.97025H9.44241V1.88671ZM14.5572 5.82766V4.74366H9.44241V5.82764C9.44241 6.31735 9.04607 6.71435 8.55716 6.71435C8.06825 6.71435 7.67192 6.31735 7.67192 5.82764V4.74366H6.63937C5.83816 4.74366 5.6475 4.7546 5.51814 4.79671C5.18874 4.90391 4.9305 5.16258 4.82347 5.49252C4.78144 5.6221 4.77051 5.81307 4.77051 6.6156V8.63531H19.2295V6.6156C19.2295 5.81307 19.2186 5.6221 19.1766 5.49252C19.0695 5.16258 18.8113 4.90391 18.4819 4.79671C18.3525 4.7546 18.1619 4.74366 17.3607 4.74366H16.3277V5.82766C16.3277 6.31738 15.9313 6.71437 15.4424 6.71437C14.9535 6.71437 14.5572 6.31738 14.5572 5.82766ZM19.2295 10.4087H4.77051V17.3546C4.77051 18.1572 4.78144 18.3481 4.82347 18.4777C4.9305 18.8077 5.18874 19.0663 5.51814 19.1735C5.6475 19.2156 5.83816 19.2266 6.63937 19.2266H17.3607C18.1619 19.2266 18.3525 19.2156 18.4819 19.1735C18.8113 19.0663 19.0695 18.8077 19.1766 18.4777C19.2186 18.3481 19.2295 18.1572 19.2295 17.3546V10.4087Z" fill="var(--fill-0, #191F28)"/>
</g>
</svg>
