<svg preserveAspectRatio="none" width="100%" height="100%" overflow="visible" style="display: block;" viewBox="0 0 24 24" fill="none" xmlns="http://www.w3.org/2000/svg">
<g id="Shape">
<g id="Normal">
<path d="M12.9091 7.9595C12.9091 7.45742 12.5021 7.05041 12 7.05041C11.498 7.05041 11.0909 7.45742 11.0909 7.9595V11.0908H7.95963C7.45755 11.0908 7.05054 11.4978 7.05054 11.9999C7.05054 12.502 7.45755 12.909 7.95963 12.909H11.0909V16.0403C11.0909 16.5424 11.498 16.9494 12 16.9494C12.5021 16.9494 12.9091 16.5424 12.9091 16.0403V12.909H16.0404C16.5425 12.909 16.9495 12.502 16.9495 11.9999C16.9495 11.4978 16.5425 11.0908 16.0404 11.0908H12.9091V7.9595Z" fill="#191F28"/>
<path fill-rule="evenodd" clip-rule="evenodd" d="M12 2C6.47715 2 2 6.47715 2 12C2 17.5228 6.47715 22 12 22C17.5229 22 22 17.5228 22 12C22 6.47715 17.5229 2 12 2ZM3.81818 12C3.81818 7.48131 7.48131 3.81818 12 3.81818C16.5187 3.81818 20.1818 7.48131 20.1818 12C20.1818 16.5187 16.5187 20.1818 12 20.1818C7.48131 20.1818 3.81818 16.5187 3.81818 12Z" fill="#191F28"/>
</g>
</g>
</svg>
