<svg preserveAspectRatio="none" width="100%" height="100%" overflow="visible" style="display: block;" viewBox="0 0 16 16" fill="none" xmlns="http://www.w3.org/2000/svg">
<g id="Shape">
<path id="Normal" fill-rule="evenodd" clip-rule="evenodd" d="M1 8C1 4.13401 4.13401 1 8 1C11.866 1 15 4.13401 15 8C15 11.866 11.866 15 8 15C4.13401 15 1 11.866 1 8ZM11.2856 6.49807C11.53 6.24553 11.5234 5.84267 11.2709 5.59823C11.0183 5.3538 10.6155 5.36037 10.371 5.6129L7.06481 9.02874L5.62959 7.5419C5.3855 7.28904 4.98264 7.28192 4.72977 7.52601C4.47691 7.7701 4.46979 8.17296 4.71388 8.42582L6.60634 10.3863C6.72615 10.5105 6.89123 10.5806 7.06376 10.5807C7.23628 10.5809 7.40146 10.5109 7.52144 10.387L11.2856 6.49807Z" fill="var(--fill-0, #15C47E)"/>
<path id="Normal_2" d="M11.1293 6.56972C11.3621 6.32921 11.3558 5.94553 11.1153 5.71274C10.8748 5.47995 10.4911 5.4862 10.2583 5.72671L7.10951 8.97989L5.74263 7.56385C5.51017 7.32303 5.12649 7.31625 4.88567 7.54871C4.64484 7.78118 4.63807 8.16485 4.87053 8.40568L6.67287 10.2728C6.78698 10.3911 6.9442 10.4579 7.10851 10.458C7.27281 10.4581 7.43012 10.3915 7.5444 10.2734L11.1293 6.56972Z" fill="var(--fill-0, white)"/>
</g>
</svg>
