<svg preserveAspectRatio="none" width="100%" height="100%" overflow="visible" style="display: block;" viewBox="0 0 24 24" fill="none" xmlns="http://www.w3.org/2000/svg">
<g id="Shape">
<path id="Normal" d="M5.26717 5.26717C5.62339 4.91094 6.20094 4.91094 6.55716 5.26717L12.5 11.21L18.4428 5.26717C18.7991 4.91094 19.3766 4.91094 19.7328 5.26717C20.0891 5.62339 20.0891 6.20094 19.7328 6.55716L13.79 12.5L19.7328 18.4428C20.0891 18.7991 20.0891 19.3766 19.7328 19.7328C19.3766 20.0891 18.7991 20.0891 18.4428 19.7328L12.5 13.79L6.55716 19.7328C6.20094 20.0891 5.62339 20.0891 5.26717 19.7328C4.91094 19.3766 4.91094 18.7991 5.26717 18.4428L11.21 12.5L5.26717 6.55716C4.91094 6.20094 4.91094 5.62339 5.26717 5.26717Z" fill="var(--fill-0, #191F28)"/>
</g>
</svg>
