<svg width="24" height="24" viewBox="0 0 24 24" fill="none" xmlns="http://www.w3.org/2000/svg">
<path fill-rule="evenodd" clip-rule="evenodd" d="M11.9996 7.30576C9.26739 7.30576 7.05249 9.52289 7.05249 12.2579C7.05249 14.9928 9.26739 17.21 11.9996 17.21C14.7318 17.21 16.9467 14.9928 16.9467 12.2579C16.9467 9.52289 14.7318 7.30576 11.9996 7.30576ZM8.8698 12.2579C8.8698 10.5276 10.2711 9.1249 11.9996 9.1249C13.7282 9.1249 15.1294 10.5276 15.1294 12.2579C15.1294 13.9881 13.7282 15.3908 11.9996 15.3908C10.2711 15.3908 8.8698 13.9881 8.8698 12.2579Z" fill="#191F28"/>
<path fill-rule="evenodd" clip-rule="evenodd" d="M10.6462 2.00005C10.1793 1.99964 9.78542 1.9993 9.40868 2.10077C9.07755 2.18995 8.76463 2.33668 8.48422 2.53425C8.16519 2.75903 7.91333 3.06216 7.61474 3.42154L6.27437 5.032L5.60369 5.032C5.06872 5.03199 4.6132 5.03197 4.23921 5.06256C3.8463 5.0947 3.46407 5.16507 3.09866 5.35144C2.54774 5.63243 2.09983 6.08079 1.81912 6.63227C1.63294 6.99805 1.56263 7.38067 1.53053 7.77397C1.49998 8.14832 1.49999 8.60427 1.5 9.13974V16.8922C1.49999 17.4277 1.49998 17.8837 1.53053 18.258C1.56263 18.6513 1.63294 19.034 1.81912 19.3997C2.09983 19.9512 2.54774 20.3996 3.09866 20.6806C3.46407 20.8669 3.8463 20.9373 4.23921 20.9694C4.61318 21 5.06868 21 5.60362 21H18.3963C18.9313 21 19.3868 21 19.7608 20.9694C20.1537 20.9373 20.5359 20.8669 20.9013 20.6806C21.4523 20.3996 21.9002 19.9512 22.1809 19.3997C22.3671 19.034 22.4374 18.6513 22.4695 18.258C22.5 17.8837 22.5 17.4277 22.5 16.8922V9.13981C22.5 8.60434 22.5 8.14832 22.4695 7.77397C22.4374 7.38067 22.3671 6.99805 22.1809 6.63227C21.9002 6.08079 21.4523 5.63243 20.9013 5.35144C20.5359 5.16507 20.1537 5.0947 19.7608 5.06256C19.3868 5.03197 18.9313 5.03199 18.3963 5.032L17.7265 5.032L16.3851 3.42096C16.0866 3.06173 15.8347 2.75871 15.5157 2.53403C15.2353 2.33654 14.9225 2.18987 14.5914 2.10072C14.2147 1.9993 13.821 1.99964 13.3541 2.00005L10.6462 2.00005ZM9.97586 3.83634C10.0535 3.82257 10.1449 3.81931 10.5478 3.81931H13.4526C13.8554 3.81931 13.9468 3.82257 14.0244 3.83633C14.2171 3.87047 14.3974 3.95498 14.5469 4.08129C14.6072 4.13218 14.6682 4.20035 14.9261 4.51009L16.3911 6.2695L16.4031 6.28405C16.4461 6.33613 16.5271 6.43423 16.626 6.51779C16.8164 6.67855 17.0458 6.7861 17.2911 6.82955C17.4186 6.85214 17.5457 6.85157 17.6131 6.85127L17.632 6.85121H18.7645C19.5869 6.85121 19.7826 6.86243 19.9153 6.90562C20.2534 7.01559 20.5185 7.28093 20.6284 7.61937C20.6715 7.75229 20.6827 7.94819 20.6827 8.77141V17.2607C20.6827 18.084 20.6715 18.2798 20.6284 18.4128C20.5185 18.7512 20.2534 19.0166 19.9153 19.1265C19.7826 19.1697 19.5869 19.1809 18.7645 19.1809H5.23561C4.41322 19.1809 4.21752 19.1697 4.08473 19.1265C3.74663 19.0166 3.48156 18.7512 3.3717 18.4128C3.32856 18.2798 3.31734 18.084 3.31734 17.2607V8.77141C3.31734 7.94819 3.32856 7.75229 3.3717 7.61937C3.48156 7.28093 3.74663 7.01559 4.08473 6.90562C4.21752 6.86243 4.41322 6.85121 5.23561 6.85121H6.36899L6.38786 6.85127C6.45534 6.85157 6.58246 6.85215 6.71 6.82954C6.9553 6.78607 7.18477 6.67847 7.37515 6.51765C7.47414 6.43403 7.55507 6.3359 7.59803 6.28382L7.61006 6.26927L9.07405 4.51037C9.33196 4.20051 9.39296 4.13231 9.45323 4.0814C9.60282 3.95504 9.78312 3.87049 9.97586 3.83634Z" fill="#191F28"/>
</svg>
