<svg preserveAspectRatio="none" width="100%" height="100%" overflow="visible" style="display: block;" viewBox="0 0 24 24" fill="none" xmlns="http://www.w3.org/2000/svg">
<g id="Shape">
<path id="Normal" fill-rule="evenodd" clip-rule="evenodd" d="M1.99939 12.0001C1.99939 6.47723 6.47654 2.00006 11.9994 2.00006C17.5222 2.00006 21.9994 6.47723 21.9994 12.0001C21.9994 17.523 17.5222 22.0001 11.9994 22.0001C6.47654 22.0001 1.99939 17.523 1.99939 12.0001ZM11.9995 7.05048C12.5016 7.05048 12.9086 7.4575 12.9086 7.95958V12.5051C12.9086 13.0071 12.5016 13.4141 11.9995 13.4141C11.4974 13.4141 11.0904 13.0071 11.0904 12.5051V7.95958C11.0904 7.4575 11.4974 7.05048 11.9995 7.05048ZM13.0095 16.0404C13.0095 16.5983 12.5572 17.0505 11.9994 17.0505C11.4415 17.0505 10.9893 16.5983 10.9893 16.0404C10.9893 15.4826 11.4415 15.0303 11.9994 15.0303C12.5572 15.0303 13.0095 15.4826 13.0095 16.0404Z" fill="var(--fill-0, white)"/>
</g>
</svg>
