<svg preserveAspectRatio="none" width="100%" height="100%" overflow="visible" style="display: block;" viewBox="0 0 24 24" fill="none" xmlns="http://www.w3.org/2000/svg">
<g id="Shape">
<g id="Normal">
<path fill-rule="evenodd" clip-rule="evenodd" d="M12.4996 7.30576C9.76739 7.30576 7.55249 9.52289 7.55249 12.2579C7.55249 14.9928 9.76739 17.21 12.4996 17.21C15.2318 17.21 17.4467 14.9928 17.4467 12.2579C17.4467 9.52289 15.2318 7.30576 12.4996 7.30576ZM9.3698 12.2579C9.3698 10.5276 10.7711 9.1249 12.4996 9.1249C14.2282 9.1249 15.6294 10.5276 15.6294 12.2579C15.6294 13.9881 14.2282 15.3908 12.4996 15.3908C10.7711 15.3908 9.3698 13.9881 9.3698 12.2579Z" fill="#191F28"/>
<path fill-rule="evenodd" clip-rule="evenodd" d="M11.1462 2.00005C10.6793 1.99964 10.2854 1.9993 9.90868 2.10077C9.57755 2.18995 9.26463 2.33668 8.98422 2.53425C8.66519 2.75903 8.41333 3.06216 8.11474 3.42154L6.77437 5.032L6.10369 5.032C5.56872 5.03199 5.1132 5.03197 4.73921 5.06256C4.3463 5.0947 3.96407 5.16507 3.59866 5.35144C3.04774 5.63243 2.59983 6.08079 2.31912 6.63227C2.13294 6.99805 2.06263 7.38067 2.03053 7.77397C1.99998 8.14832 1.99999 8.60427 2 9.13974V16.8922C1.99999 17.4277 1.99998 17.8837 2.03053 18.258C2.06263 18.6513 2.13294 19.034 2.31912 19.3997C2.59983 19.9512 3.04774 20.3996 3.59866 20.6806C3.96407 20.8669 4.3463 20.9373 4.73921 20.9694C5.11319 21 5.56868 21 6.10362 21H18.8963C19.4313 21 19.8868 21 20.2608 20.9694C20.6537 20.9373 21.0359 20.8669 21.4013 20.6806C21.9523 20.3996 22.4002 19.9512 22.6809 19.3997C22.8671 19.034 22.9374 18.6513 22.9695 18.258C23 17.8837 23 17.4277 23 16.8922V9.13981C23 8.60434 23 8.14832 22.9695 7.77397C22.9374 7.38067 22.8671 6.99805 22.6809 6.63227C22.4002 6.08079 21.9523 5.63243 21.4013 5.35144C21.0359 5.16507 20.6537 5.0947 20.2608 5.06256C19.8868 5.03197 19.4313 5.03199 18.8963 5.032L18.2265 5.032L16.8851 3.42096C16.5866 3.06173 16.3347 2.75871 16.0157 2.53403C15.7353 2.33654 15.4225 2.18987 15.0914 2.10072C14.7147 1.9993 14.321 1.99964 13.8541 2.00005L11.1462 2.00005ZM10.4759 3.83634C10.5535 3.82257 10.6449 3.81931 11.0478 3.81931H13.9526C14.3554 3.81931 14.4468 3.82257 14.5244 3.83633C14.7171 3.87047 14.8974 3.95498 15.0469 4.08129C15.1072 4.13218 15.1682 4.20035 15.4261 4.51009L16.8911 6.2695L16.9031 6.28405C16.9461 6.33613 17.0271 6.43423 17.126 6.51779C17.3164 6.67855 17.5458 6.7861 17.7911 6.82955C17.9186 6.85214 18.0457 6.85157 18.1131 6.85127L18.132 6.85121H19.2645C20.0869 6.85121 20.2826 6.86243 20.4153 6.90562C20.7534 7.01559 21.0185 7.28093 21.1284 7.61937C21.1715 7.75229 21.1827 7.94819 21.1827 8.77141V17.2607C21.1827 18.084 21.1715 18.2798 21.1284 18.4128C21.0185 18.7512 20.7534 19.0166 20.4153 19.1265C20.2826 19.1697 20.0869 19.1809 19.2645 19.1809H5.73561C4.91322 19.1809 4.71752 19.1697 4.58473 19.1265C4.24663 19.0166 3.98156 18.7512 3.8717 18.4128C3.82856 18.2798 3.81734 18.084 3.81734 17.2607V8.77141C3.81734 7.94819 3.82856 7.75229 3.8717 7.61937C3.98156 7.28093 4.24663 7.01559 4.58473 6.90562C4.71752 6.86243 4.91322 6.85121 5.73561 6.85121H6.86899L6.88786 6.85127C6.95534 6.85157 7.08246 6.85215 7.21 6.82954C7.4553 6.78607 7.68477 6.67847 7.87515 6.51765C7.97414 6.43403 8.05507 6.3359 8.09803 6.28382L8.11006 6.26927L9.57405 4.51037C9.83196 4.20051 9.89296 4.13231 9.95323 4.0814C10.1028 3.95504 10.2831 3.87049 10.4759 3.83634Z" fill="#191F28"/>
</g>
</g>
</svg>
