<svg width="16" height="16" viewBox="0 0 16 16" fill="none" xmlns="http://www.w3.org/2000/svg">
<path d="M8.15655 10.1262C8.15655 10.4888 7.86259 10.7828 7.49998 10.7828C7.13737 10.7828 6.84342 10.4888 6.84342 10.1262C6.84342 9.76359 7.13737 9.46963 7.49998 9.46963C7.86259 9.46963 8.15655 9.76359 8.15655 10.1262Z" fill="#FF4242"/>
<path d="M8.09097 4.87367C8.09097 4.54732 7.82641 4.28276 7.50006 4.28276C7.17371 4.28276 6.90915 4.54732 6.90915 4.87367V7.82822C6.90915 8.15457 7.17371 8.41913 7.50006 8.41913C7.82641 8.41913 8.09097 8.15457 8.09097 7.82822V4.87367Z" fill="#FF4242"/>
<path fill-rule="evenodd" clip-rule="evenodd" d="M1 7.5C1 3.91015 3.91015 1 7.5 1C11.0899 1 14 3.91015 14 7.5C14 11.0899 11.0899 14 7.5 14C3.91015 14 1 11.0899 1 7.5ZM7.5 2.18182C4.56285 2.18182 2.18182 4.56285 2.18182 7.5C2.18182 10.4372 4.56285 12.8182 7.5 12.8182C10.4372 12.8182 12.8182 10.4372 12.8182 7.5C12.8182 4.56285 10.4372 2.18182 7.5 2.18182Z" fill="#FF4242"/>
</svg>
