<svg preserveAspectRatio="none" width="100%" height="100%" overflow="visible" style="display: block;" viewBox="0 0 12 12" fill="none" xmlns="http://www.w3.org/2000/svg">
<g id="Shape">
<g id="Normal">
<path d="M6.50504 8.02015C6.50504 8.29908 6.27892 8.5252 5.99999 8.5252C5.72105 8.5252 5.49494 8.29908 5.49494 8.02015C5.49494 7.74122 5.72105 7.5151 5.99999 7.5151C6.27892 7.5151 6.50504 7.74122 6.50504 8.02015Z" fill="#6B7684"/>
<path d="M6.45459 3.97975C6.45459 3.72871 6.25109 3.5252 6.00005 3.5252C5.74901 3.5252 5.5455 3.72871 5.5455 3.97975V6.25248C5.5455 6.50352 5.74901 6.70702 6.00005 6.70702C6.25109 6.70702 6.45459 6.50352 6.45459 6.25248V3.97975Z" fill="#6B7684"/>
<path fill-rule="evenodd" clip-rule="evenodd" d="M1 6C1 3.23858 3.23858 1 6 1C8.76142 1 11 3.23858 11 6C11 8.76142 8.76142 11 6 11C3.23858 11 1 8.76142 1 6ZM6 1.90909C3.74065 1.90909 1.90909 3.74065 1.90909 6C1.90909 8.25935 3.74065 10.0909 6 10.0909C8.25935 10.0909 10.0909 8.25935 10.0909 6C10.0909 3.74065 8.25935 1.90909 6 1.90909Z" fill="#6B7684"/>
</g>
</g>
</svg>
