<svg preserveAspectRatio="none" width="100%" height="100%" overflow="visible" style="display: block;" viewBox="0 0 16 16" fill="none" xmlns="http://www.w3.org/2000/svg">
<g id="Shape">
<path id="Normal" fill-rule="evenodd" clip-rule="evenodd" d="M6.29494 1.57636C6.29494 1.25805 6.03071 1 5.70477 1C5.37884 1 5.11461 1.25805 5.11461 1.57636V2.28066H4.66531C4.31786 2.28065 4.02199 2.28064 3.77909 2.30003C3.52391 2.32039 3.27565 2.36498 3.03831 2.48308C2.6805 2.66113 2.38958 2.94524 2.20727 3.29469C2.08634 3.52647 2.04068 3.76893 2.01983 4.01814C1.99998 4.25536 1.99999 4.54428 2 4.88358V11.397C1.99999 11.7363 1.99998 12.0253 2.01983 12.2625C2.04068 12.5117 2.08634 12.7542 2.20727 12.986C2.38958 13.3354 2.6805 13.6195 3.03831 13.7976C3.27565 13.9157 3.52391 13.9603 3.77909 13.9806C4.02199 14 4.31782 14 4.66525 14H11.3347C11.6821 14 11.978 14 12.2209 13.9806C12.4761 13.9603 12.7244 13.9157 12.9617 13.7976C13.3195 13.6195 13.6104 13.3354 13.7927 12.986C13.9137 12.7542 13.9593 12.5117 13.9802 12.2625C14 12.0253 14 11.7364 14 11.3971V4.88363C14 4.54433 14 4.25535 13.9802 4.01814C13.9593 3.76893 13.9137 3.52647 13.7927 3.29469C13.6104 2.94524 13.3195 2.66113 12.9617 2.48308C12.7244 2.36498 12.4761 2.32039 12.2209 2.30003C11.978 2.28064 11.6822 2.28065 11.3347 2.28066H10.8851V1.57638C10.8851 1.25806 10.6209 1.00002 10.2949 1.00002C9.969 1.00002 9.70477 1.25806 9.70477 1.57638V2.28066H6.29494V1.57636ZM9.70477 4.13798V3.43338H6.29494V4.13796C6.29494 4.45628 6.03071 4.71433 5.70477 4.71433C5.37884 4.71433 5.11461 4.45628 5.11461 4.13796V3.43338H4.42624C3.89211 3.43338 3.765 3.44049 3.67876 3.46786C3.45916 3.53754 3.287 3.70568 3.21565 3.92014C3.18762 4.00436 3.18034 4.1285 3.18034 4.65014V5.96295H12.8197V4.65014C12.8197 4.1285 12.8124 4.00436 12.7844 3.92014C12.713 3.70568 12.5409 3.53754 12.3213 3.46786C12.235 3.44049 12.1079 3.43338 11.5738 3.43338H10.8851V4.13798C10.8851 4.4563 10.6209 4.71434 10.2949 4.71434C9.969 4.71434 9.70477 4.4563 9.70477 4.13798ZM12.8197 7.11567H3.18034V11.6305C3.18034 12.1522 3.18762 12.2763 3.21565 12.3605C3.287 12.575 3.45916 12.7431 3.67876 12.8128C3.765 12.8402 3.89211 12.8473 4.42624 12.8473H11.5738C12.1079 12.8473 12.235 12.8402 12.3213 12.8128C12.5409 12.7431 12.713 12.575 12.7844 12.3605C12.8124 12.2763 12.8197 12.1522 12.8197 11.6305V7.11567Z" fill="var(--fill-0, #15C47E)"/>
</g>
</svg>
