<svg preserveAspectRatio="none" width="100%" height="100%" overflow="visible" style="display: block;" viewBox="0 0 24 24" fill="none" xmlns="http://www.w3.org/2000/svg">
<g id="Shape">
<g id="Normal">
<path d="M13.0101 16.0403C13.0101 16.5982 12.5578 17.0504 12 17.0504C11.4421 17.0504 10.9899 16.5982 10.9899 16.0403C10.9899 15.4824 11.4421 15.0302 12 15.0302C12.5578 15.0302 13.0101 15.4824 13.0101 16.0403Z" fill="#191F28"/>
<path d="M12.9092 7.9595C12.9092 7.45742 12.5022 7.05041 12.0001 7.05041C11.498 7.05041 11.091 7.45742 11.091 7.9595V12.505C11.091 13.007 11.498 13.414 12.0001 13.414C12.5022 13.414 12.9092 13.007 12.9092 12.505V7.9595Z" fill="#191F28"/>
<path fill-rule="evenodd" clip-rule="evenodd" d="M2 12C2 6.47715 6.47715 2 12 2C17.5229 2 22 6.47715 22 12C22 17.5228 17.5229 22 12 22C6.47715 22 2 17.5228 2 12ZM12 3.81818C7.48131 3.81818 3.81818 7.48131 3.81818 12C3.81818 16.5187 7.48131 20.1818 12 20.1818C16.5187 20.1818 20.1818 16.5187 20.1818 12C20.1818 7.48131 16.5187 3.81818 12 3.81818Z" fill="#191F28"/>
</g>
</g>
</svg>
