<svg preserveAspectRatio="none" width="100%" height="100%" overflow="visible" style="display: block;" viewBox="0 0 24 24" fill="none" xmlns="http://www.w3.org/2000/svg">
<g id="Shape">
<g id="Normal">
<path d="M11.1816 13.0249C11.0938 13.5067 11.5044 13.9098 11.9941 13.9098C12.4831 13.9098 12.854 13.4994 13.0174 13.0385C13.2328 12.4306 13.6699 12.0653 14.105 11.7016C14.7084 11.1972 15.3082 10.6959 15.3082 9.5549C15.3082 7.78922 13.8775 6.74935 12.056 6.74935C10.4006 6.74935 9.15212 7.62202 8.78724 9.03863C8.66505 9.51302 9.07619 9.9178 9.56607 9.9178C10.0547 9.9178 10.4136 9.49509 10.6402 9.06217C10.8837 8.59677 11.3521 8.33123 11.9862 8.3266C12.8585 8.33358 13.4657 8.83606 13.4657 9.62468C13.4657 10.2633 13.0661 10.5673 12.5958 10.9251C12.0454 11.3439 11.3982 11.8363 11.1816 13.0249Z" fill="#191F28"/>
<path d="M10.8695 16.1012C10.8625 16.7293 11.3371 17.1899 12.0001 17.1899C12.6492 17.1899 13.1237 16.7293 13.1307 16.1012C13.1237 15.4731 12.6492 15.0124 12.0001 15.0124C11.3371 15.0124 10.8625 15.4731 10.8695 16.1012Z" fill="#191F28"/>
<path fill-rule="evenodd" clip-rule="evenodd" d="M12 2C6.47715 2 2 6.47715 2 12C2 17.5228 6.47715 22 12 22C17.5229 22 22 17.5228 22 12C22 6.47715 17.5229 2 12 2ZM3.81818 12C3.81818 7.48131 7.48131 3.81818 12 3.81818C16.5187 3.81818 20.1818 7.48131 20.1818 12C20.1818 16.5187 16.5187 20.1818 12 20.1818C7.48131 20.1818 3.81818 16.5187 3.81818 12Z" fill="#191F28"/>
</g>
</g>
</svg>
