<svg preserveAspectRatio="none" width="100%" height="100%" overflow="visible" style="display: block;" viewBox="0 0 24 24" fill="none" xmlns="http://www.w3.org/2000/svg">
<g id="Shape">
<path id="Normal" fill-rule="evenodd" clip-rule="evenodd" d="M12.8653 2.04704C12.626 1.98432 12.374 1.98432 12.1347 2.04704C11.851 2.12141 11.6157 2.30158 11.4918 2.39648L11.4564 2.42345L4.55054 7.60222C4.15962 7.89482 3.82997 8.14156 3.58464 8.46298C3.36907 8.7454 3.20836 9.06432 3.11055 9.4038C2.99922 9.79017 2.9996 10.1968 3.00006 10.6791L3.00011 16.9715C3.0001 17.4967 3.00009 17.9438 3.03067 18.311C3.06281 18.6967 3.13318 19.0719 3.31955 19.4306C3.60054 19.9714 4.0489 20.4111 4.60037 20.6867C4.96615 20.8694 5.34876 20.9385 5.74206 20.97C6.11641 21 6.57237 21 7.10784 20.9999H12.4896C12.4931 21 12.4967 21 12.5003 21C12.5039 21 12.5074 21 12.511 20.9999H17.8921C18.4276 21 18.8836 21 19.2579 20.97C19.6512 20.9385 20.0339 20.8694 20.3996 20.6867C20.9511 20.4111 21.3995 19.9714 21.6804 19.4306C21.8668 19.0719 21.9372 18.6967 21.9693 18.311C21.9999 17.9438 21.9999 17.4967 21.9999 16.9716L21.9999 10.6791C22.0004 10.1968 22.0008 9.79016 21.8895 9.4038C21.7916 9.06432 21.6309 8.7454 21.4154 8.46298C21.17 8.14156 20.8404 7.89482 20.4495 7.60222L13.5436 2.42345L13.5082 2.39649C13.3843 2.30159 13.149 2.12141 12.8653 2.04704ZM13.4099 19.2158H18.2606C19.0838 19.2158 19.2797 19.2048 19.4126 19.1624C19.7511 19.0546 20.0164 18.7944 20.1264 18.4625C20.1695 18.3321 20.1808 18.14 20.1808 17.3327V10.577C20.1808 10.1605 20.1772 10.0659 20.1621 9.98616C20.1246 9.78812 20.0319 9.60414 19.8942 9.45463C19.8388 9.39445 19.7644 9.33417 19.427 9.08116L12.5 3.88645L5.57303 9.08116C5.23565 9.33417 5.16118 9.39445 5.10578 9.45463C4.96814 9.60414 4.87543 9.78812 4.83793 9.98616C4.82284 10.0659 4.81925 10.1605 4.81925 10.577V17.3327C4.81925 18.14 4.83047 18.3321 4.87366 18.4625C4.98363 18.7944 5.24897 19.0546 5.58741 19.1624C5.72033 19.2048 5.91622 19.2158 6.73944 19.2158H11.5907V13.6659C11.5907 13.1732 11.998 12.7739 12.5003 12.7739C13.0026 12.7739 13.4099 13.1732 13.4099 13.6659V19.2158Z" fill="var(--fill-0, #191F28)"/>
</g>
</svg>
