<svg preserveAspectRatio="none" width="100%" height="100%" overflow="visible" style="display: block;" viewBox="0 0 16 16" fill="none" xmlns="http://www.w3.org/2000/svg">
<g id="Shape">
<g id="Normal">
<path d="M6.2299 2.16673C6.2299 1.83536 6.49852 1.56673 6.82989 1.56673H9.16149C9.49286 1.56673 9.76149 1.83536 9.76149 2.16673C9.76149 2.4981 9.49286 2.76673 9.16149 2.76673H6.82989C6.49852 2.76673 6.2299 2.4981 6.2299 2.16673Z" fill="#191F28"/>
<path d="M5.09802 2.15719C5.10805 2.48841 4.84769 2.76506 4.51647 2.77509C3.94527 2.7924 3.70732 2.83766 3.53782 2.92483L3.53176 2.92795C3.27451 3.05657 3.0605 3.27127 2.9153 3.54816C2.82869 3.71756 2.78367 3.95581 2.76642 4.52515C2.75638 4.85637 2.47974 5.11674 2.14852 5.1067C1.81731 5.09666 1.55694 4.82002 1.56698 4.4888C1.58421 3.92011 1.62531 3.43266 1.84902 2.99768L1.85084 2.99413C2.10237 2.51294 2.49145 2.10726 2.99211 1.85609C3.42631 1.63378 3.91278 1.59283 4.48012 1.57564C4.81134 1.56561 5.08798 1.82598 5.09802 2.15719Z" fill="#191F28"/>
<path d="M10.8934 2.15719C10.9034 1.82598 11.18 1.56561 11.5113 1.57564C12.0786 1.59283 12.5651 1.63378 12.9993 1.85609C13.4999 2.10725 13.889 2.51295 14.1405 2.99413L14.1424 2.99767C14.3661 3.43266 14.4072 3.92011 14.4244 4.4888C14.4344 4.82002 14.1741 5.09666 13.8429 5.1067C13.5116 5.11674 13.235 4.85637 13.225 4.52515C13.2077 3.95581 13.1627 3.71756 13.0761 3.54816C12.9309 3.27128 12.7169 3.05654 12.4596 2.92791L12.4535 2.92486C12.284 2.83769 12.0461 2.7924 11.4749 2.77509C11.1437 2.76506 10.8833 2.48841 10.8934 2.15719Z" fill="#191F28"/>
<path d="M2.1667 6.22994C2.49807 6.22994 2.7667 6.49857 2.7667 6.82994V9.16155C2.7667 9.49292 2.49807 9.76155 2.1667 9.76155C1.83533 9.76155 1.5667 9.49292 1.5667 9.16155V6.82994C1.5667 6.49857 1.83533 6.22994 2.1667 6.22994Z" fill="#191F28"/>
<path d="M13.8247 6.22994C14.1561 6.22994 14.4247 6.49857 14.4247 6.82994V9.16155C14.4247 9.49292 14.1561 9.76155 13.8247 9.76155C13.4933 9.76155 13.2247 9.49292 13.2247 9.16155V6.82994C13.2247 6.49857 13.4933 6.22994 13.8247 6.22994Z" fill="#191F28"/>
<path d="M13.8515 10.8934C14.1827 10.9035 14.4431 11.1801 14.433 11.5113C14.4158 12.08 14.3747 12.5675 14.151 13.0025L14.1492 13.006C13.8976 13.4872 13.5085 13.8929 13.0078 14.1441C12.5736 14.3664 12.0872 14.4073 11.5199 14.4245C11.1887 14.4345 10.912 14.1742 10.902 13.8429C10.892 13.5117 11.1523 13.2351 11.4835 13.225C12.0547 13.2077 12.2927 13.1625 12.4622 13.0753L12.4683 13.0722C12.7255 12.9436 12.9395 12.7289 13.0847 12.452C13.1713 12.2826 13.2163 12.0443 13.2336 11.475C13.2436 11.1438 13.5203 10.8834 13.8515 10.8934Z" fill="#191F28"/>
<path d="M2.14852 10.9021C2.47974 10.892 2.75638 11.1524 2.76642 11.4836C2.78373 12.0548 2.82899 12.2928 2.91616 12.4623L2.91928 12.4683C3.0479 12.7256 3.2626 12.9396 3.53949 13.0848C3.70889 13.1714 3.94714 13.2164 4.51647 13.2337C4.84769 13.2437 5.10805 13.5204 5.09802 13.8516C5.08798 14.1828 4.81134 14.4432 4.48012 14.4331C3.91143 14.4159 3.42399 14.3748 2.989 14.1511L2.98546 14.1492C2.50428 13.8977 2.09858 13.5086 1.84742 13.008C1.62511 12.5738 1.58417 12.0873 1.56698 11.52C1.55694 11.1887 1.81731 10.9121 2.14852 10.9021Z" fill="#191F28"/>
<path d="M6.2299 13.8248C6.2299 13.4934 6.49852 13.2248 6.82989 13.2248H9.16149C9.49286 13.2248 9.76149 13.4934 9.76149 13.8248C9.76149 14.1561 9.49286 14.4248 9.16149 14.4248H6.82989C6.49852 14.4248 6.2299 14.1561 6.2299 13.8248Z" fill="#191F28"/>
</g>
</g>
</svg>
