<svg preserveAspectRatio="none" width="100%" height="100%" overflow="visible" style="display: block;" viewBox="0 0 28 28" fill="none" xmlns="http://www.w3.org/2000/svg">
<g id="Shape">
<g id="Normal">
<path d="M10.9023 3.79178C10.9023 3.21188 11.3724 2.74178 11.9523 2.74178H16.0326C16.6125 2.74178 17.0826 3.21188 17.0826 3.79178C17.0826 4.37168 16.6125 4.84178 16.0326 4.84178H11.9523C11.3724 4.84178 10.9023 4.37168 10.9023 3.79178Z" fill="#191F28"/>
<path d="M8.92153 3.77509C8.9391 4.35472 8.48345 4.83885 7.90382 4.85641C6.90422 4.8867 6.48781 4.9659 6.19119 5.11845L6.18058 5.12391C5.73039 5.349 5.35587 5.72473 5.10178 6.20928C4.95021 6.50572 4.87143 6.92267 4.84124 7.91901C4.82367 8.49864 4.33955 8.95429 3.75992 8.93672C3.18029 8.91916 2.72464 8.43503 2.74221 7.8554C2.77237 6.86018 2.84429 6.00716 3.23578 5.24593L3.23897 5.23972C3.67915 4.39765 4.36003 3.6877 5.2362 3.24816C5.99605 2.85912 6.84737 2.78746 7.84021 2.75737C8.41984 2.73981 8.90397 3.19546 8.92153 3.77509Z" fill="#191F28"/>
<path d="M19.0634 3.77509C19.081 3.19546 19.5651 2.73981 20.1447 2.75737C21.1375 2.78746 21.9889 2.85912 22.7487 3.24815C23.6249 3.68769 24.3058 4.39766 24.7459 5.23973L24.7492 5.24592C25.1407 6.00715 25.2126 6.86018 25.2427 7.8554C25.2603 8.43503 24.8046 8.91916 24.225 8.93672C23.6454 8.95429 23.1612 8.49864 23.1437 7.91901C23.1135 6.92267 23.0347 6.50573 22.8831 6.20929C22.6291 5.72473 22.2546 5.34894 21.8044 5.12385L21.7937 5.11851C21.4971 4.96596 21.0807 4.8867 20.0811 4.85641C19.5015 4.83885 19.0458 4.35472 19.0634 3.77509Z" fill="#191F28"/>
<path d="M3.79172 10.9024C4.37162 10.9024 4.84172 11.3725 4.84172 11.9524V16.0327C4.84172 16.6126 4.37162 17.0827 3.79172 17.0827C3.21183 17.0827 2.74173 16.6126 2.74173 16.0327V11.9524C2.74173 11.3725 3.21183 10.9024 3.79172 10.9024Z" fill="#191F28"/>
<path d="M24.1932 10.9024C24.7731 10.9024 25.2432 11.3725 25.2432 11.9524V16.0327C25.2432 16.6126 24.7731 17.0827 24.1932 17.0827C23.6133 17.0827 23.1432 16.6126 23.1432 16.0327V11.9524C23.1432 11.3725 23.6133 10.9024 24.1932 10.9024Z" fill="#191F28"/>
<path d="M24.2401 19.0635C24.8197 19.0811 25.2754 19.5652 25.2578 20.1448C25.2277 21.14 25.1557 21.9931 24.7643 22.7543L24.761 22.7605C24.3208 23.6026 23.6399 24.3126 22.7636 24.7522C22.0038 25.1411 21.1526 25.2128 20.1598 25.2429C19.5802 25.2604 19.0961 24.8048 19.0785 24.2251C19.0609 23.6455 19.5166 23.1614 20.0962 23.1438C21.0958 23.1135 21.5122 23.0343 21.8088 22.8818L21.8195 22.8763C22.2696 22.6512 22.6442 22.2755 22.8983 21.7909C23.0498 21.4945 23.1286 21.0775 23.1588 20.0812C23.1764 19.5016 23.6605 19.0459 24.2401 19.0635Z" fill="#191F28"/>
<path d="M3.75992 19.0786C4.33955 19.0611 4.82367 19.5167 4.84124 20.0963C4.87153 21.0959 4.95072 21.5123 5.10328 21.809L5.10873 21.8196C5.33383 22.2698 5.70955 22.6443 6.19411 22.8984C6.49055 23.05 6.90749 23.1287 7.90382 23.1589C8.48345 23.1765 8.9391 23.6606 8.92153 24.2403C8.90397 24.8199 8.41984 25.2755 7.84021 25.258C6.845 25.2278 5.99198 25.1559 5.23076 24.7644L5.22456 24.7612C4.38249 24.321 3.67252 23.6401 3.23299 22.764C2.84395 22.0041 2.77229 21.1528 2.74221 20.1599C2.72464 19.5803 3.18029 19.0962 3.75992 19.0786Z" fill="#191F28"/>
<path d="M10.9023 24.1933C10.9023 23.6134 11.3724 23.1433 11.9523 23.1433H16.0326C16.6125 23.1433 17.0826 23.6134 17.0826 24.1933C17.0826 24.7732 16.6125 25.2433 16.0326 25.2433H11.9523C11.3724 25.2433 10.9023 24.7732 10.9023 24.1933Z" fill="#191F28"/>
</g>
</g>
</svg>
