<svg preserveAspectRatio="none" width="100%" height="100%" overflow="visible" style="display: block;" viewBox="0 0 12 12" fill="none" xmlns="http://www.w3.org/2000/svg">
<g id="Shape">
<g id="Normal">
<path d="M4.67242 1.62505C4.67242 1.37652 4.87389 1.17505 5.12242 1.17505H6.87112C7.11964 1.17505 7.32112 1.37652 7.32112 1.62505C7.32112 1.87358 7.11964 2.07505 6.87112 2.07505H5.12242C4.87389 2.07505 4.67242 1.87358 4.67242 1.62505Z" fill="#191F28"/>
<path d="M3.82351 1.6179C3.83104 1.86631 3.63576 2.07379 3.38735 2.08132C2.95895 2.0943 2.78049 2.12824 2.65337 2.19362L2.64882 2.19596C2.45588 2.29243 2.29537 2.45345 2.18648 2.66112C2.12152 2.78817 2.08775 2.96686 2.07482 3.39386C2.06729 3.64227 1.85981 3.83755 1.61139 3.83002C1.36298 3.8225 1.1677 3.61501 1.17523 3.3666C1.18816 2.94008 1.21898 2.5745 1.38676 2.24826L1.38813 2.2456C1.57678 1.88471 1.86859 1.58044 2.24408 1.39207C2.56973 1.22534 2.93459 1.19463 3.36009 1.18173C3.6085 1.1742 3.81599 1.36948 3.82351 1.6179Z" fill="#191F28"/>
<path d="M8.17002 1.6179C8.17755 1.36948 8.38503 1.1742 8.63345 1.18173C9.05895 1.19463 9.4238 1.22534 9.74945 1.39207C10.1249 1.58044 10.4167 1.88471 10.6054 2.2456L10.6068 2.24825C10.7746 2.57449 10.8054 2.94008 10.8183 3.3666C10.8258 3.61501 10.6306 3.8225 10.3821 3.83002C10.1337 3.83755 9.92625 3.64227 9.91872 3.39386C9.90578 2.96686 9.87202 2.78817 9.80706 2.66112C9.69816 2.45346 9.53767 2.2924 9.34473 2.19593L9.34016 2.19365C9.21303 2.12827 9.03458 2.0943 8.60619 2.08132C8.35777 2.07379 8.1625 1.86631 8.17002 1.6179Z" fill="#191F28"/>
<path d="M1.62502 4.67246C1.87355 4.67246 2.07502 4.87393 2.07502 5.12246V6.87116C2.07502 7.11969 1.87355 7.32116 1.62502 7.32116C1.3765 7.32116 1.17503 7.11969 1.17503 6.87116V5.12246C1.17503 4.87393 1.3765 4.67246 1.62502 4.67246Z" fill="#191F28"/>
<path d="M10.3685 4.67246C10.617 4.67246 10.8185 4.87393 10.8185 5.12246V6.87116C10.8185 7.11969 10.617 7.32116 10.3685 7.32116C10.12 7.32116 9.91851 7.11969 9.91851 6.87116V5.12246C9.91851 4.87393 10.12 4.67246 10.3685 4.67246Z" fill="#191F28"/>
<path d="M10.3886 8.17007C10.637 8.1776 10.8323 8.38508 10.8248 8.6335C10.8119 9.06002 10.781 9.4256 10.6133 9.75184L10.6119 9.7545C10.4232 10.1154 10.1314 10.4197 9.75584 10.6081C9.43022 10.7748 9.06539 10.8055 8.63992 10.8184C8.39151 10.8259 8.18403 10.6306 8.1765 10.3822C8.16897 10.1338 8.36425 9.92631 8.61266 9.91878C9.04106 9.9058 9.21952 9.87186 9.34665 9.80648L9.3512 9.80414C9.54413 9.70767 9.70464 9.54664 9.81354 9.33897C9.8785 9.21193 9.91226 9.03323 9.9252 8.60624C9.93272 8.35782 10.1402 8.16255 10.3886 8.17007Z" fill="#191F28"/>
<path d="M1.61139 8.17655C1.85981 8.16902 2.06729 8.3643 2.07482 8.61271C2.0878 9.04111 2.12174 9.21958 2.18712 9.3467L2.18946 9.35125C2.28593 9.54419 2.44695 9.7047 2.65462 9.81359C2.78166 9.87855 2.96035 9.91232 3.38735 9.92526C3.63576 9.93278 3.83104 10.1403 3.82351 10.3887C3.81599 10.6371 3.6085 10.8324 3.36009 10.8248C2.93357 10.8119 2.56799 10.7811 2.24175 10.6133L2.2391 10.6119C1.87821 10.4233 1.57394 10.1315 1.38557 9.75598C1.21884 9.43033 1.18813 9.06548 1.17523 8.63997C1.1677 8.39156 1.36298 8.18408 1.61139 8.17655Z" fill="#191F28"/>
<path d="M4.67242 10.3686C4.67242 10.12 4.87389 9.91857 5.12242 9.91857H6.87112C7.11964 9.91857 7.32112 10.12 7.32112 10.3686C7.32112 10.6171 7.11964 10.8186 6.87112 10.8186H5.12242C4.87389 10.8186 4.67242 10.6171 4.67242 10.3686Z" fill="#191F28"/>
</g>
</g>
</svg>
