<svg preserveAspectRatio="none" width="100%" height="100%" overflow="visible" style="display: block;" viewBox="0 0 24 24" fill="none" xmlns="http://www.w3.org/2000/svg">
<g id="Shape">
<path id="Normal" fill-rule="evenodd" clip-rule="evenodd" d="M12.5 3C7.256 3 3 6.33854 3 10.4446C3 13.006 4.6435 15.2413 7.1515 16.6036L6.097 20.5082C6.0771 20.5858 6.0812 20.6678 6.10874 20.743C6.13627 20.8183 6.18593 20.8832 6.25106 20.9291C6.31619 20.9751 6.39367 20.9998 6.47311 21C6.55254 21.0002 6.63014 20.9759 6.6955 20.9303L11.3125 17.8316C11.702 17.8316 12.101 17.8987 12.5 17.8987C17.744 17.8987 22 14.5602 22 10.4446C22 6.32895 17.744 3 12.5 3Z" fill="var(--fill-0, #191F28)"/>
</g>
</svg>
