<svg preserveAspectRatio="none" width="100%" height="100%" overflow="visible" style="display: block;" viewBox="0 0 16 16" fill="none" xmlns="http://www.w3.org/2000/svg">
<g id="Shape">
<g id="Normal">
<path d="M10.6453 2.00001C11.5158 2.00477 12.3892 2.37217 13.0085 2.99149C13.6315 3.61452 13.9952 4.47614 14 5.35472L14 5.35788C14 6.10401 13.7426 6.75253 13.2596 7.38746L13.2543 7.39447C13.0322 7.67762 12.7259 8.00681 12.2274 8.5054L11.7449 8.98788C11.5165 9.21628 11.1462 9.21628 10.9178 8.98788C10.6894 8.75949 10.6894 8.38919 10.9178 8.16079L11.4003 7.67831C11.8912 7.18739 12.1551 6.89996 12.3313 6.67587C12.6896 6.20366 12.83 5.79898 12.8303 5.35949C12.8268 4.79348 12.5891 4.22629 12.1814 3.81858C11.7778 3.41499 11.199 3.17318 10.6405 3.16968C10.2008 3.17 9.81161 3.30265 9.32727 3.67312C9.08085 3.86415 8.79006 4.13129 8.32163 4.59971L7.83905 5.08218C7.61062 5.31055 7.24032 5.31051 7.01195 5.08209C6.78358 4.85367 6.78362 4.48337 7.01204 4.255L7.49454 3.77262C7.97043 3.29673 8.30439 2.98591 8.61228 2.7474L8.61493 2.74535C9.26204 2.24998 9.89546 2 10.6421 2L10.6453 2.00001Z" fill="#8B95A1"/>
<path d="M10.2745 5.72546C10.5029 5.95385 10.5029 6.32415 10.2745 6.55255L6.5526 10.2745C6.3242 10.5029 5.9539 10.5029 5.7255 10.2745C5.4971 10.0462 5.4971 9.67585 5.72549 9.44745L9.4474 5.72547C9.67579 5.49707 10.0461 5.49707 10.2745 5.72546Z" fill="#8B95A1"/>
<path d="M5.08212 7.01202C5.31054 7.24039 5.31058 7.61069 5.08221 7.83911L4.59977 8.32164C4.13135 8.79006 3.86417 9.08089 3.67313 9.32731C3.30269 9.81161 3.17003 10.2008 3.16969 10.6404C3.17317 11.199 3.41497 11.7778 3.8186 12.1814C4.22632 12.5891 4.79353 12.8268 5.35956 12.8303C5.79904 12.83 6.20371 12.6896 6.6759 12.3313C6.9 12.1551 7.18743 11.8912 7.67836 11.4003L8.16084 10.9178C8.38924 10.6894 8.75954 10.6894 8.98794 10.9178C9.21634 11.1462 9.21634 11.5165 8.98794 11.7449L8.50545 12.2274C8.00686 12.726 7.67762 13.0321 7.39448 13.2543L7.38754 13.2597C6.75261 13.7426 6.10404 14 5.35791 14L5.35474 14C4.47616 13.9952 3.61453 13.6315 2.9915 13.0085C2.37218 12.3892 2.00477 11.5158 2.00001 10.6453L2 10.6421C2 9.89551 2.24999 9.26209 2.74536 8.61499L2.74741 8.61233C2.98592 8.30444 3.29669 7.97054 3.77259 7.49465L4.25502 7.01211C4.48339 6.78369 4.85369 6.78365 5.08212 7.01202Z" fill="#8B95A1"/>
</g>
</g>
</svg>
