<svg preserveAspectRatio="none" width="100%" height="100%" overflow="visible" style="display: block;" viewBox="0 0 24 24" fill="none" xmlns="http://www.w3.org/2000/svg">
<g id="Shape">
<g id="Normal">
<path d="M15.9679 3.00001C17.2736 3.00715 18.5837 3.55826 19.5127 4.48724C20.4473 5.42178 20.9928 6.71421 21 8.03208L21 8.03682C21 9.15601 20.6138 10.1288 19.8895 11.0812L19.8815 11.0917C19.5482 11.5164 19.0889 12.0102 18.341 12.7581L17.6173 13.4818C17.2747 13.8244 16.7193 13.8244 16.3767 13.4818C16.0341 13.1392 16.0341 12.5838 16.3767 12.2412L17.1004 11.5175C17.8368 10.7811 18.2326 10.3499 18.497 10.0138C19.0344 9.30549 19.2449 8.69847 19.2455 8.03923C19.2402 7.19022 18.8837 6.33944 18.2721 5.72787C17.6667 5.12248 16.7985 4.75978 15.9607 4.75452C15.3012 4.755 14.7174 4.95398 13.9909 5.50967C13.6213 5.79623 13.1851 6.19693 12.4825 6.89956L11.7586 7.62327C11.4159 7.96583 10.8605 7.96577 10.5179 7.62314C10.1754 7.28051 10.1754 6.72506 10.5181 6.3825L11.2418 5.65893C11.9556 4.94509 12.4566 4.47886 12.9184 4.1211L12.9224 4.11802C13.8931 3.37497 14.8432 2.99999 15.9631 3L15.9679 3.00001Z" fill="#191F28"/>
<path d="M15.4117 8.58819C15.7543 8.93078 15.7543 9.48623 15.4118 9.82882L9.82889 15.4118C9.48631 15.7544 8.93085 15.7544 8.58825 15.4118C8.24565 15.0692 8.24564 14.5138 8.58823 14.1712L14.1711 8.58821C14.5137 8.24561 15.0691 8.2456 15.4117 8.58819Z" fill="#191F28"/>
<path d="M7.62317 10.518C7.96581 10.8606 7.96587 11.416 7.62331 11.7587L6.89966 12.4825C6.19703 13.1851 5.79626 13.6213 5.5097 13.991C4.95404 14.7174 4.75505 15.3012 4.75453 15.9606C4.75975 16.7984 5.12246 17.6667 5.7279 18.2721C6.33948 18.8837 7.19029 19.2403 8.03934 19.2455C8.69856 19.245 9.30557 19.0344 10.0139 18.497C10.35 18.2327 10.7811 17.8368 11.5175 17.1004L12.2413 16.3767C12.5839 16.0341 13.1393 16.0341 13.4819 16.3767C13.8245 16.7193 13.8245 17.2748 13.4819 17.6173L12.7582 18.3411C12.0103 19.0889 11.5164 19.5482 11.0917 19.8814L11.0813 19.8896C10.1289 20.6139 9.15606 21 8.03686 21L8.03212 21C6.71424 20.9929 5.42179 20.4473 4.48725 19.5128C3.55827 18.5838 3.00715 17.2737 3.00001 15.968L3 15.9632C2.99999 14.8433 3.37499 13.8931 4.11804 12.9225L4.12111 12.9185C4.47887 12.4567 4.94504 11.9558 5.65888 11.242L6.38253 10.5182C6.72509 10.1755 7.28054 10.1755 7.62317 10.518Z" fill="#191F28"/>
</g>
</g>
</svg>
