<svg preserveAspectRatio="none" width="100%" height="100%" overflow="visible" style="display: block;" viewBox="0 0 16 16" fill="none" xmlns="http://www.w3.org/2000/svg">
<g id="Shape">
<g id="Normal">
<path fill-rule="evenodd" clip-rule="evenodd" d="M11.1449 12.5435C10.4499 13.2596 9.75712 13.8445 9.23887 14.2503C8.95346 14.4737 8.66294 14.6933 8.36016 14.8941C8.14552 15.0357 7.85296 15.0351 7.63856 14.8933C7.33626 14.6927 7.04615 14.4734 6.76113 14.2503C6.24288 13.8445 5.5501 13.2596 4.85511 12.5435C3.49364 11.1408 2 9.10967 2 6.86605C2 3.62632 4.68629 1 8 1C11.3137 1 14 3.62632 14 6.86605C14 9.10967 12.5064 11.1408 11.1449 12.5435ZM8 2.25687C5.39637 2.25687 3.28572 4.32041 3.28572 6.86591C3.28572 8.59854 4.47065 10.3211 5.78775 11.6781C6.65306 12.5696 7.52575 13.2516 8 13.5988C8.47425 13.2516 9.34695 12.5696 10.2123 11.6781C11.5294 10.3211 12.7143 8.59854 12.7143 6.86591C12.7143 4.32041 10.6036 2.25687 8 2.25687Z" fill="#6B7684"/>
<path fill-rule="evenodd" clip-rule="evenodd" d="M8.0001 4.31711C6.56021 4.31711 5.39296 5.45831 5.39296 6.86605C5.39296 8.27379 6.56021 9.41499 8.0001 9.41499C9.43998 9.41499 10.6072 8.27379 10.6072 6.86605C10.6072 5.45831 9.43998 4.31711 8.0001 4.31711ZM6.67867 6.86605C6.67867 6.15254 7.27029 5.57412 8.0001 5.57412C8.7299 5.57412 9.32153 6.15254 9.32153 6.86605C9.32153 7.57956 8.7299 8.15798 8.0001 8.15798C7.27029 8.15798 6.67867 7.57956 6.67867 6.86605Z" fill="#6B7684"/>
</g>
</g>
</svg>
