<svg preserveAspectRatio="none" width="100%" height="100%" overflow="visible" style="display: block;" viewBox="0 0 24 24" fill="none" xmlns="http://www.w3.org/2000/svg">
<g id="Shape">
<path id="Icon" d="M12.995 4C12.995 3.44772 12.5473 3 11.995 3C11.4427 3 10.995 3.44772 10.995 4H11.995H12.995ZM10.995 5C10.995 5.55228 11.4427 6 11.995 6C12.5473 6 12.995 5.55228 12.995 5H11.995H10.995ZM17.9913 15C17.439 15 16.9913 15.4477 16.9913 16C16.9913 16.5523 17.439 17 17.9913 17V16V15ZM19.99 17C20.5423 17 20.99 16.5523 20.99 16C20.99 15.4477 20.5423 15 19.99 15V16V17ZM11.995 16V15C11.4427 15 10.995 15.4477 10.995 16H11.995ZM13.9938 17C14.546 17 14.9938 16.5523 14.9938 16C14.9938 15.4477 14.546 15 13.9938 15V16V17ZM10.995 20C10.995 20.5523 11.4427 21 11.995 21C12.5473 21 12.995 20.5523 12.995 20H11.995H10.995ZM12.995 9C12.995 8.44772 12.5473 8 11.995 8C11.4427 8 10.995 8.44772 10.995 9H11.995H12.995ZM11.995 12H10.995C10.995 12.5523 11.4427 13 11.995 13V12ZM15.9925 19C15.4402 19 14.9925 19.4477 14.9925 20C14.9925 20.5523 15.4402 21 15.9925 21V20V19ZM19.99 21C20.5423 21 20.99 20.5523 20.99 20C20.99 19.4477 20.5423 19 19.99 19V20V21ZM4 11C3.44772 11 3 11.4477 3 12C3 12.5523 3.44772 13 4 13V12V11ZM7.9975 13C8.54979 13 8.9975 12.5523 8.9975 12C8.9975 11.4477 8.54979 11 7.9975 11V12V13ZM12.005 13C12.5573 13 13.005 12.5523 13.005 12C13.005 11.4477 12.5573 11 12.005 11V12V13ZM16.0025 13C16.5548 13 17.0025 12.5523 17.0025 12C17.0025 11.4477 16.5548 11 16.0025 11V12V13ZM19.99 11C19.4377 11 18.99 11.4477 18.99 12C18.99 12.5523 19.4377 13 19.99 13V12V11ZM20 13C20.5523 13 21 12.5523 21 12C21 11.4477 20.5523 11 20 11V12V13ZM4.99938 4V5H6.99813V4V3H4.99938V4ZM7.9975 5H6.9975V7H7.9975H8.9975V5H7.9975ZM6.99813 8V7H4.99938V8V9H6.99813V8ZM4 7H5V5H4H3V7H4ZM4.99938 8V7H5H4H3C3 8.10398 3.89456 9 4.99938 9V8ZM7.9975 7H6.9975H6.99813V8V9C8.10294 9 8.9975 8.10398 8.9975 7H7.9975ZM6.99813 4V5H6.9975H7.9975H8.9975C8.9975 3.89602 8.10294 3 6.99813 3V4ZM4.99938 4V3C3.89456 3 3 3.89602 3 5H4H5H4.99938V4ZM16.9919 4V5H18.9906V4V3H16.9919V4ZM19.99 5H18.99V7H19.99H20.99V5H19.99ZM18.9906 8V7H16.9919V8V9H18.9906V8ZM15.9925 7H16.9925V5H15.9925H14.9925V7H15.9925ZM16.9919 8V7H16.9925H15.9925H14.9925C14.9925 8.10398 15.8871 9 16.9919 9V8ZM19.99 7H18.99H18.9906V8V9C20.0954 9 20.99 8.10398 20.99 7H19.99ZM18.9906 4V5H18.99H19.99H20.99C20.99 3.89602 20.0954 3 18.9906 3V4ZM16.9919 4V3C15.8871 3 14.9925 3.89602 14.9925 5H15.9925H16.9925H16.9919V4ZM4.99938 16V17H6.99813V16V15H4.99938V16ZM7.9975 17H6.9975V19H7.9975H8.9975V17H7.9975ZM6.99813 20V19H4.99938V20V21H6.99813V20ZM4 19H5V17H4H3V19H4ZM4.99938 20V19H5H4H3C3 20.104 3.89456 21 4.99938 21V20ZM7.9975 19H6.9975H6.99813V20V21C8.10294 21 8.9975 20.104 8.9975 19H7.9975ZM6.99813 16V17H6.9975H7.9975H8.9975C8.9975 15.896 8.10294 15 6.99813 15V16ZM4.99938 16V15C3.89456 15 3 15.896 3 17H4H5H4.99938V16ZM11.995 4H10.995V5H11.995H12.995V4H11.995ZM17.9913 16V17H19.99V16V15H17.9913V16ZM11.995 16V17H13.9938V16V15H11.995V16ZM11.995 16H10.995V20H11.995H12.995V16H11.995ZM11.995 9H10.995V12H11.995H12.995V9H11.995ZM15.9925 20V21H19.99V20V19H15.9925V20ZM4 12V13H7.9975V12V11H4V12ZM11.995 12V13H12.005V12V11H11.995V12ZM19.99 12V13H20V12V11H19.99V12ZM11.995 12V13H16.0025V12V11H11.995V12Z" fill="var(--stroke-0, #191F28)"/>
</g>
</svg>
