<svg preserveAspectRatio="none" width="100%" height="100%" overflow="visible" style="display: block;" viewBox="0 0 15.6667 15.6667" fill="none" xmlns="http://www.w3.org/2000/svg">
<path id="Icon" d="M8.66229 0.833333C8.66229 0.373096 8.2892 0 7.82896 0C7.36872 0 6.99563 0.373096 6.99563 0.833333H7.82896H8.66229ZM6.99563 1.70833C6.99563 2.16857 7.36872 2.54167 7.82896 2.54167C8.2892 2.54167 8.66229 2.16857 8.66229 1.70833H7.82896H6.99563ZM13.0757 10.5C12.6154 10.5 12.2423 10.8731 12.2423 11.3333C12.2423 11.7936 12.6154 12.1667 13.0757 12.1667V11.3333V10.5ZM14.8246 12.1667C15.2848 12.1667 15.6579 11.7936 15.6579 11.3333C15.6579 10.8731 15.2848 10.5 14.8246 10.5V11.3333V12.1667ZM7.82896 11.3333V10.5C7.36872 10.5 6.99563 10.8731 6.99563 11.3333H7.82896ZM9.57787 12.1667C10.0381 12.1667 10.4112 11.7936 10.4112 11.3333C10.4112 10.8731 10.0381 10.5 9.57787 10.5V11.3333V12.1667ZM6.99563 14.8333C6.99563 15.2936 7.36872 15.6667 7.82896 15.6667C8.2892 15.6667 8.66229 15.2936 8.66229 14.8333H7.82896H6.99563ZM8.66229 5.20833C8.66229 4.7481 8.2892 4.375 7.82896 4.375C7.36872 4.375 6.99563 4.7481 6.99563 5.20833H7.82896H8.66229ZM7.82896 7.83333H6.99563C6.99563 8.29357 7.36872 8.66667 7.82896 8.66667V7.83333ZM11.3268 14C10.8665 14 10.4934 14.3731 10.4934 14.8333C10.4934 15.2936 10.8665 15.6667 11.3268 15.6667V14.8333V14ZM14.8246 15.6667C15.2848 15.6667 15.6579 15.2936 15.6579 14.8333C15.6579 14.3731 15.2848 14 14.8246 14V14.8333V15.6667ZM0.833333 7C0.373096 7 0 7.3731 0 7.83333C0 8.29357 0.373096 8.66667 0.833333 8.66667V7.83333V7ZM4.33115 8.66667C4.79138 8.66667 5.16448 8.29357 5.16448 7.83333C5.16448 7.3731 4.79138 7 4.33115 7V7.83333V8.66667ZM7.83771 8.66667C8.29794 8.66667 8.67104 8.29357 8.67104 7.83333C8.67104 7.3731 8.29794 7 7.83771 7V7.83333V8.66667ZM11.3355 8.66667C11.7958 8.66667 12.1689 8.29357 12.1689 7.83333C12.1689 7.3731 11.7958 7 11.3355 7V7.83333V8.66667ZM14.8246 7C14.3644 7 13.9913 7.3731 13.9913 7.83333C13.9913 8.29357 14.3644 8.66667 14.8246 8.66667V7.83333V7ZM14.8333 8.66667C15.2936 8.66667 15.6667 8.29357 15.6667 7.83333C15.6667 7.3731 15.2936 7 14.8333 7V7.83333V8.66667ZM1.70779 0.833333V1.66667H3.45669V0.833333V0H1.70779V0.833333ZM4.33115 1.70833H3.49781V3.45833H4.33115H5.16448V1.70833H4.33115ZM3.45669 4.33333V3.5H1.70779V4.33333V5.16667H3.45669V4.33333ZM0.833333 3.45833H1.66667V1.70833H0.833333H0V3.45833H0.833333ZM1.70779 4.33333V3.5C1.68557 3.5 1.66667 3.48184 1.66667 3.45833H0.833333H0C0 4.40133 0.764111 5.16667 1.70779 5.16667V4.33333ZM4.33115 3.45833H3.49781C3.49781 3.48184 3.47891 3.5 3.45669 3.5V4.33333V5.16667C4.40037 5.16667 5.16448 4.40133 5.16448 3.45833H4.33115ZM3.45669 0.833333V1.66667C3.47891 1.66667 3.49781 1.68483 3.49781 1.70833H4.33115H5.16448C5.16448 0.765338 4.40037 0 3.45669 0V0.833333ZM1.70779 0.833333V0C0.764111 0 0 0.765338 0 1.70833H0.833333H1.66667C1.66667 1.68483 1.68557 1.66667 1.70779 1.66667V0.833333ZM12.2012 0.833333V1.66667H13.9501V0.833333V0H12.2012V0.833333ZM14.8246 1.70833H13.9913V3.45833H14.8246H15.6579V1.70833H14.8246ZM13.9501 4.33333V3.5H12.2012V4.33333V5.16667H13.9501V4.33333ZM11.3268 3.45833H12.1601V1.70833H11.3268H10.4934V3.45833H11.3268ZM12.2012 4.33333V3.5C12.179 3.5 12.1601 3.48184 12.1601 3.45833H11.3268H10.4934C10.4934 4.40133 11.2576 5.16667 12.2012 5.16667V4.33333ZM14.8246 3.45833H13.9913C13.9913 3.48184 13.9724 3.5 13.9501 3.5V4.33333V5.16667C14.8938 5.16667 15.6579 4.40133 15.6579 3.45833H14.8246ZM13.9501 0.833333V1.66667C13.9724 1.66667 13.9913 1.68483 13.9913 1.70833H14.8246H15.6579C15.6579 0.765338 14.8938 0 13.9501 0V0.833333ZM12.2012 0.833333V0C11.2576 0 10.4934 0.765338 10.4934 1.70833H11.3268H12.1601C12.1601 1.68483 12.179 1.66667 12.2012 1.66667V0.833333ZM1.70779 11.3333V12.1667H3.45669V11.3333V10.5H1.70779V11.3333ZM4.33115 12.2083H3.49781V13.9583H4.33115H5.16448V12.2083H4.33115ZM3.45669 14.8333V14H1.70779V14.8333V15.6667H3.45669V14.8333ZM0.833333 13.9583H1.66667V12.2083H0.833333H0V13.9583H0.833333ZM1.70779 14.8333V14C1.68557 14 1.66667 13.9818 1.66667 13.9583H0.833333H0C0 14.9013 0.764111 15.6667 1.70779 15.6667V14.8333ZM4.33115 13.9583H3.49781C3.49781 13.9818 3.47891 14 3.45669 14V14.8333V15.6667C4.40037 15.6667 5.16448 14.9013 5.16448 13.9583H4.33115ZM3.45669 11.3333V12.1667C3.47891 12.1667 3.49781 12.1848 3.49781 12.2083H4.33115H5.16448C5.16448 11.2653 4.40037 10.5 3.45669 10.5V11.3333ZM1.70779 11.3333V10.5C0.764111 10.5 0 11.2653 0 12.2083H0.833333H1.66667C1.66667 12.1848 1.68557 12.1667 1.70779 12.1667V11.3333ZM7.82896 0.833333H6.99563V1.70833H7.82896H8.66229V0.833333H7.82896ZM13.0757 11.3333V12.1667H14.8246V11.3333V10.5H13.0757V11.3333ZM7.82896 11.3333V12.1667H9.57787V11.3333V10.5H7.82896V11.3333ZM7.82896 11.3333H6.99563V14.8333H7.82896H8.66229V11.3333H7.82896ZM7.82896 5.20833H6.99563V7.83333H7.82896H8.66229V5.20833H7.82896ZM11.3268 14.8333V15.6667H14.8246V14.8333V14H11.3268V14.8333ZM0.833333 7.83333V8.66667H4.33115V7.83333V7H0.833333V7.83333ZM7.82896 7.83333V8.66667H7.83771V7.83333V7H7.82896V7.83333ZM14.8246 7.83333V8.66667H14.8333V7.83333V7H14.8246V7.83333ZM7.82896 7.83333V8.66667H11.3355V7.83333V7H7.82896V7.83333Z" fill="var(--stroke-0, #191F28)"/>
</svg>
