<svg preserveAspectRatio="none" width="100%" height="100%" overflow="visible" style="display: block;" viewBox="0 0 12 12" fill="none" xmlns="http://www.w3.org/2000/svg">
<g id="Shape">
<g id="Normal">
<path fill-rule="evenodd" clip-rule="evenodd" d="M8.09659 9.24537C7.63326 9.75682 7.17141 10.1747 6.82591 10.4645C6.63564 10.6241 6.44196 10.781 6.24011 10.9244C6.09701 11.0255 5.90197 11.0251 5.75904 10.9238C5.55751 10.7805 5.3641 10.6238 5.17409 10.4645C4.82859 10.1747 4.36673 9.75682 3.90341 9.24537C2.99576 8.24344 2 6.79262 2 5.19003C2 2.87594 3.79086 1 6 1C8.20914 1 10 2.87594 10 5.19003C10 6.79262 9.00424 8.24344 8.09659 9.24537ZM6 1.89777C4.26425 1.89777 2.85714 3.37172 2.85714 5.18994C2.85714 6.42753 3.6471 7.65795 4.52517 8.62723C5.10204 9.26402 5.68383 9.75114 6 9.99911C6.31617 9.75114 6.89797 9.26402 7.47484 8.62723C8.3529 7.65795 9.14286 6.42753 9.14286 5.18994C9.14286 3.37172 7.73575 1.89777 6 1.89777Z" fill="#6B7684"/>
<path fill-rule="evenodd" clip-rule="evenodd" d="M6.00006 3.36937C5.04014 3.36937 4.26197 4.18451 4.26197 5.19003C4.26197 6.19556 5.04014 7.01071 6.00006 7.01071C6.95999 7.01071 7.73816 6.19556 7.73816 5.19003C7.73816 4.18451 6.95999 3.36937 6.00006 3.36937ZM5.11911 5.19003C5.11911 4.68038 5.51353 4.26723 6.00006 4.26723C6.4866 4.26723 6.88102 4.68038 6.88102 5.19003C6.88102 5.69969 6.4866 6.11284 6.00006 6.11284C5.51353 6.11284 5.11911 5.69969 5.11911 5.19003Z" fill="#6B7684"/>
</g>
</g>
</svg>
