<svg preserveAspectRatio="none" width="100%" height="100%" overflow="visible" style="display: block;" viewBox="0 0 20 20" fill="none" xmlns="http://www.w3.org/2000/svg">
<g id="Shape">
<path id="Normal" fill-rule="evenodd" clip-rule="evenodd" d="M10 2C5.584 2 2 4.78212 2 8.2038C2 10.3384 3.384 12.2011 5.496 13.3363L4.608 16.5901C4.59125 16.6548 4.59469 16.7231 4.61788 16.7858C4.64107 16.8485 4.68289 16.9027 4.73774 16.9409C4.79258 16.9792 4.85783 16.9998 4.92472 17C4.99162 17.0002 5.05696 16.9799 5.112 16.9419L9 14.3596C9.328 14.3596 9.664 14.4156 10 14.4156C14.416 14.4156 18 11.6335 18 8.2038C18 4.77412 14.416 2 10 2Z" fill="var(--fill-0, #191F28)"/>
</g>
</svg>
