<svg preserveAspectRatio="none" width="100%" height="100%" overflow="visible" style="display: block;" viewBox="0 0 12.3095 12.3095" fill="none" xmlns="http://www.w3.org/2000/svg">
<path id="Icon" d="M6.80609 0.654762C6.80609 0.293147 6.51294 0 6.15133 0C5.78971 0 5.49656 0.293147 5.49656 0.654762H6.15133H6.80609ZM5.49656 1.34226C5.49656 1.70388 5.78971 1.99702 6.15133 1.99702C6.51294 1.99702 6.80609 1.70388 6.80609 1.34226H6.15133H5.49656ZM10.2737 8.25C9.91213 8.25 9.61899 8.54315 9.61899 8.90476C9.61899 9.26638 9.91213 9.55952 10.2737 9.55952V8.90476V8.25ZM11.6479 9.55952C12.0095 9.55952 12.3027 9.26638 12.3027 8.90476C12.3027 8.54315 12.0095 8.25 11.6479 8.25V8.90476V9.55952ZM6.15133 8.90476V8.25C5.78971 8.25 5.49656 8.54315 5.49656 8.90476H6.15133ZM7.52547 9.55952C7.88708 9.55952 8.18023 9.26638 8.18023 8.90476C8.18023 8.54315 7.88708 8.25 7.52547 8.25V8.90476V9.55952ZM5.49656 11.6548C5.49656 12.0164 5.78971 12.3095 6.15133 12.3095C6.51294 12.3095 6.80609 12.0164 6.80609 11.6548H6.15133H5.49656ZM6.80609 4.09226C6.80609 3.73065 6.51294 3.4375 6.15133 3.4375C5.78971 3.4375 5.49656 3.73065 5.49656 4.09226H6.15133H6.80609ZM6.15133 6.15476H5.49656C5.49656 6.51638 5.78971 6.80952 6.15133 6.80952V6.15476ZM8.89961 11C8.53799 11 8.24485 11.2931 8.24485 11.6548C8.24485 12.0164 8.53799 12.3095 8.89961 12.3095V11.6548V11ZM11.6479 12.3095C12.0095 12.3095 12.3027 12.0164 12.3027 11.6548C12.3027 11.2931 12.0095 11 11.6479 11V11.6548V12.3095ZM0.654762 5.5C0.293147 5.5 0 5.79315 0 6.15476C0 6.51638 0.293147 6.80952 0.654762 6.80952V6.15476V5.5ZM3.40304 6.80952C3.76466 6.80952 4.05781 6.51638 4.05781 6.15476C4.05781 5.79315 3.76466 5.5 3.40304 5.5V6.15476V6.80952ZM6.1582 6.80952C6.51981 6.80952 6.81296 6.51638 6.81296 6.15476C6.81296 5.79315 6.51981 5.5 6.1582 5.5V6.15476V6.80952ZM8.90648 6.80952C9.26809 6.80952 9.56124 6.51638 9.56124 6.15476C9.56124 5.79315 9.26809 5.5 8.90648 5.5V6.15476V6.80952ZM11.6479 5.5C11.2863 5.5 10.9931 5.79315 10.9931 6.15476C10.9931 6.51638 11.2863 6.80952 11.6479 6.80952V6.15476V5.5ZM11.6548 6.80952C12.0164 6.80952 12.3095 6.51638 12.3095 6.15476C12.3095 5.79315 12.0164 5.5 11.6548 5.5V6.15476V6.80952ZM1.34183 0.654762V1.30952H2.71597V0.654762V0H1.34183V0.654762ZM3.40304 1.34226H2.74828V2.71726H3.40304H4.05781V1.34226H3.40304ZM2.71597 3.40476V2.75H1.34183V3.40476V4.05952H2.71597V3.40476ZM0.654762 2.71726H1.30952V1.34226H0.654762H0V2.71726H0.654762ZM1.34183 3.40476V2.75C1.32437 2.75 1.30952 2.73573 1.30952 2.71726H0.654762H0C0 3.45819 0.600373 4.05952 1.34183 4.05952V3.40476ZM3.40304 2.71726H2.74828C2.74828 2.73573 2.73343 2.75 2.71597 2.75V3.40476V4.05952C3.45743 4.05952 4.05781 3.45819 4.05781 2.71726H3.40304ZM2.71597 0.654762V1.30952C2.73343 1.30952 2.74828 1.3238 2.74828 1.34226H3.40304H4.05781C4.05781 0.601337 3.45743 0 2.71597 0V0.654762ZM1.34183 0.654762V0C0.600373 0 0 0.601337 0 1.34226H0.654762H1.30952C1.30952 1.3238 1.32437 1.30952 1.34183 1.30952V0.654762ZM9.58668 0.654762V1.30952H10.9608V0.654762V0H9.58668V0.654762ZM11.6479 1.34226H10.9931V2.71726H11.6479H12.3027V1.34226H11.6479ZM10.9608 3.40476V2.75H9.58668V3.40476V4.05952H10.9608V3.40476ZM8.89961 2.71726H9.55437V1.34226H8.89961H8.24485V2.71726H8.89961ZM9.58668 3.40476V2.75C9.56922 2.75 9.55437 2.73573 9.55437 2.71726H8.89961H8.24485C8.24485 3.45819 8.84522 4.05952 9.58668 4.05952V3.40476ZM11.6479 2.71726H10.9931C10.9931 2.73573 10.9783 2.75 10.9608 2.75V3.40476V4.05952C11.7023 4.05952 12.3027 3.45819 12.3027 2.71726H11.6479ZM10.9608 0.654762V1.30952C10.9783 1.30952 10.9931 1.3238 10.9931 1.34226H11.6479H12.3027C12.3027 0.601337 11.7023 0 10.9608 0V0.654762ZM9.58668 0.654762V0C8.84522 0 8.24485 0.601337 8.24485 1.34226H8.89961H9.55437C9.55437 1.3238 9.56922 1.30952 9.58668 1.30952V0.654762ZM1.34183 8.90476V9.55952H2.71597V8.90476V8.25H1.34183V8.90476ZM3.40304 9.59226H2.74828V10.9673H3.40304H4.05781V9.59226H3.40304ZM2.71597 11.6548V11H1.34183V11.6548V12.3095H2.71597V11.6548ZM0.654762 10.9673H1.30952V9.59226H0.654762H0V10.9673H0.654762ZM1.34183 11.6548V11C1.32437 11 1.30952 10.9857 1.30952 10.9673H0.654762H0C0 11.7082 0.600373 12.3095 1.34183 12.3095V11.6548ZM3.40304 10.9673H2.74828C2.74828 10.9857 2.73343 11 2.71597 11V11.6548V12.3095C3.45743 12.3095 4.05781 11.7082 4.05781 10.9673H3.40304ZM2.71597 8.90476V9.55952C2.73343 9.55952 2.74828 9.57379 2.74828 9.59226H3.40304H4.05781C4.05781 8.85134 3.45743 8.25 2.71597 8.25V8.90476ZM1.34183 8.90476V8.25C0.600373 8.25 0 8.85134 0 9.59226H0.654762H1.30952C1.30952 9.57379 1.32437 9.55952 1.34183 9.55952V8.90476ZM6.15133 0.654762H5.49656V1.34226H6.15133H6.80609V0.654762H6.15133ZM10.2737 8.90476V9.55952H11.6479V8.90476V8.25H10.2737V8.90476ZM6.15133 8.90476V9.55952H7.52547V8.90476V8.25H6.15133V8.90476ZM6.15133 8.90476H5.49656V11.6548H6.15133H6.80609V8.90476H6.15133ZM6.15133 4.09226H5.49656V6.15476H6.15133H6.80609V4.09226H6.15133ZM8.89961 11.6548V12.3095H11.6479V11.6548V11H8.89961V11.6548ZM0.654762 6.15476V6.80952H3.40304V6.15476V5.5H0.654762V6.15476ZM6.15133 6.15476V6.80952H6.1582V6.15476V5.5H6.15133V6.15476ZM11.6479 6.15476V6.80952H11.6548V6.15476V5.5H11.6479V6.15476ZM6.15133 6.15476V6.80952H8.90648V6.15476V5.5H6.15133V6.15476Z" fill="var(--stroke-0, #191F28)"/>
</svg>
