<svg preserveAspectRatio="none" width="100%" height="100%" overflow="visible" style="display: block;" viewBox="0 0 24 24" fill="none" xmlns="http://www.w3.org/2000/svg">
<g id="Shape">
<g id="Normal">
<path fill-rule="evenodd" clip-rule="evenodd" d="M16.9553 18.4907C15.9707 19.5136 14.9893 20.3493 14.2551 20.9289C13.8507 21.2481 13.4392 21.5619 13.0102 21.8488C12.7062 22.051 12.2917 22.0502 11.988 21.8476C11.5597 21.561 11.1487 21.2477 10.7449 20.9289C10.0107 20.3493 9.02931 19.5136 8.04474 18.4907C6.11599 16.4869 4 13.5852 4 10.3801C4 5.75188 7.80558 2 12.5 2C17.1944 2 21 5.75188 21 10.3801C21 13.5852 18.884 16.4869 16.9553 18.4907ZM12.5 3.79553C8.81153 3.79553 5.82143 6.74344 5.82143 10.3799C5.82143 12.8551 7.50008 15.3159 9.36598 17.2545C10.5918 18.528 11.8281 19.5023 12.5 19.9982C13.1719 19.5023 14.4082 18.528 15.634 17.2545C17.4999 15.3159 19.1786 12.8551 19.1786 10.3799C19.1786 6.74344 16.1885 3.79553 12.5 3.79553Z" fill="#191F28"/>
<path fill-rule="evenodd" clip-rule="evenodd" d="M12.5001 6.73873C10.4603 6.73873 8.80669 8.36901 8.80669 10.3801C8.80669 12.3911 10.4603 14.0214 12.5001 14.0214C14.54 14.0214 16.1936 12.3911 16.1936 10.3801C16.1936 8.36901 14.54 6.73873 12.5001 6.73873ZM10.6281 10.3801C10.6281 9.36077 11.4662 8.53446 12.5001 8.53446C13.534 8.53446 14.3722 9.36077 14.3722 10.3801C14.3722 11.3994 13.534 12.2257 12.5001 12.2257C11.4662 12.2257 10.6281 11.3994 10.6281 10.3801Z" fill="#191F28"/>
</g>
</g>
</svg>
