<svg preserveAspectRatio="none" width="100%" height="100%" overflow="visible" style="display: block;" viewBox="0 0 24 24" fill="none" xmlns="http://www.w3.org/2000/svg">
<g id="Shape">
<path id="Normal" d="M12 3C12.5026 3 12.9101 3.40747 12.9101 3.91011V11.0899H20.0899C20.5925 11.0899 21 11.4974 21 12C21 12.5026 20.5925 12.9101 20.0899 12.9101H12.9101V20.0899C12.9101 20.5925 12.5026 21 12 21C11.4974 21 11.0899 20.5925 11.0899 20.0899V12.9101H3.91011C3.40747 12.9101 3 12.5026 3 12C3 11.4974 3.40747 11.0899 3.91011 11.0899H11.0899V3.91011C11.0899 3.40747 11.4974 3 12 3Z" fill="var(--fill-0, #191F28)"/>
</g>
</svg>
