<svg preserveAspectRatio="none" width="100%" height="100%" overflow="visible" style="display: block;" viewBox="0 0 24 24" fill="none" xmlns="http://www.w3.org/2000/svg">
<g id="Shape">
<path id="Normal" fill-rule="evenodd" clip-rule="evenodd" d="M17.1312 20.91C14.9091 20.4598 11.5174 19.2158 8.1508 15.8492C4.78423 12.4826 3.54016 9.09086 3.09003 6.86883C2.71639 5.02439 3.55237 3.32536 4.73671 2.14102L5.01345 1.86428C6.30268 0.575055 8.44097 0.752025 9.50071 2.23566L10.9502 4.26498C11.644 5.23629 11.5339 6.56683 10.6899 7.41087L9.84632 8.25441C10.1026 8.87097 10.7581 10.1112 12.3235 11.6765C13.8888 13.2419 15.129 13.8974 15.7456 14.1537L16.5891 13.3101C17.4332 12.4661 18.7637 12.356 19.735 13.0498L21.7643 14.4993C23.248 15.559 23.4249 17.6973 22.1357 18.9865L21.859 19.2633C20.6746 20.4476 18.9756 21.2836 17.1312 20.91ZM9.44576 14.5542C12.5207 17.6292 15.5705 18.7253 17.4948 19.1151C18.5488 19.3286 19.6572 18.8751 20.564 17.9683L20.8408 17.6916C21.3298 17.2026 21.2627 16.3915 20.6999 15.9895L18.6706 14.54C18.4277 14.3666 18.0951 14.3941 17.8841 14.6051L17.025 15.4642C16.5751 15.9141 15.8539 16.1685 15.1377 15.8835C14.3127 15.5551 12.828 14.771 11.0285 12.9715C9.22896 11.172 8.44492 9.68729 8.11655 8.86225C7.8315 8.14607 8.08591 7.4249 8.53582 6.97499L9.3949 6.1159C9.60591 5.90489 9.63344 5.57226 9.46 5.32943L8.01048 3.30011C7.60851 2.73735 6.79743 2.67022 6.30841 3.15924L6.03167 3.43598C5.12488 4.34277 4.67141 5.45123 4.88492 6.50523C5.27474 8.42955 6.37081 11.4793 9.44576 14.5542Z" fill="var(--fill-0, #191F28)"/>
</g>
</svg>
