<svg preserveAspectRatio="none" width="100%" height="100%" overflow="visible" style="display: block;" viewBox="0 0 20 20" fill="none" xmlns="http://www.w3.org/2000/svg">
<g id="Shape">
<path id="Normal" d="M10 2.5C10.4189 2.5 10.7584 2.83956 10.7584 3.25843V9.24157H16.7416C17.1604 9.24157 17.5 9.58113 17.5 10C17.5 10.4189 17.1604 10.7584 16.7416 10.7584H10.7584V16.7416C10.7584 17.1604 10.4189 17.5 10 17.5C9.58113 17.5 9.24157 17.1604 9.24157 16.7416V10.7584H3.25843C2.83956 10.7584 2.5 10.4189 2.5 10C2.5 9.58113 2.83956 9.24157 3.25843 9.24157H9.24157V3.25843C9.24157 2.83956 9.58113 2.5 10 2.5Z" fill="var(--fill-0, #191F28)"/>
</g>
</svg>
