<svg preserveAspectRatio="none" width="100%" height="100%" overflow="visible" style="display: block;" viewBox="0 0 12 12" fill="none" xmlns="http://www.w3.org/2000/svg">
<g id="Shape">
<path id="Normal" fill-rule="evenodd" clip-rule="evenodd" d="M8.06559 10.955C6.95457 10.7299 5.25868 10.1079 3.5754 8.4246C1.89211 6.74132 1.27008 5.04543 1.04501 3.93441C0.858195 3.0122 1.27618 2.16268 1.86836 1.57051L2.00673 1.43214C2.65134 0.787528 3.72049 0.876013 4.25035 1.61783L4.97511 2.63249C5.32201 3.11815 5.26695 3.78341 4.84493 4.20543L4.42316 4.62721C4.55128 4.93548 4.87903 5.55558 5.66173 6.33827C6.44442 7.12097 7.06452 7.44872 7.37279 7.57684L7.79457 7.15507C8.21659 6.73305 8.88185 6.67799 9.36751 7.02489L10.3822 7.74965C11.124 8.27951 11.2125 9.34866 10.5679 9.99327L10.4295 10.1316C9.83732 10.7238 8.9878 11.1418 8.06559 10.955ZM4.22288 7.77712C5.76035 9.31459 7.28523 9.86263 8.24739 10.0575C8.77439 10.1643 9.32862 9.93756 9.78201 9.48416L9.92038 9.34579C10.1649 9.10129 10.1313 8.69575 9.84995 8.49476L8.83528 7.77C8.71387 7.68328 8.54755 7.69704 8.44205 7.80255L8.01251 8.23209C7.78755 8.45705 7.42697 8.58425 7.06887 8.44173C6.65635 8.27754 5.91401 7.88552 5.01425 6.98575C4.11448 6.08599 3.72246 5.34365 3.55827 4.93113C3.41575 4.57303 3.54295 4.21245 3.76791 3.98749L4.19745 3.55795C4.30296 3.45245 4.31672 3.28613 4.23 3.16472L3.50524 2.15005C3.30425 1.86868 2.89871 1.83511 2.65421 2.07962L2.51584 2.21799C2.06244 2.67138 1.8357 3.22561 1.94246 3.75261C2.13737 4.71477 2.68541 6.23965 4.22288 7.77712Z" fill="var(--fill-0, #6B7684)"/>
</g>
</svg>
