<svg preserveAspectRatio="none" width="100%" height="100%" overflow="visible" style="display: block;" viewBox="0 0 20 20" fill="none" xmlns="http://www.w3.org/2000/svg">
<g id="Shape">
<path id="Normal" fill-rule="evenodd" clip-rule="evenodd" d="M13.3049 17.928C11.5273 17.5679 8.81389 16.5726 6.12064 13.8794C3.42738 11.1861 2.43213 8.47269 2.07202 6.69506C1.77311 5.21952 2.4419 3.86029 3.38937 2.91281L3.61076 2.69142C4.64214 1.66004 6.35278 1.80162 7.20057 2.98852L8.36018 4.61198C8.91522 5.38904 8.82712 6.45346 8.15189 7.12869L7.47705 7.80353C7.68204 8.29677 8.20645 9.28892 9.45876 10.5412C10.7111 11.7936 11.7032 12.318 12.1965 12.5229L12.8713 11.8481C13.5465 11.1729 14.611 11.0848 15.388 11.6398L17.0115 12.7994C18.1984 13.6472 18.34 15.3579 17.3086 16.3892L17.0872 16.6106C16.1397 17.5581 14.7805 18.2269 13.3049 17.928ZM7.15661 12.8434C9.61657 15.3034 12.0564 16.1802 13.5958 16.4921C14.439 16.6629 15.3258 16.3001 16.0512 15.5747L16.2726 15.3533C16.6638 14.9621 16.6101 14.3132 16.1599 13.9916L14.5365 12.832C14.3422 12.6932 14.0761 12.7153 13.9073 12.8841L13.22 13.5713C12.8601 13.9313 12.2831 14.1348 11.7102 13.9068C11.0502 13.6441 9.86242 13.0168 8.42279 11.5772C6.98317 10.1376 6.35594 8.94983 6.09324 8.2898C5.8652 7.71686 6.06873 7.13992 6.42866 6.77999L7.11592 6.09272C7.28473 5.92392 7.30675 5.65781 7.168 5.46355L6.00838 3.84009C5.68681 3.38988 5.03794 3.33618 4.64673 3.72739L4.42534 3.94878C3.69991 4.67421 3.33712 5.56098 3.50794 6.40418C3.81979 7.94364 4.69665 10.3834 7.15661 12.8434Z" fill="var(--fill-0, #6B7684)"/>
</g>
</svg>
