<svg width="24" height="24" viewBox="0 0 24 24" fill="none" xmlns="http://www.w3.org/2000/svg">
<path d="M7 7H7.01M7 3H12C12.5119 2.99999 13.0237 3.19525 13.4142 3.58579L20.4143 10.5858C21.1953 11.3668 21.1953 12.6332 20.4143 13.4142L13.4142 20.4142C12.6332 21.1953 11.3668 21.1953 10.5858 20.4142L3.58579 13.4142C3.19526 13.0237 3 12.5118 3 12V7C3 4.79086 4.79086 3 7 3Z" stroke="#191F28" stroke-width="2" stroke-linecap="round" stroke-linejoin="round"/>
<circle cx="16.5" cy="6.5" r="5.5" fill="#00C66F"/>
<path d="M16.4941 1.99902C16.9075 1.99902 17.2422 2.33472 17.2422 2.74805V5.74414H20.252C20.6653 5.74414 21 6.07886 21 6.49219C20.9998 6.9053 20.6651 7.24023 20.252 7.24023H17.2422V10.252C17.2417 10.6648 16.9072 11 16.4941 11C16.0811 11 15.7466 10.6648 15.7461 10.252V7.24023H12.748C12.3351 7.23992 12.0003 6.90511 12 6.49219C12 6.07905 12.335 5.74445 12.748 5.74414H15.7461V2.74805C15.7461 2.33472 16.0808 1.99902 16.4941 1.99902Z" fill="white"/>
</svg>
