<svg preserveAspectRatio="none" width="100%" height="100%" overflow="visible" style="display: block;" viewBox="0 0 24 24" fill="none" xmlns="http://www.w3.org/2000/svg">
<g id="Shape">
<path id="Normal" d="M9.92708 7.2161L8.59462 5.88364C11.5402 4.14178 15.4001 4.53765 17.9312 7.06876C20.9307 10.0683 20.9307 14.9316 17.9312 17.9312C14.9316 20.9307 10.0684 20.9307 7.06882 17.9312C5.56864 16.431 4.81893 14.4665 4.81915 12.4991C4.81921 11.9967 4.41202 11.5895 3.90968 11.5894C3.40733 11.5893 3.00006 11.9965 3 12.4989C2.99972 14.9291 3.9274 17.3624 5.78249 19.2175C9.49247 22.9275 15.5075 22.9275 19.2175 19.2175C22.9275 15.5075 22.9275 9.49241 19.2175 5.78242C15.9714 2.53627 10.9624 2.13103 7.27489 4.5639L5.99662 3.28562C5.73648 3.02548 5.34526 2.94766 5.00537 3.08845C4.66549 3.22924 4.44388 3.5609 4.44388 3.92879L4.44388 7.85927C4.44388 8.1005 4.53971 8.33186 4.71028 8.50244C4.88086 8.67302 5.11222 8.76885 5.35345 8.76885H9.28391C9.6518 8.76885 9.98346 8.54723 10.1242 8.20735C10.265 7.86746 10.1872 7.47624 9.92708 7.2161Z" fill="var(--fill-0, #191F28)"/>
</g>
</svg>
