<svg width="24" height="24" viewBox="0 0 24 24" fill="none" xmlns="http://www.w3.org/2000/svg">
<path d="M12 2L12.2871 2.01367C12.9557 2.07777 13.6087 2.36651 14.1211 2.87891L21.1211 9.87891C22.2927 11.0505 22.2927 12.9495 21.1211 14.1211L14.1211 21.1211C12.9495 22.2927 11.0505 22.2927 9.87891 21.1211L2.87891 14.1211C2.29332 13.5355 2 12.7662 2 12V7C2 4.23858 4.23858 2 7 2H12ZM7.00977 6C7.56205 6 8.00977 6.44772 8.00977 7C8.00977 7.55228 7.56205 8 7.00977 8H7C6.44772 8 6 7.55228 6 7C6 6.44772 6.44772 6 7 6H7.00977ZM4 12C4 12.2575 4.09751 12.5116 4.29297 12.707L11.293 19.707C11.6835 20.0976 12.3165 20.0976 12.707 19.707L19.707 12.707C20.0976 12.3165 20.0976 11.6835 19.707 11.293L12.707 4.29297C12.5115 4.09748 12.2575 3.99999 12 4H7C5.34315 4 4 5.34315 4 7V12Z" fill="#191F28"/>
<path d="M22 6.5C22 9.53757 19.5376 12 16.5 12C13.4624 12 11 9.53757 11 6.5C11 3.46243 13.4624 1 16.5 1C19.5376 1 22 3.46243 22 6.5Z" fill="#FF6362"/>
<path d="M17.9637 3.34935C18.4296 2.88355 19.1848 2.88355 19.6506 3.34935C20.1165 3.81514 20.1165 4.57034 19.6506 5.03613L19.1777 5.50899L17.4909 3.8222L17.9637 3.34935Z" fill="white"/>
<path d="M17.0274 4.28609L13 8.31321V10H14.6869L18.7143 5.97287L17.0274 4.28609Z" fill="white"/>
</svg>
