<svg preserveAspectRatio="none" width="100%" height="100%" overflow="visible" style="display: block;" viewBox="0 0 16 16" fill="none" xmlns="http://www.w3.org/2000/svg">
<g id="Shape">
<path id="Normal" d="M6.57291 4.71803L5.66123 3.80635C7.67665 2.61455 10.3176 2.88541 12.0494 4.61722C14.1017 6.66956 14.1017 9.99706 12.0494 12.0494C9.99708 14.1017 6.66959 14.1017 4.61726 12.0494C3.59082 11.0229 3.07786 9.67883 3.07801 8.3327C3.07805 7.98899 2.79945 7.71033 2.45575 7.71029C2.11204 7.71025 1.83337 7.98885 1.83333 8.33256C1.83314 9.99535 2.46787 11.6602 3.73714 12.9295C6.27555 15.4679 10.3911 15.4679 12.9295 12.9295C15.4679 10.3911 15.4679 6.27551 12.9295 3.73709C10.7085 1.51604 7.28131 1.23877 4.75826 2.90337L3.88365 2.02876C3.70566 1.85077 3.43798 1.79753 3.20543 1.89385C2.97288 1.99018 2.82125 2.21711 2.82125 2.46882L2.82125 5.1581C2.82125 5.32315 2.88682 5.48145 3.00353 5.59816C3.12024 5.71487 3.27853 5.78044 3.44359 5.78044H6.13285C6.38457 5.78044 6.61149 5.62881 6.70782 5.39626C6.80415 5.1637 6.7509 4.89602 6.57291 4.71803Z" fill="var(--fill-0, #FF4242)"/>
</g>
</svg>
