<svg preserveAspectRatio="none" width="100%" height="100%" overflow="visible" style="display: block;" viewBox="0 0 24 24" fill="none" xmlns="http://www.w3.org/2000/svg">
<g id="Shape">
<g id="Normal">
<path fill-rule="evenodd" clip-rule="evenodd" d="M7.64311 12.0002C7.64311 9.86144 9.37005 8.12764 11.5003 8.12764C13.6306 8.12764 15.3576 9.86144 15.3576 12.0002C15.3576 14.1389 13.6306 15.8727 11.5003 15.8727C9.37005 15.8727 7.64311 14.1389 7.64311 12.0002ZM11.5003 9.99039C10.3948 9.99039 9.49849 10.8902 9.49849 12.0002C9.49849 13.1102 10.3948 14.01 11.5003 14.01C12.6059 14.01 13.5022 13.1102 13.5022 12.0002C13.5022 10.8902 12.6059 9.99039 11.5003 9.99039Z" fill="#8B95A1"/>
<path fill-rule="evenodd" clip-rule="evenodd" d="M9.67546 2.16763C10.2677 2.05746 10.8778 2 11.5004 2C12.1229 2 12.733 2.05746 13.3252 2.16763C14.3422 2.35679 14.7721 3.28763 14.9111 3.86731C15.0053 4.25973 15.2518 4.61109 15.626 4.82797C15.9998 5.04466 16.4258 5.08347 16.8111 4.96946C17.3806 4.80092 18.3962 4.71044 19.0676 5.49741C19.8585 6.42432 20.4839 7.499 20.8968 8.67524C21.24 9.6529 20.653 10.4903 20.223 10.9005C19.9316 11.1785 19.7518 11.5686 19.7518 12.0023C19.7518 12.4358 19.9314 12.8257 20.2225 13.1037C20.6523 13.5141 21.2389 14.3517 20.8952 15.3292C20.481 16.5074 19.8537 17.5835 19.0603 18.5112C18.3899 19.2951 17.3778 19.2062 16.8091 19.0389C16.4244 18.9257 15.9994 18.9648 15.6263 19.1811C15.2532 19.3973 15.007 19.7472 14.9123 20.1381C14.7721 20.7163 14.3418 21.643 13.3278 21.8319C12.7347 21.9424 12.1238 22 11.5004 22C10.8771 22 10.2663 21.9424 9.67339 21.832C8.65907 21.6431 8.22873 20.7159 8.08871 20.1376C7.99402 19.7464 7.7478 19.3964 7.37464 19.1801C7.00143 18.9637 6.57629 18.9247 6.19151 19.038C5.62274 19.2055 4.6102 19.2946 3.93965 18.5103C3.14714 17.5834 2.52034 16.5083 2.10627 15.3314C1.76241 14.3541 2.3487 13.5163 2.77833 13.1058C3.06928 12.8278 3.24875 12.4381 3.24875 12.0047C3.24875 11.5709 3.06885 11.1807 2.77727 10.9027C2.34725 10.4926 1.76015 9.6554 2.10306 8.67773C2.51573 7.50115 3.14095 6.42613 3.93178 5.49891C4.60338 4.71148 5.61942 4.80215 6.1891 4.97084C6.57446 5.08495 7.00052 5.04617 7.37445 4.82942C7.74878 4.61244 7.9954 4.26085 8.08942 3.86821C8.22827 3.28832 8.65807 2.35688 9.67546 2.16763ZM10.0345 3.99533C10.0302 3.99969 10.0243 4.00636 10.0167 4.01615C9.9758 4.06883 9.92605 4.16724 9.8934 4.3036C9.68543 5.17218 9.13506 5.95981 8.30214 6.44261C7.47014 6.92487 6.51673 7.00993 5.66422 6.75749C5.53046 6.71788 5.42082 6.71199 5.35491 6.72122C5.34235 6.72298 5.33346 6.72488 5.3275 6.72643C4.69408 7.47296 4.19312 8.33509 3.86023 9.27619C3.86187 9.28206 3.86464 9.29052 3.86926 9.30195C3.8942 9.36359 3.95402 9.45573 4.05504 9.55206C4.70006 10.1672 5.10413 11.0393 5.10413 12.0047C5.10413 12.969 4.70105 13.8402 4.0574 14.4552C3.95647 14.5516 3.89674 14.6438 3.87186 14.7055C3.86725 14.7169 3.86449 14.7254 3.86286 14.7312C4.19688 15.6726 4.69914 16.5348 5.33394 17.2811C5.33986 17.2827 5.34871 17.2846 5.36121 17.2863C5.42679 17.2956 5.53594 17.2898 5.66934 17.2506C6.52059 16.9999 7.47194 17.0856 8.30233 17.5669C9.1326 18.0481 9.68213 18.8323 9.8916 19.6976C9.92449 19.8335 9.97422 19.9313 10.015 19.9837C10.0226 19.9934 10.0285 20 10.0327 20.0044C10.5081 20.0916 10.9985 20.1373 11.5004 20.1373C12.0024 20.1373 12.4929 20.0915 12.9684 20.0043C12.9726 19.9999 12.9786 19.9933 12.9861 19.9836C13.0269 19.9313 13.0766 19.8335 13.1095 19.6977C13.3191 18.8328 13.8686 18.049 14.6986 17.5679C15.5287 17.0867 16.4798 17.0009 17.3309 17.2513C17.4643 17.2906 17.5734 17.2963 17.6389 17.2871C17.6514 17.2853 17.6602 17.2834 17.6662 17.2819C18.3016 16.5349 18.8044 15.6719 19.1385 14.7295C19.1368 14.7236 19.1341 14.7151 19.1295 14.7037C19.1046 14.642 19.0448 14.5499 18.9438 14.4534C18.2998 13.8384 17.8964 12.9669 17.8964 12.0023C17.8964 11.0372 18.3003 10.1652 18.945 9.55011C19.046 9.45375 19.1058 9.36159 19.1307 9.29994C19.1354 9.2885 19.1381 9.28003 19.1398 9.27417C18.8067 8.33333 18.3056 7.47148 17.6722 6.7252C17.6662 6.72365 17.6573 6.72175 17.6448 6.71999C17.5789 6.71077 17.4693 6.71664 17.3356 6.75621C16.4833 7.00843 15.5301 6.9233 14.6983 6.44115C13.8658 5.95858 13.3155 5.17147 13.1073 4.30338C13.0746 4.1671 13.0249 4.06877 12.984 4.01613C12.9764 4.00635 12.9705 3.99969 12.9662 3.99532C12.4914 3.90832 12.0016 3.86274 11.5004 3.86274C10.9991 3.86274 10.5093 3.90832 10.0345 3.99533ZM19.142 9.26362L19.1417 9.26572ZM19.1407 14.74L19.1405 14.7379ZM3.86065 14.7418L3.86088 14.7397ZM3.85802 9.26565L3.85825 9.26776Z" fill="#8B95A1"/>
</g>
</g>
</svg>
