<svg preserveAspectRatio="none" width="100%" height="100%" overflow="visible" style="display: block;" viewBox="0 0 24 24" fill="none" xmlns="http://www.w3.org/2000/svg">
<g id="Shape">
<g id="Normal">
<path d="M12.0003 15.4323C11.5114 15.4323 11.115 15.0257 11.115 14.5241V4.04873L9.04959 6.09481C8.69786 6.44324 8.13744 6.43315 7.79785 6.07228C7.45826 5.71141 7.46809 5.13642 7.81981 4.78799L11.3607 1.2803C11.5219 1.10757 11.7488 1 12.0003 1C12.2517 1 12.4787 1.10758 12.6399 1.28033L16.1807 4.78799C16.5325 5.13642 16.5423 5.71141 16.2027 6.07228C15.8631 6.43315 15.3027 6.44324 14.951 6.09481L12.8855 4.04873V14.5241C12.8855 15.0257 12.4892 15.4323 12.0003 15.4323Z" fill="#191F28"/>
<path d="M7.18094 8.06405C7.66965 8.06405 8.06584 8.47053 8.06584 8.97196C8.06584 9.47338 7.66965 9.87986 7.18094 9.87986H6.63987C5.83867 9.87986 5.64801 9.89107 5.51864 9.9342C5.18925 10.044 4.931 10.309 4.82398 10.6469C4.78194 10.7797 4.77102 10.9753 4.77102 11.7973V19.2653C4.77102 20.0873 4.78194 20.283 4.82398 20.4157C4.931 20.7536 5.18925 21.0186 5.51864 21.1284C5.64801 21.1715 5.83867 21.1827 6.63988 21.1827H17.3612C18.1624 21.1827 18.3531 21.1715 18.4824 21.1284C18.8118 21.0186 19.0701 20.7536 19.1771 20.4157C19.2191 20.283 19.23 20.0873 19.23 19.2653V11.7973C19.23 10.9753 19.2191 10.7797 19.1771 10.6469C19.0701 10.309 18.8118 10.044 18.4824 9.9342C18.3531 9.89107 18.1624 9.87986 17.3612 9.87986H16.8196C16.3309 9.87986 15.9347 9.47338 15.9347 8.97196C15.9347 8.47053 16.3309 8.06405 16.8196 8.06405H17.002C17.5232 8.06403 17.967 8.06402 18.3314 8.09456C18.7141 8.12665 19.0865 8.19693 19.4425 8.38303C19.9793 8.66362 20.4156 9.11134 20.6891 9.66202C20.8705 10.0273 20.939 10.4094 20.9703 10.8021C21 11.1759 21 11.6312 21 12.1659V18.8981C21 19.4328 21 19.8881 20.9703 20.262C20.939 20.6547 20.8705 21.0368 20.6891 21.402C20.4156 21.9527 19.9793 22.4004 19.4425 22.681C19.0865 22.8671 18.7141 22.9374 18.3314 22.9695C17.967 23 17.5232 23 17.002 23H6.99796C6.47678 23 6.033 23 5.66864 22.9695C5.28586 22.9374 4.91347 22.8671 4.55747 22.681C4.02075 22.4004 3.58438 21.9527 3.3109 21.402C3.12951 21.0368 3.06102 20.6547 3.02974 20.262C2.99998 19.8881 2.99999 19.4329 3 18.8981V12.166C2.99999 11.6313 2.99998 11.1759 3.02974 10.8021C3.06102 10.4094 3.12951 10.0273 3.3109 9.66202C3.58438 9.11134 4.02075 8.66362 4.55747 8.38303C4.91347 8.19693 5.28586 8.12665 5.66864 8.09456C6.03298 8.06402 6.47674 8.06403 6.99788 8.06405H7.18094Z" fill="#191F28"/>
</g>
</g>
</svg>
