<svg preserveAspectRatio="none" width="100%" height="100%" overflow="visible" style="display: block;" viewBox="0 0 24 24" fill="none" xmlns="http://www.w3.org/2000/svg">
<g id="Shape">
<path id="Normal" fill-rule="evenodd" clip-rule="evenodd" d="M9.77714 2C5.48195 2 2 5.48198 2 9.77722C2 14.0725 5.48195 17.5544 9.77714 17.5544C11.6056 17.5544 13.2866 16.9235 14.6144 15.8674L19.4875 20.7405C19.8335 21.0865 20.3945 21.0865 20.7405 20.7405C21.0865 20.3945 21.0865 19.8335 20.7405 19.4875L15.8674 14.6143C16.9234 13.2865 17.5543 11.6056 17.5543 9.77722C17.5543 5.48198 14.0723 2 9.77714 2ZM3.77201 9.77722C3.77201 6.46064 6.4606 3.77202 9.77714 3.77202C13.0937 3.77202 15.7823 6.46064 15.7823 9.77722C15.7823 13.0938 13.0937 15.7824 9.77714 15.7824C6.4606 15.7824 3.77201 13.0938 3.77201 9.77722Z" fill="var(--fill-0, #191F28)"/>
</g>
</svg>
