<svg preserveAspectRatio="none" width="100%" height="100%" overflow="visible" style="display: block;" viewBox="0 0 16 16" fill="none" xmlns="http://www.w3.org/2000/svg">
<g id="Shape">
<path id="Normal" fill-rule="evenodd" clip-rule="evenodd" d="M11.7705 1C10.5392 1 9.54098 2.02539 9.54098 3.29027C9.54098 3.46993 9.56112 3.64475 9.5992 3.81249L5.83713 5.91281C5.43146 5.47924 4.86116 5.2094 4.22951 5.2094C2.99818 5.2094 2 6.23479 2 7.49967C2 8.76455 2.99818 9.78994 4.22951 9.78994C4.86074 9.78994 5.4307 9.52047 5.83632 9.08739L9.59907 11.1881C9.56107 11.3557 9.54098 11.5303 9.54098 11.7097C9.54098 12.9746 10.5392 14 11.7705 14C13.0018 14 14 12.9746 14 11.7097C14 10.4448 13.0018 9.41946 11.7705 9.41946C11.1388 9.41946 10.5685 9.68929 10.1629 10.1229L6.40067 8.02247C6.43883 7.85455 6.45902 7.67953 6.45902 7.49967C6.45902 7.32023 6.43893 7.1456 6.40093 6.97804L10.1633 4.87756C10.5689 5.31089 11.1391 5.58054 11.7705 5.58054C13.0018 5.58054 14 4.55515 14 3.29027C14 2.02539 13.0018 1 11.7705 1ZM10.7213 3.29027C10.7213 2.69503 11.191 2.2125 11.7705 2.2125C12.3499 2.2125 12.8197 2.69503 12.8197 3.29027C12.8197 3.88551 12.3499 4.36805 11.7705 4.36805C11.191 4.36805 10.7213 3.88551 10.7213 3.29027ZM3.18033 7.49967C3.18033 6.90443 3.65006 6.4219 4.22951 6.4219C4.80895 6.4219 5.27869 6.90443 5.27869 7.49967C5.27869 8.09491 4.80895 8.57745 4.22951 8.57745C3.65006 8.57745 3.18033 8.09491 3.18033 7.49967ZM10.7213 11.7097C10.7213 11.1145 11.191 10.632 11.7705 10.632C12.3499 10.632 12.8197 11.1145 12.8197 11.7097C12.8197 12.305 12.3499 12.7875 11.7705 12.7875C11.191 12.7875 10.7213 12.305 10.7213 11.7097Z" fill="var(--fill-0, #191F28)"/>
</g>
</svg>
