<svg preserveAspectRatio="none" width="100%" height="100%" overflow="visible" style="display: block;" viewBox="0 0 16 16" fill="none" xmlns="http://www.w3.org/2000/svg">
<g id="Shape">
<path id="Normal" fill-rule="evenodd" clip-rule="evenodd" d="M6.91188 2C4.19912 2 2 4.19914 2 6.91193C2 9.62471 4.19912 11.8239 6.91188 11.8239C8.06667 11.8239 9.12839 11.4253 9.96701 10.7583L13.0447 13.8361C13.2633 14.0546 13.6176 14.0546 13.8361 13.8361C14.0546 13.6176 14.0546 13.2633 13.8361 13.0447L10.7584 9.96696C11.4253 9.12835 11.8238 8.06667 11.8238 6.91193C11.8238 4.19914 9.62464 2 6.91188 2ZM3.11916 6.91193C3.11916 4.81725 4.81722 3.11917 6.91188 3.11917C9.00654 3.11917 10.7046 4.81725 10.7046 6.91193C10.7046 9.00661 9.00654 10.7047 6.91188 10.7047C4.81722 10.7047 3.11916 9.00661 3.11916 6.91193Z" fill="var(--fill-0, #6B7684)"/>
</g>
</svg>
