<svg preserveAspectRatio="none" width="100%" height="100%" overflow="visible" style="display: block;" viewBox="0 0 24 24" fill="none" xmlns="http://www.w3.org/2000/svg">
<g id="Shape">
<path id="Normal" fill-rule="evenodd" clip-rule="evenodd" d="M16.6557 2C14.8088 2 13.3115 3.49865 13.3115 5.34732C13.3115 5.60989 13.3417 5.8654 13.3988 6.11056L7.7557 9.18027C7.14719 8.54657 6.29174 8.1522 5.34426 8.1522C3.49728 8.1522 2 9.65085 2 11.4995C2 13.3482 3.49728 14.8468 5.34426 14.8468C6.29111 14.8468 7.14605 14.453 7.75448 13.82L13.3986 16.8903C13.3416 17.1352 13.3115 17.3904 13.3115 17.6527C13.3115 19.5014 14.8088 21 16.6557 21C18.5027 21 20 19.5014 20 17.6527C20 15.804 18.5027 14.3054 16.6557 14.3054C15.7083 14.3054 14.8528 14.6997 14.2443 15.3334L8.601 12.2636C8.65825 12.0182 8.68852 11.7624 8.68852 11.4995C8.68852 11.2373 8.65839 10.982 8.6014 10.7371L14.2449 7.66721C14.8534 8.30053 15.7086 8.69464 16.6557 8.69464C18.5027 8.69464 20 7.19599 20 5.34732C20 3.49865 18.5027 2 16.6557 2ZM15.082 5.34732C15.082 4.47736 15.7866 3.77211 16.6557 3.77211C17.5249 3.77211 18.2295 4.47736 18.2295 5.34732C18.2295 6.21728 17.5249 6.92253 16.6557 6.92253C15.7866 6.92253 15.082 6.21728 15.082 5.34732ZM3.77049 11.4995C3.77049 10.6296 4.47509 9.92431 5.34426 9.92431C6.21343 9.92431 6.91803 10.6296 6.91803 11.4995C6.91803 12.3695 6.21343 13.0747 5.34426 13.0747C4.47509 13.0747 3.77049 12.3695 3.77049 11.4995ZM15.082 17.6527C15.082 16.7827 15.7866 16.0775 16.6557 16.0775C17.5249 16.0775 18.2295 16.7827 18.2295 17.6527C18.2295 18.5226 17.5249 19.2279 16.6557 19.2279C15.7866 19.2279 15.082 18.5226 15.082 17.6527Z" fill="var(--fill-0, #191F28)"/>
</g>
</svg>
