<svg preserveAspectRatio="none" width="100%" height="100%" overflow="visible" style="display: block;" viewBox="0 0 16 16" fill="none" xmlns="http://www.w3.org/2000/svg">
<g id="Shape">
<g id="Normal">
<path d="M8.00018 10.1842C7.67424 10.1842 7.41002 9.92544 7.41002 9.60623V2.9401L6.03306 4.24215C5.79858 4.46388 5.42496 4.45746 5.19857 4.22781C4.97217 3.99817 4.97873 3.63227 5.21321 3.41054L7.5738 1.17837C7.68123 1.06845 7.83255 1 8.00018 1C8.16783 1 8.31914 1.06846 8.42658 1.17839L10.7872 3.41054C11.0216 3.63227 11.0282 3.99817 10.8018 4.22781C10.5754 4.45746 10.2018 4.46388 9.96731 4.24215L8.59035 2.9401V9.60623C8.59035 9.92544 8.32612 10.1842 8.00018 10.1842Z" fill="var(--fill-0, #FF4242)"/>
<path d="M4.78729 5.4953C5.1131 5.4953 5.37722 5.75397 5.37722 6.07306C5.37722 6.39215 5.1131 6.65082 4.78729 6.65082H4.42658C3.89244 6.65082 3.76534 6.65795 3.6791 6.6854C3.4595 6.75528 3.28734 6.92389 3.21599 7.13895C3.18796 7.22342 3.18068 7.3479 3.18068 7.87102V12.6234C3.18068 13.1465 3.18796 13.271 3.21599 13.3554C3.28734 13.5705 3.4595 13.7391 3.6791 13.809C3.76534 13.8364 3.89244 13.8436 4.42658 13.8436H11.5741C12.1083 13.8436 12.2354 13.8364 12.3216 13.809C12.5412 13.7391 12.7134 13.5705 12.7847 13.3554C12.8127 13.271 12.82 13.1465 12.82 12.6234V7.87102C12.82 7.3479 12.8127 7.22342 12.7847 7.13895C12.7134 6.92389 12.5412 6.75528 12.3216 6.6854C12.2354 6.65795 12.1083 6.65082 11.5741 6.65082H11.2131C10.8872 6.65082 10.6231 6.39215 10.6231 6.07306C10.6231 5.75397 10.8872 5.4953 11.2131 5.4953H11.3347C11.6821 5.49529 11.978 5.49529 12.2209 5.51472C12.4761 5.53514 12.7244 5.57986 12.9617 5.69829C13.3195 5.87685 13.6104 6.16176 13.7927 6.5122C13.9137 6.74463 13.9593 6.98777 13.9802 7.23769C14 7.47557 14 7.76531 14 8.10558V12.3897C14 12.7299 14 13.0197 13.9802 13.2576C13.9593 13.5075 13.9137 13.7507 13.7927 13.9831C13.6104 14.3335 13.3195 14.6185 12.9617 14.797C12.7244 14.9154 12.4761 14.9602 12.2209 14.9806C11.978 15 11.6821 15 11.3347 15H4.66531C4.31785 15 4.022 15 3.77909 14.9806C3.52391 14.9602 3.27565 14.9154 3.03831 14.797C2.6805 14.6185 2.38958 14.3335 2.20727 13.9831C2.08634 13.7507 2.04068 13.5075 2.01983 13.2576C1.99998 13.0197 1.99999 12.73 2 12.3897V8.10563C1.99999 7.76536 1.99998 7.47557 2.01983 7.23769C2.04068 6.98777 2.08634 6.74463 2.20727 6.5122C2.38958 6.16176 2.6805 5.87685 3.03831 5.69829C3.27565 5.57986 3.52391 5.53514 3.77909 5.51472C4.02199 5.49529 4.31782 5.49529 4.66525 5.4953H4.78729Z" fill="var(--fill-0, #FF4242)"/>
</g>
</g>
</svg>
