<svg preserveAspectRatio="none" width="100%" height="100%" overflow="visible" style="display: block;" viewBox="0 0 24 24" fill="none" xmlns="http://www.w3.org/2000/svg">
<g id="Shape">
<g id="Normal">
<path fill-rule="evenodd" clip-rule="evenodd" d="M12.2085 8.60661H3.90957C3.40723 8.60661 3 8.19856 3 7.69521C3 7.19187 3.40723 6.78382 3.90957 6.78382H12.209C12.6144 5.18371 14.0615 4 15.7846 4C17.5076 4 18.9547 5.18371 19.3602 6.78382H21.0904C21.5928 6.78382 22 7.19187 22 7.69521C22 8.19856 21.5928 8.60661 21.0904 8.60661H19.3607C18.9559 10.2077 17.5083 11.3924 15.7846 11.3924C14.0608 11.3924 12.6132 10.2077 12.2085 8.60661ZM13.9149 7.6962C13.9149 6.66154 14.752 5.82278 15.7846 5.82278C16.8172 5.82278 17.6543 6.66154 17.6543 7.6962C17.6543 8.73086 16.8172 9.56962 15.7846 9.56962C14.752 9.56962 13.9149 8.73086 13.9149 7.6962Z" fill="#191F28"/>
<path fill-rule="evenodd" clip-rule="evenodd" d="M5.63934 17.2142H3.90957C3.40723 17.2142 3 16.8062 3 16.3028C3 15.7995 3.40723 15.3914 3.90957 15.3914H5.63984C6.04528 13.7913 7.4924 12.6076 9.21544 12.6076C10.9385 12.6076 12.3856 13.7913 12.791 15.3914H21.0904C21.5928 15.3914 22 15.7995 22 16.3028C22 16.8062 21.5928 17.2142 21.0904 17.2142H12.7915C12.3868 18.8153 10.9392 20 9.21544 20C7.49169 20 6.04408 18.8153 5.63934 17.2142ZM7.34575 16.3038C7.34575 15.2691 8.18284 14.4304 9.21544 14.4304C10.248 14.4304 11.0851 15.2691 11.0851 16.3038C11.0851 17.3385 10.248 18.1772 9.21544 18.1772C8.18284 18.1772 7.34575 17.3385 7.34575 16.3038Z" fill="#191F28"/>
</g>
</g>
</svg>
