<svg width="24" height="24" viewBox="0 0 24 24" fill="none" xmlns="http://www.w3.org/2000/svg">
<path fill-rule="evenodd" clip-rule="evenodd" d="M10.0074 2.33502C11.1035 1.22227 12.8985 1.22235 13.9946 2.33504L15.1183 3.47569C15.3046 3.66473 15.5594 3.77025 15.8247 3.76826L17.4258 3.75628C18.9877 3.74458 20.2568 5.01384 20.2452 6.57571L20.2332 8.17684C20.2313 8.44223 20.3369 8.69706 20.5258 8.88321L21.6665 10.0069C22.7792 11.1031 22.7791 12.898 21.6664 13.9942L20.5258 15.1178C20.3368 15.3041 20.2313 15.559 20.2332 15.8243L20.2452 17.4254C20.2568 18.9873 18.9876 20.2564 17.4258 20.2448L15.8247 20.2328C15.5593 20.2308 15.3045 20.3364 15.1182 20.5254L13.9946 21.6661C12.8984 22.7788 11.1036 22.7788 10.0074 21.6661L8.88362 20.5254C8.69747 20.3364 8.4426 20.2308 8.17721 20.2328L6.57612 20.2448C5.01425 20.2564 3.74505 18.9873 3.75675 17.4254L3.76873 15.8242C3.77072 15.559 3.66514 15.3041 3.4761 15.1178L2.33552 13.9942C1.22279 12.898 1.2228 11.1031 2.33552 10.0069L3.47615 8.88319C3.66517 8.69698 3.77072 8.44216 3.76873 8.17683L3.75675 6.57571C3.74505 5.01376 5.01423 3.74458 6.57617 3.75628L8.17729 3.76826C8.44261 3.77025 8.69745 3.66468 8.88366 3.47566L10.0074 2.33502ZM12.7 3.6104C12.3156 3.22024 11.6863 3.22031 11.302 3.61038L10.1782 4.75107C9.64717 5.29016 8.9204 5.5912 8.16368 5.58553L6.56256 5.57355C6.01491 5.56945 5.56991 6.01444 5.57401 6.5621L5.58599 8.16323C5.59166 8.91995 5.29061 9.64674 4.75152 10.1778L3.61089 11.3016C3.22074 11.6859 3.22075 12.3152 3.61089 12.6996L4.75157 13.8233C5.29062 14.3544 5.59166 15.0811 5.58599 15.8379L5.57401 17.439C5.56991 17.9865 6.01491 18.4316 6.5626 18.4275L8.16377 18.4155C8.92038 18.4099 9.64717 18.7109 10.1783 19.2501L11.302 20.3907C11.6863 20.7808 12.3157 20.7808 12.7 20.3907L13.8237 19.25C14.3548 18.7109 15.0816 18.4099 15.8383 18.4155L17.4394 18.4275C17.987 18.4316 18.432 17.9865 18.4279 17.4389L18.4159 15.8378C18.4103 15.0811 18.7113 14.3543 19.2505 13.8232L20.3911 12.6996C20.7812 12.3152 20.7812 11.6859 20.3911 11.3015L19.2504 10.1778C18.7113 9.64668 18.4103 8.91983 18.4159 8.16322L18.4279 6.56209C18.432 6.01439 17.9869 5.56945 17.4394 5.57355L15.8383 5.58553C15.0815 5.5912 14.3547 5.29009 13.8236 4.75104L12.7 3.6104Z" fill="#8B95A1"/>
<circle cx="16.5" cy="6.5" r="5.5" fill="#00C66F"/>
<path d="M16.4941 1.99902C16.9075 1.99902 17.2422 2.33472 17.2422 2.74805V5.74414H20.252C20.6653 5.74414 21 6.07886 21 6.49219C20.9998 6.9053 20.6651 7.24023 20.252 7.24023H17.2422V10.252C17.2417 10.6648 16.9072 11 16.4941 11C16.0811 11 15.7466 10.6648 15.7461 10.252V7.24023H12.748C12.3351 7.23992 12.0003 6.90511 12 6.49219C12 6.07905 12.335 5.74445 12.748 5.74414H15.7461V2.74805C15.7461 2.33472 16.0808 1.99902 16.4941 1.99902Z" fill="white"/>
</svg>
