<svg preserveAspectRatio="none" width="100%" height="100%" overflow="visible" style="display: block;" viewBox="0 0 24 24" fill="none" xmlns="http://www.w3.org/2000/svg">
<g id="Shape">
<g id="Normal">
<path d="M9.97754 10.6182C10.4802 10.6182 10.8877 11.0152 10.8877 11.5049V16.4316C10.8877 16.9213 10.4802 17.3184 9.97754 17.3184C9.4749 17.3184 9.06743 16.9213 9.06743 16.4316V11.5049C9.06743 11.0152 9.4749 10.6182 9.97754 10.6182Z" fill="#191F28"/>
<path d="M14.0225 10.6182C14.5251 10.6182 14.9326 11.0152 14.9326 11.5049V16.4316C14.9326 16.9213 14.5251 17.3184 14.0225 17.3184C13.5198 17.3184 13.1124 16.9213 13.1124 16.4316V11.5049C13.1124 11.0152 13.5198 10.6182 14.0225 10.6182Z" fill="#191F28"/>
<path fill-rule="evenodd" clip-rule="evenodd" d="M20.0899 5.93824H16.4493C16.4493 5.44489 16.448 5.02265 16.4187 4.6733C16.3866 4.28985 16.3162 3.91682 16.1297 3.56019C15.8485 3.02253 15.3999 2.5854 14.8481 2.31145C14.4821 2.12974 14.0992 2.06113 13.7057 2.0298C13.3311 1.99998 12.8749 1.99999 12.3391 2H11.6607C11.1249 1.99999 10.6686 1.99998 10.294 2.0298C9.90049 2.06113 9.51764 2.12974 9.15165 2.31145C8.59984 2.5854 8.15121 3.02253 7.87006 3.56019C7.68357 3.91682 7.61315 4.28985 7.581 4.6733C7.55171 5.02265 7.55046 5.44489 7.55042 5.93824H3.91011C3.40747 5.93824 3 6.33527 3 6.82504C3 7.3148 3.40747 7.71183 3.91011 7.71183H4.51676L4.51675 17.995C4.51674 18.5171 4.51673 18.9617 4.54733 19.3267C4.57949 19.7101 4.6499 20.0832 4.83639 20.4398C5.11755 20.9775 5.56617 21.4146 6.11798 21.6886C6.48398 21.8703 6.86682 21.9389 7.26036 21.9702C7.63493 22 8.09114 22 8.62691 22H15.3728C15.9086 22 16.3649 22 16.7395 21.9702C17.133 21.9389 17.5158 21.8703 17.8818 21.6886C18.4336 21.4146 18.8823 20.9775 19.1634 20.4398C19.3499 20.0832 19.4203 19.7101 19.4525 19.3267C19.4831 18.9617 19.4831 18.5171 19.4831 17.9951V7.71183H20.0899C20.5925 7.71183 21 7.3148 21 6.82504C21 6.33527 20.5925 5.93824 20.0899 5.93824ZM14.6294 5.93824H9.371V5.63672C9.371 4.83411 9.38223 4.64312 9.42545 4.51353C9.53548 4.18356 9.80098 3.92486 10.1396 3.81765C10.2726 3.77554 10.4686 3.7646 11.2924 3.7646H12.7081C13.5318 3.7646 13.7278 3.77554 13.8608 3.81765C14.1995 3.92486 14.465 4.18356 14.575 4.51353C14.6182 4.64312 14.6294 4.83411 14.6294 5.63672V5.93824ZM6.33731 18.348V7.71183H17.6632V18.348C17.6632 19.1506 17.6519 19.3416 17.6087 19.4712C17.4987 19.8012 17.2332 20.0599 16.8945 20.1671C16.7615 20.2092 16.5655 20.2201 15.7418 20.2201H8.25866C7.43495 20.2201 7.23894 20.2092 7.10594 20.1671C6.76729 20.0599 6.50179 19.8012 6.39176 19.4712C6.34854 19.3416 6.33731 19.1506 6.33731 18.348Z" fill="#191F28"/>
</g>
</g>
</svg>
