<svg width="24" height="24" viewBox="0 0 24 24" fill="none" xmlns="http://www.w3.org/2000/svg">
<path fill-rule="evenodd" clip-rule="evenodd" d="M10.0064 2.33453C11.1026 1.22178 12.8975 1.22186 13.9936 2.33455L15.1173 3.4752C15.3036 3.66424 15.5584 3.76976 15.8237 3.76777L17.4248 3.75579C18.9867 3.7441 20.2558 5.01335 20.2442 6.57522L20.2322 8.17636C20.2303 8.44175 20.3359 8.69657 20.5249 8.88272L21.6655 10.0065C22.7782 11.1026 22.7782 12.8975 21.6655 13.9937L20.5248 15.1174C20.3358 15.3036 20.2303 15.5585 20.2322 15.8238L20.2442 17.4249C20.2558 18.9868 18.9867 20.2559 17.4248 20.2443L15.8237 20.2323C15.5583 20.2304 15.3035 20.3359 15.1173 20.5249L13.9936 21.6656C12.8974 22.7783 11.1026 22.7783 10.0064 21.6656L8.88264 20.5249C8.69649 20.3359 8.44162 20.2304 8.17623 20.2323L6.57514 20.2443C5.01327 20.2559 3.74408 18.9868 3.75578 17.4249L3.76776 15.8238C3.76974 15.5585 3.66416 15.3036 3.47512 15.1173L2.33454 13.9937C1.22181 12.8975 1.22183 11.1026 2.33454 10.0064L3.47518 8.8827C3.66419 8.69649 3.76974 8.44167 3.76776 8.17634L3.75578 6.57522C3.74408 5.01327 5.01325 3.7441 6.57519 3.75579L8.17631 3.76777C8.44164 3.76976 8.69647 3.66419 8.88268 3.47517L10.0064 2.33453ZM12.699 3.60992C12.3146 3.21976 11.6853 3.21982 11.3011 3.60989L10.1773 4.75058C9.64619 5.28967 8.91943 5.59071 8.1627 5.58504L6.56158 5.57306C6.01393 5.56896 5.56893 6.01396 5.57303 6.56161L5.58502 8.16274C5.59068 8.91947 5.28963 9.64625 4.75054 10.1773L3.60991 11.3011C3.21977 11.6854 3.21978 12.3147 3.60991 12.6991L4.75059 13.8228C5.28964 14.3539 5.59068 15.0806 5.58502 15.8374L5.57303 17.4385C5.56893 17.986 6.01393 18.4311 6.56163 18.427L8.16279 18.415C8.9194 18.4094 9.64619 18.7104 10.1773 19.2496L11.301 20.3902C11.6854 20.7803 12.3147 20.7803 12.699 20.3902L13.8227 19.2495C14.3538 18.7104 15.0807 18.4094 15.8373 18.415L17.4384 18.427C17.986 18.4311 18.431 17.986 18.427 17.4384L18.415 15.8373C18.4094 15.0806 18.7104 14.3539 19.2495 13.8227L20.3901 12.6991C20.7802 12.3147 20.7802 11.6854 20.3901 11.3011L19.2494 10.1773C18.7103 9.64619 18.4094 8.91935 18.415 8.16273L18.427 6.5616C18.431 6.0139 17.986 5.56896 17.4384 5.57306L15.8373 5.58504C15.0806 5.59071 14.3538 5.2896 13.8226 4.75055L12.699 3.60992Z" fill="#191F28"/>
<circle cx="16.5" cy="6.5" r="5.5" fill="#00C66F"/>
<path d="M16.4941 2C16.9075 2 17.2422 2.33472 17.2422 2.74805V5.74414H20.252C20.6653 5.74414 21 6.07886 21 6.49219C20.9998 6.9053 20.6651 7.24023 20.252 7.24023H17.2422V10.252C17.2417 10.6648 16.9072 11 16.4941 11C16.0811 11 15.7466 10.6648 15.7461 10.252V7.24023H12.748C12.3351 7.23992 12.0003 6.90511 12 6.49219C12 6.07905 12.335 5.74445 12.748 5.74414H15.7461V2.74805C15.7461 2.33472 16.0808 2 16.4941 2Z" fill="white"/>
</svg>
