<svg preserveAspectRatio="none" width="100%" height="100%" overflow="visible" style="display: block;" viewBox="0 0 16 16" fill="none" xmlns="http://www.w3.org/2000/svg">
<g id="Shape">
<g id="Normal">
<path d="M6.65169 6.6018C6.98679 6.6018 7.25844 6.85987 7.25844 7.17822V10.3805C7.25844 10.6989 6.98679 10.9569 6.65169 10.9569C6.3166 10.9569 6.04495 10.6989 6.04495 10.3805V7.17822C6.04495 6.85987 6.3166 6.6018 6.65169 6.6018Z" fill="#FF4242"/>
<path d="M9.34833 6.6018C9.68342 6.6018 9.95507 6.85987 9.95507 7.17822V10.3805C9.95507 10.6989 9.68342 10.9569 9.34833 10.9569C9.01323 10.9569 8.74158 10.6989 8.74158 10.3805V7.17822C8.74158 6.85987 9.01323 6.6018 9.34833 6.6018Z" fill="#FF4242"/>
<path fill-rule="evenodd" clip-rule="evenodd" d="M13.3933 3.55986H10.9662C10.9662 3.23918 10.9654 2.96473 10.9458 2.73765C10.9244 2.48841 10.8774 2.24593 10.7531 2.01413C10.5657 1.66465 10.2666 1.38051 9.89873 1.20244C9.65473 1.08433 9.39949 1.03973 9.13714 1.01937C8.88743 0.999986 8.58328 0.999992 8.2261 1H7.7738C7.41661 0.999992 7.1124 0.999986 6.86268 1.01937C6.60033 1.03973 6.3451 1.08433 6.1011 1.20244C5.73323 1.38051 5.43414 1.66465 5.2467 2.01413C5.12238 2.24593 5.07544 2.48841 5.054 2.73765C5.03447 2.96473 5.03364 3.23918 5.03362 3.55986H2.60674C2.27165 3.55986 2 3.81793 2 4.13627C2 4.45462 2.27165 4.71269 2.60674 4.71269H3.01117L3.01117 11.3968C3.01116 11.7361 3.01115 12.0251 3.03156 12.2624C3.05299 12.5116 3.09994 12.7541 3.22426 12.9859C3.4117 13.3354 3.71078 13.6195 4.07865 13.7976C4.32265 13.9157 4.57788 13.9603 4.84024 13.9806C5.08995 14 5.39409 14 5.75127 14H10.2485C10.6057 14 10.9099 14 11.1596 13.9806C11.422 13.9603 11.6772 13.9157 11.9212 13.7976C12.2891 13.6195 12.5882 13.3354 12.7756 12.9859C12.8999 12.7541 12.9469 12.5116 12.9683 12.2624C12.9887 12.0251 12.9887 11.7361 12.9887 11.3968V4.71269H13.3933C13.7284 4.71269 14 4.45462 14 4.13627C14 3.81793 13.7284 3.55986 13.3933 3.55986ZM9.75296 3.55986H6.24734V3.36387C6.24734 2.84217 6.25482 2.71803 6.28363 2.63379C6.35699 2.41931 6.53399 2.25116 6.75975 2.18147C6.84842 2.1541 6.97909 2.14699 7.52824 2.14699H8.47206C9.0212 2.14699 9.15188 2.1541 9.24054 2.18147C9.46631 2.25116 9.64331 2.41931 9.71666 2.63379C9.74547 2.71803 9.75296 2.84217 9.75296 3.36387V3.55986ZM4.22488 11.6262V4.71269H11.7754V11.6262C11.7754 12.1479 11.768 12.272 11.7392 12.3563C11.6658 12.5707 11.4888 12.7389 11.263 12.8086C11.1744 12.836 11.0437 12.8431 10.4945 12.8431H5.50578C4.95663 12.8431 4.82596 12.836 4.73729 12.8086C4.51153 12.7389 4.33453 12.5707 4.26117 12.3563C4.23236 12.272 4.22488 12.1479 4.22488 11.6262Z" fill="#FF4242"/>
</g>
</g>
</svg>
