<svg preserveAspectRatio="none" width="100%" height="100%" overflow="visible" style="display: block;" viewBox="0 0 16 16" fill="none" xmlns="http://www.w3.org/2000/svg">
<g id="Shape">
<g id="Normal">
<path fill-rule="evenodd" clip-rule="evenodd" d="M8.30055 6.16704H2.62234C2.27863 6.16704 2 5.88651 2 5.54046C2 5.19441 2.27863 4.91388 2.62234 4.91388H8.30089C8.57829 3.8138 9.56843 3 10.7473 3C11.9263 3 12.9164 3.8138 13.1938 4.91388H14.3777C14.7214 4.91388 15 5.19441 15 5.54046C15 5.88651 14.7214 6.16704 14.3777 6.16704H13.1941C12.9172 7.26781 11.9268 8.08228 10.7473 8.08228C9.56794 8.08228 8.57748 7.26781 8.30055 6.16704ZM9.46809 5.54114C9.46809 4.82981 10.0408 4.25316 10.7473 4.25316C11.4539 4.25316 12.0266 4.82981 12.0266 5.54114C12.0266 6.25247 11.4539 6.82911 10.7473 6.82911C10.0408 6.82911 9.46809 6.25247 9.46809 5.54114Z" fill="#4E5968"/>
<path fill-rule="evenodd" clip-rule="evenodd" d="M3.80587 12.0848H2.62234C2.27863 12.0848 2 11.8042 2 11.4582C2 11.1121 2.27863 10.8316 2.62234 10.8316H3.80621C4.08361 9.73152 5.07375 8.91772 6.25267 8.91772C7.43159 8.91772 8.42172 9.73152 8.69912 10.8316H14.3777C14.7214 10.8316 15 11.1121 15 11.4582C15 11.8042 14.7214 12.0848 14.3777 12.0848H8.69947C8.42254 13.1855 7.43207 14 6.25267 14C5.07326 14 4.08279 13.1855 3.80587 12.0848ZM4.97341 11.4589C4.97341 10.7475 5.54615 10.1709 6.25267 10.1709C6.95918 10.1709 7.53192 10.7475 7.53192 11.4589C7.53192 12.1702 6.95918 12.7468 6.25267 12.7468C5.54615 12.7468 4.97341 12.1702 4.97341 11.4589Z" fill="#4E5968"/>
</g>
</g>
</svg>
