<svg preserveAspectRatio="none" width="100%" height="100%" overflow="visible" style="display: block;" viewBox="0 0 16 16" fill="none" xmlns="http://www.w3.org/2000/svg">
<g id="Shape">
<g id="Normal">
<path d="M7.99985 2C8.16872 2 8.32102 2.0758 8.4286 2.1973L11.368 5.33868C11.5985 5.58499 11.5985 5.98434 11.368 6.23066C11.1375 6.47697 10.7638 6.47697 10.5334 6.23066L8.59002 4.15376V10.6899C8.59002 11.0383 8.32579 11.3207 7.99985 11.3207C7.67392 11.3207 7.40969 11.0383 7.40969 10.6899V4.15376L5.46634 6.23066C5.23587 6.47697 4.8622 6.47697 4.63173 6.23066C4.40125 5.98434 4.40125 5.58499 4.63173 5.33868L7.57111 2.1973C7.67868 2.0758 7.83098 2 7.99985 2Z" fill="white"/>
<path d="M14 10.6199C14 10.2716 13.7358 9.9892 13.4098 9.9892C13.0839 9.9892 12.8197 10.2716 12.8197 10.6199V12.407C12.8197 12.9779 12.8124 13.1137 12.7844 13.2059C12.713 13.4406 12.5409 13.6246 12.3213 13.7008C12.235 13.7308 12.1079 13.7386 11.5738 13.7386H4.42625C3.89211 13.7386 3.765 13.7308 3.67876 13.7008C3.45916 13.6246 3.287 13.4406 3.21565 13.2059C3.18763 13.1137 3.18034 12.9779 3.18034 12.407V10.6199C3.18034 10.2716 2.91612 9.9892 2.59017 9.9892C2.26423 9.9892 2 10.2716 2 10.6199V12.1515C1.99999 12.5228 1.99999 12.8391 2.01983 13.0986C2.04068 13.3714 2.08634 13.6367 2.20727 13.8903C2.38959 14.2727 2.6805 14.5836 3.03832 14.7785C3.27565 14.9077 3.52391 14.9565 3.77909 14.9788C4.02199 15 4.31783 15 4.66526 15H11.3347C11.6821 15 11.978 15 12.2209 14.9788C12.4761 14.9565 12.7244 14.9077 12.9617 14.7785C13.3195 14.5836 13.6104 14.2727 13.7927 13.8903C13.9137 13.6367 13.9593 13.3714 13.9802 13.0986C14 12.8391 14 12.5229 14 12.1516V10.6199Z" fill="white"/>
</g>
</g>
</svg>
