<svg preserveAspectRatio="none" width="100%" height="100%" overflow="visible" style="display: block;" viewBox="0 0 24 24" fill="none" xmlns="http://www.w3.org/2000/svg">
<g id="Shape">
<g id="Normal">
<path d="M11.9998 3C12.2531 3 12.4815 3.11078 12.6429 3.28835L17.052 7.87961C17.3977 8.23961 17.3977 8.82327 17.052 9.18327C16.7063 9.54326 16.1458 9.54326 15.8 9.18327L12.885 6.1478V15.7007C12.885 16.2098 12.4887 16.6225 11.9998 16.6225C11.5109 16.6225 11.1145 16.2098 11.1145 15.7007V6.1478L8.19952 9.18327C7.85381 9.54326 7.2933 9.54326 6.94759 9.18327C6.60188 8.82327 6.60188 8.23961 6.94759 7.87961L11.3567 3.28836C11.518 3.11079 11.7465 3 11.9998 3Z" fill="#191F28"/>
<path d="M21 15.5983C21 15.0892 20.6037 14.6765 20.1148 14.6765C19.6259 14.6765 19.2295 15.0892 19.2295 15.5983V18.2103C19.2295 19.0446 19.2186 19.2431 19.1766 19.3778C19.0695 19.7208 18.8113 19.9898 18.4819 20.1012C18.3525 20.145 18.1619 20.1563 17.3607 20.1563H6.63937C5.83816 20.1563 5.6475 20.145 5.51814 20.1012C5.18875 19.9898 4.9305 19.7208 4.82347 19.3778C4.78144 19.2431 4.77052 19.0446 4.77052 18.2103V15.5984C4.77052 15.0892 4.37417 14.6765 3.88526 14.6765C3.39635 14.6765 3 15.0892 3 15.5984V17.8368C2.99999 18.3795 2.99998 18.8417 3.02975 19.2211C3.06102 19.6197 3.12951 20.0075 3.3109 20.3782C3.58438 20.9371 4.02075 21.3915 4.55747 21.6763C4.91347 21.8651 5.28586 21.9365 5.66864 21.969C6.03298 22 6.47674 22 6.99789 22H17.002C17.5232 22 17.967 22 18.3314 21.969C18.7141 21.9365 19.0865 21.8651 19.4425 21.6763C19.9793 21.3915 20.4156 20.9371 20.6891 20.3782C20.8705 20.0075 20.939 19.6197 20.9703 19.2211C21 18.8417 21 18.3796 21 17.8369V15.5983Z" fill="#191F28"/>
</g>
</g>
</svg>
