<svg preserveAspectRatio="none" width="100%" height="100%" overflow="visible" style="display: block;" viewBox="0 0 24 24" fill="none" xmlns="http://www.w3.org/2000/svg">
<g id="Shape">
<g id="Normal">
<path fill-rule="evenodd" clip-rule="evenodd" d="M21.2215 2.77855C20.1834 1.74052 18.5003 1.74048 17.4622 2.77845L8.24504 11.9942C8.07686 12.1623 7.98237 12.3904 7.98237 12.6282V15.119C7.98237 15.6142 8.38389 16.0156 8.87918 16.0156H11.3703C11.6081 16.0156 11.8362 15.9211 12.0044 15.753L21.2215 6.53714C22.2595 5.49923 22.2595 3.81649 21.2215 2.77855ZM18.7304 4.04653C19.0681 3.70892 19.6155 3.70893 19.9532 4.04656C20.2908 4.38416 20.2908 4.93149 19.9532 5.26908L10.9988 14.2223H9.77598V12.9996L18.7304 4.04653Z" fill="#191F28"/>
<path d="M11.9708 3.26595C12.4646 3.26595 12.8649 3.66619 12.8649 4.15991C12.8649 4.65363 12.4646 5.05386 11.9708 5.05386H6.68698C5.87531 5.05386 5.68217 5.06493 5.55111 5.1075C5.21742 5.21591 4.9558 5.47749 4.84738 5.81113C4.8048 5.94216 4.79373 6.13528 4.79373 6.94682V17.3083C4.79373 18.1198 4.8048 18.313 4.84738 18.444C4.9558 18.7776 5.21742 19.0392 5.55111 19.1476C5.68217 19.1902 5.87531 19.2013 6.68698 19.2013H17.05C17.8617 19.2013 18.0548 19.1902 18.1859 19.1476C18.5196 19.0392 18.7812 18.7776 18.8896 18.444C18.9322 18.313 18.9433 18.1198 18.9433 17.3083V12.031C18.9433 11.5358 19.3447 11.1344 19.84 11.1344C20.3352 11.1344 20.7367 11.5358 20.7367 12.031V16.9505C20.7367 17.4783 20.7368 17.9279 20.7066 18.2969C20.6749 18.6847 20.6055 19.0618 20.4218 19.4224C20.1447 19.9661 19.7027 20.4081 19.1589 20.6851C18.7983 20.8688 18.421 20.9382 18.0333 20.9699C17.6642 21 17.2146 21 16.6867 21H7.05015C6.5222 21 6.07257 21 5.70347 20.9699C5.3157 20.9382 4.93845 20.8688 4.5778 20.6851C4.03407 20.4081 3.59201 19.9661 3.31496 19.4224C3.1312 19.0618 3.06182 18.6847 3.03013 18.2969C2.99998 17.9279 2.99999 17.4784 3 16.9506V7.31549C2.99999 6.78763 2.99998 6.33805 3.03013 5.96901C3.06182 5.5813 3.1312 5.2041 3.31496 4.84351C3.59201 4.29986 4.03407 3.85786 4.5778 3.58086C4.93845 3.39713 5.3157 3.32776 5.70348 3.29608C6.07257 3.26593 6.52212 3.26594 7.05006 3.26595H11.9708Z" fill="#191F28"/>
</g>
</g>
</svg>
