<svg width="32" height="32" viewBox="0 0 32 32" fill="none" xmlns="http://www.w3.org/2000/svg">
<path d="M25.3125 0H6.6875C2.9941 0 0 2.9941 0 6.6875V25.3125C0 29.0059 2.9941 32 6.6875 32H25.3125C29.0059 32 32 29.0059 32 25.3125V6.6875C32 2.9941 29.0059 0 25.3125 0Z" fill="#19D88C"/>
<path d="M22.4346 2.02072C22.6077 1.75319 22.9992 1.75319 23.1723 2.02072L24.3031 3.7682C24.416 3.94279 24.636 4.01425 24.8301 3.93941L26.772 3.19037C27.0694 3.0757 27.3861 3.30577 27.3689 3.62396L27.2566 5.70241C27.2454 5.91007 27.3813 6.09715 27.5823 6.15065L29.5936 6.68616C29.9016 6.76814 30.0226 7.14041 29.8217 7.38773L28.5092 9.00324C28.378 9.16465 28.378 9.39589 28.5092 9.5573L29.8217 11.1728C30.0226 11.4202 29.9016 11.7924 29.5936 11.8744L27.5823 12.4099C27.3813 12.4634 27.2454 12.6505 27.2566 12.8581L27.3689 14.9366C27.3861 15.2548 27.0694 15.4849 26.772 15.3702L24.8301 14.6211C24.636 14.5463 24.416 14.6178 24.3031 14.7924L23.1723 16.5398C22.9991 16.8074 22.6077 16.8074 22.4346 16.5398L21.3037 14.7924C21.1908 14.6178 20.9708 14.5463 20.7768 14.6211L18.8348 15.3702C18.5375 15.4849 18.2208 15.2548 18.238 14.9366L18.3502 12.8581C18.3615 12.6505 18.2255 12.4634 18.0246 12.4099L16.0132 11.8744C15.7052 11.7924 15.5843 11.4202 15.7852 11.1728L17.0977 9.5573C17.2289 9.39589 17.2289 9.16465 17.0977 9.00324L15.7852 7.38773C15.5843 7.14041 15.7052 6.76814 16.0132 6.68616L18.0246 6.15065C18.2255 6.09715 18.3615 5.91007 18.3502 5.70241L18.238 3.62396C18.2208 3.30577 18.5375 3.0757 18.8348 3.19037L20.7768 3.93941C20.9708 4.01425 21.1908 3.94279 21.3037 3.7682L22.4346 2.02072Z" fill="url(#paint0_linear_4386_71723)"/>
<path d="M6.82459 18.236C6.94604 18.0883 7.17214 18.0883 7.29359 18.236L8.61312 19.8405C8.66978 19.9094 8.75387 19.9499 8.84306 19.9513L10.9203 19.9825C11.1115 19.9854 11.2525 20.1621 11.2127 20.3492L10.7809 22.3813C10.7624 22.4685 10.7832 22.5595 10.8377 22.6301L12.1084 24.2736C12.2254 24.4248 12.1751 24.6453 12.0041 24.7308L10.1461 25.6602C10.0664 25.7001 10.0082 25.7731 9.98697 25.8597L9.4943 27.8779C9.44895 28.0637 9.24525 28.1618 9.07174 28.0814L7.18669 27.2083C7.10575 27.1708 7.01242 27.1708 6.93148 27.2083L5.04644 28.0814C4.87293 28.1618 4.66923 28.0637 4.62388 27.8779L4.13121 25.8597C4.11006 25.7731 4.05187 25.7001 3.97209 25.6602L2.11414 24.7308C1.94313 24.6453 1.89282 24.4248 2.00978 24.2736L3.28048 22.6301C3.33504 22.5595 3.35581 22.4685 3.33727 22.3813L2.90549 20.3492C2.86575 20.1621 3.00672 19.9854 3.19791 19.9825L5.27512 19.9513C5.36431 19.9499 5.4484 19.9094 5.50505 19.8405L6.82459 18.236Z" fill="url(#paint1_linear_4386_71723)"/>
<path d="M25.2687 13.85C26.0578 14.0616 26.5263 14.8728 26.3148 15.662L25.7249 17.8637C24.887 17.6394 24.026 18.137 23.8014 18.975C23.591 19.7606 24.0148 20.5665 24.7591 20.8492L24.9116 20.8992L24.3219 23.0998C24.1104 23.889 23.2991 24.3574 22.5099 24.146L4.67798 19.368C3.88879 19.1565 3.42036 18.3452 3.63182 17.556L4.22175 15.3543C5.05979 15.5789 5.92224 15.0825 6.14687 14.2445C6.37142 13.4064 5.87379 12.5447 5.0358 12.32L5.62478 10.1181C5.83625 9.32896 6.64757 8.86056 7.43678 9.07201L25.2687 13.85Z" fill="url(#paint2_linear_4386_71723)"/>
<path d="M25.1143 20.2203L18.3535 22.3165C16.3531 22.9367 15.2342 25.0611 15.8544 27.0615C16.4747 29.0618 18.5991 30.1807 20.5994 29.5605L27.3603 27.4643C29.3607 26.8441 30.4796 24.7197 29.8593 22.7193C29.2391 20.7189 27.1147 19.6001 25.1143 20.2203Z" fill="url(#paint3_linear_4386_71723)"/>
<defs>
<linearGradient id="paint0_linear_4386_71723" x1="9.89348" y1="27.0671" x2="33.7427" y2="3.91796" gradientUnits="userSpaceOnUse">
<stop stop-color="#36D69D"/>
<stop offset="0.578007" stop-color="#B7FFE6"/>
<stop offset="1" stop-color="white"/>
</linearGradient>
<linearGradient id="paint1_linear_4386_71723" x1="-7.09546" y1="41.4273" x2="14.619" y2="19.6559" gradientUnits="userSpaceOnUse">
<stop stop-color="#36D69D"/>
<stop offset="0.514772" stop-color="#B7FFE6"/>
<stop offset="1" stop-color="white"/>
</linearGradient>
<linearGradient id="paint2_linear_4386_71723" x1="6.20495" y1="26.1707" x2="10.2454" y2="8.29478" gradientUnits="userSpaceOnUse">
<stop stop-color="#36D69D"/>
<stop offset="0.553988" stop-color="#B7FFE6"/>
<stop offset="1" stop-color="white"/>
</linearGradient>
<linearGradient id="paint3_linear_4386_71723" x1="8.58164" y1="39.1953" x2="14.748" y2="15.0103" gradientUnits="userSpaceOnUse">
<stop stop-color="#36D69D"/>
<stop offset="0.567321" stop-color="#B7FFE6"/>
<stop offset="1" stop-color="white"/>
</linearGradient>
</defs>
</svg>
